%TF.GenerationSoftware,KiCad,Pcbnew,9.0.3*%
%TF.CreationDate,2025-08-17T21:24:33+09:00*%
%TF.ProjectId,accboard,61636362-6f61-4726-942e-6b696361645f,rev?*%
%TF.SameCoordinates,Original*%
%TF.FileFunction,Copper,L1,Top*%
%TF.FilePolarity,Positive*%
%FSLAX46Y46*%
G04 Gerber Fmt 4.6, Leading zero omitted, Abs format (unit mm)*
G04 Created by KiCad (PCBNEW 9.0.3) date 2025-08-17 21:24:33*
%MOMM*%
%LPD*%
G01*
G04 APERTURE LIST*
G04 Aperture macros list*
%AMRoundRect*
0 Rectangle with rounded corners*
0 $1 Rounding radius*
0 $2 $3 $4 $5 $6 $7 $8 $9 X,Y pos of 4 corners*
0 Add a 4 corners polygon primitive as box body*
4,1,4,$2,$3,$4,$5,$6,$7,$8,$9,$2,$3,0*
0 Add four circle primitives for the rounded corners*
1,1,$1+$1,$2,$3*
1,1,$1+$1,$4,$5*
1,1,$1+$1,$6,$7*
1,1,$1+$1,$8,$9*
0 Add four rect primitives between the rounded corners*
20,1,$1+$1,$2,$3,$4,$5,0*
20,1,$1+$1,$4,$5,$6,$7,0*
20,1,$1+$1,$6,$7,$8,$9,0*
20,1,$1+$1,$8,$9,$2,$3,0*%
G04 Aperture macros list end*
%TA.AperFunction,SMDPad,CuDef*%
%ADD10RoundRect,0.150000X0.150000X-0.512500X0.150000X0.512500X-0.150000X0.512500X-0.150000X-0.512500X0*%
%TD*%
%TA.AperFunction,SMDPad,CuDef*%
%ADD11RoundRect,0.135000X-0.185000X0.135000X-0.185000X-0.135000X0.185000X-0.135000X0.185000X0.135000X0*%
%TD*%
%TA.AperFunction,SMDPad,CuDef*%
%ADD12RoundRect,0.135000X0.135000X0.185000X-0.135000X0.185000X-0.135000X-0.185000X0.135000X-0.185000X0*%
%TD*%
%TA.AperFunction,SMDPad,CuDef*%
%ADD13RoundRect,0.135000X0.185000X-0.135000X0.185000X0.135000X-0.185000X0.135000X-0.185000X-0.135000X0*%
%TD*%
%TA.AperFunction,SMDPad,CuDef*%
%ADD14RoundRect,0.135000X-0.135000X-0.185000X0.135000X-0.185000X0.135000X0.185000X-0.135000X0.185000X0*%
%TD*%
%TA.AperFunction,SMDPad,CuDef*%
%ADD15RoundRect,0.450000X1.550000X-1.050000X1.550000X1.050000X-1.550000X1.050000X-1.550000X-1.050000X0*%
%TD*%
%TA.AperFunction,SMDPad,CuDef*%
%ADD16RoundRect,0.140000X0.140000X0.170000X-0.140000X0.170000X-0.140000X-0.170000X0.140000X-0.170000X0*%
%TD*%
%TA.AperFunction,SMDPad,CuDef*%
%ADD17RoundRect,0.450000X-1.550000X1.050000X-1.550000X-1.050000X1.550000X-1.050000X1.550000X1.050000X0*%
%TD*%
%TA.AperFunction,SMDPad,CuDef*%
%ADD18RoundRect,0.150000X-0.512500X-0.150000X0.512500X-0.150000X0.512500X0.150000X-0.512500X0.150000X0*%
%TD*%
%TA.AperFunction,SMDPad,CuDef*%
%ADD19RoundRect,0.140000X-0.140000X-0.170000X0.140000X-0.170000X0.140000X0.170000X-0.140000X0.170000X0*%
%TD*%
%TA.AperFunction,SMDPad,CuDef*%
%ADD20RoundRect,0.112500X0.112500X-0.187500X0.112500X0.187500X-0.112500X0.187500X-0.112500X-0.187500X0*%
%TD*%
%TA.AperFunction,SMDPad,CuDef*%
%ADD21RoundRect,0.140000X-0.170000X0.140000X-0.170000X-0.140000X0.170000X-0.140000X0.170000X0.140000X0*%
%TD*%
%TA.AperFunction,SMDPad,CuDef*%
%ADD22RoundRect,0.450000X-1.050000X-1.550000X1.050000X-1.550000X1.050000X1.550000X-1.050000X1.550000X0*%
%TD*%
%TA.AperFunction,SMDPad,CuDef*%
%ADD23RoundRect,0.140000X0.170000X-0.140000X0.170000X0.140000X-0.170000X0.140000X-0.170000X-0.140000X0*%
%TD*%
%TA.AperFunction,SMDPad,CuDef*%
%ADD24RoundRect,0.112500X-0.112500X-0.237500X0.112500X-0.237500X0.112500X0.237500X-0.112500X0.237500X0*%
%TD*%
%TA.AperFunction,SMDPad,CuDef*%
%ADD25RoundRect,0.112500X0.237500X-0.112500X0.237500X0.112500X-0.237500X0.112500X-0.237500X-0.112500X0*%
%TD*%
%TA.AperFunction,SMDPad,CuDef*%
%ADD26R,0.530098X0.254000*%
%TD*%
%TA.AperFunction,SMDPad,CuDef*%
%ADD27RoundRect,0.250000X0.475000X-0.250000X0.475000X0.250000X-0.475000X0.250000X-0.475000X-0.250000X0*%
%TD*%
%TA.AperFunction,SMDPad,CuDef*%
%ADD28R,0.200000X0.700001*%
%TD*%
%TA.AperFunction,SMDPad,CuDef*%
%ADD29R,0.499999X0.200000*%
%TD*%
%TA.AperFunction,SMDPad,CuDef*%
%ADD30RoundRect,0.150000X0.512500X0.150000X-0.512500X0.150000X-0.512500X-0.150000X0.512500X-0.150000X0*%
%TD*%
%TA.AperFunction,ViaPad*%
%ADD31C,0.500000*%
%TD*%
%TA.AperFunction,Conductor*%
%ADD32C,0.300000*%
%TD*%
%TA.AperFunction,Conductor*%
%ADD33C,0.200000*%
%TD*%
%TA.AperFunction,Conductor*%
%ADD34C,0.400000*%
%TD*%
%TA.AperFunction,Conductor*%
%ADD35C,0.500000*%
%TD*%
G04 APERTURE END LIST*
D10*
%TO.P,U2,1,VBUS_3P7*%
%TO.N,VCC*%
X102550000Y-51775000D03*
%TO.P,U2,2,GND*%
%TO.N,GND*%
X103500000Y-51775000D03*
%TO.P,U2,3,SIG_2*%
%TO.N,SIGNAL_2*%
X104450000Y-51775000D03*
%TO.P,U2,4,SIG_1*%
%TO.N,SIGNAL_1*%
X104450000Y-49500000D03*
%TO.P,U2,5,NC*%
%TO.N,unconnected-(U2-NC-Pad5)*%
X103500000Y-49500000D03*
%TO.P,U2,6,NC*%
%TO.N,unconnected-(U2-NC-Pad6)*%
X102550000Y-49500000D03*
%TD*%
D11*
%TO.P,R3,1*%
%TO.N,Net-(J2-VBUS(5V\u002C5))*%
X79500000Y-48980000D03*
%TO.P,R3,2*%
%TO.N,Net-(Q1-D)*%
X79500000Y-50000000D03*
%TD*%
D12*
%TO.P,R5,1*%
%TO.N,3.3V*%
X115275000Y-79625000D03*
%TO.P,R5,2*%
%TO.N,Net-(J6-PAD)*%
X114255000Y-79625000D03*
%TD*%
D13*
%TO.P,5K 5K,1*%
%TO.N,N/C*%
X110950000Y-59520000D03*
%TO.P,5K 5K,2*%
X110950000Y-58500000D03*
%TD*%
%TO.P,R9,1*%
%TO.N,VBUS*%
X105490000Y-59520000D03*
%TO.P,R9,2*%
%TO.N,GND*%
X105490000Y-58500000D03*
%TD*%
D14*
%TO.P,R7,1*%
%TO.N,Net-(U3-UART2)*%
X114940000Y-50500000D03*
%TO.P,R7,2*%
%TO.N,Net-(J2-UART(3))*%
X115960000Y-50500000D03*
%TD*%
D15*
%TO.P,5V,1,PAD*%
%TO.N,5V*%
X72000000Y-80000000D03*
%TD*%
D11*
%TO.P,R1,1*%
%TO.N,Net-(Q1-G)*%
X116950000Y-55000000D03*
%TO.P,R1,2*%
%TO.N,GND*%
X116950000Y-56020000D03*
%TD*%
D13*
%TO.P,R11,1*%
%TO.N,Net-(J7-PAD)*%
X113275000Y-73625000D03*
%TO.P,R11,2*%
%TO.N,Net-(Q5-D)*%
X113275000Y-72605000D03*
%TD*%
D16*
%TO.P,C6,1*%
%TO.N,Net-(J7-PAD)*%
X112985000Y-71125000D03*
%TO.P,C6,2*%
%TO.N,GND*%
X112025000Y-71125000D03*
%TD*%
D17*
%TO.P,J6,1,PAD*%
%TO.N,Net-(J6-PAD)*%
X99125000Y-67625000D03*
%TD*%
D18*
%TO.P,Q1,1,G*%
%TO.N,Net-(Q1-G)*%
X74225000Y-55550000D03*
%TO.P,Q1,2,S*%
%TO.N,VBUS*%
X74225000Y-57450000D03*
%TO.P,Q1,3,D*%
%TO.N,Net-(Q1-D)*%
X76500000Y-56500000D03*
%TD*%
D17*
%TO.P,J7,1,PAD*%
%TO.N,Net-(J7-PAD)*%
X80125000Y-78875000D03*
%TD*%
D19*
%TO.P,C1,1*%
%TO.N,VCC*%
X101990000Y-59000000D03*
%TO.P,C1,2*%
%TO.N,GND*%
X102950000Y-59000000D03*
%TD*%
D20*
%TO.P,D1,1,K*%
%TO.N,VBUS*%
X80000000Y-56137500D03*
%TO.P,D1,2,A*%
%TO.N,Net-(D1-A)*%
X80000000Y-54037500D03*
%TD*%
D21*
%TO.P,C2,1*%
%TO.N,Net-(D1-A)*%
X89000000Y-55137500D03*
%TO.P,C2,2*%
%TO.N,GND*%
X89000000Y-56097500D03*
%TD*%
D18*
%TO.P,U3,1,CAP*%
%TO.N,Net-(U3-CAP)*%
X109362500Y-49187500D03*
%TO.P,U3,2,SIG_IN*%
%TO.N,SIGNAL_1*%
X109362500Y-50137500D03*
%TO.P,U3,3,SIG_IN2*%
%TO.N,SIGNAL_2*%
X109362500Y-51087500D03*
%TO.P,U3,4,PMOS_GATE*%
%TO.N,PMOS_GATE*%
X109362000Y-52037500D03*
%TO.P,U3,5,UART*%
%TO.N,Net-(J2-UART(2))*%
X111640000Y-52037500D03*
%TO.P,U3,6,UART2*%
%TO.N,Net-(U3-UART2)*%
X111637500Y-51087500D03*
%TO.P,U3,7,IDBUS*%
%TO.N,Net-(J2-IDBUS(8))*%
X111637500Y-50137500D03*
%TO.P,U3,8,GND*%
%TO.N,GND*%
X111637500Y-49187500D03*
%TD*%
D22*
%TO.P,J5,1,PAD*%
%TO.N,Lightning_9_CONDET*%
X114750000Y-39150000D03*
%TD*%
D12*
%TO.P,R6,1*%
%TO.N,Net-(J2-UART(3))*%
X115950000Y-49000000D03*
%TO.P,R6,2*%
%TO.N,GND*%
X114930000Y-49000000D03*
%TD*%
D15*
%TO.P,3.3V,1,PAD*%
%TO.N,3.3V*%
X72000000Y-73500000D03*
%TD*%
D21*
%TO.P,C3,1*%
%TO.N,Net-(U1-C-)*%
X89000000Y-50137500D03*
%TO.P,C3,2*%
%TO.N,Net-(U1-C+)*%
X89000000Y-51097500D03*
%TD*%
D12*
%TO.P,R2,1*%
%TO.N,PMOS_GATE*%
X115950000Y-52137500D03*
%TO.P,R2,2*%
%TO.N,Net-(Q1-D)*%
X114930000Y-52137500D03*
%TD*%
D13*
%TO.P,R9,1*%
%TO.N,N/C*%
X108950000Y-59530000D03*
%TO.P,R9,2*%
X108950000Y-58510000D03*
%TD*%
D21*
%TO.P,C7,1*%
%TO.N,5V*%
X71500000Y-64480586D03*
%TO.P,C7,2*%
%TO.N,GND*%
X71500000Y-65440586D03*
%TD*%
D14*
%TO.P,R4,1*%
%TO.N,Net-(U4-VBUS_DET)*%
X114255000Y-80875000D03*
%TO.P,R4,2*%
%TO.N,VBUS*%
X115275000Y-80875000D03*
%TD*%
D23*
%TO.P,C9,1*%
%TO.N,5V*%
X110275000Y-80835000D03*
%TO.P,C9,2*%
%TO.N,GND*%
X110275000Y-79875000D03*
%TD*%
D24*
%TO.P,Q6,1,C*%
%TO.N,Lightning_9_CONDET*%
X111475000Y-69125000D03*
%TO.P,Q6,2,B*%
%TO.N,Net-(J7-PAD)*%
X112775000Y-69125000D03*
%TO.P,Q6,3,E*%
%TO.N,GND*%
X112125000Y-67125000D03*
%TD*%
D25*
%TO.P,Q3,1,B*%
%TO.N,VBUS*%
X85550000Y-55937500D03*
%TO.P,Q3,2,E*%
%TO.N,Net-(D1-A)*%
X85550000Y-54637500D03*
%TO.P,Q3,3,C*%
%TO.N,Net-(Q1-G)*%
X83550000Y-55287500D03*
%TD*%
D22*
%TO.P,J1,1,GND*%
%TO.N,GND*%
X69750000Y-94000000D03*
%TO.P,J1,2,VBUS1*%
%TO.N,VBUS*%
X74250000Y-94000000D03*
%TO.P,J1,3,CC1*%
%TO.N,Net-(J1-CC1)*%
X78750000Y-94000000D03*
%TO.P,J1,4,_*%
%TO.N,unconnected-(J1-_-Pad4)*%
X83250000Y-94000000D03*
%TO.P,J1,5,D-*%
%TO.N,D-*%
X87750000Y-94000000D03*
%TO.P,J1,6,D+*%
%TO.N,D+*%
X92250000Y-94000000D03*
%TO.P,J1,7,D-*%
%TO.N,D-*%
X96750000Y-94000000D03*
%TO.P,J1,8,D+*%
%TO.N,D+*%
X101250000Y-94000000D03*
%TO.P,J1,9,CC2*%
%TO.N,Net-(J1-CC2)*%
X105750000Y-94000000D03*
%TO.P,J1,10,_*%
%TO.N,unconnected-(J1-_-Pad10)*%
X110250000Y-94000000D03*
%TO.P,J1,11,VBUS2*%
%TO.N,VBUS*%
X114750000Y-94000000D03*
%TO.P,J1,12,GND*%
%TO.N,GND*%
X119250000Y-94000000D03*
%TD*%
D26*
%TO.P,U5,1,CONTROL*%
%TO.N,5V*%
X73479302Y-64484000D03*
%TO.P,U5,2,GND*%
%TO.N,GND*%
X73479302Y-64992000D03*
%TO.P,U5,3,VIN*%
%TO.N,5V*%
X73479302Y-65500000D03*
%TO.P,U5,4,VOUT*%
%TO.N,3.3V*%
X75000000Y-65500000D03*
%TO.P,U5,5,NC*%
%TO.N,unconnected-(U5-NC-Pad5)*%
X75000000Y-64484000D03*
%TD*%
D12*
%TO.P,R12,1*%
%TO.N,VBUS*%
X115535000Y-71125000D03*
%TO.P,R12,2*%
%TO.N,Net-(J7-PAD)*%
X114515000Y-71125000D03*
%TD*%
D10*
%TO.P,Q2,1,G*%
%TO.N,PMOS_GATE*%
X74600000Y-51000000D03*
%TO.P,Q2,2,S*%
%TO.N,Net-(Q1-D)*%
X76500000Y-51000000D03*
%TO.P,Q2,3,D*%
%TO.N,Net-(J2-VBUS(5V\u002C5))*%
X75550000Y-48725000D03*
%TD*%
D16*
%TO.P,C5,1*%
%TO.N,GND*%
X105460000Y-56000000D03*
%TO.P,C5,2*%
%TO.N,Net-(U3-CAP)*%
X104500000Y-56000000D03*
%TD*%
D18*
%TO.P,Q5,1,D*%
%TO.N,Net-(Q5-D)*%
X113525000Y-75375000D03*
%TO.P,Q5,2,G*%
%TO.N,Net-(J6-PAD)*%
X113525000Y-77275000D03*
%TO.P,Q5,3,S*%
%TO.N,GND*%
X115800000Y-76325000D03*
%TD*%
D27*
%TO.P,C8,1*%
%TO.N,3.3V*%
X77550000Y-65910586D03*
%TO.P,C8,2*%
%TO.N,GND*%
X77550000Y-64010586D03*
%TD*%
D22*
%TO.P,J2,1,GND(1)*%
%TO.N,GND*%
X106500000Y-39000000D03*
%TO.P,J2,2,UART(2)*%
%TO.N,Net-(J2-UART(2))*%
X102000000Y-39000000D03*
%TO.P,J2,3,UART(3)*%
%TO.N,Net-(J2-UART(3))*%
X97500000Y-39000000D03*
%TO.P,J2,4,VBUS(3.7V\u002C4)*%
%TO.N,VCC*%
X93000000Y-39000000D03*
%TO.P,J2,5,VBUS(5V\u002C5)*%
%TO.N,Net-(J2-VBUS(5V\u002C5))*%
X88500000Y-39000000D03*
%TO.P,J2,6,D-(6)*%
%TO.N,D-*%
X84000000Y-39000000D03*
%TO.P,J2,7,D+(7)*%
%TO.N,D+*%
X79500000Y-39000000D03*
%TO.P,J2,8,IDBUS(8)*%
%TO.N,Net-(J2-IDBUS(8))*%
X75000000Y-39000000D03*
%TD*%
D28*
%TO.P,U4,1,CC1*%
%TO.N,Net-(J1-CC1)*%
X112075000Y-81025001D03*
%TO.P,U4,2,CC2*%
%TO.N,Net-(J1-CC2)*%
X112475000Y-81025001D03*
D29*
%TO.P,U4,3,VBUS_DET*%
%TO.N,Net-(U4-VBUS_DET)*%
X113025001Y-80974999D03*
%TO.P,U4,4,DIR*%
%TO.N,unconnected-(U4-DIR-Pad4)*%
X113025001Y-80575000D03*
%TO.P,U4,5,ADDR*%
%TO.N,unconnected-(U4-ADDR-Pad5)*%
X113025001Y-80175000D03*
%TO.P,U4,6,OUT3*%
%TO.N,Net-(J6-PAD)*%
X113025001Y-79775001D03*
D28*
%TO.P,U4,7,OUT1*%
X112475000Y-79724999D03*
%TO.P,U4,8,OUT2*%
X112075000Y-79724999D03*
D29*
%TO.P,U4,9,ID*%
X111524999Y-79775001D03*
%TO.P,U4,10,GND*%
%TO.N,GND*%
X111524999Y-80175000D03*
%TO.P,U4,11,EN(ActiveL)*%
X111524999Y-80575000D03*
%TO.P,U4,12,VDD*%
%TO.N,5V*%
X111524999Y-80974999D03*
%TD*%
D14*
%TO.P,R8,1*%
%TO.N,VCC*%
X101930000Y-56000000D03*
%TO.P,R8,2*%
%TO.N,SIGNAL_1*%
X102950000Y-56000000D03*
%TD*%
D13*
%TO.P,R10,1*%
%TO.N,Net-(Q4-D)*%
X111525000Y-73645000D03*
%TO.P,R10,2*%
%TO.N,Net-(J7-PAD)*%
X111525000Y-72625000D03*
%TD*%
D10*
%TO.P,U1,1,VOUT*%
%TO.N,Net-(D1-A)*%
X84550000Y-51637500D03*
%TO.P,U1,2,GND*%
%TO.N,GND*%
X85500000Y-51637500D03*
%TO.P,U1,3,EN*%
%TO.N,VCC*%
X86450000Y-51637500D03*
%TO.P,U1,4,C-*%
%TO.N,Net-(U1-C-)*%
X86450000Y-49362500D03*
%TO.P,U1,5,VIN*%
%TO.N,VCC*%
X85500000Y-49362500D03*
%TO.P,U1,6,C+*%
%TO.N,Net-(U1-C+)*%
X84550000Y-49362500D03*
%TD*%
D23*
%TO.P,C4,1*%
%TO.N,VBUS*%
X114450000Y-55960000D03*
%TO.P,C4,2*%
%TO.N,GND*%
X114450000Y-55000000D03*
%TD*%
D30*
%TO.P,Q4,1,D*%
%TO.N,Net-(Q4-D)*%
X111275000Y-77275000D03*
%TO.P,Q4,2,G*%
%TO.N,Net-(J6-PAD)*%
X111275000Y-75375000D03*
%TO.P,Q4,3,S*%
%TO.N,3.3V*%
X109000000Y-76325000D03*
%TD*%
D31*
%TO.N,Net-(J7-PAD)*%
X83090000Y-78690000D03*
X109090000Y-73500000D03*
%TO.N,GND*%
X116720000Y-67970000D03*
X115060000Y-66450000D03*
X75990000Y-64070000D03*
X72440000Y-65260000D03*
X103690000Y-53950000D03*
X69750000Y-94000000D03*
X105490000Y-55240000D03*
X109400000Y-79870000D03*
X119250000Y-94000000D03*
%TO.N,Net-(U1-C+)*%
X87520000Y-50510000D03*
X84610000Y-48010000D03*
%TO.N,VBUS*%
X104050000Y-60120000D03*
X114750000Y-94000000D03*
X86437500Y-55937500D03*
X74250000Y-94000000D03*
%TO.N,D+*%
X77670000Y-45580000D03*
X101260000Y-92680000D03*
X92280000Y-90970000D03*
X92250000Y-92680000D03*
%TO.N,D-*%
X87750000Y-94000000D03*
X96750000Y-94000000D03*
X79030000Y-45610000D03*
X86510000Y-88760000D03*
%TO.N,Net-(J2-UART(3))*%
X116860000Y-49800000D03*
X97520000Y-44870000D03*
%TO.N,Net-(J2-IDBUS(8))*%
X113410000Y-50080000D03*
X80550000Y-47080000D03*
%TO.N,Net-(Q1-G)*%
X117420000Y-57520000D03*
X84460000Y-54790000D03*
%TO.N,Net-(Q1-D)*%
X80630000Y-50020000D03*
X113960000Y-52170000D03*
X76500000Y-55570000D03*
X76500000Y-52240000D03*
%TO.N,PMOS_GATE*%
X84110000Y-53350000D03*
X109370000Y-53040000D03*
%TO.N,3.3V*%
X109140000Y-78480000D03*
X114780000Y-78590000D03*
%TO.N,SIGNAL_1*%
X108090000Y-49950000D03*
X104850000Y-48110000D03*
%TO.N,SIGNAL_2*%
X107700000Y-50670000D03*
X105000000Y-50650000D03*
%TO.N,Net-(Q4-D)*%
X111150000Y-76360000D03*
X110740000Y-74180000D03*
%TD*%
D32*
%TO.N,Net-(Q1-G)*%
X74760000Y-54340000D02*
X77430000Y-54340000D01*
X74225000Y-54875000D02*
X74760000Y-54340000D01*
X77430000Y-54340000D02*
X78377500Y-55287500D01*
X78377500Y-55287500D02*
X83550000Y-55287500D01*
X74225000Y-55550000D02*
X74225000Y-54875000D01*
%TO.N,VCC*%
X86540000Y-46540000D02*
X94940000Y-46540000D01*
X94950000Y-46550000D02*
X100175000Y-51775000D01*
X86540000Y-46540000D02*
X87470000Y-45610000D01*
X94940000Y-46540000D02*
X94950000Y-46550000D01*
D33*
%TO.N,Net-(J7-PAD)*%
X82905000Y-78875000D02*
X80125000Y-78875000D01*
X83090000Y-78690000D02*
X82905000Y-78875000D01*
X109965000Y-72625000D02*
X109090000Y-73500000D01*
X111525000Y-72625000D02*
X109965000Y-72625000D01*
D32*
%TO.N,GND*%
X116720000Y-75850000D02*
X117190000Y-76320000D01*
X111105000Y-66105000D02*
X114715000Y-66105000D01*
X111105000Y-66105000D02*
X112125000Y-67125000D01*
X114715000Y-66105000D02*
X115060000Y-66450000D01*
X116720000Y-67970000D02*
X116720000Y-75850000D01*
X110665000Y-71125000D02*
X112025000Y-71125000D01*
X110000000Y-67700000D02*
X110000000Y-70460000D01*
X110000000Y-70460000D02*
X110665000Y-71125000D01*
X110575000Y-67125000D02*
X110000000Y-67700000D01*
X112125000Y-67125000D02*
X110575000Y-67125000D01*
D34*
%TO.N,3.3V*%
X75710000Y-65700000D02*
X75920586Y-65910586D01*
D33*
X75510000Y-65500000D02*
X75710000Y-65700000D01*
D34*
X75920586Y-65910586D02*
X77550000Y-65910586D01*
D33*
X75000000Y-65500000D02*
X75510000Y-65500000D01*
%TO.N,GND*%
X77490586Y-64070000D02*
X77550000Y-64010586D01*
X75990000Y-64070000D02*
X77490586Y-64070000D01*
X72260586Y-65440586D02*
X72440000Y-65261172D01*
X72440000Y-65261172D02*
X72440000Y-65260000D01*
X72259414Y-65440586D02*
X72260586Y-65440586D01*
D34*
%TO.N,5V*%
X70360000Y-80000000D02*
X72000000Y-80000000D01*
X68980000Y-70260000D02*
X68980000Y-78620000D01*
X73220000Y-66020000D02*
X68980000Y-70260000D01*
D33*
X73479302Y-65760698D02*
X73220000Y-66020000D01*
X73479302Y-65500000D02*
X73479302Y-65760698D01*
D34*
X68980000Y-78620000D02*
X70360000Y-80000000D01*
D33*
X74050000Y-65500000D02*
X73479302Y-65500000D01*
X74200000Y-65350000D02*
X74050000Y-65500000D01*
X74104000Y-64484000D02*
X74200000Y-64580000D01*
X74200000Y-64580000D02*
X74200000Y-65350000D01*
X73479302Y-64484000D02*
X74104000Y-64484000D01*
%TO.N,GND*%
X72708000Y-64992000D02*
X73479302Y-64992000D01*
X72259414Y-65440586D02*
X72708000Y-64992000D01*
X71500000Y-65440586D02*
X72259414Y-65440586D01*
%TO.N,5V*%
X73475888Y-64480586D02*
X73479302Y-64484000D01*
X71500000Y-64480586D02*
X73475888Y-64480586D01*
D32*
%TO.N,VCC*%
X91990000Y-45610000D02*
X93000000Y-44600000D01*
X101930000Y-56000000D02*
X101930000Y-57310000D01*
X101930000Y-54400000D02*
X101930000Y-56000000D01*
X86450000Y-51637500D02*
X86450000Y-50940000D01*
X85500000Y-47580000D02*
X86540000Y-46540000D01*
X93000000Y-44600000D02*
X94950000Y-46550000D01*
X93000000Y-44600000D02*
X93000000Y-39000000D01*
X87470000Y-45610000D02*
X91990000Y-45610000D01*
X100175000Y-51775000D02*
X102550000Y-51775000D01*
X85500000Y-49990000D02*
X85500000Y-49362500D01*
X102550000Y-51775000D02*
X102550000Y-53780000D01*
X85500000Y-49362500D02*
X85500000Y-47580000D01*
X101990000Y-57370000D02*
X101990000Y-59000000D01*
X101930000Y-57310000D02*
X101990000Y-57370000D01*
X86450000Y-50940000D02*
X85500000Y-49990000D01*
X102550000Y-53780000D02*
X101930000Y-54400000D01*
D33*
%TO.N,GND*%
X109405000Y-79875000D02*
X109400000Y-79870000D01*
D32*
X111637500Y-44552500D02*
X111640000Y-44550000D01*
X106500000Y-39410000D02*
X106500000Y-39000000D01*
X105490000Y-55970000D02*
X105460000Y-56000000D01*
X102480000Y-61330000D02*
X105330000Y-64180000D01*
X85500000Y-51637500D02*
X85500000Y-52299999D01*
X103500000Y-53760000D02*
X103690000Y-53950000D01*
D33*
X111163999Y-80573999D02*
X111523998Y-80573999D01*
D32*
X114450000Y-55000000D02*
X115110000Y-55000000D01*
X113580000Y-49000000D02*
X113392500Y-49187500D01*
X115440000Y-47840000D02*
X116870000Y-47840000D01*
X91780000Y-53870000D02*
X94520000Y-53870000D01*
X102480000Y-60190000D02*
X102950000Y-59720000D01*
D33*
X111080000Y-80490000D02*
X111163999Y-80573999D01*
D32*
X113392500Y-49187500D02*
X111637500Y-49187500D01*
X103560000Y-59000000D02*
X104060000Y-58500000D01*
X94520000Y-53870000D02*
X100840000Y-60190000D01*
X105330000Y-64180000D02*
X109230000Y-64180000D01*
X105460000Y-58470000D02*
X105490000Y-58500000D01*
X89000000Y-56097500D02*
X90582500Y-56097500D01*
X89000000Y-56097500D02*
X89000000Y-57090000D01*
X103500000Y-51775000D02*
X103500000Y-53760000D01*
X104060000Y-58500000D02*
X105490000Y-58500000D01*
X85500000Y-52299999D02*
X87070001Y-53870000D01*
D33*
X110275000Y-79875000D02*
X109405000Y-79875000D01*
D32*
X102480000Y-60190000D02*
X102480000Y-61330000D01*
X114450000Y-55000000D02*
X105730000Y-55000000D01*
X115110000Y-55000000D02*
X116130000Y-56020000D01*
X114930000Y-48350000D02*
X115440000Y-47840000D01*
X114930000Y-49000000D02*
X114930000Y-48350000D01*
D33*
X110275000Y-79875000D02*
X110576001Y-80176001D01*
X117190000Y-76320000D02*
X117185000Y-76325000D01*
D32*
X111640000Y-44550000D02*
X106500000Y-39410000D01*
X102950000Y-59720000D02*
X102950000Y-59000000D01*
D33*
X117185000Y-76325000D02*
X115800000Y-76325000D01*
D32*
X109230000Y-64230000D02*
X111105000Y-66105000D01*
X105460000Y-56000000D02*
X105460000Y-58470000D01*
X102950000Y-59000000D02*
X103560000Y-59000000D01*
X115110000Y-54840000D02*
X115110000Y-55000000D01*
X100840000Y-60190000D02*
X102480000Y-60190000D01*
X111637500Y-49187500D02*
X111637500Y-44552500D01*
X116130000Y-56020000D02*
X116950000Y-56020000D01*
X117840000Y-52110000D02*
X115110000Y-54840000D01*
X91780000Y-54900000D02*
X91780000Y-53870000D01*
X109230000Y-64180000D02*
X109230000Y-64230000D01*
X105730000Y-55000000D02*
X105490000Y-55240000D01*
D33*
X111080000Y-80176001D02*
X111080000Y-80490000D01*
D32*
X82079414Y-64010586D02*
X77550000Y-64010586D01*
X87070001Y-53870000D02*
X91780000Y-53870000D01*
X116870000Y-47840000D02*
X117840000Y-48810000D01*
D33*
X111523998Y-80573999D02*
X111524999Y-80575000D01*
X119250000Y-78380000D02*
X117190000Y-76320000D01*
D32*
X117840000Y-48810000D02*
X117840000Y-52110000D01*
D33*
X110576001Y-80176001D02*
X111080000Y-80176001D01*
X111080000Y-80176001D02*
X111524999Y-80176001D01*
D32*
X90582500Y-56097500D02*
X91780000Y-54900000D01*
D33*
X119250000Y-94000000D02*
X119250000Y-78380000D01*
D32*
X105490000Y-55240000D02*
X105490000Y-55970000D01*
X89000000Y-57090000D02*
X82079414Y-64010586D01*
X114930000Y-49000000D02*
X113580000Y-49000000D01*
%TO.N,Net-(D1-A)*%
X80000000Y-53790000D02*
X80380000Y-53410000D01*
X84550000Y-51637500D02*
X84550000Y-52620000D01*
X85550000Y-53620000D02*
X85550000Y-54060000D01*
X87217500Y-55137500D02*
X86717500Y-54637500D01*
X83000000Y-53410000D02*
X83650000Y-54060000D01*
X84550000Y-52620000D02*
X85550000Y-53620000D01*
X80380000Y-53410000D02*
X83000000Y-53410000D01*
X83650000Y-54060000D02*
X85550000Y-54060000D01*
X89000000Y-55137500D02*
X87217500Y-55137500D01*
X85550000Y-54060000D02*
X85550000Y-54637500D01*
X86717500Y-54637500D02*
X85550000Y-54637500D01*
X80000000Y-54037500D02*
X80000000Y-53790000D01*
%TO.N,Net-(U1-C-)*%
X86450000Y-49362500D02*
X88572500Y-49362500D01*
X89000000Y-49790000D02*
X89000000Y-50137500D01*
X88572500Y-49362500D02*
X89000000Y-49790000D01*
%TO.N,Net-(U1-C+)*%
X84610000Y-48010000D02*
X84550000Y-48070000D01*
X84550000Y-48070000D02*
X84550000Y-49362500D01*
X89000000Y-51097500D02*
X88107500Y-51097500D01*
X88107500Y-51097500D02*
X87520000Y-50510000D01*
%TO.N,VBUS*%
X106020000Y-59520000D02*
X105490000Y-59520000D01*
X74225000Y-58315000D02*
X74140000Y-58400000D01*
D35*
X68090000Y-61240000D02*
X68090000Y-85750000D01*
D33*
X115140000Y-77170000D02*
X114640000Y-76670000D01*
X115275000Y-82475000D02*
X115275000Y-80875000D01*
D32*
X74225000Y-57450000D02*
X79120000Y-57450000D01*
X79120000Y-57450000D02*
X80000000Y-56570000D01*
X85550000Y-56250000D02*
X85270000Y-56530000D01*
D33*
X114750000Y-94000000D02*
X114750000Y-83000000D01*
D32*
X73840000Y-58700000D02*
X73300000Y-58700000D01*
D33*
X115535000Y-74935000D02*
X115535000Y-71125000D01*
D32*
X85270000Y-56530000D02*
X80880000Y-56530000D01*
X85550000Y-55937500D02*
X85550000Y-56250000D01*
X74225000Y-57450000D02*
X74225000Y-58315000D01*
D33*
X114750000Y-83000000D02*
X115275000Y-82475000D01*
X114640000Y-76670000D02*
X114640000Y-75830000D01*
D35*
X72190000Y-88250000D02*
X74250000Y-90310000D01*
D32*
X105490000Y-59770000D02*
X105490000Y-59520000D01*
X114450000Y-55960000D02*
X109580000Y-55960000D01*
X74140000Y-58400000D02*
X73840000Y-58700000D01*
X80880000Y-56530000D02*
X80487500Y-56137500D01*
D35*
X73300000Y-58700000D02*
X70630000Y-58700000D01*
D32*
X104400000Y-59770000D02*
X104050000Y-60120000D01*
X109580000Y-55960000D02*
X106020000Y-59520000D01*
D33*
X115855000Y-80875000D02*
X116720000Y-80010000D01*
D32*
X80000000Y-56570000D02*
X80000000Y-56137500D01*
D33*
X116720000Y-80010000D02*
X116720000Y-77940000D01*
D32*
X85550000Y-55937500D02*
X86437500Y-55937500D01*
D35*
X74250000Y-90310000D02*
X74250000Y-94000000D01*
D32*
X105490000Y-59770000D02*
X104400000Y-59770000D01*
D35*
X68090000Y-85750000D02*
X70590000Y-88250000D01*
D33*
X116720000Y-77940000D02*
X115950000Y-77170000D01*
X114640000Y-75830000D02*
X115535000Y-74935000D01*
X115950000Y-77170000D02*
X115140000Y-77170000D01*
D35*
X70590000Y-88250000D02*
X72190000Y-88250000D01*
X70630000Y-58700000D02*
X68090000Y-61240000D01*
D33*
X115275000Y-80875000D02*
X115855000Y-80875000D01*
D32*
X80487500Y-56137500D02*
X80000000Y-56137500D01*
%TO.N,Net-(U3-CAP)*%
X104500000Y-54890000D02*
X107020000Y-52370000D01*
X107020000Y-49950000D02*
X107782500Y-49187500D01*
X104500000Y-56000000D02*
X104500000Y-54890000D01*
X107020000Y-52370000D02*
X107020000Y-49950000D01*
X107782500Y-49187500D02*
X109362500Y-49187500D01*
%TO.N,Net-(J1-CC1)*%
X108880000Y-85440000D02*
X111260000Y-83060000D01*
X78750000Y-91720000D02*
X82400000Y-88070000D01*
D33*
X111990000Y-81950000D02*
X112075000Y-81865000D01*
D32*
X85030000Y-85440000D02*
X107150000Y-85440000D01*
X82400000Y-88070000D02*
X85030000Y-85440000D01*
X78750000Y-94000000D02*
X78750000Y-91720000D01*
X111990000Y-82330000D02*
X111990000Y-81950000D01*
X107150000Y-85440000D02*
X108880000Y-85440000D01*
D33*
X112075000Y-81865000D02*
X112075000Y-81025001D01*
D32*
X111260000Y-83060000D02*
X111990000Y-82330000D01*
D33*
%TO.N,Net-(J1-CC2)*%
X112480000Y-81860000D02*
X112475000Y-81855000D01*
D32*
X105750000Y-89660000D02*
X105750000Y-94000000D01*
D33*
X112590000Y-81900000D02*
X112550000Y-81860000D01*
X112550000Y-81860000D02*
X112480000Y-81860000D01*
X112475000Y-81855000D02*
X112475000Y-81025001D01*
D32*
X112590000Y-81900000D02*
X112590000Y-82820000D01*
X112590000Y-82820000D02*
X105750000Y-89660000D01*
%TO.N,D+*%
X92280000Y-90970000D02*
X92250000Y-91000000D01*
X79500000Y-43750000D02*
X77670000Y-45580000D01*
X92250000Y-94000000D02*
X92250000Y-92680000D01*
X79500000Y-39000000D02*
X79500000Y-43750000D01*
X92250000Y-91000000D02*
X92250000Y-92680000D01*
%TO.N,D-*%
X84000000Y-39000000D02*
X84000000Y-40640000D01*
X87750000Y-90000000D02*
X87750000Y-94000000D01*
X84000000Y-40640000D02*
X79030000Y-45610000D01*
X86510000Y-88760000D02*
X87750000Y-90000000D01*
%TO.N,Net-(J2-UART(2))*%
X110857500Y-52037500D02*
X111640000Y-52037500D01*
X110490000Y-47490000D02*
X110490000Y-51670000D01*
X102000000Y-39000000D02*
X110490000Y-47490000D01*
X110490000Y-51670000D02*
X110857500Y-52037500D01*
%TO.N,Net-(J2-UART(3))*%
X116850000Y-49810000D02*
X116860000Y-49800000D01*
X115950000Y-49810000D02*
X116850000Y-49810000D01*
X97520000Y-44870000D02*
X97500000Y-44850000D01*
X115950000Y-49000000D02*
X115950000Y-49810000D01*
X115950000Y-49810000D02*
X115950000Y-50490000D01*
X115950000Y-50490000D02*
X115960000Y-50500000D01*
X97500000Y-44850000D02*
X97500000Y-39000000D01*
%TO.N,Net-(J2-VBUS(5V\u002C5))*%
X80610000Y-48980000D02*
X88500000Y-41090000D01*
X78575000Y-48725000D02*
X78830000Y-48980000D01*
X78830000Y-48980000D02*
X79500000Y-48980000D01*
X75550000Y-48725000D02*
X78575000Y-48725000D01*
X79500000Y-48980000D02*
X80610000Y-48980000D01*
X88500000Y-41090000D02*
X88500000Y-39000000D01*
%TO.N,Net-(J2-IDBUS(8))*%
X80550000Y-47080000D02*
X80040000Y-46570000D01*
X76990000Y-46570000D02*
X75000000Y-44580000D01*
X75000000Y-44580000D02*
X75000000Y-39000000D01*
X113352500Y-50137500D02*
X113410000Y-50080000D01*
X80040000Y-46570000D02*
X76990000Y-46570000D01*
X111637500Y-50137500D02*
X113352500Y-50137500D01*
%TO.N,Net-(Q1-G)*%
X84460000Y-54790000D02*
X84410000Y-54740000D01*
X117900000Y-57520000D02*
X117420000Y-57520000D01*
X83550000Y-54850000D02*
X83550000Y-55287500D01*
X83660000Y-54740000D02*
X83550000Y-54850000D01*
X84410000Y-54740000D02*
X83660000Y-54740000D01*
X118250000Y-55680000D02*
X118250000Y-57170000D01*
X118250000Y-57170000D02*
X117900000Y-57520000D01*
X117570000Y-55000000D02*
X118250000Y-55680000D01*
X116950000Y-55000000D02*
X117570000Y-55000000D01*
%TO.N,Net-(Q1-D)*%
X113960000Y-52170000D02*
X113962500Y-52167500D01*
X76500000Y-51000000D02*
X78530000Y-51000000D01*
X79500000Y-50030000D02*
X79500000Y-50000000D01*
X114900000Y-52167500D02*
X114930000Y-52137500D01*
X79500000Y-50000000D02*
X80610000Y-50000000D01*
X78530000Y-51000000D02*
X79500000Y-50030000D01*
X80610000Y-50000000D02*
X80630000Y-50020000D01*
X113962500Y-52167500D02*
X114900000Y-52167500D01*
X76500000Y-55570000D02*
X76500000Y-56500000D01*
X76500000Y-51000000D02*
X76500000Y-52240000D01*
%TO.N,PMOS_GATE*%
X82940000Y-52180000D02*
X84110000Y-53350000D01*
X74600000Y-51000000D02*
X74600000Y-51600000D01*
X74600000Y-51600000D02*
X75870000Y-52870000D01*
X115540000Y-53040000D02*
X115950000Y-52630000D01*
X77130000Y-52870000D02*
X77820000Y-52180000D01*
X77820000Y-52180000D02*
X82940000Y-52180000D01*
X109370000Y-53040000D02*
X115540000Y-53040000D01*
X115950000Y-52630000D02*
X115950000Y-52137500D01*
X75870000Y-52870000D02*
X77130000Y-52870000D01*
X109370000Y-53040000D02*
X109370000Y-52045500D01*
X109370000Y-52045500D02*
X109362000Y-52037500D01*
D35*
%TO.N,3.3V*%
X82140000Y-73500000D02*
X77530000Y-73500000D01*
X77550000Y-73480000D02*
X77530000Y-73500000D01*
D33*
X109000000Y-76325000D02*
X107655000Y-76325000D01*
D35*
X107650000Y-76330000D02*
X84970000Y-76330000D01*
X77530000Y-73500000D02*
X72000000Y-73500000D01*
D33*
X109000000Y-76325000D02*
X109000000Y-78340000D01*
X115275000Y-79085000D02*
X115275000Y-79625000D01*
X107655000Y-76325000D02*
X107650000Y-76330000D01*
D35*
X84970000Y-76330000D02*
X82140000Y-73500000D01*
D33*
X109000000Y-78340000D02*
X109140000Y-78480000D01*
D35*
X77550000Y-65910586D02*
X77550000Y-73480000D01*
D33*
X114780000Y-78590000D02*
X115275000Y-79085000D01*
D32*
%TO.N,Net-(U3-UART2)*%
X113772500Y-51087500D02*
X111637500Y-51087500D01*
X114360000Y-50500000D02*
X113772500Y-51087500D01*
X114940000Y-50500000D02*
X114360000Y-50500000D01*
%TO.N,SIGNAL_1*%
X104850000Y-48110000D02*
X104450000Y-48510000D01*
X108277500Y-50137500D02*
X108090000Y-49950000D01*
X104450000Y-48510000D02*
X104450000Y-49500000D01*
X103980000Y-54640000D02*
X106410000Y-52210000D01*
X102950000Y-56000000D02*
X102950000Y-55260000D01*
X103570000Y-54640000D02*
X103980000Y-54640000D01*
X105290000Y-49500000D02*
X104450000Y-49500000D01*
X106410000Y-52210000D02*
X106410000Y-50620000D01*
X102950000Y-55260000D02*
X103570000Y-54640000D01*
X109362500Y-50137500D02*
X108277500Y-50137500D01*
X106410000Y-50620000D02*
X105290000Y-49500000D01*
%TO.N,SIGNAL_2*%
X107700000Y-50670000D02*
X108117500Y-51087500D01*
X104450000Y-51200000D02*
X105000000Y-50650000D01*
X108117500Y-51087500D02*
X109362500Y-51087500D01*
X104450000Y-51775000D02*
X104450000Y-51200000D01*
D33*
%TO.N,5V*%
X110275000Y-81265000D02*
X110275000Y-80835000D01*
D35*
X74600000Y-84000000D02*
X95910000Y-84000000D01*
D33*
X109600000Y-81940000D02*
X110275000Y-81265000D01*
X110416000Y-80976000D02*
X111524999Y-80976000D01*
X110275000Y-80835000D02*
X110416000Y-80976000D01*
D35*
X73750000Y-83150000D02*
X74600000Y-84000000D01*
X72000000Y-81400000D02*
X73750000Y-83150000D01*
X72000000Y-80000000D02*
X72000000Y-81400000D01*
X107540000Y-84000000D02*
X109600000Y-81940000D01*
X95910000Y-84000000D02*
X107540000Y-84000000D01*
D33*
%TO.N,Net-(U4-VBUS_DET)*%
X113705000Y-80875000D02*
X114255000Y-80875000D01*
X113025001Y-80974999D02*
X113605001Y-80974999D01*
X113605001Y-80974999D02*
X113705000Y-80875000D01*
%TO.N,Net-(Q4-D)*%
X110740000Y-74180000D02*
X111275000Y-73645000D01*
X111275000Y-76485000D02*
X111150000Y-76360000D01*
X111275000Y-77275000D02*
X111275000Y-76485000D01*
X111275000Y-73645000D02*
X111525000Y-73645000D01*
%TO.N,Net-(Q5-D)*%
X113525000Y-75375000D02*
X114180000Y-74720000D01*
X113545000Y-72605000D02*
X113275000Y-72605000D01*
X114180000Y-73240000D02*
X113545000Y-72605000D01*
X114180000Y-74720000D02*
X114180000Y-73240000D01*
D32*
%TO.N,Lightning_9_CONDET*%
X120130000Y-40110000D02*
X120130000Y-62840000D01*
X114750000Y-39150000D02*
X119170000Y-39150000D01*
X111840000Y-68060000D02*
X111475000Y-68425000D01*
X120130000Y-62840000D02*
X114910000Y-68060000D01*
X119170000Y-39150000D02*
X120130000Y-40110000D01*
X114910000Y-68060000D02*
X111840000Y-68060000D01*
X111475000Y-68425000D02*
X111475000Y-69125000D01*
%TO.N,Net-(J7-PAD)*%
X112775000Y-69125000D02*
X112765000Y-69125000D01*
X112985000Y-71315000D02*
X111675000Y-72625000D01*
X112985000Y-69985000D02*
X112985000Y-71125000D01*
X112985000Y-71125000D02*
X112985000Y-71315000D01*
X111525000Y-72625000D02*
X111985000Y-72625000D01*
X111985000Y-72625000D02*
X112985000Y-73625000D01*
X112775000Y-69125000D02*
X112775000Y-69775000D01*
X112985000Y-71125000D02*
X114515000Y-71125000D01*
X112765000Y-69125000D02*
X112740000Y-69150000D01*
X112775000Y-69775000D02*
X112985000Y-69985000D01*
X112985000Y-73625000D02*
X113275000Y-73625000D01*
X111675000Y-72625000D02*
X111525000Y-72625000D01*
D33*
%TO.N,Net-(J6-PAD)*%
X112520001Y-79770000D02*
X113020000Y-79770000D01*
X102175000Y-67625000D02*
X99125000Y-67625000D01*
X113404999Y-79775001D02*
X113555000Y-79625000D01*
X112220000Y-76320000D02*
X111275000Y-75375000D01*
X112024998Y-79775001D02*
X112075000Y-79724999D01*
X112475000Y-79724999D02*
X112520001Y-79770000D01*
X114255000Y-79625000D02*
X114255000Y-79075000D01*
X113525000Y-77275000D02*
X112570000Y-76320000D01*
X111275000Y-75375000D02*
X109925000Y-75375000D01*
X114255000Y-79075000D02*
X113525000Y-78345000D01*
X111524999Y-79775001D02*
X112024998Y-79775001D01*
X112075000Y-79724999D02*
X112475000Y-79724999D01*
X109925000Y-75375000D02*
X102175000Y-67625000D01*
X112570000Y-76320000D02*
X112220000Y-76320000D01*
X113525000Y-78345000D02*
X113525000Y-77275000D01*
X113025001Y-79775001D02*
X113404999Y-79775001D01*
X113020000Y-79770000D02*
X113025001Y-79775001D01*
X113555000Y-79625000D02*
X114255000Y-79625000D01*
%TD*%
%TA.AperFunction,Conductor*%
%TO.N,GND*%
G36*
X81844809Y-74270185D02*
G01*
X81865451Y-74286819D01*
X84491580Y-76912948D01*
X84491584Y-76912951D01*
X84614498Y-76995080D01*
X84614511Y-76995087D01*
X84692199Y-77027266D01*
X84751087Y-77051658D01*
X84751091Y-77051658D01*
X84751092Y-77051659D01*
X84896079Y-77080500D01*
X84896082Y-77080500D01*
X107723920Y-77080500D01*
X107830465Y-77059306D01*
X107868913Y-77051658D01*
X107997376Y-76998446D01*
X108066843Y-76990978D01*
X108107944Y-77006274D01*
X108227102Y-77076744D01*
X108310097Y-77100856D01*
X108368980Y-77138462D01*
X108398187Y-77201934D01*
X108399500Y-77219932D01*
X108399500Y-78260939D01*
X108399499Y-78260943D01*
X108399499Y-78325369D01*
X108399499Y-78343602D01*
X108397116Y-78367795D01*
X108389501Y-78406079D01*
X108389500Y-78406082D01*
X108389500Y-78553918D01*
X108389500Y-78553920D01*
X108389499Y-78553920D01*
X108418340Y-78698907D01*
X108418343Y-78698917D01*
X108474912Y-78835488D01*
X108474919Y-78835501D01*
X108557048Y-78958415D01*
X108557051Y-78958419D01*
X108661580Y-79062948D01*
X108661584Y-79062951D01*
X108784498Y-79145080D01*
X108784511Y-79145087D01*
X108882336Y-79185607D01*
X108921087Y-79201658D01*
X108921091Y-79201658D01*
X108921092Y-79201659D01*
X109066079Y-79230500D01*
X109066082Y-79230500D01*
X109213920Y-79230500D01*
X109311462Y-79211096D01*
X109358913Y-79201658D01*
X109436651Y-79169457D01*
X109506118Y-79161989D01*
X109568597Y-79193264D01*
X109604250Y-79253352D01*
X109601757Y-79323178D01*
X109590834Y-79347140D01*
X109512968Y-79478803D01*
X109512968Y-79478804D01*
X109470496Y-79625000D01*
X110025000Y-79625000D01*
X110025000Y-79096210D01*
X110024999Y-79096209D01*
X110004087Y-79097854D01*
X109866331Y-79137876D01*
X109796462Y-79137676D01*
X109737792Y-79099733D01*
X109708949Y-79036095D01*
X109719090Y-78966965D01*
X109728627Y-78949920D01*
X109805084Y-78835495D01*
X109861658Y-78698913D01*
X109882210Y-78595594D01*
X109890500Y-78553920D01*
X109890500Y-78406079D01*
X109861659Y-78261092D01*
X109861658Y-78261091D01*
X109861658Y-78261087D01*
X109861597Y-78260939D01*
X109805087Y-78124511D01*
X109805080Y-78124498D01*
X109722951Y-78001584D01*
X109722948Y-78001580D01*
X109636819Y-77915451D01*
X109603334Y-77854128D01*
X109600500Y-77827770D01*
X109600500Y-77219932D01*
X109620185Y-77152893D01*
X109672989Y-77107138D01*
X109689893Y-77100859D01*
X109772898Y-77076744D01*
X109905292Y-76998447D01*
X109921080Y-76989110D01*
X109922155Y-76990928D01*
X109977032Y-76969381D01*
X110045550Y-76983059D01*
X110095796Y-77031609D01*
X110112000Y-77092895D01*
X110112000Y-77490701D01*
X110114901Y-77527567D01*
X110114902Y-77527573D01*
X110160754Y-77685393D01*
X110160755Y-77685396D01*
X110160756Y-77685398D01*
X110186883Y-77729577D01*
X110244417Y-77826862D01*
X110244423Y-77826870D01*
X110360629Y-77943076D01*
X110360633Y-77943079D01*
X110360635Y-77943081D01*
X110502102Y-78026744D01*
X110524664Y-78033299D01*
X110659926Y-78072597D01*
X110659929Y-78072597D01*
X110659931Y-78072598D01*
X110696806Y-78075500D01*
X110696814Y-78075500D01*
X111853186Y-78075500D01*
X111853194Y-78075500D01*
X111890069Y-78072598D01*
X111890071Y-78072597D01*
X111890073Y-78072597D01*
X111964908Y-78050855D01*
X112047898Y-78026744D01*
X112189365Y-77943081D01*
X112247958Y-77884488D01*
X112311098Y-77821349D01*
X112313163Y-77823414D01*
X112358631Y-77790559D01*
X112428397Y-77786750D01*
X112489147Y-77821264D01*
X112491287Y-77823734D01*
X112610629Y-77943076D01*
X112610633Y-77943079D01*
X112610635Y-77943081D01*
X112752102Y-78026744D01*
X112835097Y-78050856D01*
X112857510Y-78065170D01*
X112881703Y-78076219D01*
X112886501Y-78083685D01*
X112893980Y-78088462D01*
X112905096Y-78112620D01*
X112919477Y-78134997D01*
X112921332Y-78147904D01*
X112923187Y-78151934D01*
X112924500Y-78169932D01*
X112924500Y-78258330D01*
X112924499Y-78258348D01*
X112924499Y-78424054D01*
X112924498Y-78424054D01*
X112965422Y-78576783D01*
X112993798Y-78625932D01*
X113044477Y-78713712D01*
X113044481Y-78713717D01*
X113163351Y-78832587D01*
X113163355Y-78832590D01*
X113255209Y-78924444D01*
X113288694Y-78985767D01*
X113283710Y-79055459D01*
X113241838Y-79111392D01*
X113229529Y-79119512D01*
X113179247Y-79148543D01*
X113178588Y-79147402D01*
X113121246Y-79169564D01*
X113094781Y-79168935D01*
X113092415Y-79168624D01*
X113073830Y-79160407D01*
X113053811Y-79156933D01*
X113042527Y-79146567D01*
X113028512Y-79140371D01*
X113009309Y-79119993D01*
X112932547Y-79017453D01*
X112932544Y-79017450D01*
X112817335Y-78931204D01*
X112817328Y-78931200D01*
X112682486Y-78880908D01*
X112682485Y-78880907D01*
X112682483Y-78880907D01*
X112622873Y-78874498D01*
X112622863Y-78874498D01*
X112327131Y-78874498D01*
X112327119Y-78874499D01*
X112288253Y-78878677D01*
X112261748Y-78878677D01*
X112222874Y-78874498D01*
X111927130Y-78874498D01*
X111927123Y-78874499D01*
X111867516Y-78880906D01*
X111732671Y-78931200D01*
X111732664Y-78931204D01*
X111617455Y-79017450D01*
X111537083Y-79124813D01*
X111481149Y-79166683D01*
X111437818Y-79174501D01*
X111227129Y-79174501D01*
X111227122Y-79174502D01*
X111167515Y-79180909D01*
X111032670Y-79231203D01*
X111032669Y-79231203D01*
X111012099Y-79246602D01*
X110946634Y-79271016D01*
X110878361Y-79256162D01*
X110850111Y-79235013D01*
X110840383Y-79225285D01*
X110840374Y-79225278D01*
X110701195Y-79142968D01*
X110701190Y-79142966D01*
X110545918Y-79097855D01*
X110545912Y-79097854D01*
X110525000Y-79096209D01*
X110525000Y-79751000D01*
X110505315Y-79818039D01*
X110452511Y-79863794D01*
X110401000Y-79875000D01*
X110275000Y-79875000D01*
X110275000Y-79930500D01*
X110255315Y-79997539D01*
X110202511Y-80043294D01*
X110151000Y-80054500D01*
X110040302Y-80054500D01*
X110004008Y-80057356D01*
X110004002Y-80057357D01*
X109848610Y-80102503D01*
X109848605Y-80102506D01*
X109839766Y-80107732D01*
X109776648Y-80125000D01*
X109470496Y-80125000D01*
X109512968Y-80271194D01*
X109524911Y-80291389D01*
X109542092Y-80359113D01*
X109524911Y-80417628D01*
X109512506Y-80438604D01*
X109512504Y-80438609D01*
X109467357Y-80594002D01*
X109467356Y-80594008D01*
X109464500Y-80630302D01*
X109464500Y-81039697D01*
X109467357Y-81075999D01*
X109467587Y-81077257D01*
X109467512Y-81077966D01*
X109467854Y-81082310D01*
X109467047Y-81082373D01*
X109460262Y-81146741D01*
X109416534Y-81201236D01*
X109386610Y-81215757D01*
X109386716Y-81216011D01*
X109382426Y-81217787D01*
X109381612Y-81218183D01*
X109381089Y-81218341D01*
X109244509Y-81274914D01*
X109244502Y-81274918D01*
X109182418Y-81316400D01*
X109121584Y-81357048D01*
X109121582Y-81357049D01*
X109121579Y-81357052D01*
X109121578Y-81357052D01*
X107265451Y-83213181D01*
X107204128Y-83246666D01*
X107177770Y-83249500D01*
X74962229Y-83249500D01*
X74895190Y-83229815D01*
X74874548Y-83213181D01*
X74228416Y-82567048D01*
X73815587Y-82154219D01*
X73782102Y-82092896D01*
X73787086Y-82023204D01*
X73828958Y-81967271D01*
X73869151Y-81947324D01*
X73904406Y-81937237D01*
X74075751Y-81847734D01*
X74225571Y-81725571D01*
X74347734Y-81575751D01*
X74437237Y-81404406D01*
X74490417Y-81218552D01*
X74500500Y-81105138D01*
X74500500Y-78894862D01*
X74490417Y-78781448D01*
X74437237Y-78595594D01*
X74347734Y-78424249D01*
X74274551Y-78334498D01*
X74225571Y-78274428D01*
X74097416Y-78169932D01*
X74075751Y-78152266D01*
X74022592Y-78124498D01*
X73904405Y-78062762D01*
X73749845Y-78018537D01*
X73718552Y-78009583D01*
X73718551Y-78009582D01*
X73718548Y-78009582D01*
X73628534Y-78001580D01*
X73605138Y-77999500D01*
X70394862Y-77999500D01*
X70382599Y-78000590D01*
X70281451Y-78009582D01*
X70095594Y-78062762D01*
X69924250Y-78152265D01*
X69882860Y-78186014D01*
X69818464Y-78213122D01*
X69749634Y-78201112D01*
X69698224Y-78153797D01*
X69680500Y-78089911D01*
X69680500Y-77769863D01*
X77624500Y-77769863D01*
X77624500Y-79980136D01*
X77634582Y-80093548D01*
X77634582Y-80093551D01*
X77634583Y-80093552D01*
X77641387Y-80117332D01*
X77687762Y-80279405D01*
X77759964Y-80417628D01*
X77777266Y-80450751D01*
X77824518Y-80508700D01*
X77899428Y-80600571D01*
X77974339Y-80661652D01*
X78049249Y-80722734D01*
X78220594Y-80812237D01*
X78406448Y-80865417D01*
X78519862Y-80875500D01*
X78519870Y-80875500D01*
X81730130Y-80875500D01*
X81730138Y-80875500D01*
X81843552Y-80865417D01*
X82029406Y-80812237D01*
X82200751Y-80722734D01*
X82350571Y-80600571D01*
X82472734Y-80450751D01*
X82562237Y-80279406D01*
X82615417Y-80093552D01*
X82625500Y-79980138D01*
X82625500Y-79599500D01*
X82628050Y-79590814D01*
X82626762Y-79581853D01*
X82637740Y-79557812D01*
X82645185Y-79532461D01*
X82652025Y-79526533D01*
X82655787Y-79518297D01*
X82678021Y-79504007D01*
X82697989Y-79486706D01*
X82708503Y-79484418D01*
X82714565Y-79480523D01*
X82749500Y-79475500D01*
X82818331Y-79475500D01*
X82818347Y-79475501D01*
X82825943Y-79475501D01*
X82984055Y-79475501D01*
X82984057Y-79475501D01*
X83098912Y-79444724D01*
X83131006Y-79440500D01*
X83163920Y-79440500D01*
X83261462Y-79421096D01*
X83308913Y-79411658D01*
X83445495Y-79355084D01*
X83568416Y-79272951D01*
X83672951Y-79168416D01*
X83755084Y-79045495D01*
X83811658Y-78908913D01*
X83822737Y-78853216D01*
X83840500Y-78763920D01*
X83840500Y-78616079D01*
X83811659Y-78471092D01*
X83811658Y-78471091D01*
X83811658Y-78471087D01*
X83792178Y-78424057D01*
X83755087Y-78334511D01*
X83755080Y-78334498D01*
X83672951Y-78211584D01*
X83672948Y-78211580D01*
X83568419Y-78107051D01*
X83568415Y-78107048D01*
X83445501Y-78024919D01*
X83445488Y-78024912D01*
X83308917Y-77968343D01*
X83308907Y-77968340D01*
X83163920Y-77939500D01*
X83163918Y-77939500D01*
X83016082Y-77939500D01*
X83016080Y-77939500D01*
X82871092Y-77968340D01*
X82871082Y-77968343D01*
X82796952Y-77999049D01*
X82727483Y-78006518D01*
X82665004Y-77975242D01*
X82629352Y-77915153D01*
X82625500Y-77884488D01*
X82625500Y-77769869D01*
X82625500Y-77769862D01*
X82615417Y-77656448D01*
X82562237Y-77470594D01*
X82472734Y-77299249D01*
X82408059Y-77219932D01*
X82350571Y-77149428D01*
X82247163Y-77065110D01*
X82200751Y-77027266D01*
X82139781Y-76995418D01*
X82029405Y-76937762D01*
X81874845Y-76893537D01*
X81843552Y-76884583D01*
X81843551Y-76884582D01*
X81843548Y-76884582D01*
X81753219Y-76876552D01*
X81730138Y-76874500D01*
X78519862Y-76874500D01*
X78507599Y-76875590D01*
X78406451Y-76884582D01*
X78220594Y-76937762D01*
X78049250Y-77027265D01*
X77899428Y-77149428D01*
X77777265Y-77299250D01*
X77687762Y-77470594D01*
X77634582Y-77656451D01*
X77624500Y-77769863D01*
X69680500Y-77769863D01*
X69680500Y-75410088D01*
X69700185Y-75343049D01*
X69752989Y-75297294D01*
X69822147Y-75287350D01*
X69882860Y-75313985D01*
X69924249Y-75347734D01*
X70095594Y-75437237D01*
X70281448Y-75490417D01*
X70394862Y-75500500D01*
X70394870Y-75500500D01*
X73605130Y-75500500D01*
X73605138Y-75500500D01*
X73718552Y-75490417D01*
X73904406Y-75437237D01*
X74075751Y-75347734D01*
X74225571Y-75225571D01*
X74347734Y-75075751D01*
X74437237Y-74904406D01*
X74490417Y-74718552D01*
X74500500Y-74605138D01*
X74500500Y-74374500D01*
X74520185Y-74307461D01*
X74572989Y-74261706D01*
X74624500Y-74250500D01*
X77456082Y-74250500D01*
X77456083Y-74250500D01*
X77603917Y-74250500D01*
X81777770Y-74250500D01*
X81844809Y-74270185D01*
G37*
%TD.AperFunction*%
%TA.AperFunction,Conductor*%
G36*
X103592539Y-51794685D02*
G01*
X103638294Y-51847489D01*
X103649500Y-51899000D01*
X103649500Y-52353201D01*
X103652401Y-52390067D01*
X103652402Y-52390073D01*
X103698254Y-52547893D01*
X103698255Y-52547896D01*
X103698256Y-52547898D01*
X103732732Y-52606194D01*
X103750000Y-52669314D01*
X103750000Y-52934795D01*
X103750001Y-52934795D01*
X103752486Y-52934600D01*
X103910197Y-52888781D01*
X103911382Y-52888081D01*
X103912436Y-52887813D01*
X103917357Y-52885684D01*
X103917700Y-52886477D01*
X103979105Y-52870895D01*
X104032289Y-52886508D01*
X104032446Y-52886147D01*
X104035371Y-52887413D01*
X104037624Y-52888074D01*
X104039602Y-52889244D01*
X104039604Y-52889244D01*
X104039605Y-52889245D01*
X104197426Y-52935097D01*
X104197429Y-52935097D01*
X104197431Y-52935098D01*
X104234306Y-52938000D01*
X104234314Y-52938000D01*
X104462691Y-52938000D01*
X104529730Y-52957685D01*
X104575485Y-53010489D01*
X104585429Y-53079647D01*
X104556404Y-53143203D01*
X104550372Y-53149681D01*
X103746873Y-53953181D01*
X103685550Y-53986666D01*
X103659192Y-53989500D01*
X103505929Y-53989500D01*
X103380261Y-54014497D01*
X103380255Y-54014499D01*
X103361741Y-54022168D01*
X103292271Y-54029635D01*
X103229792Y-53998359D01*
X103194141Y-53938270D01*
X103192673Y-53883416D01*
X103200500Y-53844069D01*
X103200500Y-53034791D01*
X103220185Y-52967752D01*
X103240329Y-52943735D01*
X103250000Y-52934795D01*
X103250000Y-52669314D01*
X103267267Y-52606194D01*
X103301744Y-52547898D01*
X103344567Y-52400501D01*
X103347597Y-52390073D01*
X103347598Y-52390067D01*
X103347864Y-52386688D01*
X103350500Y-52353194D01*
X103350500Y-51899000D01*
X103353050Y-51890314D01*
X103351762Y-51881353D01*
X103362740Y-51857312D01*
X103370185Y-51831961D01*
X103377025Y-51826033D01*
X103380787Y-51817797D01*
X103403021Y-51803507D01*
X103422989Y-51786206D01*
X103433503Y-51783918D01*
X103439565Y-51780023D01*
X103474500Y-51775000D01*
X103525500Y-51775000D01*
X103592539Y-51794685D01*
G37*
%TD.AperFunction*%
%TA.AperFunction,Conductor*%
G36*
X117269901Y-35250501D02*
G01*
X117329701Y-35250500D01*
X117341854Y-35251097D01*
X117350358Y-35251934D01*
X117421080Y-35258899D01*
X117444909Y-35263639D01*
X117515241Y-35284975D01*
X117537692Y-35294276D01*
X117602496Y-35328917D01*
X117622707Y-35342423D01*
X117684394Y-35393052D01*
X117693407Y-35401221D01*
X117695613Y-35403427D01*
X117695617Y-35403436D01*
X117695620Y-35403434D01*
X117741371Y-35449192D01*
X117741426Y-35449240D01*
X122099500Y-39807314D01*
X122806604Y-40514417D01*
X122848876Y-40556689D01*
X122857048Y-40565705D01*
X122907567Y-40627263D01*
X122921071Y-40647474D01*
X122955714Y-40712289D01*
X122965016Y-40734746D01*
X122986349Y-40805074D01*
X122991091Y-40828917D01*
X122998902Y-40908244D01*
X122999499Y-40920393D01*
X122999499Y-40951084D01*
X122999499Y-40980099D01*
X122999499Y-40980101D01*
X122999500Y-40990093D01*
X122999500Y-96993038D01*
X122998720Y-97006923D01*
X122988540Y-97097264D01*
X122982362Y-97124333D01*
X122954648Y-97203537D01*
X122942600Y-97228555D01*
X122897957Y-97299604D01*
X122880644Y-97321313D01*
X122821313Y-97380644D01*
X122799604Y-97397957D01*
X122728555Y-97442600D01*
X122703537Y-97454648D01*
X122624333Y-97482362D01*
X122597264Y-97488540D01*
X122517075Y-97497576D01*
X122506921Y-97498720D01*
X122493038Y-97499500D01*
X66756962Y-97499500D01*
X66743078Y-97498720D01*
X66730553Y-97497308D01*
X66652735Y-97488540D01*
X66625666Y-97482362D01*
X66546462Y-97454648D01*
X66521444Y-97442600D01*
X66450395Y-97397957D01*
X66428686Y-97380644D01*
X66369355Y-97321313D01*
X66352042Y-97299604D01*
X66307399Y-97228555D01*
X66295351Y-97203537D01*
X66267637Y-97124333D01*
X66261459Y-97097263D01*
X66251280Y-97006922D01*
X66250500Y-96993038D01*
X66250500Y-96144543D01*
X67959006Y-96144543D01*
X67959006Y-96144544D01*
X68024788Y-96225220D01*
X68174520Y-96347310D01*
X68174524Y-96347312D01*
X68345784Y-96436771D01*
X68531538Y-96489920D01*
X68531541Y-96489921D01*
X68644903Y-96499999D01*
X70855092Y-96499999D01*
X70855098Y-96499998D01*
X70968460Y-96489921D01*
X71154215Y-96436771D01*
X71325475Y-96347312D01*
X71325479Y-96347310D01*
X71475215Y-96225217D01*
X71475216Y-96225216D01*
X71540993Y-96144545D01*
X71540992Y-96144543D01*
X69750000Y-94353552D01*
X67959006Y-96144543D01*
X66250500Y-96144543D01*
X66250500Y-92394894D01*
X67750000Y-92394894D01*
X67750000Y-95605089D01*
X67750001Y-95605102D01*
X67753376Y-95643071D01*
X69396448Y-94000000D01*
X69396448Y-93999999D01*
X70103552Y-93999999D01*
X70103552Y-94000000D01*
X71746623Y-95643072D01*
X71749999Y-95605097D01*
X71749999Y-92394906D01*
X71749998Y-92394903D01*
X71746622Y-92356928D01*
X71746621Y-92356928D01*
X70103552Y-93999999D01*
X69396448Y-93999999D01*
X67753375Y-92356926D01*
X67750000Y-92394894D01*
X66250500Y-92394894D01*
X66250500Y-91855453D01*
X67959006Y-91855453D01*
X67959006Y-91855455D01*
X69750000Y-93646448D01*
X69750001Y-93646448D01*
X71540992Y-91855455D01*
X71540992Y-91855454D01*
X71475211Y-91774779D01*
X71325479Y-91652689D01*
X71325475Y-91652687D01*
X71154215Y-91563228D01*
X70968461Y-91510079D01*
X70968458Y-91510078D01*
X70855096Y-91500000D01*
X68644907Y-91500000D01*
X68644901Y-91500001D01*
X68531539Y-91510078D01*
X68345784Y-91563228D01*
X68174525Y-91652686D01*
X68024781Y-91774786D01*
X67959006Y-91855453D01*
X66250500Y-91855453D01*
X66250500Y-85823920D01*
X67339499Y-85823920D01*
X67368340Y-85968907D01*
X67368343Y-85968917D01*
X67424914Y-86105492D01*
X67457812Y-86154727D01*
X67457813Y-86154730D01*
X67507046Y-86228414D01*
X67507052Y-86228421D01*
X70111584Y-88832952D01*
X70111586Y-88832954D01*
X70141058Y-88852645D01*
X70185270Y-88882186D01*
X70234505Y-88915084D01*
X70234506Y-88915084D01*
X70234507Y-88915085D01*
X70234509Y-88915086D01*
X70371082Y-88971656D01*
X70371087Y-88971658D01*
X70371091Y-88971658D01*
X70371092Y-88971659D01*
X70516079Y-89000500D01*
X70516082Y-89000500D01*
X70516083Y-89000500D01*
X70663917Y-89000500D01*
X71827770Y-89000500D01*
X71894809Y-89020185D01*
X71915451Y-89036819D01*
X73463181Y-90584549D01*
X73496666Y-90645872D01*
X73499500Y-90672230D01*
X73499500Y-91375500D01*
X73479815Y-91442539D01*
X73427011Y-91488294D01*
X73375500Y-91499500D01*
X73144862Y-91499500D01*
X73139227Y-91500001D01*
X73031451Y-91509582D01*
X72845594Y-91562762D01*
X72674250Y-91652265D01*
X72524428Y-91774428D01*
X72402265Y-91924250D01*
X72312762Y-92095594D01*
X72259582Y-92281451D01*
X72249500Y-92394863D01*
X72249500Y-95605136D01*
X72259582Y-95718548D01*
X72312762Y-95904405D01*
X72312763Y-95904406D01*
X72402266Y-96075751D01*
X72428204Y-96107561D01*
X72524428Y-96225571D01*
X72599339Y-96286652D01*
X72674249Y-96347734D01*
X72845594Y-96437237D01*
X73031448Y-96490417D01*
X73144862Y-96500500D01*
X73144870Y-96500500D01*
X75355130Y-96500500D01*
X75355138Y-96500500D01*
X75468552Y-96490417D01*
X75654406Y-96437237D01*
X75825751Y-96347734D01*
X75975571Y-96225571D01*
X76097734Y-96075751D01*
X76187237Y-95904406D01*
X76240417Y-95718552D01*
X76250500Y-95605138D01*
X76250500Y-92394862D01*
X76240417Y-92281448D01*
X76187237Y-92095594D01*
X76097734Y-91924249D01*
X76036652Y-91849339D01*
X75975571Y-91774428D01*
X75883700Y-91699518D01*
X75825751Y-91652266D01*
X75811082Y-91644604D01*
X75654405Y-91562762D01*
X75470285Y-91510079D01*
X75468552Y-91509583D01*
X75468551Y-91509582D01*
X75468548Y-91509582D01*
X75379662Y-91501680D01*
X75355138Y-91499500D01*
X75355136Y-91499500D01*
X75124500Y-91499500D01*
X75057461Y-91479815D01*
X75011706Y-91427011D01*
X75000500Y-91375500D01*
X75000500Y-90236079D01*
X74971659Y-90091092D01*
X74971658Y-90091091D01*
X74971658Y-90091087D01*
X74915084Y-89954505D01*
X74882186Y-89905270D01*
X74874073Y-89893127D01*
X74832956Y-89831589D01*
X74832952Y-89831584D01*
X72668421Y-87667052D01*
X72668414Y-87667046D01*
X72594729Y-87617812D01*
X72594729Y-87617813D01*
X72545491Y-87584913D01*
X72408917Y-87528343D01*
X72408907Y-87528340D01*
X72263920Y-87499500D01*
X72263918Y-87499500D01*
X70952230Y-87499500D01*
X70885191Y-87479815D01*
X70864549Y-87463181D01*
X68876819Y-85475451D01*
X68843334Y-85414128D01*
X68840500Y-85387770D01*
X68840500Y-79770519D01*
X68860185Y-79703480D01*
X68912989Y-79657725D01*
X68982147Y-79647781D01*
X69045703Y-79676806D01*
X69052181Y-79682838D01*
X69463181Y-80093838D01*
X69496666Y-80155161D01*
X69499500Y-80181519D01*
X69499500Y-81105136D01*
X69509582Y-81218548D01*
X69509582Y-81218551D01*
X69509583Y-81218552D01*
X69513863Y-81233511D01*
X69562762Y-81404405D01*
X69629873Y-81532882D01*
X69652266Y-81575751D01*
X69668928Y-81596185D01*
X69774428Y-81725571D01*
X69849339Y-81786652D01*
X69924249Y-81847734D01*
X70095594Y-81937237D01*
X70281448Y-81990417D01*
X70394862Y-82000500D01*
X71487770Y-82000500D01*
X71554809Y-82020185D01*
X71575451Y-82036819D01*
X73167048Y-83628416D01*
X74017049Y-84478416D01*
X74121584Y-84582951D01*
X74121587Y-84582953D01*
X74121588Y-84582954D01*
X74244503Y-84665083D01*
X74244506Y-84665085D01*
X74294665Y-84685861D01*
X74301080Y-84688518D01*
X74381088Y-84721659D01*
X74497241Y-84744763D01*
X74520380Y-84749365D01*
X74526081Y-84750500D01*
X84500191Y-84750500D01*
X84567230Y-84770185D01*
X84612985Y-84822989D01*
X84622929Y-84892147D01*
X84593904Y-84955703D01*
X84587872Y-84962181D01*
X81985331Y-87564723D01*
X78244727Y-91305325D01*
X78244721Y-91305332D01*
X78191711Y-91384668D01*
X78191712Y-91384669D01*
X78173537Y-91411869D01*
X78173534Y-91411874D01*
X78171307Y-91417251D01*
X78168945Y-91422952D01*
X78125106Y-91477355D01*
X78058813Y-91499421D01*
X78054385Y-91499500D01*
X77644862Y-91499500D01*
X77639227Y-91500001D01*
X77531451Y-91509582D01*
X77345594Y-91562762D01*
X77174250Y-91652265D01*
X77024428Y-91774428D01*
X76902265Y-91924250D01*
X76812762Y-92095594D01*
X76759582Y-92281451D01*
X76749500Y-92394863D01*
X76749500Y-95605136D01*
X76759582Y-95718548D01*
X76812762Y-95904405D01*
X76812763Y-95904406D01*
X76902266Y-96075751D01*
X76928204Y-96107561D01*
X77024428Y-96225571D01*
X77099339Y-96286652D01*
X77174249Y-96347734D01*
X77345594Y-96437237D01*
X77531448Y-96490417D01*
X77644862Y-96500500D01*
X77644870Y-96500500D01*
X79855130Y-96500500D01*
X79855138Y-96500500D01*
X79968552Y-96490417D01*
X80154406Y-96437237D01*
X80325751Y-96347734D01*
X80475571Y-96225571D01*
X80597734Y-96075751D01*
X80687237Y-95904406D01*
X80740417Y-95718552D01*
X80750500Y-95605138D01*
X80750500Y-92394863D01*
X81249500Y-92394863D01*
X81249500Y-95605136D01*
X81259582Y-95718548D01*
X81312762Y-95904405D01*
X81312763Y-95904406D01*
X81402266Y-96075751D01*
X81428204Y-96107561D01*
X81524428Y-96225571D01*
X81599339Y-96286652D01*
X81674249Y-96347734D01*
X81845594Y-96437237D01*
X82031448Y-96490417D01*
X82144862Y-96500500D01*
X82144870Y-96500500D01*
X84355130Y-96500500D01*
X84355138Y-96500500D01*
X84468552Y-96490417D01*
X84654406Y-96437237D01*
X84825751Y-96347734D01*
X84975571Y-96225571D01*
X85097734Y-96075751D01*
X85187237Y-95904406D01*
X85240417Y-95718552D01*
X85250500Y-95605138D01*
X85250500Y-92394863D01*
X85749500Y-92394863D01*
X85749500Y-95605136D01*
X85759582Y-95718548D01*
X85812762Y-95904405D01*
X85812763Y-95904406D01*
X85902266Y-96075751D01*
X85928204Y-96107561D01*
X86024428Y-96225571D01*
X86099339Y-96286652D01*
X86174249Y-96347734D01*
X86345594Y-96437237D01*
X86531448Y-96490417D01*
X86644862Y-96500500D01*
X86644870Y-96500500D01*
X88855130Y-96500500D01*
X88855138Y-96500500D01*
X88968552Y-96490417D01*
X89154406Y-96437237D01*
X89325751Y-96347734D01*
X89475571Y-96225571D01*
X89597734Y-96075751D01*
X89687237Y-95904406D01*
X89740417Y-95718552D01*
X89750500Y-95605138D01*
X89750500Y-92394863D01*
X90249500Y-92394863D01*
X90249500Y-95605136D01*
X90259582Y-95718548D01*
X90312762Y-95904405D01*
X90312763Y-95904406D01*
X90402266Y-96075751D01*
X90428204Y-96107561D01*
X90524428Y-96225571D01*
X90599339Y-96286652D01*
X90674249Y-96347734D01*
X90845594Y-96437237D01*
X91031448Y-96490417D01*
X91144862Y-96500500D01*
X91144870Y-96500500D01*
X93355130Y-96500500D01*
X93355138Y-96500500D01*
X93468552Y-96490417D01*
X93654406Y-96437237D01*
X93825751Y-96347734D01*
X93975571Y-96225571D01*
X94097734Y-96075751D01*
X94187237Y-95904406D01*
X94240417Y-95718552D01*
X94250500Y-95605138D01*
X94250500Y-92394863D01*
X94749500Y-92394863D01*
X94749500Y-95605136D01*
X94759582Y-95718548D01*
X94812762Y-95904405D01*
X94812763Y-95904406D01*
X94902266Y-96075751D01*
X94928204Y-96107561D01*
X95024428Y-96225571D01*
X95099339Y-96286652D01*
X95174249Y-96347734D01*
X95345594Y-96437237D01*
X95531448Y-96490417D01*
X95644862Y-96500500D01*
X95644870Y-96500500D01*
X97855130Y-96500500D01*
X97855138Y-96500500D01*
X97968552Y-96490417D01*
X98154406Y-96437237D01*
X98325751Y-96347734D01*
X98475571Y-96225571D01*
X98597734Y-96075751D01*
X98687237Y-95904406D01*
X98740417Y-95718552D01*
X98750500Y-95605138D01*
X98750500Y-92394863D01*
X99249500Y-92394863D01*
X99249500Y-95605136D01*
X99259582Y-95718548D01*
X99312762Y-95904405D01*
X99312763Y-95904406D01*
X99402266Y-96075751D01*
X99428204Y-96107561D01*
X99524428Y-96225571D01*
X99599339Y-96286652D01*
X99674249Y-96347734D01*
X99845594Y-96437237D01*
X100031448Y-96490417D01*
X100144862Y-96500500D01*
X100144870Y-96500500D01*
X102355130Y-96500500D01*
X102355138Y-96500500D01*
X102468552Y-96490417D01*
X102654406Y-96437237D01*
X102825751Y-96347734D01*
X102975571Y-96225571D01*
X103097734Y-96075751D01*
X103187237Y-95904406D01*
X103240417Y-95718552D01*
X103250500Y-95605138D01*
X103250500Y-92394862D01*
X103240417Y-92281448D01*
X103187237Y-92095594D01*
X103097734Y-91924249D01*
X103036652Y-91849339D01*
X102975571Y-91774428D01*
X102883700Y-91699518D01*
X102825751Y-91652266D01*
X102811082Y-91644604D01*
X102654405Y-91562762D01*
X102470285Y-91510079D01*
X102468552Y-91509583D01*
X102468551Y-91509582D01*
X102468548Y-91509582D01*
X102379662Y-91501680D01*
X102355138Y-91499500D01*
X100144862Y-91499500D01*
X100139227Y-91500001D01*
X100031451Y-91509582D01*
X99845594Y-91562762D01*
X99674250Y-91652265D01*
X99524428Y-91774428D01*
X99402265Y-91924250D01*
X99312762Y-92095594D01*
X99259582Y-92281451D01*
X99249500Y-92394863D01*
X98750500Y-92394863D01*
X98750500Y-92394862D01*
X98740417Y-92281448D01*
X98687237Y-92095594D01*
X98597734Y-91924249D01*
X98536652Y-91849339D01*
X98475571Y-91774428D01*
X98383700Y-91699518D01*
X98325751Y-91652266D01*
X98311082Y-91644604D01*
X98154405Y-91562762D01*
X97970285Y-91510079D01*
X97968552Y-91509583D01*
X97968551Y-91509582D01*
X97968548Y-91509582D01*
X97879662Y-91501680D01*
X97855138Y-91499500D01*
X95644862Y-91499500D01*
X95639227Y-91500001D01*
X95531451Y-91509582D01*
X95345594Y-91562762D01*
X95174250Y-91652265D01*
X95024428Y-91774428D01*
X94902265Y-91924250D01*
X94812762Y-92095594D01*
X94759582Y-92281451D01*
X94749500Y-92394863D01*
X94250500Y-92394863D01*
X94250500Y-92394862D01*
X94240417Y-92281448D01*
X94187237Y-92095594D01*
X94097734Y-91924249D01*
X94036652Y-91849339D01*
X93975571Y-91774428D01*
X93883700Y-91699518D01*
X93825751Y-91652266D01*
X93811082Y-91644604D01*
X93654405Y-91562762D01*
X93470285Y-91510079D01*
X93468552Y-91509583D01*
X93468551Y-91509582D01*
X93468548Y-91509582D01*
X93379662Y-91501680D01*
X93355138Y-91499500D01*
X93355136Y-91499500D01*
X93058588Y-91499500D01*
X92991549Y-91479815D01*
X92945794Y-91427011D01*
X92935850Y-91357853D01*
X92944027Y-91328048D01*
X93001656Y-91188917D01*
X93001658Y-91188913D01*
X93030500Y-91043918D01*
X93030500Y-90896082D01*
X93030500Y-90896079D01*
X93001659Y-90751092D01*
X93001658Y-90751091D01*
X93001658Y-90751087D01*
X93001656Y-90751082D01*
X92945087Y-90614511D01*
X92945080Y-90614498D01*
X92862951Y-90491584D01*
X92862948Y-90491580D01*
X92758419Y-90387051D01*
X92758415Y-90387048D01*
X92635501Y-90304919D01*
X92635488Y-90304912D01*
X92498917Y-90248343D01*
X92498907Y-90248340D01*
X92353920Y-90219500D01*
X92353918Y-90219500D01*
X92206082Y-90219500D01*
X92206080Y-90219500D01*
X92061092Y-90248340D01*
X92061082Y-90248343D01*
X91924511Y-90304912D01*
X91924498Y-90304919D01*
X91801584Y-90387048D01*
X91801580Y-90387051D01*
X91697051Y-90491580D01*
X91697048Y-90491584D01*
X91614919Y-90614498D01*
X91614912Y-90614511D01*
X91558343Y-90751082D01*
X91558340Y-90751092D01*
X91529500Y-90896079D01*
X91529500Y-90896082D01*
X91529500Y-91043918D01*
X91529500Y-91043920D01*
X91529499Y-91043920D01*
X91558340Y-91188907D01*
X91558342Y-91188913D01*
X91590061Y-91265489D01*
X91591687Y-91273666D01*
X91594477Y-91278007D01*
X91599500Y-91312942D01*
X91599500Y-91375500D01*
X91579815Y-91442539D01*
X91527011Y-91488294D01*
X91475500Y-91499500D01*
X91144862Y-91499500D01*
X91139227Y-91500001D01*
X91031451Y-91509582D01*
X90845594Y-91562762D01*
X90674250Y-91652265D01*
X90524428Y-91774428D01*
X90402265Y-91924250D01*
X90312762Y-92095594D01*
X90259582Y-92281451D01*
X90249500Y-92394863D01*
X89750500Y-92394863D01*
X89750500Y-92394862D01*
X89740417Y-92281448D01*
X89687237Y-92095594D01*
X89597734Y-91924249D01*
X89536652Y-91849339D01*
X89475571Y-91774428D01*
X89383700Y-91699518D01*
X89325751Y-91652266D01*
X89311082Y-91644604D01*
X89154405Y-91562762D01*
X88970285Y-91510079D01*
X88968552Y-91509583D01*
X88968551Y-91509582D01*
X88968548Y-91509582D01*
X88879662Y-91501680D01*
X88855138Y-91499500D01*
X88855136Y-91499500D01*
X88524500Y-91499500D01*
X88457461Y-91479815D01*
X88411706Y-91427011D01*
X88400500Y-91375500D01*
X88400500Y-89935928D01*
X88375502Y-89810261D01*
X88375501Y-89810260D01*
X88375501Y-89810256D01*
X88326465Y-89691873D01*
X88255277Y-89585331D01*
X88255275Y-89585329D01*
X88255273Y-89585326D01*
X88255272Y-89585325D01*
X87262601Y-88592655D01*
X87234853Y-88546357D01*
X87233989Y-88546715D01*
X87175087Y-88404511D01*
X87175080Y-88404498D01*
X87092951Y-88281584D01*
X87092948Y-88281580D01*
X86988419Y-88177051D01*
X86988415Y-88177048D01*
X86865501Y-88094919D01*
X86865488Y-88094912D01*
X86728917Y-88038343D01*
X86728907Y-88038340D01*
X86583920Y-88009500D01*
X86583918Y-88009500D01*
X86436082Y-88009500D01*
X86436080Y-88009500D01*
X86291092Y-88038340D01*
X86291082Y-88038343D01*
X86154511Y-88094912D01*
X86154498Y-88094919D01*
X86031584Y-88177048D01*
X86031580Y-88177051D01*
X85927051Y-88281580D01*
X85927048Y-88281584D01*
X85844919Y-88404498D01*
X85844912Y-88404511D01*
X85788343Y-88541082D01*
X85788340Y-88541092D01*
X85759500Y-88686079D01*
X85759500Y-88686082D01*
X85759500Y-88833918D01*
X85759500Y-88833920D01*
X85759499Y-88833920D01*
X85788340Y-88978907D01*
X85788343Y-88978917D01*
X85844912Y-89115488D01*
X85844919Y-89115501D01*
X85927048Y-89238415D01*
X85927051Y-89238419D01*
X86031580Y-89342948D01*
X86031584Y-89342951D01*
X86154498Y-89425080D01*
X86154511Y-89425087D01*
X86296715Y-89483989D01*
X86296357Y-89484853D01*
X86342655Y-89512601D01*
X87063181Y-90233127D01*
X87096666Y-90294450D01*
X87099500Y-90320808D01*
X87099500Y-91375500D01*
X87079815Y-91442539D01*
X87027011Y-91488294D01*
X86975500Y-91499500D01*
X86644862Y-91499500D01*
X86639227Y-91500001D01*
X86531451Y-91509582D01*
X86345594Y-91562762D01*
X86174250Y-91652265D01*
X86024428Y-91774428D01*
X85902265Y-91924250D01*
X85812762Y-92095594D01*
X85759582Y-92281451D01*
X85749500Y-92394863D01*
X85250500Y-92394863D01*
X85250500Y-92394862D01*
X85240417Y-92281448D01*
X85187237Y-92095594D01*
X85097734Y-91924249D01*
X85036652Y-91849339D01*
X84975571Y-91774428D01*
X84883700Y-91699518D01*
X84825751Y-91652266D01*
X84811082Y-91644604D01*
X84654405Y-91562762D01*
X84470285Y-91510079D01*
X84468552Y-91509583D01*
X84468551Y-91509582D01*
X84468548Y-91509582D01*
X84379662Y-91501680D01*
X84355138Y-91499500D01*
X82144862Y-91499500D01*
X82139227Y-91500001D01*
X82031451Y-91509582D01*
X81845594Y-91562762D01*
X81674250Y-91652265D01*
X81524428Y-91774428D01*
X81402265Y-91924250D01*
X81312762Y-92095594D01*
X81259582Y-92281451D01*
X81249500Y-92394863D01*
X80750500Y-92394863D01*
X80750500Y-92394862D01*
X80740417Y-92281448D01*
X80687237Y-92095594D01*
X80597734Y-91924249D01*
X80536652Y-91849339D01*
X80475571Y-91774428D01*
X80383700Y-91699518D01*
X80325751Y-91652266D01*
X80309709Y-91643886D01*
X80154403Y-91562761D01*
X80102498Y-91547909D01*
X80043461Y-91510541D01*
X80013999Y-91447187D01*
X80023465Y-91377962D01*
X80048928Y-91341016D01*
X82905277Y-88484669D01*
X85263127Y-86126819D01*
X85324450Y-86093334D01*
X85350808Y-86090500D01*
X107085931Y-86090500D01*
X108100192Y-86090500D01*
X108167231Y-86110185D01*
X108212986Y-86162989D01*
X108222930Y-86232147D01*
X108193905Y-86295703D01*
X108187873Y-86302181D01*
X105244727Y-89245325D01*
X105244724Y-89245328D01*
X105183830Y-89336463D01*
X105183831Y-89336464D01*
X105173536Y-89351871D01*
X105173533Y-89351877D01*
X105124499Y-89470255D01*
X105124497Y-89470261D01*
X105099500Y-89595928D01*
X105099500Y-91375500D01*
X105079815Y-91442539D01*
X105027011Y-91488294D01*
X104975500Y-91499500D01*
X104644862Y-91499500D01*
X104639227Y-91500001D01*
X104531451Y-91509582D01*
X104345594Y-91562762D01*
X104174250Y-91652265D01*
X104024428Y-91774428D01*
X103902265Y-91924250D01*
X103812762Y-92095594D01*
X103759582Y-92281451D01*
X103749500Y-92394863D01*
X103749500Y-95605136D01*
X103759582Y-95718548D01*
X103812762Y-95904405D01*
X103812763Y-95904406D01*
X103902266Y-96075751D01*
X103928204Y-96107561D01*
X104024428Y-96225571D01*
X104099339Y-96286652D01*
X104174249Y-96347734D01*
X104345594Y-96437237D01*
X104531448Y-96490417D01*
X104644862Y-96500500D01*
X104644870Y-96500500D01*
X106855130Y-96500500D01*
X106855138Y-96500500D01*
X106968552Y-96490417D01*
X107154406Y-96437237D01*
X107325751Y-96347734D01*
X107475571Y-96225571D01*
X107597734Y-96075751D01*
X107687237Y-95904406D01*
X107740417Y-95718552D01*
X107750500Y-95605138D01*
X107750500Y-92394863D01*
X108249500Y-92394863D01*
X108249500Y-95605136D01*
X108259582Y-95718548D01*
X108312762Y-95904405D01*
X108312763Y-95904406D01*
X108402266Y-96075751D01*
X108428204Y-96107561D01*
X108524428Y-96225571D01*
X108599339Y-96286652D01*
X108674249Y-96347734D01*
X108845594Y-96437237D01*
X109031448Y-96490417D01*
X109144862Y-96500500D01*
X109144870Y-96500500D01*
X111355130Y-96500500D01*
X111355138Y-96500500D01*
X111468552Y-96490417D01*
X111654406Y-96437237D01*
X111825751Y-96347734D01*
X111975571Y-96225571D01*
X112097734Y-96075751D01*
X112187237Y-95904406D01*
X112240417Y-95718552D01*
X112250500Y-95605138D01*
X112250500Y-92394862D01*
X112240417Y-92281448D01*
X112187237Y-92095594D01*
X112097734Y-91924249D01*
X112036652Y-91849339D01*
X111975571Y-91774428D01*
X111883700Y-91699518D01*
X111825751Y-91652266D01*
X111811082Y-91644604D01*
X111654405Y-91562762D01*
X111470285Y-91510079D01*
X111468552Y-91509583D01*
X111468551Y-91509582D01*
X111468548Y-91509582D01*
X111379662Y-91501680D01*
X111355138Y-91499500D01*
X109144862Y-91499500D01*
X109139227Y-91500001D01*
X109031451Y-91509582D01*
X108845594Y-91562762D01*
X108674250Y-91652265D01*
X108524428Y-91774428D01*
X108402265Y-91924250D01*
X108312762Y-92095594D01*
X108259582Y-92281451D01*
X108249500Y-92394863D01*
X107750500Y-92394863D01*
X107750500Y-92394862D01*
X107740417Y-92281448D01*
X107687237Y-92095594D01*
X107597734Y-91924249D01*
X107536652Y-91849339D01*
X107475571Y-91774428D01*
X107383700Y-91699518D01*
X107325751Y-91652266D01*
X107311082Y-91644604D01*
X107154405Y-91562762D01*
X106970285Y-91510079D01*
X106968552Y-91509583D01*
X106968551Y-91509582D01*
X106968548Y-91509582D01*
X106879662Y-91501680D01*
X106855138Y-91499500D01*
X106855136Y-91499500D01*
X106524500Y-91499500D01*
X106457461Y-91479815D01*
X106411706Y-91427011D01*
X106400500Y-91375500D01*
X106400500Y-89980808D01*
X106420185Y-89913769D01*
X106436819Y-89893127D01*
X113095275Y-83234671D01*
X113095277Y-83234669D01*
X113166465Y-83128127D01*
X113168146Y-83124069D01*
X113215501Y-83009744D01*
X113240500Y-82884069D01*
X113240500Y-81835931D01*
X113240500Y-81835928D01*
X113218174Y-81723691D01*
X113220051Y-81702706D01*
X113217053Y-81681852D01*
X113223103Y-81668604D01*
X113224401Y-81654099D01*
X113237325Y-81637461D01*
X113246078Y-81618296D01*
X113258330Y-81610421D01*
X113267264Y-81598922D01*
X113287130Y-81591913D01*
X113304856Y-81580522D01*
X113329438Y-81576987D01*
X113333153Y-81575677D01*
X113339791Y-81575499D01*
X113518332Y-81575499D01*
X113518348Y-81575500D01*
X113525944Y-81575500D01*
X113684059Y-81575500D01*
X113690004Y-81574717D01*
X113759040Y-81585479D01*
X113769316Y-81590923D01*
X113848008Y-81637461D01*
X113865607Y-81647869D01*
X113887051Y-81654099D01*
X114019791Y-81692664D01*
X114019794Y-81692664D01*
X114019796Y-81692665D01*
X114055819Y-81695500D01*
X114454180Y-81695499D01*
X114490204Y-81692665D01*
X114515905Y-81685198D01*
X114585773Y-81685397D01*
X114644444Y-81723338D01*
X114673288Y-81786976D01*
X114674500Y-81804274D01*
X114674500Y-82174902D01*
X114654815Y-82241941D01*
X114638181Y-82262583D01*
X114269481Y-82631282D01*
X114269479Y-82631285D01*
X114225891Y-82706784D01*
X114225889Y-82706786D01*
X114190425Y-82768209D01*
X114190423Y-82768212D01*
X114170194Y-82843709D01*
X114149499Y-82920943D01*
X114149499Y-82920945D01*
X114149499Y-83089046D01*
X114149500Y-83089059D01*
X114149500Y-91375500D01*
X114129815Y-91442539D01*
X114077011Y-91488294D01*
X114025500Y-91499500D01*
X113644862Y-91499500D01*
X113639227Y-91500001D01*
X113531451Y-91509582D01*
X113345594Y-91562762D01*
X113174250Y-91652265D01*
X113024428Y-91774428D01*
X112902265Y-91924250D01*
X112812762Y-92095594D01*
X112759582Y-92281451D01*
X112749500Y-92394863D01*
X112749500Y-95605136D01*
X112759582Y-95718548D01*
X112812762Y-95904405D01*
X112812763Y-95904406D01*
X112902266Y-96075751D01*
X112928204Y-96107561D01*
X113024428Y-96225571D01*
X113099339Y-96286652D01*
X113174249Y-96347734D01*
X113345594Y-96437237D01*
X113531448Y-96490417D01*
X113644862Y-96500500D01*
X113644870Y-96500500D01*
X115855130Y-96500500D01*
X115855138Y-96500500D01*
X115968552Y-96490417D01*
X116154406Y-96437237D01*
X116325751Y-96347734D01*
X116475571Y-96225571D01*
X116541641Y-96144543D01*
X117459006Y-96144543D01*
X117459006Y-96144544D01*
X117524788Y-96225220D01*
X117674520Y-96347310D01*
X117674524Y-96347312D01*
X117845784Y-96436771D01*
X118031538Y-96489920D01*
X118031541Y-96489921D01*
X118144903Y-96499999D01*
X120355092Y-96499999D01*
X120355098Y-96499998D01*
X120468460Y-96489921D01*
X120654215Y-96436771D01*
X120825475Y-96347312D01*
X120825479Y-96347310D01*
X120975215Y-96225217D01*
X120975216Y-96225216D01*
X121040993Y-96144545D01*
X121040992Y-96144543D01*
X119250000Y-94353552D01*
X117459006Y-96144543D01*
X116541641Y-96144543D01*
X116597734Y-96075751D01*
X116687237Y-95904406D01*
X116740417Y-95718552D01*
X116750500Y-95605138D01*
X116750500Y-92394894D01*
X117250000Y-92394894D01*
X117250000Y-95605089D01*
X117250001Y-95605102D01*
X117253376Y-95643071D01*
X118896448Y-94000000D01*
X118896448Y-93999999D01*
X119603552Y-93999999D01*
X119603552Y-94000001D01*
X121246623Y-95643072D01*
X121249999Y-95605097D01*
X121249999Y-92394906D01*
X121249998Y-92394903D01*
X121246622Y-92356928D01*
X121246621Y-92356928D01*
X119603552Y-93999999D01*
X118896448Y-93999999D01*
X117253375Y-92356926D01*
X117250000Y-92394894D01*
X116750500Y-92394894D01*
X116750500Y-92394862D01*
X116740417Y-92281448D01*
X116687237Y-92095594D01*
X116597734Y-91924249D01*
X116541638Y-91855453D01*
X117459006Y-91855453D01*
X117459006Y-91855455D01*
X119250000Y-93646448D01*
X119250001Y-93646448D01*
X121040992Y-91855455D01*
X121040992Y-91855454D01*
X120975211Y-91774779D01*
X120825479Y-91652689D01*
X120825475Y-91652687D01*
X120654215Y-91563228D01*
X120468461Y-91510079D01*
X120468458Y-91510078D01*
X120355096Y-91500000D01*
X118144907Y-91500000D01*
X118144901Y-91500001D01*
X118031539Y-91510078D01*
X117845784Y-91563228D01*
X117674525Y-91652686D01*
X117524781Y-91774786D01*
X117459006Y-91855453D01*
X116541638Y-91855453D01*
X116533304Y-91845232D01*
X116475571Y-91774428D01*
X116383700Y-91699518D01*
X116325751Y-91652266D01*
X116311082Y-91644604D01*
X116154405Y-91562762D01*
X115970285Y-91510079D01*
X115968552Y-91509583D01*
X115968551Y-91509582D01*
X115968548Y-91509582D01*
X115879662Y-91501680D01*
X115855138Y-91499500D01*
X115855136Y-91499500D01*
X115474500Y-91499500D01*
X115407461Y-91479815D01*
X115361706Y-91427011D01*
X115350500Y-91375500D01*
X115350500Y-83300096D01*
X115370185Y-83233057D01*
X115386815Y-83212419D01*
X115633506Y-82965727D01*
X115633511Y-82965724D01*
X115643714Y-82955520D01*
X115643716Y-82955520D01*
X115755520Y-82843716D01*
X115758288Y-82838921D01*
X115812695Y-82744686D01*
X115812698Y-82744677D01*
X115812704Y-82744669D01*
X115834577Y-82706785D01*
X115875500Y-82554057D01*
X115875500Y-82395943D01*
X115875500Y-81586339D01*
X115881547Y-81565742D01*
X115882839Y-81544312D01*
X115891196Y-81532882D01*
X115895185Y-81519300D01*
X115911408Y-81505242D01*
X115924081Y-81487912D01*
X115941068Y-81479541D01*
X115947989Y-81473545D01*
X115954866Y-81470651D01*
X115961024Y-81468275D01*
X116086785Y-81434577D01*
X116155812Y-81394724D01*
X116223716Y-81355520D01*
X116335520Y-81243716D01*
X116335520Y-81243714D01*
X116345724Y-81233511D01*
X116345727Y-81233506D01*
X117200520Y-80378716D01*
X117279577Y-80241784D01*
X117320501Y-80089057D01*
X117320501Y-79930942D01*
X117320501Y-79923347D01*
X117320500Y-79923329D01*
X117320500Y-77860942D01*
X117320108Y-77859480D01*
X117320103Y-77859462D01*
X117310444Y-77823414D01*
X117308167Y-77814916D01*
X117279577Y-77708216D01*
X117245028Y-77648375D01*
X117200524Y-77571290D01*
X117200521Y-77571286D01*
X117200520Y-77571284D01*
X117088716Y-77459480D01*
X117088715Y-77459479D01*
X117084385Y-77455149D01*
X117084374Y-77455139D01*
X116755668Y-77126433D01*
X116722183Y-77065110D01*
X116727167Y-76995418D01*
X116755668Y-76951070D01*
X116830181Y-76876557D01*
X116830185Y-76876552D01*
X116913781Y-76735198D01*
X116959600Y-76577486D01*
X116959795Y-76575001D01*
X116959795Y-76575000D01*
X116065912Y-76575000D01*
X116061109Y-76574907D01*
X116047232Y-76574369D01*
X116029057Y-76569499D01*
X115921596Y-76569499D01*
X115919197Y-76569406D01*
X115888264Y-76559005D01*
X115856961Y-76549814D01*
X115855330Y-76547932D01*
X115852970Y-76547139D01*
X115832563Y-76521657D01*
X115811206Y-76497010D01*
X115810602Y-76494235D01*
X115809295Y-76492603D01*
X115808415Y-76484184D01*
X115800000Y-76445499D01*
X115800000Y-76199000D01*
X115819685Y-76131961D01*
X115872489Y-76086206D01*
X115924000Y-76075000D01*
X116959795Y-76075000D01*
X116959795Y-76074998D01*
X116959600Y-76072513D01*
X116913781Y-75914801D01*
X116830185Y-75773447D01*
X116830178Y-75773438D01*
X116714061Y-75657321D01*
X116714052Y-75657314D01*
X116572696Y-75573717D01*
X116572693Y-75573716D01*
X116414995Y-75527900D01*
X116414989Y-75527899D01*
X116378149Y-75525000D01*
X116093598Y-75525000D01*
X116026559Y-75505315D01*
X115980804Y-75452511D01*
X115970860Y-75383353D01*
X115989246Y-75334017D01*
X115996463Y-75322772D01*
X116015520Y-75303716D01*
X116075100Y-75200520D01*
X116094577Y-75166785D01*
X116135500Y-75014057D01*
X116135500Y-74855943D01*
X116135500Y-71794595D01*
X116155185Y-71727556D01*
X116171818Y-71706914D01*
X116176135Y-71702598D01*
X116257869Y-71564393D01*
X116302665Y-71410204D01*
X116305500Y-71374181D01*
X116305499Y-70875820D01*
X116302665Y-70839796D01*
X116257869Y-70685607D01*
X116176135Y-70547402D01*
X116176133Y-70547400D01*
X116176130Y-70547396D01*
X116062603Y-70433869D01*
X116062595Y-70433863D01*
X115924393Y-70352131D01*
X115924388Y-70352129D01*
X115770208Y-70307335D01*
X115770202Y-70307334D01*
X115734181Y-70304500D01*
X115335830Y-70304500D01*
X115335808Y-70304501D01*
X115299794Y-70307335D01*
X115145611Y-70352129D01*
X115145604Y-70352132D01*
X115088119Y-70386128D01*
X115020395Y-70403309D01*
X114961881Y-70386128D01*
X114904395Y-70352132D01*
X114904388Y-70352129D01*
X114750208Y-70307335D01*
X114750202Y-70307334D01*
X114714181Y-70304500D01*
X114315830Y-70304500D01*
X114315808Y-70304501D01*
X114279794Y-70307335D01*
X114125611Y-70352129D01*
X114125606Y-70352131D01*
X113987404Y-70433863D01*
X113987396Y-70433869D01*
X113983085Y-70438181D01*
X113956157Y-70452884D01*
X113930339Y-70469477D01*
X113924138Y-70470368D01*
X113921762Y-70471666D01*
X113895404Y-70474500D01*
X113759500Y-70474500D01*
X113692461Y-70454815D01*
X113646706Y-70402011D01*
X113635500Y-70350500D01*
X113635500Y-69920928D01*
X113610502Y-69795261D01*
X113610501Y-69795260D01*
X113610501Y-69795256D01*
X113561465Y-69676873D01*
X113547035Y-69655277D01*
X113505070Y-69592471D01*
X113484194Y-69525795D01*
X113489098Y-69488987D01*
X113493820Y-69472734D01*
X113497765Y-69459156D01*
X113500500Y-69424405D01*
X113500499Y-68834499D01*
X113520183Y-68767461D01*
X113572987Y-68721706D01*
X113624499Y-68710500D01*
X114974071Y-68710500D01*
X115058615Y-68693682D01*
X115099744Y-68685501D01*
X115218127Y-68636465D01*
X115250635Y-68614744D01*
X115324669Y-68565277D01*
X120635277Y-63254669D01*
X120706465Y-63148127D01*
X120755501Y-63029743D01*
X120780500Y-62904069D01*
X120780500Y-40045931D01*
X120780500Y-40045928D01*
X120755502Y-39920261D01*
X120755501Y-39920260D01*
X120755501Y-39920256D01*
X120706465Y-39801873D01*
X120665602Y-39740717D01*
X120665600Y-39740714D01*
X120635279Y-39695333D01*
X120635277Y-39695331D01*
X119584674Y-38644727D01*
X119584673Y-38644726D01*
X119584669Y-38644723D01*
X119478127Y-38573535D01*
X119359744Y-38524499D01*
X119359738Y-38524497D01*
X119234071Y-38499500D01*
X119234069Y-38499500D01*
X116874500Y-38499500D01*
X116807461Y-38479815D01*
X116761706Y-38427011D01*
X116750500Y-38375500D01*
X116750500Y-37544869D01*
X116750500Y-37544862D01*
X116740417Y-37431448D01*
X116687237Y-37245594D01*
X116597734Y-37074249D01*
X116536652Y-36999339D01*
X116475571Y-36924428D01*
X116383700Y-36849518D01*
X116325751Y-36802266D01*
X116272458Y-36774428D01*
X116154405Y-36712762D01*
X115999845Y-36668537D01*
X115968552Y-36659583D01*
X115968551Y-36659582D01*
X115968548Y-36659582D01*
X115879662Y-36651680D01*
X115855138Y-36649500D01*
X113644862Y-36649500D01*
X113632599Y-36650590D01*
X113531451Y-36659582D01*
X113345594Y-36712762D01*
X113174250Y-36802265D01*
X113024428Y-36924428D01*
X112902265Y-37074250D01*
X112812762Y-37245594D01*
X112759582Y-37431451D01*
X112749500Y-37544863D01*
X112749500Y-40755136D01*
X112759582Y-40868548D01*
X112812762Y-41054405D01*
X112894604Y-41211082D01*
X112902266Y-41225751D01*
X112949518Y-41283700D01*
X113024428Y-41375571D01*
X113089634Y-41428739D01*
X113174249Y-41497734D01*
X113345594Y-41587237D01*
X113531448Y-41640417D01*
X113644862Y-41650500D01*
X113644870Y-41650500D01*
X115855130Y-41650500D01*
X115855138Y-41650500D01*
X115968552Y-41640417D01*
X116154406Y-41587237D01*
X116325751Y-41497734D01*
X116475571Y-41375571D01*
X116597734Y-41225751D01*
X116687237Y-41054406D01*
X116740417Y-40868552D01*
X116750500Y-40755138D01*
X116750500Y-39924500D01*
X116770185Y-39857461D01*
X116822989Y-39811706D01*
X116874500Y-39800500D01*
X118849192Y-39800500D01*
X118916231Y-39820185D01*
X118936873Y-39836819D01*
X119443181Y-40343127D01*
X119476666Y-40404450D01*
X119479500Y-40430808D01*
X119479500Y-62519192D01*
X119459815Y-62586231D01*
X119443181Y-62606873D01*
X114676873Y-67373181D01*
X114615550Y-67406666D01*
X114589192Y-67409500D01*
X112960862Y-67409500D01*
X112893823Y-67389815D01*
X112873181Y-67373181D01*
X112850000Y-67350000D01*
X111400001Y-67350000D01*
X111400001Y-67424363D01*
X111402733Y-67459078D01*
X111408893Y-67480283D01*
X111408692Y-67550152D01*
X111377497Y-67602556D01*
X110969727Y-68010325D01*
X110969724Y-68010328D01*
X110906123Y-68105514D01*
X110906124Y-68105515D01*
X110898533Y-68116875D01*
X110849499Y-68235255D01*
X110849497Y-68235261D01*
X110824500Y-68360928D01*
X110824500Y-68559060D01*
X110807232Y-68622181D01*
X110795447Y-68642108D01*
X110795446Y-68642111D01*
X110795445Y-68642113D01*
X110775577Y-68710500D01*
X110752234Y-68790847D01*
X110752234Y-68790849D01*
X110749500Y-68825589D01*
X110749500Y-69424393D01*
X110749501Y-69424415D01*
X110752234Y-69459152D01*
X110752235Y-69459154D01*
X110752235Y-69459156D01*
X110795445Y-69607887D01*
X110823471Y-69655276D01*
X110874282Y-69741194D01*
X110874289Y-69741203D01*
X110983796Y-69850710D01*
X110983800Y-69850713D01*
X110983802Y-69850715D01*
X111117113Y-69929555D01*
X111265844Y-69972765D01*
X111300595Y-69975500D01*
X111649404Y-69975499D01*
X111684156Y-69972765D01*
X111832887Y-69929555D01*
X111959307Y-69854789D01*
X112027031Y-69837607D01*
X112093293Y-69859767D01*
X112137057Y-69914233D01*
X112144045Y-69937328D01*
X112149498Y-69964741D01*
X112149499Y-69964744D01*
X112198535Y-70083129D01*
X112264493Y-70181842D01*
X112285371Y-70248519D01*
X112275000Y-70286322D01*
X112275000Y-70626645D01*
X112257734Y-70689763D01*
X112252507Y-70698600D01*
X112252504Y-70698608D01*
X112207357Y-70854002D01*
X112207356Y-70854008D01*
X112204500Y-70890302D01*
X112204500Y-71001000D01*
X112184815Y-71068039D01*
X112132011Y-71113794D01*
X112080500Y-71125000D01*
X112025000Y-71125000D01*
X112025000Y-71251000D01*
X112005315Y-71318039D01*
X111952511Y-71363794D01*
X111901000Y-71375000D01*
X111246210Y-71375000D01*
X111247854Y-71395910D01*
X111292968Y-71551195D01*
X111362391Y-71668582D01*
X111379574Y-71736306D01*
X111357414Y-71802568D01*
X111302948Y-71846332D01*
X111265388Y-71855321D01*
X111239794Y-71857335D01*
X111085611Y-71902129D01*
X111085606Y-71902131D01*
X110947404Y-71983863D01*
X110947396Y-71983869D01*
X110943085Y-71988181D01*
X110881762Y-72021666D01*
X110855404Y-72024500D01*
X110051669Y-72024500D01*
X110051653Y-72024499D01*
X110044057Y-72024499D01*
X109885943Y-72024499D01*
X109778587Y-72053265D01*
X109733210Y-72065424D01*
X109733209Y-72065425D01*
X109683096Y-72094359D01*
X109683095Y-72094360D01*
X109680958Y-72095594D01*
X109596285Y-72144479D01*
X109596282Y-72144481D01*
X109484478Y-72256286D01*
X109011699Y-72729064D01*
X108950376Y-72762549D01*
X108948210Y-72763000D01*
X108871092Y-72778340D01*
X108871084Y-72778342D01*
X108734511Y-72834912D01*
X108734498Y-72834919D01*
X108611584Y-72917048D01*
X108551614Y-72977018D01*
X108490290Y-73010502D01*
X108420599Y-73005517D01*
X108376252Y-72977017D01*
X106274234Y-70874999D01*
X111246209Y-70874999D01*
X111246210Y-70875000D01*
X111775000Y-70875000D01*
X111775000Y-70320494D01*
X111774998Y-70320493D01*
X111628809Y-70362965D01*
X111628806Y-70362967D01*
X111489625Y-70445278D01*
X111489616Y-70445285D01*
X111375285Y-70559616D01*
X111375278Y-70559625D01*
X111292968Y-70698804D01*
X111292966Y-70698809D01*
X111247855Y-70854081D01*
X111247854Y-70854087D01*
X111246209Y-70874999D01*
X106274234Y-70874999D01*
X102662590Y-67263355D01*
X102662588Y-67263352D01*
X102543717Y-67144481D01*
X102543716Y-67144480D01*
X102456904Y-67094360D01*
X102456904Y-67094359D01*
X102456900Y-67094358D01*
X102406785Y-67065423D01*
X102254057Y-67024499D01*
X102095943Y-67024499D01*
X102088347Y-67024499D01*
X102088331Y-67024500D01*
X101749500Y-67024500D01*
X101740814Y-67021949D01*
X101731853Y-67023238D01*
X101707812Y-67012259D01*
X101682461Y-67004815D01*
X101676533Y-66997974D01*
X101668297Y-66994213D01*
X101654007Y-66971978D01*
X101636706Y-66952011D01*
X101634418Y-66941496D01*
X101630523Y-66935435D01*
X101625500Y-66900500D01*
X101625500Y-66825640D01*
X111400000Y-66825640D01*
X111400000Y-66900000D01*
X111900000Y-66900000D01*
X112350000Y-66900000D01*
X112849999Y-66900000D01*
X112849999Y-66825658D01*
X112849998Y-66825636D01*
X112847266Y-66790921D01*
X112804093Y-66642318D01*
X112804092Y-66642315D01*
X112725317Y-66509114D01*
X112725311Y-66509105D01*
X112615894Y-66399688D01*
X112615885Y-66399682D01*
X112482684Y-66320907D01*
X112482683Y-66320906D01*
X112350000Y-66282357D01*
X112350000Y-66900000D01*
X111900000Y-66900000D01*
X111900000Y-66282357D01*
X111767316Y-66320906D01*
X111767315Y-66320907D01*
X111634114Y-66399682D01*
X111634105Y-66399688D01*
X111524688Y-66509105D01*
X111524682Y-66509114D01*
X111445907Y-66642315D01*
X111445906Y-66642318D01*
X111402734Y-66790915D01*
X111402732Y-66790926D01*
X111400000Y-66825640D01*
X101625500Y-66825640D01*
X101625500Y-66519869D01*
X101625500Y-66519862D01*
X101615417Y-66406448D01*
X101562237Y-66220594D01*
X101472734Y-66049249D01*
X101411652Y-65974339D01*
X101350571Y-65899428D01*
X101258700Y-65824518D01*
X101200751Y-65777266D01*
X101173940Y-65763261D01*
X101029405Y-65687762D01*
X100874845Y-65643537D01*
X100843552Y-65634583D01*
X100843551Y-65634582D01*
X100843548Y-65634582D01*
X100754662Y-65626680D01*
X100730138Y-65624500D01*
X97519862Y-65624500D01*
X97507599Y-65625590D01*
X97406451Y-65634582D01*
X97220594Y-65687762D01*
X97049250Y-65777265D01*
X96899428Y-65899428D01*
X96777265Y-66049250D01*
X96687762Y-66220594D01*
X96634582Y-66406451D01*
X96624500Y-66519863D01*
X96624500Y-68730136D01*
X96634582Y-68843548D01*
X96687762Y-69029405D01*
X96687763Y-69029406D01*
X96777266Y-69200751D01*
X96824518Y-69258700D01*
X96899428Y-69350571D01*
X96970893Y-69408843D01*
X97049249Y-69472734D01*
X97220594Y-69562237D01*
X97406448Y-69615417D01*
X97519862Y-69625500D01*
X97519870Y-69625500D01*
X100730130Y-69625500D01*
X100730138Y-69625500D01*
X100843552Y-69615417D01*
X101029406Y-69562237D01*
X101200751Y-69472734D01*
X101350571Y-69350571D01*
X101472734Y-69200751D01*
X101562237Y-69029406D01*
X101615417Y-68843552D01*
X101625500Y-68730138D01*
X101625500Y-68349500D01*
X101628050Y-68340814D01*
X101626762Y-68331853D01*
X101637740Y-68307812D01*
X101645185Y-68282461D01*
X101652025Y-68276533D01*
X101655787Y-68268297D01*
X101678021Y-68254007D01*
X101697989Y-68236706D01*
X101708503Y-68234418D01*
X101714565Y-68230523D01*
X101749500Y-68225500D01*
X101874903Y-68225500D01*
X101941942Y-68245185D01*
X101962584Y-68261819D01*
X109013584Y-75312819D01*
X109047069Y-75374142D01*
X109042085Y-75443834D01*
X109000213Y-75499767D01*
X108934749Y-75524184D01*
X108925903Y-75524500D01*
X108421798Y-75524500D01*
X108384932Y-75527401D01*
X108384926Y-75527402D01*
X108227106Y-75573254D01*
X108227099Y-75573257D01*
X108098002Y-75649604D01*
X108030278Y-75666787D01*
X107987429Y-75657433D01*
X107868913Y-75608342D01*
X107868907Y-75608340D01*
X107723920Y-75579500D01*
X107723918Y-75579500D01*
X85332229Y-75579500D01*
X85265190Y-75559815D01*
X85244548Y-75543181D01*
X82618421Y-72917052D01*
X82618414Y-72917046D01*
X82524806Y-72854500D01*
X82524805Y-72854500D01*
X82495500Y-72834919D01*
X82495488Y-72834912D01*
X82358917Y-72778343D01*
X82358907Y-72778340D01*
X82213920Y-72749500D01*
X82213918Y-72749500D01*
X78424500Y-72749500D01*
X78357461Y-72729815D01*
X78311706Y-72677011D01*
X78300500Y-72625500D01*
X78300500Y-66941643D01*
X78320185Y-66874604D01*
X78359401Y-66836106D01*
X78493656Y-66753298D01*
X78617712Y-66629242D01*
X78709814Y-66479920D01*
X78764999Y-66313383D01*
X78775500Y-66210595D01*
X78775499Y-65610578D01*
X78764999Y-65507789D01*
X78709814Y-65341252D01*
X78617712Y-65191930D01*
X78493656Y-65067874D01*
X78490342Y-65065829D01*
X78488546Y-65063834D01*
X78487989Y-65063393D01*
X78488064Y-65063297D01*
X78443618Y-65013883D01*
X78432397Y-64944920D01*
X78460240Y-64880838D01*
X78490348Y-64854751D01*
X78493342Y-64852904D01*
X78617315Y-64728931D01*
X78709356Y-64579710D01*
X78709358Y-64579705D01*
X78764505Y-64413283D01*
X78764506Y-64413276D01*
X78774999Y-64310572D01*
X78775000Y-64310559D01*
X78775000Y-64260586D01*
X76325001Y-64260586D01*
X76325001Y-64310572D01*
X76335494Y-64413283D01*
X76390641Y-64579705D01*
X76390643Y-64579710D01*
X76482684Y-64728931D01*
X76606655Y-64852902D01*
X76606659Y-64852905D01*
X76609656Y-64854754D01*
X76611279Y-64856558D01*
X76612323Y-64857384D01*
X76612181Y-64857562D01*
X76656381Y-64906702D01*
X76667602Y-64975665D01*
X76639759Y-65039747D01*
X76630176Y-65049990D01*
X76620746Y-65058990D01*
X76606344Y-65067874D01*
X76499441Y-65174776D01*
X76498386Y-65175784D01*
X76468577Y-65191171D01*
X76439127Y-65207252D01*
X76436977Y-65207483D01*
X76436300Y-65207833D01*
X76434931Y-65207703D01*
X76412769Y-65210086D01*
X76262106Y-65210086D01*
X76195067Y-65190401D01*
X76174425Y-65173767D01*
X76156545Y-65155887D01*
X76041807Y-65079222D01*
X75914332Y-65026421D01*
X75914325Y-65026419D01*
X75898410Y-65023253D01*
X75895224Y-65022053D01*
X75893374Y-65022142D01*
X75860608Y-65009025D01*
X75783520Y-64964519D01*
X75783507Y-64964511D01*
X75778778Y-64961780D01*
X75730568Y-64911208D01*
X75717353Y-64842599D01*
X75724606Y-64811071D01*
X75759140Y-64718483D01*
X75765549Y-64658873D01*
X75765548Y-64309128D01*
X75759140Y-64249517D01*
X75708845Y-64114669D01*
X75708844Y-64114668D01*
X75708842Y-64114664D01*
X75622596Y-63999455D01*
X75622593Y-63999452D01*
X75507384Y-63913206D01*
X75507377Y-63913202D01*
X75372535Y-63862910D01*
X75372534Y-63862909D01*
X75372532Y-63862909D01*
X75312922Y-63856500D01*
X75312912Y-63856500D01*
X74687080Y-63856500D01*
X74687074Y-63856501D01*
X74627467Y-63862908D01*
X74492622Y-63913202D01*
X74492617Y-63913205D01*
X74481343Y-63921645D01*
X74415878Y-63946060D01*
X74347606Y-63931207D01*
X74345034Y-63929763D01*
X74335785Y-63924423D01*
X74183057Y-63883499D01*
X74024943Y-63883499D01*
X74017347Y-63883499D01*
X74017331Y-63883500D01*
X73929413Y-63883500D01*
X73886078Y-63875681D01*
X73851839Y-63862910D01*
X73851835Y-63862909D01*
X73851834Y-63862909D01*
X73792224Y-63856500D01*
X73792214Y-63856500D01*
X73166382Y-63856500D01*
X73166376Y-63856501D01*
X73106769Y-63862908D01*
X73081677Y-63872268D01*
X73038344Y-63880086D01*
X72166667Y-63880086D01*
X72099628Y-63860401D01*
X72092670Y-63855587D01*
X72085393Y-63850175D01*
X72065687Y-63830469D01*
X72032519Y-63810853D01*
X72032517Y-63810852D01*
X71926393Y-63748091D01*
X71926390Y-63748090D01*
X71797348Y-63710599D01*
X76325000Y-63710599D01*
X76325000Y-63760586D01*
X77300000Y-63760586D01*
X77800000Y-63760586D01*
X78774999Y-63760586D01*
X78774999Y-63710614D01*
X78774998Y-63710599D01*
X78764505Y-63607888D01*
X78709358Y-63441466D01*
X78709356Y-63441461D01*
X78617315Y-63292240D01*
X78493345Y-63168270D01*
X78344124Y-63076229D01*
X78344119Y-63076227D01*
X78177697Y-63021080D01*
X78177690Y-63021079D01*
X78074986Y-63010586D01*
X77800000Y-63010586D01*
X77800000Y-63760586D01*
X77300000Y-63760586D01*
X77300000Y-63010586D01*
X77025029Y-63010586D01*
X77025012Y-63010587D01*
X76922302Y-63021080D01*
X76755880Y-63076227D01*
X76755875Y-63076229D01*
X76606654Y-63168270D01*
X76482684Y-63292240D01*
X76390643Y-63441461D01*
X76390641Y-63441466D01*
X76335494Y-63607888D01*
X76335493Y-63607895D01*
X76325000Y-63710599D01*
X71797348Y-63710599D01*
X71770997Y-63702943D01*
X71770991Y-63702942D01*
X71734697Y-63700086D01*
X71734690Y-63700086D01*
X71265310Y-63700086D01*
X71265302Y-63700086D01*
X71229008Y-63702942D01*
X71229002Y-63702943D01*
X71073609Y-63748090D01*
X71073606Y-63748091D01*
X70934315Y-63830467D01*
X70934307Y-63830473D01*
X70819887Y-63944893D01*
X70819881Y-63944901D01*
X70737505Y-64084192D01*
X70737504Y-64084195D01*
X70692357Y-64239588D01*
X70692356Y-64239594D01*
X70689500Y-64275888D01*
X70689500Y-64685283D01*
X70692356Y-64721577D01*
X70692357Y-64721583D01*
X70737504Y-64876976D01*
X70737507Y-64876983D01*
X70749910Y-64897956D01*
X70767093Y-64965680D01*
X70749912Y-65024194D01*
X70737968Y-65044390D01*
X70695496Y-65190586D01*
X71001648Y-65190586D01*
X71064766Y-65207853D01*
X71073605Y-65213080D01*
X71073608Y-65213080D01*
X71073610Y-65213082D01*
X71229002Y-65258228D01*
X71229005Y-65258228D01*
X71229007Y-65258229D01*
X71265310Y-65261086D01*
X71265318Y-65261086D01*
X71734682Y-65261086D01*
X71734690Y-65261086D01*
X71770993Y-65258229D01*
X71770995Y-65258228D01*
X71770997Y-65258228D01*
X71926389Y-65213082D01*
X71926389Y-65213081D01*
X71926395Y-65213080D01*
X71935233Y-65207853D01*
X71998352Y-65190586D01*
X72304505Y-65190586D01*
X72318962Y-65171330D01*
X72318967Y-65169812D01*
X72333223Y-65147766D01*
X72344131Y-65123883D01*
X72351896Y-65118892D01*
X72356909Y-65111142D01*
X72380821Y-65100303D01*
X72402909Y-65086109D01*
X72416427Y-65084165D01*
X72420547Y-65082298D01*
X72437844Y-65081086D01*
X72593651Y-65081086D01*
X72660690Y-65100771D01*
X72706445Y-65153575D01*
X72716940Y-65191829D01*
X72721123Y-65230732D01*
X72719458Y-65257642D01*
X72720991Y-65257807D01*
X72713753Y-65325118D01*
X72713753Y-65484227D01*
X72705108Y-65513667D01*
X72698585Y-65543654D01*
X72694830Y-65548669D01*
X72694068Y-65551266D01*
X72677438Y-65571903D01*
X72561580Y-65687762D01*
X72514581Y-65734761D01*
X72453258Y-65768245D01*
X72383566Y-65763261D01*
X72327739Y-65721531D01*
X72304505Y-65690586D01*
X71750000Y-65690586D01*
X71750000Y-66219376D01*
X71762608Y-66231031D01*
X71787183Y-66236195D01*
X71836939Y-66285247D01*
X71852276Y-66353413D01*
X71828325Y-66419049D01*
X71816213Y-66433128D01*
X69052181Y-69197161D01*
X68990858Y-69230646D01*
X68921166Y-69225662D01*
X68865233Y-69183790D01*
X68840816Y-69118326D01*
X68840500Y-69109480D01*
X68840500Y-65690586D01*
X70695496Y-65690586D01*
X70737968Y-65836781D01*
X70820278Y-65975960D01*
X70820285Y-65975969D01*
X70934616Y-66090300D01*
X70934625Y-66090307D01*
X71073804Y-66172617D01*
X71229089Y-66217731D01*
X71250000Y-66219375D01*
X71250000Y-65690586D01*
X70695496Y-65690586D01*
X68840500Y-65690586D01*
X68840500Y-61602229D01*
X68860185Y-61535190D01*
X68876819Y-61514548D01*
X70904548Y-59486819D01*
X70965871Y-59453334D01*
X70992229Y-59450500D01*
X73373920Y-59450500D01*
X73495129Y-59426389D01*
X73518913Y-59421658D01*
X73655495Y-59365084D01*
X73655496Y-59365083D01*
X73661122Y-59362753D01*
X73661479Y-59363614D01*
X73713840Y-59350500D01*
X73904071Y-59350500D01*
X74003009Y-59330819D01*
X74029744Y-59325501D01*
X74148127Y-59276465D01*
X74254669Y-59205277D01*
X74645277Y-58814669D01*
X74645278Y-58814667D01*
X74730276Y-58729669D01*
X74801465Y-58623127D01*
X74850501Y-58504744D01*
X74875500Y-58379069D01*
X74875500Y-58330405D01*
X74895185Y-58263366D01*
X74942260Y-58220407D01*
X74953130Y-58214750D01*
X74997898Y-58201744D01*
X75139365Y-58118081D01*
X75139871Y-58117574D01*
X75145776Y-58114502D01*
X75167333Y-58110261D01*
X75203016Y-58100500D01*
X79184071Y-58100500D01*
X79268615Y-58083682D01*
X79309744Y-58075501D01*
X79428127Y-58026465D01*
X79464944Y-58001865D01*
X79534669Y-57955277D01*
X80386983Y-57102962D01*
X80414838Y-57087752D01*
X80441851Y-57071065D01*
X80445287Y-57071126D01*
X80448304Y-57069479D01*
X80479973Y-57071743D01*
X80511710Y-57072309D01*
X80515899Y-57074313D01*
X80517995Y-57074463D01*
X80543548Y-57087540D01*
X80552277Y-57093372D01*
X80552283Y-57093376D01*
X80571864Y-57106460D01*
X80571872Y-57106464D01*
X80571873Y-57106465D01*
X80690256Y-57155501D01*
X80690260Y-57155501D01*
X80690261Y-57155502D01*
X80815928Y-57180500D01*
X80815931Y-57180500D01*
X85334071Y-57180500D01*
X85418615Y-57163682D01*
X85459744Y-57155501D01*
X85578127Y-57106465D01*
X85578132Y-57106461D01*
X85578135Y-57106460D01*
X85597717Y-57093376D01*
X85597719Y-57093375D01*
X85662783Y-57049900D01*
X85684669Y-57035277D01*
X86048421Y-56671524D01*
X86109742Y-56638041D01*
X86179433Y-56643025D01*
X86183538Y-56644640D01*
X86218587Y-56659158D01*
X86218591Y-56659158D01*
X86218592Y-56659159D01*
X86363579Y-56688000D01*
X86363582Y-56688000D01*
X86511420Y-56688000D01*
X86628708Y-56664669D01*
X86656413Y-56659158D01*
X86792995Y-56602584D01*
X86915916Y-56520451D01*
X87020451Y-56415916D01*
X87066165Y-56347500D01*
X88195496Y-56347500D01*
X88237968Y-56493695D01*
X88320278Y-56632874D01*
X88320285Y-56632883D01*
X88434616Y-56747214D01*
X88434625Y-56747221D01*
X88573804Y-56829531D01*
X88729089Y-56874645D01*
X88750000Y-56876289D01*
X89250000Y-56876289D01*
X89270910Y-56874645D01*
X89426195Y-56829531D01*
X89565374Y-56747221D01*
X89565383Y-56747214D01*
X89679714Y-56632883D01*
X89679721Y-56632874D01*
X89762031Y-56493695D01*
X89804504Y-56347500D01*
X89250000Y-56347500D01*
X89250000Y-56876289D01*
X88750000Y-56876289D01*
X88750000Y-56347500D01*
X88195496Y-56347500D01*
X87066165Y-56347500D01*
X87102584Y-56292995D01*
X87106183Y-56284306D01*
X87109979Y-56275143D01*
X87150662Y-56176923D01*
X87159158Y-56156413D01*
X87173715Y-56083230D01*
X87188000Y-56011420D01*
X87188000Y-55912000D01*
X87207685Y-55844961D01*
X87260489Y-55799206D01*
X87312000Y-55788000D01*
X88088862Y-55788000D01*
X88155901Y-55807685D01*
X88188023Y-55837548D01*
X88195495Y-55847500D01*
X88501648Y-55847500D01*
X88564766Y-55864767D01*
X88573605Y-55869994D01*
X88573608Y-55869994D01*
X88573610Y-55869996D01*
X88729002Y-55915142D01*
X88729005Y-55915142D01*
X88729007Y-55915143D01*
X88765310Y-55918000D01*
X88765318Y-55918000D01*
X89234682Y-55918000D01*
X89234690Y-55918000D01*
X89270993Y-55915143D01*
X89270995Y-55915142D01*
X89270997Y-55915142D01*
X89426389Y-55869996D01*
X89426389Y-55869995D01*
X89426395Y-55869994D01*
X89435233Y-55864767D01*
X89498352Y-55847500D01*
X89804504Y-55847500D01*
X89762031Y-55701303D01*
X89750090Y-55681113D01*
X89732906Y-55613389D01*
X89750089Y-55554869D01*
X89762494Y-55533895D01*
X89807643Y-55378493D01*
X89810500Y-55342190D01*
X89810500Y-54932810D01*
X89807643Y-54896507D01*
X89803404Y-54881917D01*
X89769377Y-54764796D01*
X89762494Y-54741105D01*
X89680117Y-54601813D01*
X89680115Y-54601811D01*
X89680112Y-54601807D01*
X89565692Y-54487387D01*
X89565684Y-54487381D01*
X89426393Y-54405005D01*
X89426390Y-54405004D01*
X89270997Y-54359857D01*
X89270991Y-54359856D01*
X89234697Y-54357000D01*
X89234690Y-54357000D01*
X88765310Y-54357000D01*
X88765302Y-54357000D01*
X88729008Y-54359856D01*
X88729002Y-54359857D01*
X88573609Y-54405004D01*
X88573606Y-54405005D01*
X88542276Y-54423534D01*
X88468247Y-54467315D01*
X88464160Y-54469732D01*
X88401039Y-54487000D01*
X87538308Y-54487000D01*
X87471269Y-54467315D01*
X87450627Y-54450681D01*
X87132174Y-54132227D01*
X87132173Y-54132226D01*
X87132169Y-54132223D01*
X87025627Y-54061035D01*
X87024335Y-54060500D01*
X86907244Y-54011999D01*
X86907238Y-54011997D01*
X86781571Y-53987000D01*
X86781569Y-53987000D01*
X86324500Y-53987000D01*
X86257461Y-53967315D01*
X86211706Y-53914511D01*
X86200500Y-53863000D01*
X86200500Y-53555928D01*
X86175502Y-53430261D01*
X86175501Y-53430260D01*
X86175501Y-53430256D01*
X86152728Y-53375277D01*
X86126466Y-53311874D01*
X86108288Y-53284669D01*
X86055278Y-53205332D01*
X86055272Y-53205325D01*
X85819045Y-52969098D01*
X85818571Y-52968231D01*
X85817714Y-52967746D01*
X85801873Y-52937650D01*
X85785560Y-52907775D01*
X85785630Y-52906790D01*
X85785171Y-52905918D01*
X85788115Y-52872038D01*
X85790544Y-52838083D01*
X85791135Y-52837292D01*
X85791221Y-52836311D01*
X85812017Y-52809398D01*
X85832416Y-52782150D01*
X85833538Y-52781547D01*
X85833943Y-52781025D01*
X85840472Y-52777830D01*
X85865175Y-52764586D01*
X85932958Y-52740479D01*
X85956371Y-52739163D01*
X85979105Y-52733395D01*
X85991949Y-52737165D01*
X86002718Y-52736561D01*
X86016537Y-52744384D01*
X86032289Y-52749008D01*
X86032446Y-52748647D01*
X86035371Y-52749913D01*
X86037624Y-52750574D01*
X86039602Y-52751744D01*
X86039604Y-52751744D01*
X86039605Y-52751745D01*
X86197426Y-52797597D01*
X86197429Y-52797597D01*
X86197431Y-52797598D01*
X86234306Y-52800500D01*
X86234314Y-52800500D01*
X86665686Y-52800500D01*
X86665694Y-52800500D01*
X86702569Y-52797598D01*
X86702571Y-52797597D01*
X86702573Y-52797597D01*
X86770610Y-52777830D01*
X86860398Y-52751744D01*
X87001865Y-52668081D01*
X87118081Y-52551865D01*
X87201744Y-52410398D01*
X87239549Y-52280275D01*
X87247597Y-52252573D01*
X87247598Y-52252567D01*
X87247787Y-52250170D01*
X87250500Y-52215694D01*
X87250500Y-51459808D01*
X87270185Y-51392769D01*
X87322989Y-51347014D01*
X87392147Y-51337070D01*
X87455703Y-51366095D01*
X87462181Y-51372127D01*
X87692824Y-51602771D01*
X87692827Y-51602774D01*
X87785541Y-51664723D01*
X87785542Y-51664723D01*
X87785543Y-51664724D01*
X87799373Y-51673965D01*
X87917756Y-51723001D01*
X87917760Y-51723001D01*
X87917761Y-51723002D01*
X88043428Y-51748000D01*
X88043431Y-51748000D01*
X88401039Y-51748000D01*
X88464159Y-51765267D01*
X88573605Y-51829994D01*
X88598511Y-51837230D01*
X88729002Y-51875142D01*
X88729005Y-51875142D01*
X88729007Y-51875143D01*
X88765310Y-51878000D01*
X88765318Y-51878000D01*
X89234682Y-51878000D01*
X89234690Y-51878000D01*
X89270993Y-51875143D01*
X89270995Y-51875142D01*
X89270997Y-51875142D01*
X89346128Y-51853314D01*
X89426395Y-51829994D01*
X89565687Y-51747617D01*
X89680117Y-51633187D01*
X89762494Y-51493895D01*
X89801809Y-51358574D01*
X89807642Y-51338497D01*
X89807643Y-51338491D01*
X89809166Y-51319143D01*
X89810500Y-51302190D01*
X89810500Y-50892810D01*
X89807643Y-50856507D01*
X89786928Y-50785208D01*
X89762495Y-50701109D01*
X89762495Y-50701108D01*
X89762494Y-50701107D01*
X89762494Y-50701105D01*
X89750379Y-50680620D01*
X89733196Y-50612899D01*
X89750379Y-50554380D01*
X89762494Y-50533895D01*
X89807643Y-50378493D01*
X89810500Y-50342190D01*
X89810500Y-49932810D01*
X89807643Y-49896507D01*
X89805171Y-49888000D01*
X89762495Y-49741109D01*
X89762494Y-49741106D01*
X89762494Y-49741105D01*
X89680117Y-49601813D01*
X89680115Y-49601811D01*
X89680112Y-49601807D01*
X89605423Y-49527118D01*
X89578543Y-49486891D01*
X89576465Y-49481873D01*
X89576459Y-49481864D01*
X89551497Y-49444504D01*
X89551497Y-49444503D01*
X89505279Y-49375334D01*
X89505273Y-49375326D01*
X88987173Y-48857226D01*
X88987169Y-48857223D01*
X88880627Y-48786035D01*
X88840423Y-48769382D01*
X88762244Y-48736999D01*
X88762240Y-48736998D01*
X88758478Y-48736250D01*
X88754716Y-48735501D01*
X88754713Y-48735500D01*
X88754713Y-48735501D01*
X88636571Y-48712000D01*
X88636569Y-48712000D01*
X87330406Y-48712000D01*
X87263367Y-48692315D01*
X87217612Y-48639511D01*
X87211330Y-48622595D01*
X87201745Y-48589606D01*
X87201744Y-48589603D01*
X87201744Y-48589602D01*
X87118081Y-48448135D01*
X87118079Y-48448133D01*
X87118076Y-48448129D01*
X87001870Y-48331923D01*
X87001862Y-48331917D01*
X86885329Y-48263000D01*
X86860398Y-48248256D01*
X86860397Y-48248255D01*
X86860396Y-48248255D01*
X86860393Y-48248254D01*
X86702573Y-48202402D01*
X86702567Y-48202401D01*
X86665701Y-48199500D01*
X86665694Y-48199500D01*
X86274500Y-48199500D01*
X86265814Y-48196949D01*
X86256853Y-48198238D01*
X86232812Y-48187259D01*
X86207461Y-48179815D01*
X86201533Y-48172974D01*
X86193297Y-48169213D01*
X86179007Y-48146978D01*
X86161706Y-48127011D01*
X86159418Y-48116496D01*
X86155523Y-48110435D01*
X86150500Y-48075500D01*
X86150500Y-47900808D01*
X86170185Y-47833769D01*
X86186819Y-47813127D01*
X86773127Y-47226819D01*
X86834450Y-47193334D01*
X86860808Y-47190500D01*
X94619192Y-47190500D01*
X94686231Y-47210185D01*
X94706873Y-47226819D01*
X99760325Y-52280272D01*
X99760328Y-52280275D01*
X99831070Y-52327543D01*
X99858134Y-52345626D01*
X99858135Y-52345627D01*
X99858134Y-52345627D01*
X99866868Y-52351462D01*
X99866870Y-52351463D01*
X99866873Y-52351465D01*
X99985256Y-52400501D01*
X99985260Y-52400501D01*
X99985261Y-52400502D01*
X100110928Y-52425500D01*
X100110931Y-52425500D01*
X101669594Y-52425500D01*
X101736633Y-52445185D01*
X101779592Y-52492259D01*
X101785250Y-52503132D01*
X101798256Y-52547898D01*
X101881919Y-52689365D01*
X101882427Y-52689873D01*
X101885498Y-52695774D01*
X101889739Y-52717335D01*
X101899500Y-52753015D01*
X101899500Y-53459191D01*
X101879815Y-53526230D01*
X101863181Y-53546872D01*
X101424727Y-53985325D01*
X101424724Y-53985328D01*
X101374139Y-54061036D01*
X101353535Y-54091872D01*
X101304499Y-54210255D01*
X101304497Y-54210261D01*
X101279500Y-54335928D01*
X101279500Y-55404314D01*
X101262232Y-55467434D01*
X101207133Y-55560602D01*
X101207129Y-55560611D01*
X101162335Y-55714791D01*
X101162334Y-55714797D01*
X101159500Y-55750811D01*
X101159500Y-56249169D01*
X101159501Y-56249191D01*
X101162334Y-56285200D01*
X101162334Y-56285203D01*
X101162335Y-56285204D01*
X101207131Y-56439393D01*
X101241999Y-56498352D01*
X101262232Y-56532563D01*
X101279500Y-56595684D01*
X101279500Y-57374070D01*
X101292537Y-57439610D01*
X101292538Y-57439615D01*
X101293825Y-57446082D01*
X101304499Y-57499744D01*
X101332198Y-57566615D01*
X101333863Y-57571946D01*
X101334024Y-57581378D01*
X101339500Y-57608908D01*
X101339500Y-58401037D01*
X101322232Y-58464157D01*
X101257507Y-58573602D01*
X101257504Y-58573609D01*
X101212357Y-58729002D01*
X101212356Y-58729008D01*
X101209500Y-58765302D01*
X101209500Y-59234697D01*
X101212356Y-59270991D01*
X101212357Y-59270997D01*
X101257504Y-59426390D01*
X101257505Y-59426393D01*
X101339881Y-59565684D01*
X101339887Y-59565692D01*
X101454307Y-59680112D01*
X101454311Y-59680115D01*
X101454313Y-59680117D01*
X101593605Y-59762494D01*
X101602947Y-59765208D01*
X101749002Y-59807642D01*
X101749005Y-59807642D01*
X101749007Y-59807643D01*
X101785310Y-59810500D01*
X101785318Y-59810500D01*
X102194682Y-59810500D01*
X102194690Y-59810500D01*
X102230993Y-59807643D01*
X102230995Y-59807642D01*
X102230997Y-59807642D01*
X102271975Y-59795736D01*
X102386395Y-59762494D01*
X102407369Y-59750089D01*
X102475088Y-59732906D01*
X102533613Y-59750090D01*
X102553803Y-59762031D01*
X102700000Y-59804504D01*
X102700000Y-59498352D01*
X102717267Y-59435233D01*
X102722494Y-59426395D01*
X102732133Y-59393220D01*
X102767642Y-59270997D01*
X102767643Y-59270991D01*
X102769295Y-59250000D01*
X103200000Y-59250000D01*
X103200000Y-59804504D01*
X103215467Y-59816118D01*
X103230432Y-59816161D01*
X103289102Y-59854103D01*
X103317946Y-59917741D01*
X103316775Y-59959229D01*
X103299500Y-60046077D01*
X103299500Y-60046082D01*
X103299500Y-60193918D01*
X103299500Y-60193920D01*
X103299499Y-60193920D01*
X103328340Y-60338907D01*
X103328343Y-60338917D01*
X103384912Y-60475488D01*
X103384919Y-60475501D01*
X103467048Y-60598415D01*
X103467051Y-60598419D01*
X103571580Y-60702948D01*
X103571584Y-60702951D01*
X103694498Y-60785080D01*
X103694511Y-60785087D01*
X103815665Y-60835270D01*
X103831087Y-60841658D01*
X103831091Y-60841658D01*
X103831092Y-60841659D01*
X103976079Y-60870500D01*
X103976082Y-60870500D01*
X104123920Y-60870500D01*
X104221462Y-60851096D01*
X104268913Y-60841658D01*
X104405495Y-60785084D01*
X104528416Y-60702951D01*
X104632951Y-60598416D01*
X104715008Y-60475609D01*
X104768620Y-60430804D01*
X104818110Y-60420500D01*
X105554071Y-60420500D01*
X105654613Y-60400500D01*
X105679744Y-60395501D01*
X105798127Y-60346465D01*
X105904669Y-60275276D01*
X105937120Y-60242823D01*
X105961677Y-60223775D01*
X106022565Y-60187766D01*
X106078153Y-60172560D01*
X106078009Y-60171097D01*
X106084071Y-60170500D01*
X106168615Y-60153682D01*
X106209744Y-60145501D01*
X106328127Y-60096465D01*
X106355572Y-60078127D01*
X106434669Y-60025277D01*
X107917821Y-58542123D01*
X107979142Y-58508640D01*
X108048833Y-58513624D01*
X108104767Y-58555495D01*
X108129184Y-58620960D01*
X108129500Y-58629804D01*
X108129500Y-58709169D01*
X108129501Y-58709191D01*
X108132335Y-58745205D01*
X108177129Y-58899388D01*
X108177132Y-58899395D01*
X108211128Y-58956881D01*
X108228309Y-59024605D01*
X108211128Y-59083119D01*
X108177132Y-59140604D01*
X108177129Y-59140611D01*
X108132335Y-59294791D01*
X108132334Y-59294797D01*
X108129500Y-59330811D01*
X108129500Y-59729169D01*
X108129501Y-59729191D01*
X108132335Y-59765205D01*
X108177129Y-59919388D01*
X108177131Y-59919393D01*
X108258863Y-60057595D01*
X108258869Y-60057603D01*
X108372396Y-60171130D01*
X108372400Y-60171133D01*
X108372402Y-60171135D01*
X108510607Y-60252869D01*
X108551268Y-60264682D01*
X108664791Y-60297664D01*
X108664794Y-60297664D01*
X108664796Y-60297665D01*
X108700819Y-60300500D01*
X109199180Y-60300499D01*
X109235204Y-60297665D01*
X109389393Y-60252869D01*
X109527598Y-60171135D01*
X109641135Y-60057598D01*
X109722869Y-59919393D01*
X109767665Y-59765204D01*
X109770500Y-59729181D01*
X109770499Y-59330820D01*
X109767665Y-59294796D01*
X109722869Y-59140607D01*
X109688869Y-59083117D01*
X109671688Y-59015398D01*
X109688869Y-58956882D01*
X109722869Y-58899393D01*
X109725775Y-58889393D01*
X109767664Y-58745208D01*
X109767664Y-58745206D01*
X109767665Y-58745204D01*
X109770500Y-58709181D01*
X109770499Y-58310820D01*
X109770424Y-58309867D01*
X109770286Y-58308106D01*
X109769711Y-58300811D01*
X110129500Y-58300811D01*
X110129500Y-58699169D01*
X110129501Y-58699191D01*
X110132335Y-58735205D01*
X110177129Y-58889388D01*
X110177132Y-58889395D01*
X110211128Y-58946881D01*
X110228309Y-59014605D01*
X110211128Y-59073119D01*
X110177132Y-59130604D01*
X110177129Y-59130611D01*
X110132335Y-59284791D01*
X110132334Y-59284797D01*
X110129500Y-59320811D01*
X110129500Y-59719169D01*
X110129501Y-59719191D01*
X110132335Y-59755205D01*
X110177129Y-59909388D01*
X110177131Y-59909393D01*
X110258863Y-60047595D01*
X110258869Y-60047603D01*
X110372396Y-60161130D01*
X110372400Y-60161133D01*
X110372402Y-60161135D01*
X110510607Y-60242869D01*
X110545024Y-60252868D01*
X110664791Y-60287664D01*
X110664794Y-60287664D01*
X110664796Y-60287665D01*
X110700819Y-60290500D01*
X111199180Y-60290499D01*
X111235204Y-60287665D01*
X111389393Y-60242869D01*
X111527598Y-60161135D01*
X111641135Y-60047598D01*
X111722869Y-59909393D01*
X111764759Y-59765208D01*
X111767664Y-59755208D01*
X111767664Y-59755206D01*
X111767665Y-59755204D01*
X111770500Y-59719181D01*
X111770499Y-59320820D01*
X111767665Y-59284796D01*
X111722869Y-59130607D01*
X111688869Y-59073117D01*
X111671688Y-59005398D01*
X111688869Y-58946882D01*
X111722869Y-58889393D01*
X111744579Y-58814669D01*
X111767664Y-58735208D01*
X111767664Y-58735206D01*
X111767665Y-58735204D01*
X111770500Y-58699181D01*
X111770499Y-58300820D01*
X111767665Y-58264796D01*
X111722869Y-58110607D01*
X111641135Y-57972402D01*
X111641133Y-57972400D01*
X111641130Y-57972396D01*
X111527603Y-57858869D01*
X111527595Y-57858863D01*
X111389393Y-57777131D01*
X111389388Y-57777129D01*
X111235208Y-57732335D01*
X111235202Y-57732334D01*
X111199181Y-57729500D01*
X110700830Y-57729500D01*
X110700808Y-57729501D01*
X110664794Y-57732335D01*
X110510611Y-57777129D01*
X110510606Y-57777131D01*
X110372404Y-57858863D01*
X110372396Y-57858869D01*
X110258869Y-57972396D01*
X110258863Y-57972404D01*
X110177131Y-58110606D01*
X110177129Y-58110611D01*
X110132335Y-58264791D01*
X110132334Y-58264797D01*
X110129500Y-58300811D01*
X109769711Y-58300811D01*
X109769297Y-58295549D01*
X109767665Y-58274796D01*
X109722869Y-58120607D01*
X109641135Y-57982402D01*
X109641133Y-57982400D01*
X109641130Y-57982396D01*
X109527603Y-57868869D01*
X109527595Y-57868863D01*
X109389393Y-57787131D01*
X109389388Y-57787129D01*
X109235208Y-57742335D01*
X109235202Y-57742334D01*
X109199188Y-57739500D01*
X109199181Y-57739500D01*
X109019807Y-57739500D01*
X108952768Y-57719815D01*
X108907013Y-57667011D01*
X108897069Y-57597853D01*
X108926094Y-57534297D01*
X108932126Y-57527819D01*
X109295435Y-57164511D01*
X109813127Y-56646819D01*
X109874450Y-56613334D01*
X109900808Y-56610500D01*
X113851039Y-56610500D01*
X113914159Y-56627767D01*
X114023605Y-56692494D01*
X114043438Y-56698256D01*
X114179002Y-56737642D01*
X114179005Y-56737642D01*
X114179007Y-56737643D01*
X114215310Y-56740500D01*
X114215318Y-56740500D01*
X114684682Y-56740500D01*
X114684690Y-56740500D01*
X114720993Y-56737643D01*
X114720995Y-56737642D01*
X114720997Y-56737642D01*
X114796541Y-56715694D01*
X114876395Y-56692494D01*
X115015687Y-56610117D01*
X115130117Y-56495687D01*
X115212494Y-56356395D01*
X115252678Y-56218082D01*
X115257642Y-56200997D01*
X115257643Y-56200991D01*
X115260499Y-56164697D01*
X115260500Y-56164690D01*
X115260500Y-55755310D01*
X115257643Y-55719007D01*
X115256418Y-55714791D01*
X115212495Y-55563609D01*
X115212494Y-55563605D01*
X115207325Y-55554865D01*
X115200089Y-55542630D01*
X115182906Y-55474909D01*
X115200091Y-55416384D01*
X115212032Y-55396194D01*
X115254504Y-55250000D01*
X114948352Y-55250000D01*
X114885233Y-55232732D01*
X114876395Y-55227506D01*
X114876393Y-55227505D01*
X114876389Y-55227503D01*
X114720997Y-55182357D01*
X114720991Y-55182356D01*
X114684697Y-55179500D01*
X114684690Y-55179500D01*
X114215310Y-55179500D01*
X114215302Y-55179500D01*
X114179008Y-55182356D01*
X114179002Y-55182357D01*
X114023610Y-55227503D01*
X114023605Y-55227506D01*
X114014766Y-55232732D01*
X113951648Y-55250000D01*
X113645495Y-55250000D01*
X113638023Y-55259952D01*
X113582029Y-55301744D01*
X113538862Y-55309500D01*
X109515929Y-55309500D01*
X109391223Y-55334306D01*
X109390257Y-55334498D01*
X109271871Y-55383535D01*
X109165331Y-55454722D01*
X109165324Y-55454728D01*
X106465979Y-58154073D01*
X106404656Y-58187558D01*
X106334964Y-58182574D01*
X106279031Y-58140702D01*
X106264497Y-58115639D01*
X106262406Y-58110808D01*
X106180738Y-57972714D01*
X106180731Y-57972705D01*
X106067294Y-57859268D01*
X106067285Y-57859261D01*
X105929191Y-57777593D01*
X105929188Y-57777592D01*
X105775130Y-57732834D01*
X105740000Y-57730068D01*
X105740000Y-58376000D01*
X105720315Y-58443039D01*
X105667511Y-58488794D01*
X105616000Y-58500000D01*
X105490000Y-58500000D01*
X105490000Y-58625500D01*
X105487514Y-58633966D01*
X105488802Y-58642697D01*
X105477820Y-58666977D01*
X105470315Y-58692539D01*
X105463647Y-58698316D01*
X105460010Y-58706359D01*
X105437643Y-58720848D01*
X105417511Y-58738294D01*
X105407234Y-58740549D01*
X105401371Y-58744348D01*
X105367337Y-58749305D01*
X105366455Y-58749499D01*
X105365977Y-58749500D01*
X105240820Y-58749501D01*
X105234706Y-58749981D01*
X105230062Y-58749999D01*
X105230010Y-58749984D01*
X105229607Y-58750000D01*
X104677156Y-58750000D01*
X104717595Y-58889194D01*
X104743134Y-58932379D01*
X104760317Y-59000103D01*
X104738157Y-59066366D01*
X104683690Y-59110129D01*
X104636402Y-59119500D01*
X104335929Y-59119500D01*
X104210261Y-59144497D01*
X104210255Y-59144499D01*
X104101030Y-59189741D01*
X104101025Y-59189744D01*
X104091873Y-59193535D01*
X104091871Y-59193536D01*
X104091869Y-59193537D01*
X103985329Y-59264724D01*
X103985327Y-59264726D01*
X103943286Y-59306766D01*
X103881962Y-59340250D01*
X103812271Y-59335264D01*
X103756338Y-59293391D01*
X103747842Y-59270610D01*
X103728790Y-59250000D01*
X103200000Y-59250000D01*
X102769295Y-59250000D01*
X102770499Y-59234697D01*
X102770500Y-59234690D01*
X102770500Y-58765310D01*
X102767643Y-58729007D01*
X102761879Y-58709169D01*
X102722495Y-58573608D01*
X102722492Y-58573600D01*
X102717266Y-58564763D01*
X102700000Y-58501645D01*
X102700000Y-58195494D01*
X103200000Y-58195494D01*
X103200000Y-58750000D01*
X103728790Y-58750000D01*
X103727145Y-58729089D01*
X103682031Y-58573804D01*
X103599721Y-58434625D01*
X103599714Y-58434616D01*
X103485383Y-58320285D01*
X103485374Y-58320278D01*
X103366540Y-58250000D01*
X104677156Y-58250000D01*
X105240000Y-58250000D01*
X105240000Y-57730068D01*
X105239999Y-57730068D01*
X105204869Y-57732834D01*
X105204868Y-57732834D01*
X105050811Y-57777592D01*
X105050808Y-57777593D01*
X104912714Y-57859261D01*
X104912705Y-57859268D01*
X104799268Y-57972705D01*
X104799261Y-57972714D01*
X104717595Y-58110805D01*
X104677156Y-58250000D01*
X103366540Y-58250000D01*
X103346193Y-58237967D01*
X103346190Y-58237965D01*
X103200001Y-58195493D01*
X103200000Y-58195494D01*
X102700000Y-58195494D01*
X102700000Y-58195493D01*
X102690047Y-58188020D01*
X102648256Y-58132026D01*
X102640500Y-58088860D01*
X102640500Y-57305928D01*
X102615502Y-57180261D01*
X102615501Y-57180260D01*
X102615501Y-57180256D01*
X102605247Y-57155500D01*
X102589939Y-57118542D01*
X102588312Y-57110365D01*
X102585523Y-57106025D01*
X102580500Y-57071090D01*
X102580500Y-56941238D01*
X102600185Y-56874199D01*
X102652989Y-56828444D01*
X102714230Y-56817620D01*
X102714793Y-56817664D01*
X102714796Y-56817665D01*
X102750819Y-56820500D01*
X103149180Y-56820499D01*
X103185204Y-56817665D01*
X103339393Y-56772869D01*
X103477598Y-56691135D01*
X103591135Y-56577598D01*
X103617299Y-56533357D01*
X103668368Y-56485674D01*
X103737109Y-56473170D01*
X103801699Y-56499815D01*
X103830763Y-56533357D01*
X103849881Y-56565684D01*
X103849887Y-56565692D01*
X103964307Y-56680112D01*
X103964311Y-56680115D01*
X103964313Y-56680117D01*
X104103605Y-56762494D01*
X104105970Y-56763181D01*
X104259002Y-56807642D01*
X104259005Y-56807642D01*
X104259007Y-56807643D01*
X104295310Y-56810500D01*
X104295318Y-56810500D01*
X104704682Y-56810500D01*
X104704690Y-56810500D01*
X104740993Y-56807643D01*
X104740995Y-56807642D01*
X104740997Y-56807642D01*
X104828457Y-56782232D01*
X104896395Y-56762494D01*
X104917369Y-56750089D01*
X104985088Y-56732906D01*
X105043613Y-56750090D01*
X105063803Y-56762031D01*
X105210000Y-56804504D01*
X105210000Y-56804503D01*
X105710000Y-56804503D01*
X105856195Y-56762031D01*
X105995374Y-56679721D01*
X105995383Y-56679714D01*
X106109714Y-56565383D01*
X106109721Y-56565374D01*
X106192031Y-56426195D01*
X106192033Y-56426190D01*
X106237144Y-56270918D01*
X106237145Y-56270912D01*
X106238790Y-56250000D01*
X105710000Y-56250000D01*
X105710000Y-56804503D01*
X105210000Y-56804503D01*
X105210000Y-56498352D01*
X105227267Y-56435233D01*
X105232494Y-56426395D01*
X105235539Y-56415916D01*
X105277642Y-56270997D01*
X105277643Y-56270991D01*
X105279295Y-56250000D01*
X105280500Y-56234690D01*
X105280500Y-55765310D01*
X105277643Y-55729007D01*
X105277450Y-55728344D01*
X105232495Y-55573608D01*
X105232492Y-55573600D01*
X105227266Y-55564763D01*
X105210000Y-55501645D01*
X105210000Y-55195494D01*
X105710000Y-55195494D01*
X105710000Y-55750000D01*
X106238790Y-55750000D01*
X106237145Y-55729089D01*
X106192031Y-55573804D01*
X106109721Y-55434625D01*
X106109714Y-55434616D01*
X105995383Y-55320285D01*
X105995374Y-55320278D01*
X105856193Y-55237967D01*
X105856190Y-55237965D01*
X105710001Y-55195493D01*
X105710000Y-55195494D01*
X105210000Y-55195494D01*
X105210000Y-55151307D01*
X105218644Y-55121866D01*
X105225168Y-55091880D01*
X105228922Y-55086864D01*
X105229685Y-55084268D01*
X105246319Y-55063626D01*
X105509134Y-54800811D01*
X116129500Y-54800811D01*
X116129500Y-55199169D01*
X116129501Y-55199191D01*
X116132335Y-55235205D01*
X116177129Y-55389388D01*
X116177130Y-55389391D01*
X116211419Y-55447371D01*
X116228601Y-55515095D01*
X116211419Y-55573611D01*
X116177594Y-55630806D01*
X116137156Y-55770000D01*
X116689591Y-55770000D01*
X116690045Y-55770001D01*
X116694694Y-55770018D01*
X116700819Y-55770500D01*
X116826385Y-55770499D01*
X116826454Y-55770500D01*
X116859781Y-55780417D01*
X116893039Y-55790183D01*
X116893193Y-55790361D01*
X116893421Y-55790429D01*
X116916132Y-55816834D01*
X116938794Y-55842987D01*
X116938850Y-55843247D01*
X116938982Y-55843400D01*
X116939159Y-55844666D01*
X116950000Y-55894499D01*
X116950000Y-56146000D01*
X116930315Y-56213039D01*
X116877511Y-56258794D01*
X116826000Y-56270000D01*
X116137156Y-56270000D01*
X116177595Y-56409194D01*
X116259261Y-56547285D01*
X116259268Y-56547294D01*
X116372705Y-56660731D01*
X116372714Y-56660738D01*
X116510808Y-56742406D01*
X116510811Y-56742407D01*
X116664870Y-56787166D01*
X116664876Y-56787167D01*
X116700864Y-56789999D01*
X116700880Y-56790000D01*
X116789270Y-56790000D01*
X116856309Y-56809685D01*
X116902064Y-56862489D01*
X116912008Y-56931647D01*
X116882983Y-56995203D01*
X116876951Y-57001681D01*
X116837051Y-57041580D01*
X116837048Y-57041584D01*
X116754919Y-57164498D01*
X116754912Y-57164511D01*
X116698343Y-57301082D01*
X116698340Y-57301092D01*
X116669500Y-57446079D01*
X116669500Y-57446082D01*
X116669500Y-57593918D01*
X116669500Y-57593920D01*
X116669499Y-57593920D01*
X116698340Y-57738907D01*
X116698343Y-57738917D01*
X116754912Y-57875488D01*
X116754919Y-57875501D01*
X116837048Y-57998415D01*
X116837051Y-57998419D01*
X116941580Y-58102948D01*
X116941584Y-58102951D01*
X117064498Y-58185080D01*
X117064511Y-58185087D01*
X117149782Y-58220407D01*
X117201087Y-58241658D01*
X117201091Y-58241658D01*
X117201092Y-58241659D01*
X117346079Y-58270500D01*
X117346082Y-58270500D01*
X117493920Y-58270500D01*
X117596976Y-58250000D01*
X117638913Y-58241658D01*
X117775495Y-58185084D01*
X117775496Y-58185083D01*
X117781122Y-58182753D01*
X117781479Y-58183614D01*
X117833840Y-58170500D01*
X117964071Y-58170500D01*
X118048615Y-58153682D01*
X118089744Y-58145501D01*
X118208127Y-58096465D01*
X118314669Y-58025277D01*
X118755277Y-57584669D01*
X118826465Y-57478127D01*
X118835659Y-57455931D01*
X118875501Y-57359744D01*
X118900453Y-57234306D01*
X118900500Y-57234071D01*
X118900500Y-55615928D01*
X118875502Y-55490261D01*
X118875501Y-55490260D01*
X118875501Y-55490256D01*
X118826465Y-55371873D01*
X118826464Y-55371872D01*
X118826461Y-55371866D01*
X118755277Y-55265332D01*
X118717448Y-55227503D01*
X118664669Y-55174724D01*
X118500130Y-55010185D01*
X117984674Y-54494727D01*
X117984673Y-54494726D01*
X117984669Y-54494723D01*
X117878127Y-54423535D01*
X117833389Y-54405004D01*
X117759744Y-54374499D01*
X117759738Y-54374497D01*
X117634071Y-54349500D01*
X117634069Y-54349500D01*
X117545685Y-54349500D01*
X117482564Y-54332232D01*
X117389393Y-54277131D01*
X117389388Y-54277129D01*
X117235208Y-54232335D01*
X117235202Y-54232334D01*
X117199181Y-54229500D01*
X116700830Y-54229500D01*
X116700808Y-54229501D01*
X116664794Y-54232335D01*
X116510611Y-54277129D01*
X116510606Y-54277131D01*
X116372404Y-54358863D01*
X116372396Y-54358869D01*
X116258869Y-54472396D01*
X116258863Y-54472404D01*
X116177131Y-54610606D01*
X116177129Y-54610611D01*
X116132335Y-54764791D01*
X116132334Y-54764797D01*
X116129500Y-54800811D01*
X105509134Y-54800811D01*
X105559945Y-54750000D01*
X113645496Y-54750000D01*
X114200000Y-54750000D01*
X114700000Y-54750000D01*
X115254504Y-54750000D01*
X115212031Y-54603804D01*
X115129721Y-54464625D01*
X115129714Y-54464616D01*
X115015383Y-54350285D01*
X115015374Y-54350278D01*
X114876195Y-54267968D01*
X114876190Y-54267966D01*
X114720918Y-54222855D01*
X114720912Y-54222854D01*
X114700000Y-54221209D01*
X114700000Y-54750000D01*
X114200000Y-54750000D01*
X114200000Y-54221210D01*
X114199999Y-54221209D01*
X114179087Y-54222854D01*
X114179081Y-54222855D01*
X114023809Y-54267966D01*
X114023804Y-54267968D01*
X113884625Y-54350278D01*
X113884616Y-54350285D01*
X113770285Y-54464616D01*
X113770278Y-54464625D01*
X113687968Y-54603804D01*
X113645496Y-54750000D01*
X105559945Y-54750000D01*
X107525273Y-52784672D01*
X107525276Y-52784669D01*
X107596465Y-52678127D01*
X107645501Y-52559744D01*
X107650478Y-52534724D01*
X107661761Y-52478003D01*
X107670500Y-52434071D01*
X107670500Y-51792021D01*
X107690185Y-51724982D01*
X107742989Y-51679227D01*
X107812147Y-51669283D01*
X107841952Y-51677459D01*
X107927756Y-51713001D01*
X107927760Y-51713001D01*
X107927761Y-51713002D01*
X108053428Y-51738000D01*
X108053431Y-51738000D01*
X108075000Y-51738000D01*
X108142039Y-51757685D01*
X108187794Y-51810489D01*
X108199000Y-51862000D01*
X108199000Y-52253201D01*
X108201901Y-52290067D01*
X108201902Y-52290073D01*
X108247754Y-52447893D01*
X108247755Y-52447896D01*
X108331417Y-52589362D01*
X108331423Y-52589370D01*
X108447629Y-52705576D01*
X108447633Y-52705579D01*
X108447635Y-52705581D01*
X108447638Y-52705582D01*
X108447641Y-52705585D01*
X108572132Y-52779208D01*
X108619816Y-52830276D01*
X108632320Y-52899018D01*
X108630629Y-52910132D01*
X108619500Y-52966079D01*
X108619500Y-52966082D01*
X108619500Y-53113918D01*
X108619500Y-53113920D01*
X108619499Y-53113920D01*
X108648340Y-53258907D01*
X108648343Y-53258917D01*
X108704912Y-53395488D01*
X108704919Y-53395501D01*
X108787048Y-53518415D01*
X108787051Y-53518419D01*
X108891580Y-53622948D01*
X108891584Y-53622951D01*
X109014498Y-53705080D01*
X109014511Y-53705087D01*
X109131015Y-53753344D01*
X109151087Y-53761658D01*
X109151091Y-53761658D01*
X109151092Y-53761659D01*
X109296079Y-53790500D01*
X109296082Y-53790500D01*
X109443920Y-53790500D01*
X109541462Y-53771096D01*
X109588913Y-53761658D01*
X109725495Y-53705084D01*
X109725496Y-53705083D01*
X109731122Y-53702753D01*
X109731479Y-53703614D01*
X109783840Y-53690500D01*
X115604071Y-53690500D01*
X115688615Y-53673682D01*
X115729744Y-53665501D01*
X115848127Y-53616465D01*
X115873152Y-53599744D01*
X115954669Y-53545277D01*
X116455277Y-53044669D01*
X116526466Y-52938126D01*
X116569147Y-52835084D01*
X116575501Y-52819744D01*
X116594819Y-52722624D01*
X116609703Y-52683700D01*
X116618211Y-52669314D01*
X116672869Y-52576893D01*
X116705851Y-52463365D01*
X116717664Y-52422708D01*
X116717665Y-52422702D01*
X116718633Y-52410398D01*
X116720500Y-52386681D01*
X116720499Y-51888320D01*
X116717665Y-51852296D01*
X116672869Y-51698107D01*
X116591135Y-51559902D01*
X116591133Y-51559900D01*
X116591130Y-51559896D01*
X116477603Y-51446369D01*
X116477600Y-51446367D01*
X116477598Y-51446365D01*
X116447284Y-51428437D01*
X116399602Y-51377368D01*
X116387099Y-51308626D01*
X116413745Y-51244037D01*
X116447283Y-51214977D01*
X116487598Y-51191135D01*
X116601135Y-51077598D01*
X116682869Y-50939393D01*
X116727665Y-50785204D01*
X116730500Y-50749181D01*
X116730500Y-50674500D01*
X116750185Y-50607461D01*
X116802989Y-50561706D01*
X116854500Y-50550500D01*
X116933920Y-50550500D01*
X117034080Y-50530576D01*
X117078913Y-50521658D01*
X117215495Y-50465084D01*
X117338416Y-50382951D01*
X117442951Y-50278416D01*
X117525084Y-50155495D01*
X117581658Y-50018913D01*
X117598784Y-49932817D01*
X117610500Y-49873920D01*
X117610500Y-49726079D01*
X117581659Y-49581092D01*
X117581658Y-49581091D01*
X117581658Y-49581087D01*
X117573653Y-49561762D01*
X117525087Y-49444511D01*
X117525080Y-49444498D01*
X117442951Y-49321584D01*
X117442948Y-49321580D01*
X117338419Y-49217051D01*
X117338415Y-49217048D01*
X117215501Y-49134919D01*
X117215488Y-49134912D01*
X117078917Y-49078343D01*
X117078907Y-49078340D01*
X116933920Y-49049500D01*
X116933918Y-49049500D01*
X116844499Y-49049500D01*
X116777460Y-49029815D01*
X116731705Y-48977011D01*
X116720499Y-48925500D01*
X116720499Y-48750831D01*
X116720498Y-48750806D01*
X116719651Y-48740045D01*
X116717665Y-48714796D01*
X116672869Y-48560607D01*
X116591135Y-48422402D01*
X116591133Y-48422400D01*
X116591130Y-48422396D01*
X116477603Y-48308869D01*
X116477595Y-48308863D01*
X116339393Y-48227131D01*
X116339388Y-48227129D01*
X116185208Y-48182335D01*
X116185202Y-48182334D01*
X116149181Y-48179500D01*
X115750830Y-48179500D01*
X115750808Y-48179501D01*
X115714794Y-48182335D01*
X115560611Y-48227129D01*
X115560607Y-48227130D01*
X115502628Y-48261419D01*
X115434903Y-48278600D01*
X115376388Y-48261419D01*
X115319189Y-48227592D01*
X115319188Y-48227591D01*
X115180001Y-48187153D01*
X115180000Y-48187154D01*
X115180000Y-48739591D01*
X115179999Y-48740045D01*
X115179981Y-48744694D01*
X115179500Y-48750819D01*
X115179500Y-48876385D01*
X115179500Y-48876454D01*
X115169582Y-48909781D01*
X115159817Y-48943039D01*
X115159638Y-48943193D01*
X115159571Y-48943421D01*
X115133165Y-48966132D01*
X115107013Y-48988794D01*
X115106752Y-48988850D01*
X115106600Y-48988982D01*
X115105333Y-48989159D01*
X115055501Y-49000000D01*
X114930000Y-49000000D01*
X114930000Y-49126000D01*
X114910315Y-49193039D01*
X114857511Y-49238794D01*
X114806000Y-49250000D01*
X114160069Y-49250000D01*
X114162832Y-49285122D01*
X114162833Y-49285128D01*
X114207592Y-49439188D01*
X114207593Y-49439191D01*
X114289261Y-49577285D01*
X114289268Y-49577294D01*
X114353377Y-49641403D01*
X114358246Y-49650321D01*
X114366273Y-49656556D01*
X114374710Y-49680471D01*
X114386862Y-49702726D01*
X114386137Y-49712861D01*
X114389518Y-49722445D01*
X114383687Y-49747122D01*
X114381878Y-49772418D01*
X114375787Y-49780553D01*
X114373451Y-49790442D01*
X114355203Y-49808049D01*
X114340006Y-49828351D01*
X114329146Y-49833193D01*
X114323172Y-49838959D01*
X114289889Y-49850701D01*
X114239539Y-49860717D01*
X114169947Y-49854490D01*
X114114769Y-49811628D01*
X114100785Y-49786552D01*
X114075087Y-49724511D01*
X114075080Y-49724498D01*
X113992951Y-49601584D01*
X113992948Y-49601580D01*
X113888419Y-49497051D01*
X113888415Y-49497048D01*
X113765501Y-49414919D01*
X113765488Y-49414912D01*
X113628917Y-49358343D01*
X113628907Y-49358340D01*
X113483920Y-49329500D01*
X113483918Y-49329500D01*
X113336082Y-49329500D01*
X113336080Y-49329500D01*
X113191092Y-49358340D01*
X113191082Y-49358343D01*
X113054507Y-49414914D01*
X113017872Y-49439393D01*
X112977898Y-49466102D01*
X112959853Y-49471752D01*
X112943944Y-49481977D01*
X112912982Y-49486428D01*
X112911222Y-49486980D01*
X112909009Y-49487000D01*
X112897292Y-49487000D01*
X112830253Y-49467315D01*
X112806237Y-49447172D01*
X112797296Y-49437500D01*
X112531815Y-49437500D01*
X112468694Y-49420232D01*
X112444661Y-49406019D01*
X112410398Y-49385756D01*
X112410397Y-49385755D01*
X112410396Y-49385755D01*
X112410393Y-49385754D01*
X112252573Y-49339902D01*
X112252567Y-49339901D01*
X112215701Y-49337000D01*
X112215694Y-49337000D01*
X111761500Y-49337000D01*
X111694461Y-49317315D01*
X111648706Y-49264511D01*
X111637500Y-49213000D01*
X111637500Y-49187500D01*
X111511500Y-49187500D01*
X111444461Y-49167815D01*
X111398706Y-49115011D01*
X111387500Y-49063500D01*
X111387500Y-48937500D01*
X111887500Y-48937500D01*
X112797295Y-48937500D01*
X112797295Y-48937498D01*
X112797100Y-48935011D01*
X112797099Y-48935005D01*
X112766286Y-48828946D01*
X112766283Y-48828938D01*
X112751281Y-48777302D01*
X112735135Y-48750000D01*
X114160069Y-48750000D01*
X114680000Y-48750000D01*
X114680000Y-48187154D01*
X114679998Y-48187153D01*
X114540811Y-48227591D01*
X114540808Y-48227593D01*
X114402714Y-48309261D01*
X114402705Y-48309268D01*
X114289268Y-48422705D01*
X114289261Y-48422714D01*
X114207593Y-48560808D01*
X114207592Y-48560811D01*
X114162833Y-48714871D01*
X114162832Y-48714877D01*
X114160069Y-48750000D01*
X112735135Y-48750000D01*
X112667685Y-48635947D01*
X112667678Y-48635938D01*
X112551561Y-48519821D01*
X112551552Y-48519814D01*
X112410196Y-48436217D01*
X112410193Y-48436216D01*
X112252495Y-48390400D01*
X112252489Y-48390399D01*
X112215649Y-48387500D01*
X111887500Y-48387500D01*
X111887500Y-48937500D01*
X111387500Y-48937500D01*
X111387500Y-48387500D01*
X111264500Y-48387500D01*
X111197461Y-48367815D01*
X111151706Y-48315011D01*
X111140500Y-48263500D01*
X111140500Y-47425928D01*
X111115502Y-47300261D01*
X111115501Y-47300260D01*
X111115501Y-47300256D01*
X111071212Y-47193334D01*
X111066466Y-47181875D01*
X111066461Y-47181866D01*
X110995277Y-47075332D01*
X110990136Y-47070191D01*
X110904669Y-46984724D01*
X108286818Y-44366873D01*
X105631626Y-41711680D01*
X105598141Y-41650357D01*
X105603125Y-41580665D01*
X105644997Y-41524732D01*
X105710461Y-41500315D01*
X105719307Y-41499999D01*
X107605092Y-41499999D01*
X107605098Y-41499998D01*
X107718460Y-41489921D01*
X107904215Y-41436771D01*
X108075475Y-41347312D01*
X108075479Y-41347310D01*
X108225215Y-41225217D01*
X108225216Y-41225216D01*
X108290993Y-41144545D01*
X108290992Y-41144543D01*
X106323224Y-39176776D01*
X106182767Y-39036319D01*
X106146447Y-38999999D01*
X106853552Y-38999999D01*
X106853552Y-39000000D01*
X108496623Y-40643072D01*
X108499999Y-40605097D01*
X108499999Y-37394906D01*
X108499998Y-37394903D01*
X108496622Y-37356928D01*
X108496621Y-37356928D01*
X106853552Y-38999999D01*
X106146447Y-38999999D01*
X104503375Y-37356926D01*
X104500000Y-37394894D01*
X104500000Y-40280692D01*
X104480315Y-40347731D01*
X104427511Y-40393486D01*
X104358353Y-40403430D01*
X104294797Y-40374405D01*
X104288319Y-40368373D01*
X104036819Y-40116873D01*
X104003334Y-40055550D01*
X104000500Y-40029192D01*
X104000500Y-37394869D01*
X104000500Y-37394862D01*
X103990417Y-37281448D01*
X103937237Y-37095594D01*
X103847734Y-36924249D01*
X103791638Y-36855453D01*
X104709006Y-36855453D01*
X104709006Y-36855455D01*
X106500000Y-38646448D01*
X106500001Y-38646448D01*
X108290992Y-36855455D01*
X108290992Y-36855454D01*
X108225211Y-36774779D01*
X108075479Y-36652689D01*
X108075475Y-36652687D01*
X107904215Y-36563228D01*
X107718461Y-36510079D01*
X107718458Y-36510078D01*
X107605096Y-36500000D01*
X105394907Y-36500000D01*
X105394901Y-36500001D01*
X105281539Y-36510078D01*
X105095784Y-36563228D01*
X104924525Y-36652686D01*
X104774781Y-36774786D01*
X104709006Y-36855453D01*
X103791638Y-36855453D01*
X103783304Y-36845232D01*
X103725571Y-36774428D01*
X103633700Y-36699518D01*
X103575751Y-36652266D01*
X103561082Y-36644604D01*
X103404405Y-36562762D01*
X103220285Y-36510079D01*
X103218552Y-36509583D01*
X103218551Y-36509582D01*
X103218548Y-36509582D01*
X103129662Y-36501680D01*
X103105138Y-36499500D01*
X100894862Y-36499500D01*
X100889227Y-36500001D01*
X100781451Y-36509582D01*
X100595594Y-36562762D01*
X100424250Y-36652265D01*
X100274428Y-36774428D01*
X100152265Y-36924250D01*
X100062762Y-37095594D01*
X100009582Y-37281451D01*
X99999500Y-37394863D01*
X99999500Y-40605136D01*
X100009582Y-40718548D01*
X100062762Y-40904405D01*
X100102303Y-40980102D01*
X100152266Y-41075751D01*
X100199518Y-41133700D01*
X100274428Y-41225571D01*
X100349339Y-41286652D01*
X100424249Y-41347734D01*
X100595594Y-41437237D01*
X100781448Y-41490417D01*
X100894862Y-41500500D01*
X100894870Y-41500500D01*
X103105130Y-41500500D01*
X103105138Y-41500500D01*
X103218552Y-41490417D01*
X103404406Y-41437237D01*
X103404420Y-41437229D01*
X103409164Y-41435335D01*
X103478721Y-41428739D01*
X103540803Y-41460796D01*
X103542856Y-41462802D01*
X109803181Y-47723126D01*
X109836666Y-47784449D01*
X109839500Y-47810807D01*
X109839500Y-48263000D01*
X109819815Y-48330039D01*
X109767011Y-48375794D01*
X109715500Y-48387000D01*
X108784298Y-48387000D01*
X108747432Y-48389901D01*
X108747426Y-48389902D01*
X108589606Y-48435754D01*
X108589603Y-48435755D01*
X108447605Y-48519732D01*
X108384484Y-48537000D01*
X107718429Y-48537000D01*
X107599759Y-48560606D01*
X107599754Y-48560607D01*
X107592756Y-48561999D01*
X107592755Y-48561999D01*
X107474374Y-48611034D01*
X107367826Y-48682226D01*
X106514727Y-49535325D01*
X106514722Y-49535331D01*
X106490740Y-49571223D01*
X106437128Y-49616027D01*
X106367802Y-49624734D01*
X106304775Y-49594579D01*
X106299958Y-49590012D01*
X105704674Y-48994727D01*
X105704673Y-48994726D01*
X105704669Y-48994723D01*
X105598127Y-48923535D01*
X105479744Y-48874499D01*
X105479738Y-48874497D01*
X105429625Y-48864529D01*
X105367714Y-48832144D01*
X105333140Y-48771428D01*
X105336881Y-48701658D01*
X105366134Y-48655232D01*
X105432951Y-48588416D01*
X105515084Y-48465495D01*
X105571658Y-48328913D01*
X105585937Y-48257129D01*
X105600500Y-48183920D01*
X105600500Y-48036079D01*
X105571659Y-47891092D01*
X105571658Y-47891091D01*
X105571658Y-47891087D01*
X105538334Y-47810635D01*
X105515087Y-47754511D01*
X105515080Y-47754498D01*
X105432951Y-47631584D01*
X105432948Y-47631580D01*
X105328419Y-47527051D01*
X105328415Y-47527048D01*
X105205501Y-47444919D01*
X105205488Y-47444912D01*
X105068917Y-47388343D01*
X105068907Y-47388340D01*
X104923920Y-47359500D01*
X104923918Y-47359500D01*
X104776082Y-47359500D01*
X104776080Y-47359500D01*
X104631092Y-47388340D01*
X104631082Y-47388343D01*
X104494511Y-47444912D01*
X104494498Y-47444919D01*
X104371584Y-47527048D01*
X104371580Y-47527051D01*
X104267051Y-47631580D01*
X104267048Y-47631584D01*
X104184919Y-47754498D01*
X104184914Y-47754507D01*
X104126011Y-47896714D01*
X104125151Y-47896358D01*
X104097397Y-47942655D01*
X103944723Y-48095331D01*
X103892113Y-48174069D01*
X103873535Y-48201873D01*
X103847093Y-48265708D01*
X103845049Y-48269775D01*
X103824169Y-48292122D01*
X103804981Y-48315934D01*
X103800542Y-48317411D01*
X103797349Y-48320829D01*
X103767703Y-48328340D01*
X103738686Y-48337998D01*
X103730297Y-48337818D01*
X103729620Y-48337990D01*
X103729025Y-48337791D01*
X103724541Y-48337695D01*
X103715719Y-48337001D01*
X103715699Y-48337000D01*
X103715694Y-48337000D01*
X103284306Y-48337000D01*
X103284298Y-48337000D01*
X103247432Y-48339901D01*
X103247426Y-48339902D01*
X103089606Y-48385754D01*
X103089605Y-48385754D01*
X103089602Y-48385756D01*
X103088118Y-48386633D01*
X103086804Y-48386966D01*
X103082446Y-48388853D01*
X103082141Y-48388149D01*
X103020396Y-48403815D01*
X102967766Y-48388361D01*
X102967554Y-48388853D01*
X102963573Y-48387130D01*
X102961881Y-48386633D01*
X102960398Y-48385756D01*
X102960394Y-48385755D01*
X102960393Y-48385754D01*
X102802573Y-48339902D01*
X102802567Y-48339901D01*
X102765701Y-48337000D01*
X102765694Y-48337000D01*
X102334306Y-48337000D01*
X102334298Y-48337000D01*
X102297432Y-48339901D01*
X102297426Y-48339902D01*
X102139606Y-48385754D01*
X102139603Y-48385755D01*
X101998137Y-48469417D01*
X101998129Y-48469423D01*
X101881923Y-48585629D01*
X101881917Y-48585637D01*
X101798255Y-48727103D01*
X101798254Y-48727106D01*
X101752402Y-48884926D01*
X101752401Y-48884932D01*
X101749500Y-48921798D01*
X101749500Y-50078201D01*
X101752401Y-50115067D01*
X101752402Y-50115073D01*
X101798254Y-50272893D01*
X101798255Y-50272896D01*
X101798256Y-50272898D01*
X101801519Y-50278415D01*
X101881917Y-50414362D01*
X101881923Y-50414370D01*
X101998129Y-50530576D01*
X101998140Y-50530585D01*
X101998455Y-50530771D01*
X101998650Y-50530980D01*
X102004298Y-50535361D01*
X102003591Y-50536272D01*
X102046136Y-50581843D01*
X102058637Y-50650585D01*
X102031988Y-50715173D01*
X102004078Y-50739356D01*
X102004298Y-50739639D01*
X101999092Y-50743676D01*
X101998455Y-50744229D01*
X101998140Y-50744414D01*
X101998129Y-50744423D01*
X101881923Y-50860629D01*
X101881917Y-50860637D01*
X101798255Y-51002103D01*
X101798254Y-51002106D01*
X101788670Y-51035095D01*
X101751064Y-51093981D01*
X101687591Y-51123187D01*
X101669594Y-51124500D01*
X100495808Y-51124500D01*
X100428769Y-51104815D01*
X100408127Y-51088181D01*
X93686819Y-44366873D01*
X93653334Y-44305550D01*
X93650500Y-44279192D01*
X93650500Y-41624500D01*
X93670185Y-41557461D01*
X93722989Y-41511706D01*
X93774500Y-41500500D01*
X94105130Y-41500500D01*
X94105138Y-41500500D01*
X94218552Y-41490417D01*
X94404406Y-41437237D01*
X94575751Y-41347734D01*
X94725571Y-41225571D01*
X94847734Y-41075751D01*
X94937237Y-40904406D01*
X94990417Y-40718552D01*
X95000500Y-40605138D01*
X95000500Y-37394863D01*
X95499500Y-37394863D01*
X95499500Y-40605136D01*
X95509582Y-40718548D01*
X95562762Y-40904405D01*
X95602303Y-40980102D01*
X95652266Y-41075751D01*
X95699518Y-41133700D01*
X95774428Y-41225571D01*
X95849339Y-41286652D01*
X95924249Y-41347734D01*
X96095594Y-41437237D01*
X96281448Y-41490417D01*
X96394862Y-41500500D01*
X96725500Y-41500500D01*
X96792539Y-41520185D01*
X96838294Y-41572989D01*
X96849500Y-41624500D01*
X96849500Y-44502914D01*
X96840061Y-44550366D01*
X96798343Y-44651082D01*
X96798340Y-44651092D01*
X96769500Y-44796079D01*
X96769500Y-44796082D01*
X96769500Y-44943918D01*
X96769500Y-44943920D01*
X96769499Y-44943920D01*
X96798340Y-45088907D01*
X96798343Y-45088917D01*
X96854912Y-45225488D01*
X96854919Y-45225501D01*
X96937048Y-45348415D01*
X96937051Y-45348419D01*
X97041580Y-45452948D01*
X97041584Y-45452951D01*
X97164498Y-45535080D01*
X97164511Y-45535087D01*
X97271865Y-45579554D01*
X97301087Y-45591658D01*
X97301091Y-45591658D01*
X97301092Y-45591659D01*
X97446079Y-45620500D01*
X97446082Y-45620500D01*
X97593920Y-45620500D01*
X97691462Y-45601096D01*
X97738913Y-45591658D01*
X97875495Y-45535084D01*
X97998416Y-45452951D01*
X98102951Y-45348416D01*
X98185084Y-45225495D01*
X98241658Y-45088913D01*
X98259931Y-44997051D01*
X98270500Y-44943920D01*
X98270500Y-44796079D01*
X98241659Y-44651092D01*
X98241658Y-44651091D01*
X98241658Y-44651087D01*
X98185084Y-44514505D01*
X98171396Y-44494020D01*
X98150520Y-44427343D01*
X98150500Y-44425131D01*
X98150500Y-41624500D01*
X98170185Y-41557461D01*
X98222989Y-41511706D01*
X98274500Y-41500500D01*
X98605130Y-41500500D01*
X98605138Y-41500500D01*
X98718552Y-41490417D01*
X98904406Y-41437237D01*
X99075751Y-41347734D01*
X99225571Y-41225571D01*
X99347734Y-41075751D01*
X99437237Y-40904406D01*
X99490417Y-40718552D01*
X99500500Y-40605138D01*
X99500500Y-37394862D01*
X99490417Y-37281448D01*
X99437237Y-37095594D01*
X99347734Y-36924249D01*
X99286652Y-36849339D01*
X99225571Y-36774428D01*
X99133700Y-36699518D01*
X99075751Y-36652266D01*
X99061082Y-36644604D01*
X98904405Y-36562762D01*
X98720285Y-36510079D01*
X98718552Y-36509583D01*
X98718551Y-36509582D01*
X98718548Y-36509582D01*
X98629662Y-36501680D01*
X98605138Y-36499500D01*
X96394862Y-36499500D01*
X96389227Y-36500001D01*
X96281451Y-36509582D01*
X96095594Y-36562762D01*
X95924250Y-36652265D01*
X95774428Y-36774428D01*
X95652265Y-36924250D01*
X95562762Y-37095594D01*
X95509582Y-37281451D01*
X95499500Y-37394863D01*
X95000500Y-37394863D01*
X95000500Y-37394862D01*
X94990417Y-37281448D01*
X94937237Y-37095594D01*
X94847734Y-36924249D01*
X94786652Y-36849339D01*
X94725571Y-36774428D01*
X94633700Y-36699518D01*
X94575751Y-36652266D01*
X94561082Y-36644604D01*
X94404405Y-36562762D01*
X94220285Y-36510079D01*
X94218552Y-36509583D01*
X94218551Y-36509582D01*
X94218548Y-36509582D01*
X94129662Y-36501680D01*
X94105138Y-36499500D01*
X91894862Y-36499500D01*
X91889227Y-36500001D01*
X91781451Y-36509582D01*
X91595594Y-36562762D01*
X91424250Y-36652265D01*
X91274428Y-36774428D01*
X91152265Y-36924250D01*
X91062762Y-37095594D01*
X91009582Y-37281451D01*
X90999500Y-37394863D01*
X90999500Y-40605136D01*
X91009582Y-40718548D01*
X91062762Y-40904405D01*
X91102303Y-40980102D01*
X91152266Y-41075751D01*
X91199518Y-41133700D01*
X91274428Y-41225571D01*
X91349339Y-41286652D01*
X91424249Y-41347734D01*
X91595594Y-41437237D01*
X91781448Y-41490417D01*
X91894862Y-41500500D01*
X92225500Y-41500500D01*
X92292539Y-41520185D01*
X92338294Y-41572989D01*
X92349500Y-41624500D01*
X92349500Y-44279192D01*
X92329815Y-44346231D01*
X92313181Y-44366873D01*
X91756873Y-44923181D01*
X91695550Y-44956666D01*
X91669192Y-44959500D01*
X87405929Y-44959500D01*
X87280260Y-44984497D01*
X87280254Y-44984499D01*
X87255703Y-44994669D01*
X87161877Y-45033532D01*
X87161863Y-45033540D01*
X87055332Y-45104721D01*
X87055325Y-45104727D01*
X86125331Y-46034723D01*
X84994727Y-47165325D01*
X84994724Y-47165328D01*
X84957860Y-47220501D01*
X84957857Y-47220506D01*
X84948748Y-47234137D01*
X84895133Y-47278939D01*
X84825807Y-47287643D01*
X84821458Y-47286858D01*
X84683921Y-47259500D01*
X84683918Y-47259500D01*
X84536082Y-47259500D01*
X84536080Y-47259500D01*
X84391092Y-47288340D01*
X84391082Y-47288343D01*
X84254511Y-47344912D01*
X84254498Y-47344919D01*
X84131584Y-47427048D01*
X84131580Y-47427051D01*
X84027051Y-47531580D01*
X84027048Y-47531584D01*
X83944919Y-47654498D01*
X83944912Y-47654511D01*
X83888343Y-47791082D01*
X83888340Y-47791092D01*
X83859500Y-47936079D01*
X83859500Y-47936082D01*
X83859500Y-48083918D01*
X83859500Y-48083920D01*
X83859499Y-48083920D01*
X83888340Y-48228908D01*
X83888342Y-48228914D01*
X83890060Y-48233061D01*
X83891686Y-48241239D01*
X83894477Y-48245581D01*
X83899500Y-48280516D01*
X83899500Y-48384484D01*
X83882232Y-48447605D01*
X83798255Y-48589603D01*
X83798254Y-48589606D01*
X83752402Y-48747426D01*
X83752401Y-48747432D01*
X83749500Y-48784298D01*
X83749500Y-49940701D01*
X83752401Y-49977567D01*
X83752402Y-49977573D01*
X83798254Y-50135393D01*
X83798255Y-50135396D01*
X83881917Y-50276862D01*
X83881923Y-50276870D01*
X83998129Y-50393076D01*
X83998140Y-50393085D01*
X83998455Y-50393271D01*
X83998650Y-50393480D01*
X84004298Y-50397861D01*
X84003591Y-50398772D01*
X84046136Y-50444343D01*
X84058637Y-50513085D01*
X84031988Y-50577673D01*
X84004078Y-50601856D01*
X84004298Y-50602139D01*
X83999092Y-50606176D01*
X83998455Y-50606729D01*
X83998140Y-50606914D01*
X83998129Y-50606923D01*
X83881923Y-50723129D01*
X83881917Y-50723137D01*
X83798255Y-50864603D01*
X83798254Y-50864606D01*
X83752402Y-51022426D01*
X83752401Y-51022432D01*
X83749500Y-51059298D01*
X83749500Y-51770191D01*
X83729815Y-51837230D01*
X83677011Y-51882985D01*
X83607853Y-51892929D01*
X83544297Y-51863904D01*
X83537819Y-51857872D01*
X83354673Y-51674726D01*
X83353536Y-51673966D01*
X83248127Y-51603535D01*
X83246666Y-51602930D01*
X83129744Y-51554499D01*
X83129738Y-51554497D01*
X83004071Y-51529500D01*
X83004069Y-51529500D01*
X79219808Y-51529500D01*
X79152769Y-51509815D01*
X79107014Y-51457011D01*
X79097070Y-51387853D01*
X79126095Y-51324297D01*
X79132127Y-51317819D01*
X79643127Y-50806818D01*
X79704450Y-50773333D01*
X79730808Y-50770499D01*
X79749168Y-50770499D01*
X79749180Y-50770499D01*
X79785204Y-50767665D01*
X79939393Y-50722869D01*
X80032564Y-50667767D01*
X80048465Y-50663417D01*
X80060750Y-50655523D01*
X80095685Y-50650500D01*
X80185132Y-50650500D01*
X80252171Y-50670185D01*
X80253940Y-50671343D01*
X80274505Y-50685084D01*
X80411087Y-50741658D01*
X80411091Y-50741658D01*
X80411092Y-50741659D01*
X80556079Y-50770500D01*
X80556082Y-50770500D01*
X80703920Y-50770500D01*
X80811133Y-50749173D01*
X80848913Y-50741658D01*
X80985495Y-50685084D01*
X81108416Y-50602951D01*
X81212951Y-50498416D01*
X81295084Y-50375495D01*
X81351658Y-50238913D01*
X81372249Y-50135398D01*
X81380500Y-50093920D01*
X81380500Y-49946079D01*
X81351659Y-49801092D01*
X81351658Y-49801091D01*
X81351658Y-49801087D01*
X81347249Y-49790442D01*
X81295087Y-49664511D01*
X81295080Y-49664498D01*
X81212951Y-49541584D01*
X81212948Y-49541580D01*
X81178337Y-49506969D01*
X81144852Y-49445646D01*
X81149836Y-49375954D01*
X81178335Y-49331609D01*
X88973127Y-41536819D01*
X89034450Y-41503334D01*
X89060808Y-41500500D01*
X89605130Y-41500500D01*
X89605138Y-41500500D01*
X89718552Y-41490417D01*
X89904406Y-41437237D01*
X90075751Y-41347734D01*
X90225571Y-41225571D01*
X90347734Y-41075751D01*
X90437237Y-40904406D01*
X90490417Y-40718552D01*
X90500500Y-40605138D01*
X90500500Y-37394862D01*
X90490417Y-37281448D01*
X90437237Y-37095594D01*
X90347734Y-36924249D01*
X90286652Y-36849339D01*
X90225571Y-36774428D01*
X90133700Y-36699518D01*
X90075751Y-36652266D01*
X90061082Y-36644604D01*
X89904405Y-36562762D01*
X89720285Y-36510079D01*
X89718552Y-36509583D01*
X89718551Y-36509582D01*
X89718548Y-36509582D01*
X89629662Y-36501680D01*
X89605138Y-36499500D01*
X87394862Y-36499500D01*
X87389227Y-36500001D01*
X87281451Y-36509582D01*
X87095594Y-36562762D01*
X86924250Y-36652265D01*
X86774428Y-36774428D01*
X86652265Y-36924250D01*
X86562762Y-37095594D01*
X86509582Y-37281451D01*
X86499500Y-37394863D01*
X86499500Y-40605136D01*
X86509582Y-40718548D01*
X86562762Y-40904405D01*
X86602303Y-40980102D01*
X86652266Y-41075751D01*
X86699518Y-41133700D01*
X86774428Y-41225571D01*
X86849339Y-41286652D01*
X86924249Y-41347734D01*
X87036058Y-41406138D01*
X87086363Y-41454622D01*
X87102471Y-41522610D01*
X87079265Y-41588513D01*
X87066326Y-41603726D01*
X81512181Y-47157872D01*
X81450858Y-47191357D01*
X81381166Y-47186373D01*
X81325233Y-47144501D01*
X81300816Y-47079037D01*
X81300500Y-47070191D01*
X81300500Y-47006079D01*
X81271659Y-46861092D01*
X81271658Y-46861091D01*
X81271658Y-46861087D01*
X81271656Y-46861082D01*
X81215087Y-46724511D01*
X81215080Y-46724498D01*
X81132951Y-46601584D01*
X81132948Y-46601580D01*
X81028419Y-46497051D01*
X81028415Y-46497048D01*
X80905501Y-46414919D01*
X80905488Y-46414912D01*
X80763286Y-46356011D01*
X80763643Y-46355149D01*
X80717344Y-46327398D01*
X80454674Y-46064727D01*
X80454673Y-46064726D01*
X80409770Y-46034723D01*
X80348127Y-45993535D01*
X80229744Y-45944499D01*
X80229738Y-45944497D01*
X80104071Y-45919500D01*
X80104069Y-45919500D01*
X79939807Y-45919500D01*
X79872768Y-45899815D01*
X79827013Y-45847011D01*
X79817069Y-45777853D01*
X79846094Y-45714297D01*
X79852126Y-45707819D01*
X84023127Y-41536819D01*
X84084450Y-41503334D01*
X84110808Y-41500500D01*
X85105130Y-41500500D01*
X85105138Y-41500500D01*
X85218552Y-41490417D01*
X85404406Y-41437237D01*
X85575751Y-41347734D01*
X85725571Y-41225571D01*
X85847734Y-41075751D01*
X85937237Y-40904406D01*
X85990417Y-40718552D01*
X86000500Y-40605138D01*
X86000500Y-37394862D01*
X85990417Y-37281448D01*
X85937237Y-37095594D01*
X85847734Y-36924249D01*
X85786652Y-36849339D01*
X85725571Y-36774428D01*
X85633700Y-36699518D01*
X85575751Y-36652266D01*
X85561082Y-36644604D01*
X85404405Y-36562762D01*
X85220285Y-36510079D01*
X85218552Y-36509583D01*
X85218551Y-36509582D01*
X85218548Y-36509582D01*
X85129662Y-36501680D01*
X85105138Y-36499500D01*
X82894862Y-36499500D01*
X82889227Y-36500001D01*
X82781451Y-36509582D01*
X82595594Y-36562762D01*
X82424250Y-36652265D01*
X82274428Y-36774428D01*
X82152265Y-36924250D01*
X82062762Y-37095594D01*
X82009582Y-37281451D01*
X81999500Y-37394863D01*
X81999500Y-40605136D01*
X82009582Y-40718548D01*
X82062762Y-40904405D01*
X82102303Y-40980102D01*
X82152266Y-41075751D01*
X82208359Y-41144543D01*
X82274139Y-41225216D01*
X82274429Y-41225571D01*
X82289273Y-41237675D01*
X82328790Y-41295293D01*
X82330883Y-41365132D01*
X82298594Y-41421458D01*
X80362181Y-43357872D01*
X80300858Y-43391357D01*
X80231166Y-43386373D01*
X80175233Y-43344501D01*
X80150816Y-43279037D01*
X80150500Y-43270191D01*
X80150500Y-41624500D01*
X80170185Y-41557461D01*
X80222989Y-41511706D01*
X80274500Y-41500500D01*
X80605130Y-41500500D01*
X80605138Y-41500500D01*
X80718552Y-41490417D01*
X80904406Y-41437237D01*
X81075751Y-41347734D01*
X81225571Y-41225571D01*
X81347734Y-41075751D01*
X81437237Y-40904406D01*
X81490417Y-40718552D01*
X81500500Y-40605138D01*
X81500500Y-37394862D01*
X81490417Y-37281448D01*
X81437237Y-37095594D01*
X81347734Y-36924249D01*
X81286652Y-36849339D01*
X81225571Y-36774428D01*
X81133700Y-36699518D01*
X81075751Y-36652266D01*
X81061082Y-36644604D01*
X80904405Y-36562762D01*
X80720285Y-36510079D01*
X80718552Y-36509583D01*
X80718551Y-36509582D01*
X80718548Y-36509582D01*
X80629662Y-36501680D01*
X80605138Y-36499500D01*
X78394862Y-36499500D01*
X78389227Y-36500001D01*
X78281451Y-36509582D01*
X78095594Y-36562762D01*
X77924250Y-36652265D01*
X77774428Y-36774428D01*
X77652265Y-36924250D01*
X77562762Y-37095594D01*
X77509582Y-37281451D01*
X77499500Y-37394863D01*
X77499500Y-40605136D01*
X77509582Y-40718548D01*
X77562762Y-40904405D01*
X77602303Y-40980102D01*
X77652266Y-41075751D01*
X77699518Y-41133700D01*
X77774428Y-41225571D01*
X77849339Y-41286652D01*
X77924249Y-41347734D01*
X78095594Y-41437237D01*
X78281448Y-41490417D01*
X78394862Y-41500500D01*
X78725500Y-41500500D01*
X78792539Y-41520185D01*
X78838294Y-41572989D01*
X78849500Y-41624500D01*
X78849500Y-43429191D01*
X78829815Y-43496230D01*
X78813181Y-43516872D01*
X77502654Y-44827398D01*
X77456357Y-44855149D01*
X77456714Y-44856011D01*
X77314507Y-44914914D01*
X77314498Y-44914919D01*
X77191584Y-44997048D01*
X77191580Y-44997051D01*
X77087051Y-45101580D01*
X77087048Y-45101584D01*
X77004919Y-45224498D01*
X77004914Y-45224508D01*
X76946924Y-45364508D01*
X76903083Y-45418911D01*
X76836788Y-45440976D01*
X76769089Y-45423697D01*
X76744682Y-45404736D01*
X75686819Y-44346873D01*
X75653334Y-44285550D01*
X75650500Y-44259192D01*
X75650500Y-41624500D01*
X75670185Y-41557461D01*
X75722989Y-41511706D01*
X75774500Y-41500500D01*
X76105130Y-41500500D01*
X76105138Y-41500500D01*
X76218552Y-41490417D01*
X76404406Y-41437237D01*
X76575751Y-41347734D01*
X76725571Y-41225571D01*
X76847734Y-41075751D01*
X76937237Y-40904406D01*
X76990417Y-40718552D01*
X77000500Y-40605138D01*
X77000500Y-37394862D01*
X76990417Y-37281448D01*
X76937237Y-37095594D01*
X76847734Y-36924249D01*
X76786652Y-36849339D01*
X76725571Y-36774428D01*
X76633700Y-36699518D01*
X76575751Y-36652266D01*
X76561082Y-36644604D01*
X76404405Y-36562762D01*
X76220285Y-36510079D01*
X76218552Y-36509583D01*
X76218551Y-36509582D01*
X76218548Y-36509582D01*
X76129662Y-36501680D01*
X76105138Y-36499500D01*
X73894862Y-36499500D01*
X73889227Y-36500001D01*
X73781451Y-36509582D01*
X73595594Y-36562762D01*
X73424250Y-36652265D01*
X73274428Y-36774428D01*
X73152265Y-36924250D01*
X73062762Y-37095594D01*
X73009582Y-37281451D01*
X72999500Y-37394863D01*
X72999500Y-40605136D01*
X73009582Y-40718548D01*
X73062762Y-40904405D01*
X73102303Y-40980102D01*
X73152266Y-41075751D01*
X73199518Y-41133700D01*
X73274428Y-41225571D01*
X73349339Y-41286652D01*
X73424249Y-41347734D01*
X73595594Y-41437237D01*
X73781448Y-41490417D01*
X73894862Y-41500500D01*
X74225500Y-41500500D01*
X74292539Y-41520185D01*
X74338294Y-41572989D01*
X74349500Y-41624500D01*
X74349500Y-44644069D01*
X74349500Y-44644071D01*
X74349499Y-44644071D01*
X74374497Y-44769738D01*
X74374499Y-44769744D01*
X74411197Y-44858342D01*
X74423535Y-44888127D01*
X74487928Y-44984499D01*
X74494726Y-44994673D01*
X76575326Y-47075273D01*
X76575329Y-47075275D01*
X76575331Y-47075277D01*
X76678287Y-47144069D01*
X76681873Y-47146465D01*
X76800256Y-47195501D01*
X76800260Y-47195501D01*
X76800261Y-47195502D01*
X76925928Y-47220500D01*
X76925931Y-47220500D01*
X79713008Y-47220500D01*
X79780047Y-47240185D01*
X79825802Y-47292989D01*
X79827569Y-47297047D01*
X79884914Y-47435492D01*
X79884919Y-47435501D01*
X79967048Y-47558415D01*
X79967051Y-47558419D01*
X80071580Y-47662948D01*
X80071584Y-47662951D01*
X80194498Y-47745080D01*
X80194511Y-47745087D01*
X80305554Y-47791082D01*
X80331087Y-47801658D01*
X80331091Y-47801658D01*
X80331092Y-47801659D01*
X80476079Y-47830500D01*
X80540192Y-47830500D01*
X80607231Y-47850185D01*
X80652986Y-47902989D01*
X80662930Y-47972147D01*
X80633905Y-48035703D01*
X80627873Y-48042181D01*
X80376873Y-48293181D01*
X80349945Y-48307884D01*
X80324127Y-48324477D01*
X80317926Y-48325368D01*
X80315550Y-48326666D01*
X80289192Y-48329500D01*
X80095685Y-48329500D01*
X80032564Y-48312232D01*
X80027540Y-48309261D01*
X79939393Y-48257131D01*
X79939388Y-48257129D01*
X79785208Y-48212335D01*
X79785202Y-48212334D01*
X79749181Y-48209500D01*
X79250830Y-48209500D01*
X79250808Y-48209501D01*
X79214799Y-48212334D01*
X79214796Y-48212335D01*
X79104627Y-48244341D01*
X79034759Y-48244142D01*
X78994834Y-48222957D01*
X78994734Y-48223108D01*
X78993257Y-48222121D01*
X78991374Y-48221122D01*
X78989674Y-48219727D01*
X78989670Y-48219724D01*
X78989669Y-48219723D01*
X78883127Y-48148535D01*
X78764744Y-48099499D01*
X78764738Y-48099497D01*
X78639071Y-48074500D01*
X78639069Y-48074500D01*
X76430406Y-48074500D01*
X76363367Y-48054815D01*
X76317612Y-48002011D01*
X76311330Y-47985095D01*
X76301745Y-47952106D01*
X76301744Y-47952103D01*
X76301744Y-47952102D01*
X76218081Y-47810635D01*
X76218079Y-47810633D01*
X76218076Y-47810629D01*
X76101870Y-47694423D01*
X76101862Y-47694417D01*
X75995616Y-47631584D01*
X75960398Y-47610756D01*
X75960397Y-47610755D01*
X75960396Y-47610755D01*
X75960393Y-47610754D01*
X75802573Y-47564902D01*
X75802567Y-47564901D01*
X75765701Y-47562000D01*
X75765694Y-47562000D01*
X75334306Y-47562000D01*
X75334298Y-47562000D01*
X75297432Y-47564901D01*
X75297426Y-47564902D01*
X75139606Y-47610754D01*
X75139603Y-47610755D01*
X74998137Y-47694417D01*
X74998129Y-47694423D01*
X74881923Y-47810629D01*
X74881917Y-47810637D01*
X74798255Y-47952103D01*
X74798254Y-47952106D01*
X74752402Y-48109926D01*
X74752401Y-48109932D01*
X74749500Y-48146798D01*
X74749500Y-49303201D01*
X74752401Y-49340067D01*
X74752402Y-49340073D01*
X74798254Y-49497893D01*
X74798255Y-49497896D01*
X74885890Y-49646080D01*
X74884071Y-49647155D01*
X74905619Y-49702032D01*
X74891941Y-49770550D01*
X74843391Y-49820796D01*
X74782105Y-49837000D01*
X74384298Y-49837000D01*
X74347432Y-49839901D01*
X74347426Y-49839902D01*
X74189606Y-49885754D01*
X74189603Y-49885755D01*
X74048137Y-49969417D01*
X74048129Y-49969423D01*
X73931923Y-50085629D01*
X73931917Y-50085637D01*
X73848255Y-50227103D01*
X73848254Y-50227106D01*
X73802402Y-50384926D01*
X73802401Y-50384932D01*
X73799500Y-50421798D01*
X73799500Y-51578201D01*
X73802401Y-51615067D01*
X73802402Y-51615073D01*
X73848254Y-51772893D01*
X73848255Y-51772896D01*
X73848256Y-51772898D01*
X73854773Y-51783918D01*
X73931917Y-51914362D01*
X73931923Y-51914370D01*
X74048129Y-52030576D01*
X74048133Y-52030579D01*
X74048135Y-52030581D01*
X74187613Y-52113068D01*
X74212171Y-52132117D01*
X74797390Y-52717335D01*
X75364724Y-53284669D01*
X75455328Y-53375273D01*
X75455331Y-53375276D01*
X75561866Y-53446461D01*
X75561879Y-53446468D01*
X75572673Y-53450939D01*
X75627077Y-53494779D01*
X75649142Y-53561073D01*
X75631863Y-53628773D01*
X75580726Y-53676384D01*
X75525221Y-53689500D01*
X74695929Y-53689500D01*
X74570261Y-53714497D01*
X74570255Y-53714499D01*
X74451870Y-53763535D01*
X74345331Y-53834722D01*
X74345324Y-53834728D01*
X73719724Y-54460328D01*
X73665238Y-54541874D01*
X73648540Y-54566864D01*
X73648533Y-54566877D01*
X73599498Y-54685257D01*
X73599498Y-54685258D01*
X73599377Y-54685868D01*
X73599225Y-54686157D01*
X73597729Y-54691090D01*
X73596793Y-54690806D01*
X73566990Y-54747778D01*
X73512355Y-54780750D01*
X73452106Y-54798253D01*
X73452103Y-54798255D01*
X73310637Y-54881917D01*
X73310629Y-54881923D01*
X73194423Y-54998129D01*
X73194417Y-54998137D01*
X73110755Y-55139603D01*
X73110754Y-55139606D01*
X73064902Y-55297426D01*
X73064901Y-55297432D01*
X73062000Y-55334298D01*
X73062000Y-55765701D01*
X73064901Y-55802567D01*
X73064902Y-55802573D01*
X73110754Y-55960393D01*
X73110755Y-55960396D01*
X73110756Y-55960398D01*
X73140380Y-56010489D01*
X73194417Y-56101862D01*
X73194423Y-56101870D01*
X73310629Y-56218076D01*
X73310633Y-56218079D01*
X73310635Y-56218081D01*
X73452102Y-56301744D01*
X73493724Y-56313836D01*
X73609926Y-56347597D01*
X73609929Y-56347597D01*
X73609931Y-56347598D01*
X73646806Y-56350500D01*
X73646814Y-56350500D01*
X74803186Y-56350500D01*
X74803194Y-56350500D01*
X74840069Y-56347598D01*
X74840071Y-56347597D01*
X74840073Y-56347597D01*
X74881691Y-56335505D01*
X74997898Y-56301744D01*
X75122548Y-56228026D01*
X75146080Y-56214110D01*
X75147155Y-56215928D01*
X75202032Y-56194381D01*
X75270550Y-56208059D01*
X75320796Y-56256609D01*
X75337000Y-56317895D01*
X75337000Y-56675500D01*
X75334449Y-56684185D01*
X75335738Y-56693147D01*
X75324759Y-56717187D01*
X75317315Y-56742539D01*
X75310474Y-56748466D01*
X75306713Y-56756703D01*
X75284478Y-56770992D01*
X75264511Y-56788294D01*
X75253996Y-56790581D01*
X75247935Y-56794477D01*
X75213000Y-56799500D01*
X75203016Y-56799500D01*
X75139895Y-56782232D01*
X74997896Y-56698255D01*
X74997893Y-56698254D01*
X74840073Y-56652402D01*
X74840067Y-56652401D01*
X74803201Y-56649500D01*
X74803194Y-56649500D01*
X73646806Y-56649500D01*
X73646798Y-56649500D01*
X73609932Y-56652401D01*
X73609926Y-56652402D01*
X73452106Y-56698254D01*
X73452103Y-56698255D01*
X73310637Y-56781917D01*
X73310629Y-56781923D01*
X73194423Y-56898129D01*
X73194417Y-56898137D01*
X73110755Y-57039603D01*
X73110754Y-57039606D01*
X73064902Y-57197426D01*
X73064901Y-57197432D01*
X73062000Y-57234298D01*
X73062000Y-57665701D01*
X73064901Y-57702567D01*
X73064902Y-57702573D01*
X73090566Y-57790905D01*
X73090367Y-57860774D01*
X73052425Y-57919444D01*
X72988787Y-57948288D01*
X72971490Y-57949500D01*
X70556080Y-57949500D01*
X70411092Y-57978340D01*
X70411082Y-57978343D01*
X70274511Y-58034912D01*
X70274498Y-58034919D01*
X70151584Y-58117048D01*
X70151580Y-58117051D01*
X67507050Y-60761580D01*
X67507044Y-60761588D01*
X67457812Y-60835268D01*
X67457813Y-60835269D01*
X67424921Y-60884496D01*
X67424914Y-60884508D01*
X67368342Y-61021086D01*
X67368340Y-61021092D01*
X67339500Y-61166079D01*
X67339500Y-61166082D01*
X67339500Y-85823918D01*
X67339500Y-85823920D01*
X67339499Y-85823920D01*
X66250500Y-85823920D01*
X66250500Y-61480102D01*
X66250501Y-61480099D01*
X66250500Y-61420294D01*
X66251097Y-61408145D01*
X66258899Y-61328917D01*
X66263638Y-61305092D01*
X66284976Y-61234754D01*
X66294274Y-61212310D01*
X66328920Y-61147497D01*
X66342419Y-61127296D01*
X66393070Y-61065582D01*
X66401218Y-61056594D01*
X66402990Y-61054823D01*
X66402996Y-61054819D01*
X66402995Y-61054818D01*
X66443374Y-61014446D01*
X66443375Y-61014443D01*
X66449832Y-61007988D01*
X66449875Y-61007937D01*
X67047104Y-60410707D01*
X67047109Y-60410704D01*
X67057312Y-60400500D01*
X67057314Y-60400500D01*
X70457607Y-57000207D01*
X70457607Y-57000206D01*
X70463644Y-56994170D01*
X70463797Y-56993994D01*
X70480523Y-56977271D01*
X70480523Y-56977270D01*
X70480527Y-56977267D01*
X70600278Y-56821219D01*
X70698635Y-56650874D01*
X70773914Y-56469147D01*
X70824826Y-56279148D01*
X70850500Y-56084130D01*
X70850500Y-55985779D01*
X70850500Y-55953535D01*
X70850500Y-36480102D01*
X70850501Y-36480099D01*
X70850500Y-36420294D01*
X70851097Y-36408145D01*
X70858899Y-36328917D01*
X70863638Y-36305092D01*
X70884976Y-36234754D01*
X70894274Y-36212310D01*
X70928920Y-36147497D01*
X70942419Y-36127296D01*
X70993070Y-36065583D01*
X71001218Y-36056594D01*
X71003429Y-36054384D01*
X71003435Y-36054380D01*
X71003434Y-36054379D01*
X71043374Y-36014446D01*
X71043375Y-36014443D01*
X71049832Y-36007988D01*
X71049875Y-36007937D01*
X71656699Y-35401113D01*
X71665695Y-35392959D01*
X71727270Y-35342427D01*
X71747466Y-35328932D01*
X71812293Y-35294283D01*
X71834737Y-35284986D01*
X71905084Y-35263647D01*
X71928907Y-35258909D01*
X72008248Y-35251096D01*
X72020393Y-35250500D01*
X72080099Y-35250501D01*
X72080103Y-35250500D01*
X117269897Y-35250500D01*
X117269901Y-35250501D01*
G37*
%TD.AperFunction*%
%TD*%
%TA.AperFunction,NonConductor*%
G36*
X78283629Y-49384144D02*
G01*
X78313620Y-49390668D01*
X78318636Y-49394423D01*
X78321231Y-49395185D01*
X78341868Y-49411814D01*
X78415330Y-49485276D01*
X78447796Y-49506969D01*
X78499603Y-49541585D01*
X78521873Y-49556465D01*
X78521875Y-49556466D01*
X78521879Y-49556468D01*
X78581316Y-49581087D01*
X78616513Y-49595666D01*
X78670917Y-49639506D01*
X78692982Y-49705800D01*
X78688138Y-49744818D01*
X78682337Y-49764786D01*
X78682334Y-49764802D01*
X78679500Y-49800811D01*
X78679500Y-49879192D01*
X78659815Y-49946231D01*
X78643181Y-49966873D01*
X78296873Y-50313181D01*
X78235550Y-50346666D01*
X78209192Y-50349500D01*
X77380406Y-50349500D01*
X77313367Y-50329815D01*
X77267612Y-50277011D01*
X77261330Y-50260095D01*
X77251745Y-50227106D01*
X77251744Y-50227103D01*
X77251744Y-50227102D01*
X77168081Y-50085635D01*
X77168079Y-50085633D01*
X77168076Y-50085629D01*
X77051870Y-49969423D01*
X77051862Y-49969417D01*
X76941592Y-49904204D01*
X76910398Y-49885756D01*
X76910397Y-49885755D01*
X76910396Y-49885755D01*
X76910393Y-49885754D01*
X76752573Y-49839902D01*
X76752567Y-49839901D01*
X76715701Y-49837000D01*
X76715694Y-49837000D01*
X76317895Y-49837000D01*
X76250856Y-49817315D01*
X76205101Y-49764511D01*
X76195157Y-49695353D01*
X76215671Y-49647003D01*
X76214110Y-49646080D01*
X76240289Y-49601813D01*
X76301744Y-49497898D01*
X76305781Y-49484000D01*
X76311330Y-49464905D01*
X76348936Y-49406019D01*
X76412409Y-49376813D01*
X76430406Y-49375500D01*
X78254192Y-49375500D01*
X78283629Y-49384144D01*
G37*
%TD.AperFunction*%
%TA.AperFunction,NonConductor*%
G36*
X75799144Y-49907685D02*
G01*
X75844899Y-49960489D01*
X75854843Y-50029647D01*
X75834328Y-50077996D01*
X75835890Y-50078920D01*
X75748255Y-50227103D01*
X75748254Y-50227106D01*
X75702402Y-50384926D01*
X75702401Y-50384932D01*
X75699500Y-50421798D01*
X75699500Y-51480192D01*
X75693261Y-51501437D01*
X75691682Y-51523526D01*
X75683609Y-51534309D01*
X75679815Y-51547231D01*
X75663081Y-51561730D01*
X75649810Y-51579459D01*
X75637189Y-51584166D01*
X75627011Y-51592986D01*
X75605093Y-51596137D01*
X75584346Y-51603876D01*
X75571185Y-51601013D01*
X75557853Y-51602930D01*
X75537709Y-51593730D01*
X75516073Y-51589024D01*
X75498347Y-51575755D01*
X75494297Y-51573905D01*
X75487819Y-51567873D01*
X75436819Y-51516873D01*
X75403334Y-51455550D01*
X75400500Y-51429192D01*
X75400500Y-50421813D01*
X75400499Y-50421798D01*
X75399914Y-50414370D01*
X75397598Y-50384931D01*
X75394858Y-50375501D01*
X75361329Y-50260095D01*
X75351744Y-50227102D01*
X75268081Y-50085635D01*
X75264110Y-50078920D01*
X75265928Y-50077844D01*
X75244381Y-50022968D01*
X75258059Y-49954450D01*
X75306609Y-49904204D01*
X75367895Y-49888000D01*
X75732105Y-49888000D01*
X75799144Y-49907685D01*
G37*
%TD.AperFunction*%
%TA.AperFunction,NonConductor*%
G36*
X105678834Y-51135048D02*
G01*
X105734767Y-51176920D01*
X105759184Y-51242384D01*
X105759500Y-51251230D01*
X105759500Y-51889191D01*
X105739815Y-51956230D01*
X105723181Y-51976872D01*
X105462181Y-52237872D01*
X105400858Y-52271357D01*
X105331166Y-52266373D01*
X105275233Y-52224501D01*
X105250816Y-52159037D01*
X105250500Y-52150191D01*
X105250500Y-51441428D01*
X105270185Y-51374389D01*
X105322989Y-51328634D01*
X105327048Y-51326867D01*
X105355488Y-51315087D01*
X105355488Y-51315086D01*
X105355495Y-51315084D01*
X105478416Y-51232951D01*
X105509825Y-51201542D01*
X105547819Y-51163549D01*
X105609142Y-51130064D01*
X105678834Y-51135048D01*
G37*
%TD.AperFunction*%
%TA.AperFunction,NonConductor*%
G36*
X113208065Y-51757685D02*
G01*
X113253820Y-51810489D01*
X113263764Y-51879647D01*
X113255588Y-51909450D01*
X113238342Y-51951087D01*
X113238341Y-51951090D01*
X113238341Y-51951091D01*
X113238340Y-51951092D01*
X113209500Y-52096079D01*
X113209500Y-52243920D01*
X113210097Y-52249983D01*
X113208190Y-52250170D01*
X113207103Y-52262299D01*
X113210101Y-52283147D01*
X113204048Y-52296401D01*
X113202748Y-52310912D01*
X113189825Y-52327543D01*
X113181076Y-52346703D01*
X113168819Y-52354579D01*
X113159880Y-52366085D01*
X113140016Y-52373090D01*
X113122298Y-52384477D01*
X113097700Y-52388013D01*
X113093988Y-52389323D01*
X113087363Y-52389500D01*
X112926415Y-52389500D01*
X112859376Y-52369815D01*
X112813621Y-52317011D01*
X112802797Y-52255769D01*
X112803000Y-52253194D01*
X112803000Y-51862000D01*
X112805550Y-51853314D01*
X112804262Y-51844353D01*
X112815240Y-51820312D01*
X112822685Y-51794961D01*
X112829525Y-51789033D01*
X112833287Y-51780797D01*
X112855521Y-51766507D01*
X112875489Y-51749206D01*
X112886003Y-51746918D01*
X112892065Y-51743023D01*
X112927000Y-51738000D01*
X113141026Y-51738000D01*
X113208065Y-51757685D01*
G37*
%TD.AperFunction*%
%TA.AperFunction,NonConductor*%
G36*
X82746231Y-54080185D02*
G01*
X82766873Y-54096819D01*
X82997062Y-54327008D01*
X83012275Y-54354869D01*
X83028961Y-54381879D01*
X83028899Y-54385314D01*
X83030547Y-54388331D01*
X83028282Y-54420000D01*
X83027717Y-54451737D01*
X83025712Y-54455926D01*
X83025563Y-54458023D01*
X83012486Y-54483576D01*
X82993498Y-54511996D01*
X82993496Y-54511999D01*
X82973535Y-54541872D01*
X82970660Y-54548813D01*
X82965838Y-54560453D01*
X82921999Y-54614855D01*
X82855705Y-54636921D01*
X82851278Y-54637000D01*
X80796227Y-54637000D01*
X80729188Y-54617315D01*
X80683433Y-54564511D01*
X80673489Y-54495353D01*
X80678350Y-54478160D01*
X80677378Y-54477878D01*
X80679553Y-54470389D01*
X80679555Y-54470387D01*
X80722765Y-54321656D01*
X80725500Y-54286905D01*
X80725500Y-54184500D01*
X80745185Y-54117461D01*
X80797989Y-54071706D01*
X80849500Y-54060500D01*
X82679192Y-54060500D01*
X82746231Y-54080185D01*
G37*
%TD.AperFunction*%
%TA.AperFunction,NonConductor*%
G36*
X79807231Y-52850185D02*
G01*
X79852986Y-52902989D01*
X79862930Y-52972147D01*
X79833905Y-53035703D01*
X79827873Y-53042181D01*
X79493148Y-53376905D01*
X79487988Y-53382597D01*
X79399285Y-53471301D01*
X79399281Y-53471307D01*
X79320446Y-53604611D01*
X79320445Y-53604613D01*
X79313426Y-53628773D01*
X79277234Y-53753347D01*
X79277234Y-53753349D01*
X79274500Y-53788089D01*
X79274500Y-54286893D01*
X79274501Y-54286915D01*
X79277234Y-54321652D01*
X79277234Y-54321655D01*
X79277235Y-54321656D01*
X79320445Y-54470387D01*
X79320446Y-54470389D01*
X79322622Y-54477878D01*
X79319434Y-54478804D01*
X79326132Y-54533108D01*
X79295837Y-54596068D01*
X79236312Y-54632654D01*
X79203773Y-54637000D01*
X78698308Y-54637000D01*
X78631269Y-54617315D01*
X78610627Y-54600681D01*
X77844674Y-53834727D01*
X77844673Y-53834726D01*
X77844669Y-53834723D01*
X77738127Y-53763535D01*
X77733593Y-53761657D01*
X77619744Y-53714499D01*
X77619738Y-53714497D01*
X77494071Y-53689500D01*
X77494069Y-53689500D01*
X77474779Y-53689500D01*
X77407740Y-53669815D01*
X77361985Y-53617011D01*
X77352041Y-53547853D01*
X77381066Y-53484297D01*
X77427327Y-53450939D01*
X77431881Y-53449052D01*
X77438127Y-53446465D01*
X77544669Y-53375277D01*
X78053127Y-52866819D01*
X78114450Y-52833334D01*
X78140808Y-52830500D01*
X79740192Y-52830500D01*
X79807231Y-52850185D01*
G37*
%TD.AperFunction*%
%TA.AperFunction,NonConductor*%
G36*
X75819642Y-55010185D02*
G01*
X75865397Y-55062989D01*
X75875341Y-55132147D01*
X75855705Y-55183391D01*
X75834919Y-55214498D01*
X75834912Y-55214511D01*
X75778343Y-55351082D01*
X75778340Y-55351092D01*
X75749500Y-55496079D01*
X75749500Y-55643920D01*
X75750097Y-55649983D01*
X75747586Y-55650230D01*
X75746515Y-55662180D01*
X75749047Y-55685065D01*
X75743455Y-55696322D01*
X75742333Y-55708841D01*
X75728206Y-55727020D01*
X75717964Y-55747640D01*
X75702456Y-55760157D01*
X75699462Y-55764011D01*
X75690551Y-55769870D01*
X75690204Y-55770077D01*
X75585635Y-55831919D01*
X75584052Y-55833501D01*
X75575601Y-55838551D01*
X75548756Y-55845490D01*
X75522948Y-55855620D01*
X75515403Y-55854112D01*
X75507955Y-55856038D01*
X75481621Y-55847363D01*
X75454432Y-55841931D01*
X75448900Y-55836584D01*
X75441593Y-55834177D01*
X75424130Y-55812642D01*
X75404194Y-55793373D01*
X75402109Y-55785487D01*
X75397585Y-55779908D01*
X75395389Y-55760062D01*
X75388000Y-55732104D01*
X75388000Y-55334305D01*
X75387999Y-55334298D01*
X75386896Y-55320285D01*
X75385098Y-55297431D01*
X75385097Y-55297426D01*
X75342003Y-55149095D01*
X75342202Y-55079225D01*
X75380144Y-55020555D01*
X75443783Y-54991712D01*
X75461079Y-54990500D01*
X75752603Y-54990500D01*
X75819642Y-55010185D01*
G37*
%TD.AperFunction*%
%TA.AperFunction,NonConductor*%
G36*
X77410019Y-55246214D02*
G01*
X77436341Y-55266288D01*
X77958890Y-55788837D01*
X77958893Y-55788839D01*
X77962830Y-55792776D01*
X78060636Y-55858127D01*
X78069373Y-55863965D01*
X78187756Y-55913001D01*
X78187760Y-55913001D01*
X78187761Y-55913002D01*
X78313428Y-55938000D01*
X78313431Y-55938000D01*
X79150500Y-55938000D01*
X79217539Y-55957685D01*
X79263294Y-56010489D01*
X79274500Y-56062000D01*
X79274500Y-56324191D01*
X79254815Y-56391230D01*
X79238181Y-56411872D01*
X78886873Y-56763181D01*
X78825550Y-56796666D01*
X78799192Y-56799500D01*
X77787000Y-56799500D01*
X77719961Y-56779815D01*
X77674206Y-56727011D01*
X77663000Y-56675500D01*
X77663000Y-56284313D01*
X77662999Y-56284298D01*
X77662593Y-56279143D01*
X77660098Y-56247431D01*
X77656398Y-56234697D01*
X77614245Y-56089606D01*
X77614244Y-56089603D01*
X77614244Y-56089602D01*
X77530581Y-55948135D01*
X77530579Y-55948133D01*
X77530576Y-55948129D01*
X77414370Y-55831923D01*
X77414361Y-55831916D01*
X77309928Y-55770155D01*
X77262244Y-55719086D01*
X77249741Y-55650344D01*
X77250098Y-55648002D01*
X77250500Y-55643922D01*
X77250500Y-55496080D01*
X77241554Y-55451111D01*
X77227043Y-55378159D01*
X77233270Y-55308570D01*
X77276132Y-55253392D01*
X77342021Y-55230147D01*
X77410019Y-55246214D01*
G37*
%TD.AperFunction*%
%TA.AperFunction,NonConductor*%
G36*
X74455443Y-66043009D02*
G01*
X74457815Y-66044741D01*
X74492619Y-66070795D01*
X74492622Y-66070797D01*
X74537569Y-66087561D01*
X74627468Y-66121091D01*
X74687078Y-66127500D01*
X75095479Y-66127499D01*
X75162518Y-66147183D01*
X75183160Y-66163818D01*
X75474040Y-66454698D01*
X75588778Y-66531363D01*
X75716253Y-66584164D01*
X75716258Y-66584166D01*
X75716262Y-66584166D01*
X75716263Y-66584167D01*
X75851589Y-66611086D01*
X75851592Y-66611086D01*
X75851593Y-66611086D01*
X76412769Y-66611086D01*
X76479808Y-66630771D01*
X76500450Y-66647404D01*
X76606344Y-66753298D01*
X76740597Y-66836105D01*
X76787321Y-66888051D01*
X76799500Y-66941643D01*
X76799500Y-72625500D01*
X76779815Y-72692539D01*
X76727011Y-72738294D01*
X76675500Y-72749500D01*
X74624500Y-72749500D01*
X74557461Y-72729815D01*
X74511706Y-72677011D01*
X74500500Y-72625500D01*
X74500500Y-72394869D01*
X74500500Y-72394862D01*
X74490417Y-72281448D01*
X74437237Y-72095594D01*
X74347734Y-71924249D01*
X74284201Y-71846332D01*
X74225571Y-71774428D01*
X74117139Y-71686014D01*
X74075751Y-71652266D01*
X74061082Y-71644604D01*
X73904405Y-71562762D01*
X73749845Y-71518537D01*
X73718552Y-71509583D01*
X73718551Y-71509582D01*
X73718548Y-71509582D01*
X73629662Y-71501680D01*
X73605138Y-71499500D01*
X70394862Y-71499500D01*
X70382599Y-71500590D01*
X70281451Y-71509582D01*
X70095594Y-71562762D01*
X69924250Y-71652265D01*
X69882860Y-71686014D01*
X69818464Y-71713122D01*
X69749634Y-71701112D01*
X69698224Y-71653797D01*
X69680500Y-71589911D01*
X69680500Y-70601519D01*
X69700185Y-70534480D01*
X69716819Y-70513838D01*
X73764112Y-66466545D01*
X73764114Y-66466543D01*
X73840775Y-66351811D01*
X73893580Y-66224328D01*
X73893582Y-66224317D01*
X73895349Y-66218495D01*
X73896765Y-66218924D01*
X73902125Y-66208674D01*
X73906148Y-66190188D01*
X73924876Y-66165170D01*
X73925737Y-66163526D01*
X73927221Y-66162013D01*
X73952420Y-66136816D01*
X74013745Y-66103334D01*
X74040098Y-66100501D01*
X74129054Y-66100501D01*
X74129057Y-66100501D01*
X74281785Y-66059577D01*
X74321518Y-66036635D01*
X74389415Y-66020160D01*
X74455443Y-66043009D01*
G37*
%TD.AperFunction*%
%TA.AperFunction,NonConductor*%
G36*
X114089570Y-71886976D02*
G01*
X114091781Y-71886742D01*
X114118840Y-71894940D01*
X114125599Y-71897864D01*
X114125607Y-71897869D01*
X114195298Y-71918116D01*
X114279791Y-71942664D01*
X114279794Y-71942664D01*
X114279796Y-71942665D01*
X114315819Y-71945500D01*
X114714180Y-71945499D01*
X114750204Y-71942665D01*
X114775905Y-71935198D01*
X114845773Y-71935397D01*
X114904444Y-71973338D01*
X114933288Y-72036976D01*
X114934500Y-72054274D01*
X114934500Y-72883057D01*
X114914815Y-72950096D01*
X114862011Y-72995851D01*
X114792853Y-73005795D01*
X114729297Y-72976770D01*
X114703113Y-72945057D01*
X114660522Y-72871287D01*
X114660518Y-72871282D01*
X114088001Y-72298766D01*
X114056606Y-72245680D01*
X114047869Y-72215607D01*
X113966135Y-72077402D01*
X113966134Y-72077401D01*
X113962858Y-72071861D01*
X113955101Y-72041289D01*
X113945615Y-72011215D01*
X113946575Y-72007685D01*
X113945675Y-72004137D01*
X113955679Y-71974222D01*
X113963957Y-71943796D01*
X113966674Y-71941344D01*
X113967835Y-71937874D01*
X113992424Y-71918116D01*
X114015838Y-71896996D01*
X114019448Y-71896403D01*
X114022301Y-71894111D01*
X114053659Y-71890785D01*
X114084784Y-71885674D01*
X114089570Y-71886976D01*
G37*
%TD.AperFunction*%
%TA.AperFunction,NonConductor*%
G36*
X110526866Y-73245185D02*
G01*
X110572621Y-73297989D01*
X110582565Y-73367147D01*
X110553540Y-73430703D01*
X110507280Y-73464061D01*
X110384507Y-73514914D01*
X110384498Y-73514919D01*
X110261584Y-73597048D01*
X110261580Y-73597051D01*
X110157051Y-73701580D01*
X110157048Y-73701584D01*
X110074919Y-73824498D01*
X110074912Y-73824511D01*
X110018343Y-73961082D01*
X110018340Y-73961092D01*
X109989500Y-74106079D01*
X109989500Y-74253919D01*
X109993268Y-74272864D01*
X109990247Y-74306606D01*
X109987832Y-74340387D01*
X109987141Y-74341309D01*
X109987039Y-74342456D01*
X109966252Y-74369213D01*
X109945960Y-74396320D01*
X109944881Y-74396722D01*
X109944175Y-74397632D01*
X109912229Y-74408900D01*
X109880496Y-74420737D01*
X109879370Y-74420492D01*
X109878285Y-74420875D01*
X109845327Y-74413086D01*
X109812223Y-74405885D01*
X109811009Y-74404976D01*
X109810288Y-74404806D01*
X109783969Y-74384734D01*
X109612982Y-74213747D01*
X109579497Y-74152424D01*
X109584481Y-74082732D01*
X109612980Y-74038386D01*
X109672951Y-73978416D01*
X109755084Y-73855495D01*
X109811658Y-73718913D01*
X109826999Y-73641786D01*
X109859381Y-73579879D01*
X109860819Y-73578414D01*
X110177417Y-73261816D01*
X110238739Y-73228334D01*
X110265097Y-73225500D01*
X110459827Y-73225500D01*
X110526866Y-73245185D01*
G37*
%TD.AperFunction*%
%TA.AperFunction,NonConductor*%
G36*
X112466514Y-74027491D02*
G01*
X112476527Y-74036473D01*
X112560069Y-74120015D01*
X112579120Y-74144575D01*
X112583862Y-74152594D01*
X112583869Y-74152603D01*
X112697396Y-74266130D01*
X112697400Y-74266133D01*
X112697402Y-74266135D01*
X112835607Y-74347869D01*
X112847277Y-74351259D01*
X112857934Y-74354356D01*
X112916820Y-74391962D01*
X112946026Y-74455435D01*
X112936280Y-74524621D01*
X112890676Y-74577556D01*
X112857934Y-74592508D01*
X112752106Y-74623253D01*
X112752103Y-74623255D01*
X112610637Y-74706917D01*
X112610629Y-74706923D01*
X112488902Y-74828651D01*
X112486840Y-74826589D01*
X112441333Y-74859453D01*
X112371566Y-74863240D01*
X112310826Y-74828707D01*
X112308696Y-74826249D01*
X112189370Y-74706923D01*
X112189362Y-74706917D01*
X112047896Y-74623255D01*
X112047893Y-74623254D01*
X111975580Y-74602245D01*
X111916694Y-74564639D01*
X111887488Y-74501166D01*
X111897234Y-74431980D01*
X111942838Y-74379045D01*
X111960932Y-74369366D01*
X111964385Y-74367871D01*
X111964393Y-74367869D01*
X112102598Y-74286135D01*
X112216135Y-74172598D01*
X112282114Y-74061032D01*
X112333183Y-74013350D01*
X112401924Y-74000846D01*
X112466514Y-74027491D01*
G37*
%TD.AperFunction*%
%TA.AperFunction,NonConductor*%
G36*
X113982539Y-76195185D02*
G01*
X114028294Y-76247989D01*
X114039500Y-76299500D01*
X114039500Y-76350500D01*
X114019815Y-76417539D01*
X113967011Y-76463294D01*
X113915500Y-76474500D01*
X113625097Y-76474500D01*
X113595656Y-76465855D01*
X113565670Y-76459332D01*
X113560654Y-76455577D01*
X113558058Y-76454815D01*
X113537416Y-76438181D01*
X113486416Y-76387181D01*
X113452931Y-76325858D01*
X113457915Y-76256166D01*
X113499787Y-76200233D01*
X113565251Y-76175816D01*
X113574097Y-76175500D01*
X113915500Y-76175500D01*
X113982539Y-76195185D01*
G37*
%TD.AperFunction*%
%TA.AperFunction,NonConductor*%
G36*
X115716942Y-77790185D02*
G01*
X115737584Y-77806819D01*
X116083181Y-78152416D01*
X116116666Y-78213739D01*
X116119500Y-78240097D01*
X116119500Y-78951404D01*
X116113262Y-78972646D01*
X116111684Y-78994731D01*
X116103610Y-79005517D01*
X116099815Y-79018443D01*
X116083084Y-79032939D01*
X116069816Y-79050667D01*
X116057191Y-79055376D01*
X116047011Y-79064198D01*
X116025099Y-79067348D01*
X116004353Y-79075088D01*
X115991187Y-79072224D01*
X115977853Y-79074142D01*
X115957714Y-79064945D01*
X115936080Y-79060240D01*
X115918346Y-79046966D01*
X115914297Y-79045117D01*
X115907824Y-79039090D01*
X115899301Y-79030568D01*
X115867204Y-78974979D01*
X115834577Y-78853216D01*
X115822667Y-78832587D01*
X115755524Y-78716290D01*
X115755518Y-78716282D01*
X115550934Y-78511698D01*
X115517449Y-78450375D01*
X115517024Y-78448338D01*
X115501658Y-78371087D01*
X115495332Y-78355814D01*
X115445087Y-78234511D01*
X115445080Y-78234498D01*
X115362951Y-78111584D01*
X115362948Y-78111580D01*
X115258416Y-78007048D01*
X115244278Y-77997602D01*
X115199473Y-77943990D01*
X115190766Y-77874665D01*
X115220920Y-77811638D01*
X115280363Y-77774918D01*
X115313169Y-77770500D01*
X115649903Y-77770500D01*
X115716942Y-77790185D01*
G37*
%TD.AperFunction*%
%TA.AperFunction,NonConductor*%
G36*
X111322073Y-81596185D02*
G01*
X111367828Y-81648989D01*
X111377772Y-81718147D01*
X111369596Y-81747951D01*
X111364499Y-81760256D01*
X111364497Y-81760261D01*
X111339500Y-81885928D01*
X111339500Y-82009192D01*
X111319815Y-82076231D01*
X111303181Y-82096873D01*
X108646873Y-84753181D01*
X108585550Y-84786666D01*
X108559192Y-84789500D01*
X108111230Y-84789500D01*
X108044191Y-84769815D01*
X107998436Y-84717011D01*
X107988492Y-84647853D01*
X108017517Y-84584297D01*
X108023549Y-84577819D01*
X110182947Y-82418421D01*
X110182952Y-82418416D01*
X110265084Y-82295494D01*
X110321658Y-82158912D01*
X110336999Y-82081786D01*
X110369381Y-82019879D01*
X110370876Y-82018357D01*
X110643713Y-81745521D01*
X110643716Y-81745520D01*
X110755520Y-81633716D01*
X110760478Y-81625127D01*
X110771244Y-81614056D01*
X110788757Y-81604171D01*
X110803312Y-81590291D01*
X110820925Y-81586016D01*
X110832092Y-81579715D01*
X110844062Y-81580402D01*
X110860145Y-81576500D01*
X111255034Y-81576500D01*
X111322073Y-81596185D01*
G37*
%TD.AperFunction*%
%TA.AperFunction,Conductor*%
%TO.N,VCC*%
G36*
X93042895Y-44659249D02*
G01*
X93085554Y-44687805D01*
X94694863Y-46339465D01*
X94727549Y-46401218D01*
X94721660Y-46470839D01*
X94679066Y-46526224D01*
X94613290Y-46549789D01*
X94606051Y-46550000D01*
X86862278Y-46550000D01*
X86837955Y-46547591D01*
X86819594Y-46543918D01*
X86757718Y-46511466D01*
X86723210Y-46450712D01*
X86727025Y-46380947D01*
X86753763Y-46337191D01*
X87413300Y-45638859D01*
X87473642Y-45603636D01*
X87503450Y-45600000D01*
X91950000Y-45600000D01*
X92911226Y-44684546D01*
X92973346Y-44652567D01*
X93042895Y-44659249D01*
G37*
%TD.AperFunction*%
%TD*%
M02*
