%TF.GenerationSoftware,KiCad,Pcbnew,9.0.3*%
%TF.CreationDate,2025-08-17T21:24:33+09:00*%
%TF.ProjectId,accboard,61636362-6f61-4726-942e-6b696361645f,rev?*%
%TF.SameCoordinates,Original*%
%TF.FileFunction,Paste,Top*%
%TF.FilePolarity,Positive*%
%FSLAX46Y46*%
G04 Gerber Fmt 4.6, Leading zero omitted, Abs format (unit mm)*
G04 Created by KiCad (PCBNEW 9.0.3) date 2025-08-17 21:24:33*
%MOMM*%
%LPD*%
G01*
G04 APERTURE LIST*
G04 Aperture macros list*
%AMRoundRect*
0 Rectangle with rounded corners*
0 $1 Rounding radius*
0 $2 $3 $4 $5 $6 $7 $8 $9 X,Y pos of 4 corners*
0 Add a 4 corners polygon primitive as box body*
4,1,4,$2,$3,$4,$5,$6,$7,$8,$9,$2,$3,0*
0 Add four circle primitives for the rounded corners*
1,1,$1+$1,$2,$3*
1,1,$1+$1,$4,$5*
1,1,$1+$1,$6,$7*
1,1,$1+$1,$8,$9*
0 Add four rect primitives between the rounded corners*
20,1,$1+$1,$2,$3,$4,$5,0*
20,1,$1+$1,$4,$5,$6,$7,0*
20,1,$1+$1,$6,$7,$8,$9,0*
20,1,$1+$1,$8,$9,$2,$3,0*%
G04 Aperture macros list end*
%ADD10RoundRect,0.150000X0.150000X-0.512500X0.150000X0.512500X-0.150000X0.512500X-0.150000X-0.512500X0*%
%ADD11RoundRect,0.135000X-0.185000X0.135000X-0.185000X-0.135000X0.185000X-0.135000X0.185000X0.135000X0*%
%ADD12RoundRect,0.135000X0.135000X0.185000X-0.135000X0.185000X-0.135000X-0.185000X0.135000X-0.185000X0*%
%ADD13RoundRect,0.135000X0.185000X-0.135000X0.185000X0.135000X-0.185000X0.135000X-0.185000X-0.135000X0*%
%ADD14RoundRect,0.135000X-0.135000X-0.185000X0.135000X-0.185000X0.135000X0.185000X-0.135000X0.185000X0*%
%ADD15RoundRect,0.450000X1.550000X-1.050000X1.550000X1.050000X-1.550000X1.050000X-1.550000X-1.050000X0*%
%ADD16RoundRect,0.140000X0.140000X0.170000X-0.140000X0.170000X-0.140000X-0.170000X0.140000X-0.170000X0*%
%ADD17RoundRect,0.450000X-1.550000X1.050000X-1.550000X-1.050000X1.550000X-1.050000X1.550000X1.050000X0*%
%ADD18RoundRect,0.150000X-0.512500X-0.150000X0.512500X-0.150000X0.512500X0.150000X-0.512500X0.150000X0*%
%ADD19RoundRect,0.140000X-0.140000X-0.170000X0.140000X-0.170000X0.140000X0.170000X-0.140000X0.170000X0*%
%ADD20RoundRect,0.112500X0.112500X-0.187500X0.112500X0.187500X-0.112500X0.187500X-0.112500X-0.187500X0*%
%ADD21RoundRect,0.140000X-0.170000X0.140000X-0.170000X-0.140000X0.170000X-0.140000X0.170000X0.140000X0*%
%ADD22RoundRect,0.450000X-1.050000X-1.550000X1.050000X-1.550000X1.050000X1.550000X-1.050000X1.550000X0*%
%ADD23RoundRect,0.140000X0.170000X-0.140000X0.170000X0.140000X-0.170000X0.140000X-0.170000X-0.140000X0*%
%ADD24RoundRect,0.112500X-0.112500X-0.237500X0.112500X-0.237500X0.112500X0.237500X-0.112500X0.237500X0*%
%ADD25RoundRect,0.112500X0.237500X-0.112500X0.237500X0.112500X-0.237500X0.112500X-0.237500X-0.112500X0*%
%ADD26R,0.530098X0.254000*%
%ADD27RoundRect,0.250000X0.475000X-0.250000X0.475000X0.250000X-0.475000X0.250000X-0.475000X-0.250000X0*%
%ADD28R,0.499999X0.200000*%
%ADD29RoundRect,0.150000X0.512500X0.150000X-0.512500X0.150000X-0.512500X-0.150000X0.512500X-0.150000X0*%
G04 APERTURE END LIST*
D10*
%TO.C,U2*%
X102550000Y-51775000D03*
X103500000Y-51775000D03*
X104450000Y-51775000D03*
X104450000Y-49500000D03*
X103500000Y-49500000D03*
X102550000Y-49500000D03*
%TD*%
D11*
%TO.C,R3*%
X79500000Y-48980000D03*
X79500000Y-50000000D03*
%TD*%
D12*
%TO.C,R5*%
X115275000Y-79625000D03*
X114255000Y-79625000D03*
%TD*%
D13*
%TO.C,5K 5K*%
X110950000Y-59520000D03*
X110950000Y-58500000D03*
%TD*%
%TO.C,R9*%
X105490000Y-59520000D03*
X105490000Y-58500000D03*
%TD*%
D14*
%TO.C,R7*%
X114940000Y-50500000D03*
X115960000Y-50500000D03*
%TD*%
D15*
%TO.C,5V*%
X72000000Y-80000000D03*
%TD*%
D11*
%TO.C,R1*%
X116950000Y-55000000D03*
X116950000Y-56020000D03*
%TD*%
D13*
%TO.C,R11*%
X113275000Y-73625000D03*
X113275000Y-72605000D03*
%TD*%
D16*
%TO.C,C6*%
X112985000Y-71125000D03*
X112025000Y-71125000D03*
%TD*%
D17*
%TO.C,J6*%
X99125000Y-67625000D03*
%TD*%
D18*
%TO.C,Q1*%
X74225000Y-55550000D03*
X74225000Y-57450000D03*
X76500000Y-56500000D03*
%TD*%
D17*
%TO.C,J7*%
X80125000Y-78875000D03*
%TD*%
D19*
%TO.C,C1*%
X101990000Y-59000000D03*
X102950000Y-59000000D03*
%TD*%
D20*
%TO.C,D1*%
X80000000Y-56137500D03*
X80000000Y-54037500D03*
%TD*%
D21*
%TO.C,C2*%
X89000000Y-55137500D03*
X89000000Y-56097500D03*
%TD*%
D18*
%TO.C,U3*%
X109362500Y-49187500D03*
X109362500Y-50137500D03*
X109362500Y-51087500D03*
X109362000Y-52037500D03*
X111640000Y-52037500D03*
X111637500Y-51087500D03*
X111637500Y-50137500D03*
X111637500Y-49187500D03*
%TD*%
D22*
%TO.C,J5*%
X114750000Y-39150000D03*
%TD*%
D12*
%TO.C,R6*%
X115950000Y-49000000D03*
X114930000Y-49000000D03*
%TD*%
D15*
%TO.C,3.3V*%
X72000000Y-73500000D03*
%TD*%
D21*
%TO.C,C3*%
X89000000Y-50137500D03*
X89000000Y-51097500D03*
%TD*%
D12*
%TO.C,R2*%
X115950000Y-52137500D03*
X114930000Y-52137500D03*
%TD*%
D13*
%TO.C,R9*%
X108950000Y-59530000D03*
X108950000Y-58510000D03*
%TD*%
D21*
%TO.C,C7*%
X71500000Y-64480586D03*
X71500000Y-65440586D03*
%TD*%
D14*
%TO.C,R4*%
X114255000Y-80875000D03*
X115275000Y-80875000D03*
%TD*%
D23*
%TO.C,C9*%
X110275000Y-80835000D03*
X110275000Y-79875000D03*
%TD*%
D24*
%TO.C,Q6*%
X111475000Y-69125000D03*
X112775000Y-69125000D03*
X112125000Y-67125000D03*
%TD*%
D25*
%TO.C,Q3*%
X85550000Y-55937500D03*
X85550000Y-54637500D03*
X83550000Y-55287500D03*
%TD*%
D22*
%TO.C,J1*%
X69750000Y-94000000D03*
X74250000Y-94000000D03*
X78750000Y-94000000D03*
X83250000Y-94000000D03*
X87750000Y-94000000D03*
X92250000Y-94000000D03*
X96750000Y-94000000D03*
X101250000Y-94000000D03*
X105750000Y-94000000D03*
X110250000Y-94000000D03*
X114750000Y-94000000D03*
X119250000Y-94000000D03*
%TD*%
D26*
%TO.C,U5*%
X73479302Y-64484000D03*
X73479302Y-64992000D03*
X73479302Y-65500000D03*
X75000000Y-65500000D03*
X75000000Y-64484000D03*
%TD*%
D12*
%TO.C,R12*%
X115535000Y-71125000D03*
X114515000Y-71125000D03*
%TD*%
D10*
%TO.C,Q2*%
X74600000Y-51000000D03*
X76500000Y-51000000D03*
X75550000Y-48725000D03*
%TD*%
D16*
%TO.C,C5*%
X105460000Y-56000000D03*
X104500000Y-56000000D03*
%TD*%
D18*
%TO.C,Q5*%
X113525000Y-75375000D03*
X113525000Y-77275000D03*
X115800000Y-76325000D03*
%TD*%
D27*
%TO.C,C8*%
X77550000Y-65910586D03*
X77550000Y-64010586D03*
%TD*%
D22*
%TO.C,J2*%
X106500000Y-39000000D03*
X102000000Y-39000000D03*
X97500000Y-39000000D03*
X93000000Y-39000000D03*
X88500000Y-39000000D03*
X84000000Y-39000000D03*
X79500000Y-39000000D03*
X75000000Y-39000000D03*
%TD*%
D28*
%TO.C,U4*%
X113025001Y-80974999D03*
X113025001Y-80575000D03*
X113025001Y-80175000D03*
X113025001Y-79775001D03*
X111524999Y-79775001D03*
X111524999Y-80175000D03*
X111524999Y-80575000D03*
X111524999Y-80974999D03*
%TD*%
D14*
%TO.C,R8*%
X101930000Y-56000000D03*
X102950000Y-56000000D03*
%TD*%
D13*
%TO.C,R10*%
X111525000Y-73645000D03*
X111525000Y-72625000D03*
%TD*%
D10*
%TO.C,U1*%
X84550000Y-51637500D03*
X85500000Y-51637500D03*
X86450000Y-51637500D03*
X86450000Y-49362500D03*
X85500000Y-49362500D03*
X84550000Y-49362500D03*
%TD*%
D23*
%TO.C,C4*%
X114450000Y-55960000D03*
X114450000Y-55000000D03*
%TD*%
D29*
%TO.C,Q4*%
X111275000Y-77275000D03*
X111275000Y-75375000D03*
X109000000Y-76325000D03*
%TD*%
M02*
