%TF.GenerationSoftware,KiCad,Pcbnew,9.0.3*%
%TF.CreationDate,2025-08-17T21:24:33+09:00*%
%TF.ProjectId,accboard,61636362-6f61-4726-942e-6b696361645f,rev?*%
%TF.SameCoordinates,Original*%
%TF.FileFunction,Legend,Top*%
%TF.FilePolarity,Positive*%
%FSLAX46Y46*%
G04 Gerber Fmt 4.6, Leading zero omitted, Abs format (unit mm)*
G04 Created by KiCad (PCBNEW 9.0.3) date 2025-08-17 21:24:33*
%MOMM*%
%LPD*%
G01*
G04 APERTURE LIST*
%ADD10C,0.100000*%
%ADD11C,0.150000*%
%ADD12C,0.120000*%
%ADD13C,0.152400*%
%ADD14C,0.177800*%
G04 APERTURE END LIST*
D10*
X106275000Y-65625000D02*
X119775000Y-65625000D01*
X119775000Y-83625000D01*
X106275000Y-83625000D01*
X106275000Y-65625000D01*
X69500000Y-62960586D02*
X79500000Y-62960586D01*
X79500000Y-68460586D01*
X69500000Y-68460586D01*
X69500000Y-62960586D01*
X93625000Y-65625000D02*
X104875000Y-65625000D01*
X104875000Y-74875000D01*
X93625000Y-74875000D01*
X93625000Y-65625000D01*
X112250000Y-36150000D02*
X117250000Y-36150000D01*
X117250000Y-42150000D01*
X112250000Y-42150000D01*
X112250000Y-36150000D01*
X69500000Y-71500000D02*
X74500000Y-71500000D01*
X74500000Y-83500000D01*
X69500000Y-83500000D01*
X69500000Y-71500000D01*
X71500000Y-46500000D02*
X91500000Y-46500000D01*
X91500000Y-59500000D01*
X71500000Y-59500000D01*
X71500000Y-46500000D01*
X75625000Y-75375000D02*
X104875000Y-75375000D01*
X104875000Y-83625000D01*
X75625000Y-83625000D01*
X75625000Y-75375000D01*
X99000000Y-46500000D02*
X119000000Y-46500000D01*
X119000000Y-62500000D01*
X99000000Y-62500000D01*
X99000000Y-46500000D01*
X111775000Y-81875000D02*
G75*
G02*
X111275000Y-81875000I-250000J0D01*
G01*
X111275000Y-81875000D02*
G75*
G02*
X111775000Y-81875000I250000J0D01*
G01*
X84369360Y-76417587D02*
X84464598Y-76417587D01*
X84464598Y-76417587D02*
X84559836Y-76465206D01*
X84559836Y-76465206D02*
X84607455Y-76512825D01*
X84607455Y-76512825D02*
X84655074Y-76608063D01*
X84655074Y-76608063D02*
X84702693Y-76798539D01*
X84702693Y-76798539D02*
X84702693Y-77036634D01*
X84702693Y-77036634D02*
X84655074Y-77227110D01*
X84655074Y-77227110D02*
X84607455Y-77322348D01*
X84607455Y-77322348D02*
X84559836Y-77369968D01*
X84559836Y-77369968D02*
X84464598Y-77417587D01*
X84464598Y-77417587D02*
X84369360Y-77417587D01*
X84369360Y-77417587D02*
X84274122Y-77369968D01*
X84274122Y-77369968D02*
X84226503Y-77322348D01*
X84226503Y-77322348D02*
X84178884Y-77227110D01*
X84178884Y-77227110D02*
X84131265Y-77036634D01*
X84131265Y-77036634D02*
X84131265Y-76798539D01*
X84131265Y-76798539D02*
X84178884Y-76608063D01*
X84178884Y-76608063D02*
X84226503Y-76512825D01*
X84226503Y-76512825D02*
X84274122Y-76465206D01*
X84274122Y-76465206D02*
X84369360Y-76417587D01*
X85131265Y-77322348D02*
X85178884Y-77369968D01*
X85178884Y-77369968D02*
X85131265Y-77417587D01*
X85131265Y-77417587D02*
X85083646Y-77369968D01*
X85083646Y-77369968D02*
X85131265Y-77322348D01*
X85131265Y-77322348D02*
X85131265Y-77417587D01*
X86036026Y-76417587D02*
X85845550Y-76417587D01*
X85845550Y-76417587D02*
X85750312Y-76465206D01*
X85750312Y-76465206D02*
X85702693Y-76512825D01*
X85702693Y-76512825D02*
X85607455Y-76655682D01*
X85607455Y-76655682D02*
X85559836Y-76846158D01*
X85559836Y-76846158D02*
X85559836Y-77227110D01*
X85559836Y-77227110D02*
X85607455Y-77322348D01*
X85607455Y-77322348D02*
X85655074Y-77369968D01*
X85655074Y-77369968D02*
X85750312Y-77417587D01*
X85750312Y-77417587D02*
X85940788Y-77417587D01*
X85940788Y-77417587D02*
X86036026Y-77369968D01*
X86036026Y-77369968D02*
X86083645Y-77322348D01*
X86083645Y-77322348D02*
X86131264Y-77227110D01*
X86131264Y-77227110D02*
X86131264Y-76989015D01*
X86131264Y-76989015D02*
X86083645Y-76893777D01*
X86083645Y-76893777D02*
X86036026Y-76846158D01*
X86036026Y-76846158D02*
X85940788Y-76798539D01*
X85940788Y-76798539D02*
X85750312Y-76798539D01*
X85750312Y-76798539D02*
X85655074Y-76846158D01*
X85655074Y-76846158D02*
X85607455Y-76893777D01*
X85607455Y-76893777D02*
X85559836Y-76989015D01*
X86416979Y-76417587D02*
X86750312Y-77417587D01*
X86750312Y-77417587D02*
X87083645Y-76417587D01*
X88178884Y-77036634D02*
X88940789Y-77036634D01*
X89416979Y-76750920D02*
X90178884Y-77036634D01*
X90178884Y-77036634D02*
X89416979Y-77322348D01*
X91416979Y-77417587D02*
X91416979Y-76417587D01*
X91893169Y-77417587D02*
X91893169Y-76417587D01*
X91893169Y-76417587D02*
X92131264Y-76417587D01*
X92131264Y-76417587D02*
X92274121Y-76465206D01*
X92274121Y-76465206D02*
X92369359Y-76560444D01*
X92369359Y-76560444D02*
X92416978Y-76655682D01*
X92416978Y-76655682D02*
X92464597Y-76846158D01*
X92464597Y-76846158D02*
X92464597Y-76989015D01*
X92464597Y-76989015D02*
X92416978Y-77179491D01*
X92416978Y-77179491D02*
X92369359Y-77274729D01*
X92369359Y-77274729D02*
X92274121Y-77369968D01*
X92274121Y-77369968D02*
X92131264Y-77417587D01*
X92131264Y-77417587D02*
X91893169Y-77417587D01*
X93226502Y-76893777D02*
X93369359Y-76941396D01*
X93369359Y-76941396D02*
X93416978Y-76989015D01*
X93416978Y-76989015D02*
X93464597Y-77084253D01*
X93464597Y-77084253D02*
X93464597Y-77227110D01*
X93464597Y-77227110D02*
X93416978Y-77322348D01*
X93416978Y-77322348D02*
X93369359Y-77369968D01*
X93369359Y-77369968D02*
X93274121Y-77417587D01*
X93274121Y-77417587D02*
X92893169Y-77417587D01*
X92893169Y-77417587D02*
X92893169Y-76417587D01*
X92893169Y-76417587D02*
X93226502Y-76417587D01*
X93226502Y-76417587D02*
X93321740Y-76465206D01*
X93321740Y-76465206D02*
X93369359Y-76512825D01*
X93369359Y-76512825D02*
X93416978Y-76608063D01*
X93416978Y-76608063D02*
X93416978Y-76703301D01*
X93416978Y-76703301D02*
X93369359Y-76798539D01*
X93369359Y-76798539D02*
X93321740Y-76846158D01*
X93321740Y-76846158D02*
X93226502Y-76893777D01*
X93226502Y-76893777D02*
X92893169Y-76893777D01*
X93893169Y-76417587D02*
X93893169Y-77227110D01*
X93893169Y-77227110D02*
X93940788Y-77322348D01*
X93940788Y-77322348D02*
X93988407Y-77369968D01*
X93988407Y-77369968D02*
X94083645Y-77417587D01*
X94083645Y-77417587D02*
X94274121Y-77417587D01*
X94274121Y-77417587D02*
X94369359Y-77369968D01*
X94369359Y-77369968D02*
X94416978Y-77322348D01*
X94416978Y-77322348D02*
X94464597Y-77227110D01*
X94464597Y-77227110D02*
X94464597Y-76417587D01*
X94893169Y-77369968D02*
X95036026Y-77417587D01*
X95036026Y-77417587D02*
X95274121Y-77417587D01*
X95274121Y-77417587D02*
X95369359Y-77369968D01*
X95369359Y-77369968D02*
X95416978Y-77322348D01*
X95416978Y-77322348D02*
X95464597Y-77227110D01*
X95464597Y-77227110D02*
X95464597Y-77131872D01*
X95464597Y-77131872D02*
X95416978Y-77036634D01*
X95416978Y-77036634D02*
X95369359Y-76989015D01*
X95369359Y-76989015D02*
X95274121Y-76941396D01*
X95274121Y-76941396D02*
X95083645Y-76893777D01*
X95083645Y-76893777D02*
X94988407Y-76846158D01*
X94988407Y-76846158D02*
X94940788Y-76798539D01*
X94940788Y-76798539D02*
X94893169Y-76703301D01*
X94893169Y-76703301D02*
X94893169Y-76608063D01*
X94893169Y-76608063D02*
X94940788Y-76512825D01*
X94940788Y-76512825D02*
X94988407Y-76465206D01*
X94988407Y-76465206D02*
X95083645Y-76417587D01*
X95083645Y-76417587D02*
X95321740Y-76417587D01*
X95321740Y-76417587D02*
X95464597Y-76465206D01*
X96845550Y-76417587D02*
X97036026Y-76417587D01*
X97036026Y-76417587D02*
X97131264Y-76465206D01*
X97131264Y-76465206D02*
X97226502Y-76560444D01*
X97226502Y-76560444D02*
X97274121Y-76750920D01*
X97274121Y-76750920D02*
X97274121Y-77084253D01*
X97274121Y-77084253D02*
X97226502Y-77274729D01*
X97226502Y-77274729D02*
X97131264Y-77369968D01*
X97131264Y-77369968D02*
X97036026Y-77417587D01*
X97036026Y-77417587D02*
X96845550Y-77417587D01*
X96845550Y-77417587D02*
X96750312Y-77369968D01*
X96750312Y-77369968D02*
X96655074Y-77274729D01*
X96655074Y-77274729D02*
X96607455Y-77084253D01*
X96607455Y-77084253D02*
X96607455Y-76750920D01*
X96607455Y-76750920D02*
X96655074Y-76560444D01*
X96655074Y-76560444D02*
X96750312Y-76465206D01*
X96750312Y-76465206D02*
X96845550Y-76417587D01*
X97702693Y-77417587D02*
X97702693Y-76417587D01*
X97702693Y-76417587D02*
X98274121Y-77417587D01*
X98274121Y-77417587D02*
X98274121Y-76417587D01*
X84369360Y-78027531D02*
X84464598Y-78027531D01*
X84464598Y-78027531D02*
X84559836Y-78075150D01*
X84559836Y-78075150D02*
X84607455Y-78122769D01*
X84607455Y-78122769D02*
X84655074Y-78218007D01*
X84655074Y-78218007D02*
X84702693Y-78408483D01*
X84702693Y-78408483D02*
X84702693Y-78646578D01*
X84702693Y-78646578D02*
X84655074Y-78837054D01*
X84655074Y-78837054D02*
X84607455Y-78932292D01*
X84607455Y-78932292D02*
X84559836Y-78979912D01*
X84559836Y-78979912D02*
X84464598Y-79027531D01*
X84464598Y-79027531D02*
X84369360Y-79027531D01*
X84369360Y-79027531D02*
X84274122Y-78979912D01*
X84274122Y-78979912D02*
X84226503Y-78932292D01*
X84226503Y-78932292D02*
X84178884Y-78837054D01*
X84178884Y-78837054D02*
X84131265Y-78646578D01*
X84131265Y-78646578D02*
X84131265Y-78408483D01*
X84131265Y-78408483D02*
X84178884Y-78218007D01*
X84178884Y-78218007D02*
X84226503Y-78122769D01*
X84226503Y-78122769D02*
X84274122Y-78075150D01*
X84274122Y-78075150D02*
X84369360Y-78027531D01*
X84988408Y-78027531D02*
X85321741Y-79027531D01*
X85321741Y-79027531D02*
X85655074Y-78027531D01*
X86750313Y-78646578D02*
X87512218Y-78646578D01*
X87988408Y-78360864D02*
X88750313Y-78646578D01*
X88750313Y-78646578D02*
X87988408Y-78932292D01*
X89988408Y-79027531D02*
X89988408Y-78027531D01*
X90464598Y-79027531D02*
X90464598Y-78027531D01*
X90464598Y-78027531D02*
X90702693Y-78027531D01*
X90702693Y-78027531D02*
X90845550Y-78075150D01*
X90845550Y-78075150D02*
X90940788Y-78170388D01*
X90940788Y-78170388D02*
X90988407Y-78265626D01*
X90988407Y-78265626D02*
X91036026Y-78456102D01*
X91036026Y-78456102D02*
X91036026Y-78598959D01*
X91036026Y-78598959D02*
X90988407Y-78789435D01*
X90988407Y-78789435D02*
X90940788Y-78884673D01*
X90940788Y-78884673D02*
X90845550Y-78979912D01*
X90845550Y-78979912D02*
X90702693Y-79027531D01*
X90702693Y-79027531D02*
X90464598Y-79027531D01*
X91797931Y-78503721D02*
X91940788Y-78551340D01*
X91940788Y-78551340D02*
X91988407Y-78598959D01*
X91988407Y-78598959D02*
X92036026Y-78694197D01*
X92036026Y-78694197D02*
X92036026Y-78837054D01*
X92036026Y-78837054D02*
X91988407Y-78932292D01*
X91988407Y-78932292D02*
X91940788Y-78979912D01*
X91940788Y-78979912D02*
X91845550Y-79027531D01*
X91845550Y-79027531D02*
X91464598Y-79027531D01*
X91464598Y-79027531D02*
X91464598Y-78027531D01*
X91464598Y-78027531D02*
X91797931Y-78027531D01*
X91797931Y-78027531D02*
X91893169Y-78075150D01*
X91893169Y-78075150D02*
X91940788Y-78122769D01*
X91940788Y-78122769D02*
X91988407Y-78218007D01*
X91988407Y-78218007D02*
X91988407Y-78313245D01*
X91988407Y-78313245D02*
X91940788Y-78408483D01*
X91940788Y-78408483D02*
X91893169Y-78456102D01*
X91893169Y-78456102D02*
X91797931Y-78503721D01*
X91797931Y-78503721D02*
X91464598Y-78503721D01*
X92464598Y-78027531D02*
X92464598Y-78837054D01*
X92464598Y-78837054D02*
X92512217Y-78932292D01*
X92512217Y-78932292D02*
X92559836Y-78979912D01*
X92559836Y-78979912D02*
X92655074Y-79027531D01*
X92655074Y-79027531D02*
X92845550Y-79027531D01*
X92845550Y-79027531D02*
X92940788Y-78979912D01*
X92940788Y-78979912D02*
X92988407Y-78932292D01*
X92988407Y-78932292D02*
X93036026Y-78837054D01*
X93036026Y-78837054D02*
X93036026Y-78027531D01*
X93464598Y-78979912D02*
X93607455Y-79027531D01*
X93607455Y-79027531D02*
X93845550Y-79027531D01*
X93845550Y-79027531D02*
X93940788Y-78979912D01*
X93940788Y-78979912D02*
X93988407Y-78932292D01*
X93988407Y-78932292D02*
X94036026Y-78837054D01*
X94036026Y-78837054D02*
X94036026Y-78741816D01*
X94036026Y-78741816D02*
X93988407Y-78646578D01*
X93988407Y-78646578D02*
X93940788Y-78598959D01*
X93940788Y-78598959D02*
X93845550Y-78551340D01*
X93845550Y-78551340D02*
X93655074Y-78503721D01*
X93655074Y-78503721D02*
X93559836Y-78456102D01*
X93559836Y-78456102D02*
X93512217Y-78408483D01*
X93512217Y-78408483D02*
X93464598Y-78313245D01*
X93464598Y-78313245D02*
X93464598Y-78218007D01*
X93464598Y-78218007D02*
X93512217Y-78122769D01*
X93512217Y-78122769D02*
X93559836Y-78075150D01*
X93559836Y-78075150D02*
X93655074Y-78027531D01*
X93655074Y-78027531D02*
X93893169Y-78027531D01*
X93893169Y-78027531D02*
X94036026Y-78075150D01*
X95416979Y-78027531D02*
X95607455Y-78027531D01*
X95607455Y-78027531D02*
X95702693Y-78075150D01*
X95702693Y-78075150D02*
X95797931Y-78170388D01*
X95797931Y-78170388D02*
X95845550Y-78360864D01*
X95845550Y-78360864D02*
X95845550Y-78694197D01*
X95845550Y-78694197D02*
X95797931Y-78884673D01*
X95797931Y-78884673D02*
X95702693Y-78979912D01*
X95702693Y-78979912D02*
X95607455Y-79027531D01*
X95607455Y-79027531D02*
X95416979Y-79027531D01*
X95416979Y-79027531D02*
X95321741Y-78979912D01*
X95321741Y-78979912D02*
X95226503Y-78884673D01*
X95226503Y-78884673D02*
X95178884Y-78694197D01*
X95178884Y-78694197D02*
X95178884Y-78360864D01*
X95178884Y-78360864D02*
X95226503Y-78170388D01*
X95226503Y-78170388D02*
X95321741Y-78075150D01*
X95321741Y-78075150D02*
X95416979Y-78027531D01*
X96607455Y-78503721D02*
X96274122Y-78503721D01*
X96274122Y-79027531D02*
X96274122Y-78027531D01*
X96274122Y-78027531D02*
X96750312Y-78027531D01*
X97464598Y-78503721D02*
X97131265Y-78503721D01*
X97131265Y-79027531D02*
X97131265Y-78027531D01*
X97131265Y-78027531D02*
X97607455Y-78027531D01*
X84321741Y-79637475D02*
X84321741Y-79875570D01*
X84083646Y-79780332D02*
X84321741Y-79875570D01*
X84321741Y-79875570D02*
X84559836Y-79780332D01*
X84178884Y-80066046D02*
X84321741Y-79875570D01*
X84321741Y-79875570D02*
X84464598Y-80066046D01*
X85512217Y-80542236D02*
X85464598Y-80589856D01*
X85464598Y-80589856D02*
X85321741Y-80637475D01*
X85321741Y-80637475D02*
X85226503Y-80637475D01*
X85226503Y-80637475D02*
X85083646Y-80589856D01*
X85083646Y-80589856D02*
X84988408Y-80494617D01*
X84988408Y-80494617D02*
X84940789Y-80399379D01*
X84940789Y-80399379D02*
X84893170Y-80208903D01*
X84893170Y-80208903D02*
X84893170Y-80066046D01*
X84893170Y-80066046D02*
X84940789Y-79875570D01*
X84940789Y-79875570D02*
X84988408Y-79780332D01*
X84988408Y-79780332D02*
X85083646Y-79685094D01*
X85083646Y-79685094D02*
X85226503Y-79637475D01*
X85226503Y-79637475D02*
X85321741Y-79637475D01*
X85321741Y-79637475D02*
X85464598Y-79685094D01*
X85464598Y-79685094D02*
X85512217Y-79732713D01*
X85940789Y-80637475D02*
X85940789Y-79637475D01*
X86369360Y-80637475D02*
X86369360Y-80113665D01*
X86369360Y-80113665D02*
X86321741Y-80018427D01*
X86321741Y-80018427D02*
X86226503Y-79970808D01*
X86226503Y-79970808D02*
X86083646Y-79970808D01*
X86083646Y-79970808D02*
X85988408Y-80018427D01*
X85988408Y-80018427D02*
X85940789Y-80066046D01*
X87226503Y-80589856D02*
X87131265Y-80637475D01*
X87131265Y-80637475D02*
X86940789Y-80637475D01*
X86940789Y-80637475D02*
X86845551Y-80589856D01*
X86845551Y-80589856D02*
X86797932Y-80494617D01*
X86797932Y-80494617D02*
X86797932Y-80113665D01*
X86797932Y-80113665D02*
X86845551Y-80018427D01*
X86845551Y-80018427D02*
X86940789Y-79970808D01*
X86940789Y-79970808D02*
X87131265Y-79970808D01*
X87131265Y-79970808D02*
X87226503Y-80018427D01*
X87226503Y-80018427D02*
X87274122Y-80113665D01*
X87274122Y-80113665D02*
X87274122Y-80208903D01*
X87274122Y-80208903D02*
X86797932Y-80304141D01*
X88131265Y-80589856D02*
X88036027Y-80637475D01*
X88036027Y-80637475D02*
X87845551Y-80637475D01*
X87845551Y-80637475D02*
X87750313Y-80589856D01*
X87750313Y-80589856D02*
X87702694Y-80542236D01*
X87702694Y-80542236D02*
X87655075Y-80446998D01*
X87655075Y-80446998D02*
X87655075Y-80161284D01*
X87655075Y-80161284D02*
X87702694Y-80066046D01*
X87702694Y-80066046D02*
X87750313Y-80018427D01*
X87750313Y-80018427D02*
X87845551Y-79970808D01*
X87845551Y-79970808D02*
X88036027Y-79970808D01*
X88036027Y-79970808D02*
X88131265Y-80018427D01*
X88559837Y-80637475D02*
X88559837Y-79637475D01*
X88655075Y-80256522D02*
X88940789Y-80637475D01*
X88940789Y-79970808D02*
X88559837Y-80351760D01*
X90702694Y-80542236D02*
X90655075Y-80589856D01*
X90655075Y-80589856D02*
X90512218Y-80637475D01*
X90512218Y-80637475D02*
X90416980Y-80637475D01*
X90416980Y-80637475D02*
X90274123Y-80589856D01*
X90274123Y-80589856D02*
X90178885Y-80494617D01*
X90178885Y-80494617D02*
X90131266Y-80399379D01*
X90131266Y-80399379D02*
X90083647Y-80208903D01*
X90083647Y-80208903D02*
X90083647Y-80066046D01*
X90083647Y-80066046D02*
X90131266Y-79875570D01*
X90131266Y-79875570D02*
X90178885Y-79780332D01*
X90178885Y-79780332D02*
X90274123Y-79685094D01*
X90274123Y-79685094D02*
X90416980Y-79637475D01*
X90416980Y-79637475D02*
X90512218Y-79637475D01*
X90512218Y-79637475D02*
X90655075Y-79685094D01*
X90655075Y-79685094D02*
X90702694Y-79732713D01*
X91274123Y-80637475D02*
X91178885Y-80589856D01*
X91178885Y-80589856D02*
X91131266Y-80542236D01*
X91131266Y-80542236D02*
X91083647Y-80446998D01*
X91083647Y-80446998D02*
X91083647Y-80161284D01*
X91083647Y-80161284D02*
X91131266Y-80066046D01*
X91131266Y-80066046D02*
X91178885Y-80018427D01*
X91178885Y-80018427D02*
X91274123Y-79970808D01*
X91274123Y-79970808D02*
X91416980Y-79970808D01*
X91416980Y-79970808D02*
X91512218Y-80018427D01*
X91512218Y-80018427D02*
X91559837Y-80066046D01*
X91559837Y-80066046D02*
X91607456Y-80161284D01*
X91607456Y-80161284D02*
X91607456Y-80446998D01*
X91607456Y-80446998D02*
X91559837Y-80542236D01*
X91559837Y-80542236D02*
X91512218Y-80589856D01*
X91512218Y-80589856D02*
X91416980Y-80637475D01*
X91416980Y-80637475D02*
X91274123Y-80637475D01*
X92036028Y-79970808D02*
X92036028Y-80637475D01*
X92036028Y-80066046D02*
X92083647Y-80018427D01*
X92083647Y-80018427D02*
X92178885Y-79970808D01*
X92178885Y-79970808D02*
X92321742Y-79970808D01*
X92321742Y-79970808D02*
X92416980Y-80018427D01*
X92416980Y-80018427D02*
X92464599Y-80113665D01*
X92464599Y-80113665D02*
X92464599Y-80637475D01*
X92797933Y-79970808D02*
X93178885Y-79970808D01*
X92940790Y-79637475D02*
X92940790Y-80494617D01*
X92940790Y-80494617D02*
X92988409Y-80589856D01*
X92988409Y-80589856D02*
X93083647Y-80637475D01*
X93083647Y-80637475D02*
X93178885Y-80637475D01*
X93512219Y-80637475D02*
X93512219Y-79970808D01*
X93512219Y-79637475D02*
X93464600Y-79685094D01*
X93464600Y-79685094D02*
X93512219Y-79732713D01*
X93512219Y-79732713D02*
X93559838Y-79685094D01*
X93559838Y-79685094D02*
X93512219Y-79637475D01*
X93512219Y-79637475D02*
X93512219Y-79732713D01*
X93988409Y-79970808D02*
X93988409Y-80637475D01*
X93988409Y-80066046D02*
X94036028Y-80018427D01*
X94036028Y-80018427D02*
X94131266Y-79970808D01*
X94131266Y-79970808D02*
X94274123Y-79970808D01*
X94274123Y-79970808D02*
X94369361Y-80018427D01*
X94369361Y-80018427D02*
X94416980Y-80113665D01*
X94416980Y-80113665D02*
X94416980Y-80637475D01*
X95321742Y-79970808D02*
X95321742Y-80637475D01*
X94893171Y-79970808D02*
X94893171Y-80494617D01*
X94893171Y-80494617D02*
X94940790Y-80589856D01*
X94940790Y-80589856D02*
X95036028Y-80637475D01*
X95036028Y-80637475D02*
X95178885Y-80637475D01*
X95178885Y-80637475D02*
X95274123Y-80589856D01*
X95274123Y-80589856D02*
X95321742Y-80542236D01*
X95797933Y-80637475D02*
X95797933Y-79970808D01*
X95797933Y-79637475D02*
X95750314Y-79685094D01*
X95750314Y-79685094D02*
X95797933Y-79732713D01*
X95797933Y-79732713D02*
X95845552Y-79685094D01*
X95845552Y-79685094D02*
X95797933Y-79637475D01*
X95797933Y-79637475D02*
X95797933Y-79732713D01*
X96131266Y-79970808D02*
X96512218Y-79970808D01*
X96274123Y-79637475D02*
X96274123Y-80494617D01*
X96274123Y-80494617D02*
X96321742Y-80589856D01*
X96321742Y-80589856D02*
X96416980Y-80637475D01*
X96416980Y-80637475D02*
X96512218Y-80637475D01*
X96750314Y-79970808D02*
X96988409Y-80637475D01*
X97226504Y-79970808D02*
X96988409Y-80637475D01*
X96988409Y-80637475D02*
X96893171Y-80875570D01*
X96893171Y-80875570D02*
X96845552Y-80923189D01*
X96845552Y-80923189D02*
X96750314Y-80970808D01*
X98369362Y-80637475D02*
X98369362Y-79637475D01*
X98369362Y-80018427D02*
X98464600Y-79970808D01*
X98464600Y-79970808D02*
X98655076Y-79970808D01*
X98655076Y-79970808D02*
X98750314Y-80018427D01*
X98750314Y-80018427D02*
X98797933Y-80066046D01*
X98797933Y-80066046D02*
X98845552Y-80161284D01*
X98845552Y-80161284D02*
X98845552Y-80446998D01*
X98845552Y-80446998D02*
X98797933Y-80542236D01*
X98797933Y-80542236D02*
X98750314Y-80589856D01*
X98750314Y-80589856D02*
X98655076Y-80637475D01*
X98655076Y-80637475D02*
X98464600Y-80637475D01*
X98464600Y-80637475D02*
X98369362Y-80589856D01*
X99655076Y-80589856D02*
X99559838Y-80637475D01*
X99559838Y-80637475D02*
X99369362Y-80637475D01*
X99369362Y-80637475D02*
X99274124Y-80589856D01*
X99274124Y-80589856D02*
X99226505Y-80494617D01*
X99226505Y-80494617D02*
X99226505Y-80113665D01*
X99226505Y-80113665D02*
X99274124Y-80018427D01*
X99274124Y-80018427D02*
X99369362Y-79970808D01*
X99369362Y-79970808D02*
X99559838Y-79970808D01*
X99559838Y-79970808D02*
X99655076Y-80018427D01*
X99655076Y-80018427D02*
X99702695Y-80113665D01*
X99702695Y-80113665D02*
X99702695Y-80208903D01*
X99702695Y-80208903D02*
X99226505Y-80304141D01*
X99988410Y-79970808D02*
X100369362Y-79970808D01*
X100131267Y-79637475D02*
X100131267Y-80494617D01*
X100131267Y-80494617D02*
X100178886Y-80589856D01*
X100178886Y-80589856D02*
X100274124Y-80637475D01*
X100274124Y-80637475D02*
X100369362Y-80637475D01*
X100607458Y-79970808D02*
X100797934Y-80637475D01*
X100797934Y-80637475D02*
X100988410Y-80161284D01*
X100988410Y-80161284D02*
X101178886Y-80637475D01*
X101178886Y-80637475D02*
X101369362Y-79970808D01*
X102131267Y-80589856D02*
X102036029Y-80637475D01*
X102036029Y-80637475D02*
X101845553Y-80637475D01*
X101845553Y-80637475D02*
X101750315Y-80589856D01*
X101750315Y-80589856D02*
X101702696Y-80494617D01*
X101702696Y-80494617D02*
X101702696Y-80113665D01*
X101702696Y-80113665D02*
X101750315Y-80018427D01*
X101750315Y-80018427D02*
X101845553Y-79970808D01*
X101845553Y-79970808D02*
X102036029Y-79970808D01*
X102036029Y-79970808D02*
X102131267Y-80018427D01*
X102131267Y-80018427D02*
X102178886Y-80113665D01*
X102178886Y-80113665D02*
X102178886Y-80208903D01*
X102178886Y-80208903D02*
X101702696Y-80304141D01*
X102988410Y-80589856D02*
X102893172Y-80637475D01*
X102893172Y-80637475D02*
X102702696Y-80637475D01*
X102702696Y-80637475D02*
X102607458Y-80589856D01*
X102607458Y-80589856D02*
X102559839Y-80494617D01*
X102559839Y-80494617D02*
X102559839Y-80113665D01*
X102559839Y-80113665D02*
X102607458Y-80018427D01*
X102607458Y-80018427D02*
X102702696Y-79970808D01*
X102702696Y-79970808D02*
X102893172Y-79970808D01*
X102893172Y-79970808D02*
X102988410Y-80018427D01*
X102988410Y-80018427D02*
X103036029Y-80113665D01*
X103036029Y-80113665D02*
X103036029Y-80208903D01*
X103036029Y-80208903D02*
X102559839Y-80304141D01*
X103464601Y-79970808D02*
X103464601Y-80637475D01*
X103464601Y-80066046D02*
X103512220Y-80018427D01*
X103512220Y-80018427D02*
X103607458Y-79970808D01*
X103607458Y-79970808D02*
X103750315Y-79970808D01*
X103750315Y-79970808D02*
X103845553Y-80018427D01*
X103845553Y-80018427D02*
X103893172Y-80113665D01*
X103893172Y-80113665D02*
X103893172Y-80637475D01*
X84702693Y-81295038D02*
X84607455Y-81247419D01*
X84607455Y-81247419D02*
X84464598Y-81247419D01*
X84464598Y-81247419D02*
X84321741Y-81295038D01*
X84321741Y-81295038D02*
X84226503Y-81390276D01*
X84226503Y-81390276D02*
X84178884Y-81485514D01*
X84178884Y-81485514D02*
X84131265Y-81675990D01*
X84131265Y-81675990D02*
X84131265Y-81818847D01*
X84131265Y-81818847D02*
X84178884Y-82009323D01*
X84178884Y-82009323D02*
X84226503Y-82104561D01*
X84226503Y-82104561D02*
X84321741Y-82199800D01*
X84321741Y-82199800D02*
X84464598Y-82247419D01*
X84464598Y-82247419D02*
X84559836Y-82247419D01*
X84559836Y-82247419D02*
X84702693Y-82199800D01*
X84702693Y-82199800D02*
X84750312Y-82152180D01*
X84750312Y-82152180D02*
X84750312Y-81818847D01*
X84750312Y-81818847D02*
X84559836Y-81818847D01*
X85178884Y-82247419D02*
X85178884Y-81247419D01*
X85178884Y-81247419D02*
X85750312Y-82247419D01*
X85750312Y-82247419D02*
X85750312Y-81247419D01*
X86226503Y-82247419D02*
X86226503Y-81247419D01*
X86226503Y-81247419D02*
X86464598Y-81247419D01*
X86464598Y-81247419D02*
X86607455Y-81295038D01*
X86607455Y-81295038D02*
X86702693Y-81390276D01*
X86702693Y-81390276D02*
X86750312Y-81485514D01*
X86750312Y-81485514D02*
X86797931Y-81675990D01*
X86797931Y-81675990D02*
X86797931Y-81818847D01*
X86797931Y-81818847D02*
X86750312Y-82009323D01*
X86750312Y-82009323D02*
X86702693Y-82104561D01*
X86702693Y-82104561D02*
X86607455Y-82199800D01*
X86607455Y-82199800D02*
X86464598Y-82247419D01*
X86464598Y-82247419D02*
X86226503Y-82247419D01*
X88750313Y-81580752D02*
X87988408Y-81866466D01*
X87988408Y-81866466D02*
X88750313Y-82152180D01*
X89226503Y-81866466D02*
X89988408Y-81866466D01*
X90464598Y-81580752D02*
X91226503Y-81866466D01*
X91226503Y-81866466D02*
X90464598Y-82152180D01*
X92464598Y-82247419D02*
X92464598Y-81247419D01*
X92464598Y-81247419D02*
X92702693Y-81247419D01*
X92702693Y-81247419D02*
X92845550Y-81295038D01*
X92845550Y-81295038D02*
X92940788Y-81390276D01*
X92940788Y-81390276D02*
X92988407Y-81485514D01*
X92988407Y-81485514D02*
X93036026Y-81675990D01*
X93036026Y-81675990D02*
X93036026Y-81818847D01*
X93036026Y-81818847D02*
X92988407Y-82009323D01*
X92988407Y-82009323D02*
X92940788Y-82104561D01*
X92940788Y-82104561D02*
X92845550Y-82199800D01*
X92845550Y-82199800D02*
X92702693Y-82247419D01*
X92702693Y-82247419D02*
X92464598Y-82247419D01*
X93464598Y-81723609D02*
X93797931Y-81723609D01*
X93940788Y-82247419D02*
X93464598Y-82247419D01*
X93464598Y-82247419D02*
X93464598Y-81247419D01*
X93464598Y-81247419D02*
X93940788Y-81247419D01*
X94226503Y-81247419D02*
X94797931Y-81247419D01*
X94512217Y-82247419D02*
X94512217Y-81247419D01*
X94893170Y-82342657D02*
X95655074Y-82342657D01*
X96464598Y-82152180D02*
X96416979Y-82199800D01*
X96416979Y-82199800D02*
X96274122Y-82247419D01*
X96274122Y-82247419D02*
X96178884Y-82247419D01*
X96178884Y-82247419D02*
X96036027Y-82199800D01*
X96036027Y-82199800D02*
X95940789Y-82104561D01*
X95940789Y-82104561D02*
X95893170Y-82009323D01*
X95893170Y-82009323D02*
X95845551Y-81818847D01*
X95845551Y-81818847D02*
X95845551Y-81675990D01*
X95845551Y-81675990D02*
X95893170Y-81485514D01*
X95893170Y-81485514D02*
X95940789Y-81390276D01*
X95940789Y-81390276D02*
X96036027Y-81295038D01*
X96036027Y-81295038D02*
X96178884Y-81247419D01*
X96178884Y-81247419D02*
X96274122Y-81247419D01*
X96274122Y-81247419D02*
X96416979Y-81295038D01*
X96416979Y-81295038D02*
X96464598Y-81342657D01*
X97083646Y-81247419D02*
X97274122Y-81247419D01*
X97274122Y-81247419D02*
X97369360Y-81295038D01*
X97369360Y-81295038D02*
X97464598Y-81390276D01*
X97464598Y-81390276D02*
X97512217Y-81580752D01*
X97512217Y-81580752D02*
X97512217Y-81914085D01*
X97512217Y-81914085D02*
X97464598Y-82104561D01*
X97464598Y-82104561D02*
X97369360Y-82199800D01*
X97369360Y-82199800D02*
X97274122Y-82247419D01*
X97274122Y-82247419D02*
X97083646Y-82247419D01*
X97083646Y-82247419D02*
X96988408Y-82199800D01*
X96988408Y-82199800D02*
X96893170Y-82104561D01*
X96893170Y-82104561D02*
X96845551Y-81914085D01*
X96845551Y-81914085D02*
X96845551Y-81580752D01*
X96845551Y-81580752D02*
X96893170Y-81390276D01*
X96893170Y-81390276D02*
X96988408Y-81295038D01*
X96988408Y-81295038D02*
X97083646Y-81247419D01*
X97940789Y-82247419D02*
X97940789Y-81247419D01*
X97940789Y-81247419D02*
X98512217Y-82247419D01*
X98512217Y-82247419D02*
X98512217Y-81247419D01*
X98988408Y-82247419D02*
X98988408Y-81247419D01*
X98988408Y-81247419D02*
X99559836Y-82247419D01*
X99559836Y-82247419D02*
X99559836Y-81247419D01*
X69030074Y-84762475D02*
X68553884Y-84762475D01*
X68553884Y-84762475D02*
X68506265Y-85238665D01*
X68506265Y-85238665D02*
X68553884Y-85191046D01*
X68553884Y-85191046D02*
X68649122Y-85143427D01*
X68649122Y-85143427D02*
X68887217Y-85143427D01*
X68887217Y-85143427D02*
X68982455Y-85191046D01*
X68982455Y-85191046D02*
X69030074Y-85238665D01*
X69030074Y-85238665D02*
X69077693Y-85333903D01*
X69077693Y-85333903D02*
X69077693Y-85571998D01*
X69077693Y-85571998D02*
X69030074Y-85667236D01*
X69030074Y-85667236D02*
X68982455Y-85714856D01*
X68982455Y-85714856D02*
X68887217Y-85762475D01*
X68887217Y-85762475D02*
X68649122Y-85762475D01*
X68649122Y-85762475D02*
X68553884Y-85714856D01*
X68553884Y-85714856D02*
X68506265Y-85667236D01*
X69363408Y-84762475D02*
X69696741Y-85762475D01*
X69696741Y-85762475D02*
X70030074Y-84762475D01*
X71125313Y-85381522D02*
X71887218Y-85381522D01*
X72363408Y-85095808D02*
X73125313Y-85381522D01*
X73125313Y-85381522D02*
X72363408Y-85667236D01*
X74220551Y-84762475D02*
X74791979Y-84762475D01*
X74506265Y-85762475D02*
X74506265Y-84762475D01*
X75125313Y-84762475D02*
X75125313Y-85571998D01*
X75125313Y-85571998D02*
X75172932Y-85667236D01*
X75172932Y-85667236D02*
X75220551Y-85714856D01*
X75220551Y-85714856D02*
X75315789Y-85762475D01*
X75315789Y-85762475D02*
X75506265Y-85762475D01*
X75506265Y-85762475D02*
X75601503Y-85714856D01*
X75601503Y-85714856D02*
X75649122Y-85667236D01*
X75649122Y-85667236D02*
X75696741Y-85571998D01*
X75696741Y-85571998D02*
X75696741Y-84762475D01*
X76125313Y-85714856D02*
X76268170Y-85762475D01*
X76268170Y-85762475D02*
X76506265Y-85762475D01*
X76506265Y-85762475D02*
X76601503Y-85714856D01*
X76601503Y-85714856D02*
X76649122Y-85667236D01*
X76649122Y-85667236D02*
X76696741Y-85571998D01*
X76696741Y-85571998D02*
X76696741Y-85476760D01*
X76696741Y-85476760D02*
X76649122Y-85381522D01*
X76649122Y-85381522D02*
X76601503Y-85333903D01*
X76601503Y-85333903D02*
X76506265Y-85286284D01*
X76506265Y-85286284D02*
X76315789Y-85238665D01*
X76315789Y-85238665D02*
X76220551Y-85191046D01*
X76220551Y-85191046D02*
X76172932Y-85143427D01*
X76172932Y-85143427D02*
X76125313Y-85048189D01*
X76125313Y-85048189D02*
X76125313Y-84952951D01*
X76125313Y-84952951D02*
X76172932Y-84857713D01*
X76172932Y-84857713D02*
X76220551Y-84810094D01*
X76220551Y-84810094D02*
X76315789Y-84762475D01*
X76315789Y-84762475D02*
X76553884Y-84762475D01*
X76553884Y-84762475D02*
X76696741Y-84810094D01*
X77458646Y-85238665D02*
X77601503Y-85286284D01*
X77601503Y-85286284D02*
X77649122Y-85333903D01*
X77649122Y-85333903D02*
X77696741Y-85429141D01*
X77696741Y-85429141D02*
X77696741Y-85571998D01*
X77696741Y-85571998D02*
X77649122Y-85667236D01*
X77649122Y-85667236D02*
X77601503Y-85714856D01*
X77601503Y-85714856D02*
X77506265Y-85762475D01*
X77506265Y-85762475D02*
X77125313Y-85762475D01*
X77125313Y-85762475D02*
X77125313Y-84762475D01*
X77125313Y-84762475D02*
X77458646Y-84762475D01*
X77458646Y-84762475D02*
X77553884Y-84810094D01*
X77553884Y-84810094D02*
X77601503Y-84857713D01*
X77601503Y-84857713D02*
X77649122Y-84952951D01*
X77649122Y-84952951D02*
X77649122Y-85048189D01*
X77649122Y-85048189D02*
X77601503Y-85143427D01*
X77601503Y-85143427D02*
X77553884Y-85191046D01*
X77553884Y-85191046D02*
X77458646Y-85238665D01*
X77458646Y-85238665D02*
X77125313Y-85238665D01*
X78030075Y-84762475D02*
X78649122Y-84762475D01*
X78649122Y-84762475D02*
X78315789Y-85143427D01*
X78315789Y-85143427D02*
X78458646Y-85143427D01*
X78458646Y-85143427D02*
X78553884Y-85191046D01*
X78553884Y-85191046D02*
X78601503Y-85238665D01*
X78601503Y-85238665D02*
X78649122Y-85333903D01*
X78649122Y-85333903D02*
X78649122Y-85571998D01*
X78649122Y-85571998D02*
X78601503Y-85667236D01*
X78601503Y-85667236D02*
X78553884Y-85714856D01*
X78553884Y-85714856D02*
X78458646Y-85762475D01*
X78458646Y-85762475D02*
X78172932Y-85762475D01*
X78172932Y-85762475D02*
X78077694Y-85714856D01*
X78077694Y-85714856D02*
X78030075Y-85667236D01*
X79030075Y-84857713D02*
X79077694Y-84810094D01*
X79077694Y-84810094D02*
X79172932Y-84762475D01*
X79172932Y-84762475D02*
X79411027Y-84762475D01*
X79411027Y-84762475D02*
X79506265Y-84810094D01*
X79506265Y-84810094D02*
X79553884Y-84857713D01*
X79553884Y-84857713D02*
X79601503Y-84952951D01*
X79601503Y-84952951D02*
X79601503Y-85048189D01*
X79601503Y-85048189D02*
X79553884Y-85191046D01*
X79553884Y-85191046D02*
X78982456Y-85762475D01*
X78982456Y-85762475D02*
X79601503Y-85762475D01*
X79982456Y-84857713D02*
X80030075Y-84810094D01*
X80030075Y-84810094D02*
X80125313Y-84762475D01*
X80125313Y-84762475D02*
X80363408Y-84762475D01*
X80363408Y-84762475D02*
X80458646Y-84810094D01*
X80458646Y-84810094D02*
X80506265Y-84857713D01*
X80506265Y-84857713D02*
X80553884Y-84952951D01*
X80553884Y-84952951D02*
X80553884Y-85048189D01*
X80553884Y-85048189D02*
X80506265Y-85191046D01*
X80506265Y-85191046D02*
X79934837Y-85762475D01*
X79934837Y-85762475D02*
X80553884Y-85762475D01*
X81744361Y-85762475D02*
X81744361Y-84762475D01*
X81744361Y-84762475D02*
X82125313Y-84762475D01*
X82125313Y-84762475D02*
X82220551Y-84810094D01*
X82220551Y-84810094D02*
X82268170Y-84857713D01*
X82268170Y-84857713D02*
X82315789Y-84952951D01*
X82315789Y-84952951D02*
X82315789Y-85095808D01*
X82315789Y-85095808D02*
X82268170Y-85191046D01*
X82268170Y-85191046D02*
X82220551Y-85238665D01*
X82220551Y-85238665D02*
X82125313Y-85286284D01*
X82125313Y-85286284D02*
X81744361Y-85286284D01*
X82649123Y-84762475D02*
X82887218Y-85762475D01*
X82887218Y-85762475D02*
X83077694Y-85048189D01*
X83077694Y-85048189D02*
X83268170Y-85762475D01*
X83268170Y-85762475D02*
X83506266Y-84762475D01*
X84458646Y-85762475D02*
X84125313Y-85286284D01*
X83887218Y-85762475D02*
X83887218Y-84762475D01*
X83887218Y-84762475D02*
X84268170Y-84762475D01*
X84268170Y-84762475D02*
X84363408Y-84810094D01*
X84363408Y-84810094D02*
X84411027Y-84857713D01*
X84411027Y-84857713D02*
X84458646Y-84952951D01*
X84458646Y-84952951D02*
X84458646Y-85095808D01*
X84458646Y-85095808D02*
X84411027Y-85191046D01*
X84411027Y-85191046D02*
X84363408Y-85238665D01*
X84363408Y-85238665D02*
X84268170Y-85286284D01*
X84268170Y-85286284D02*
X83887218Y-85286284D01*
X85839599Y-84762475D02*
X86030075Y-84762475D01*
X86030075Y-84762475D02*
X86125313Y-84810094D01*
X86125313Y-84810094D02*
X86220551Y-84905332D01*
X86220551Y-84905332D02*
X86268170Y-85095808D01*
X86268170Y-85095808D02*
X86268170Y-85429141D01*
X86268170Y-85429141D02*
X86220551Y-85619617D01*
X86220551Y-85619617D02*
X86125313Y-85714856D01*
X86125313Y-85714856D02*
X86030075Y-85762475D01*
X86030075Y-85762475D02*
X85839599Y-85762475D01*
X85839599Y-85762475D02*
X85744361Y-85714856D01*
X85744361Y-85714856D02*
X85649123Y-85619617D01*
X85649123Y-85619617D02*
X85601504Y-85429141D01*
X85601504Y-85429141D02*
X85601504Y-85095808D01*
X85601504Y-85095808D02*
X85649123Y-84905332D01*
X85649123Y-84905332D02*
X85744361Y-84810094D01*
X85744361Y-84810094D02*
X85839599Y-84762475D01*
X86696742Y-85762475D02*
X86696742Y-84762475D01*
X86696742Y-84762475D02*
X87268170Y-85762475D01*
X87268170Y-85762475D02*
X87268170Y-84762475D01*
X68411027Y-86991466D02*
X68458646Y-86943847D01*
X68458646Y-86943847D02*
X68553884Y-86896228D01*
X68553884Y-86896228D02*
X68744360Y-86991466D01*
X68744360Y-86991466D02*
X68839598Y-86943847D01*
X68839598Y-86943847D02*
X68887217Y-86896228D01*
X69744360Y-86372419D02*
X69268170Y-86372419D01*
X69268170Y-86372419D02*
X69220551Y-86848609D01*
X69220551Y-86848609D02*
X69268170Y-86800990D01*
X69268170Y-86800990D02*
X69363408Y-86753371D01*
X69363408Y-86753371D02*
X69601503Y-86753371D01*
X69601503Y-86753371D02*
X69696741Y-86800990D01*
X69696741Y-86800990D02*
X69744360Y-86848609D01*
X69744360Y-86848609D02*
X69791979Y-86943847D01*
X69791979Y-86943847D02*
X69791979Y-87181942D01*
X69791979Y-87181942D02*
X69744360Y-87277180D01*
X69744360Y-87277180D02*
X69696741Y-87324800D01*
X69696741Y-87324800D02*
X69601503Y-87372419D01*
X69601503Y-87372419D02*
X69363408Y-87372419D01*
X69363408Y-87372419D02*
X69268170Y-87324800D01*
X69268170Y-87324800D02*
X69220551Y-87277180D01*
X70077694Y-86372419D02*
X70411027Y-87372419D01*
X70411027Y-87372419D02*
X70744360Y-86372419D01*
X71839599Y-86991466D02*
X72601504Y-86991466D01*
X73077694Y-86705752D02*
X73839599Y-86991466D01*
X73839599Y-86991466D02*
X73077694Y-87277180D01*
X74934837Y-86372419D02*
X75506265Y-86372419D01*
X75220551Y-87372419D02*
X75220551Y-86372419D01*
X75839599Y-86372419D02*
X75839599Y-87181942D01*
X75839599Y-87181942D02*
X75887218Y-87277180D01*
X75887218Y-87277180D02*
X75934837Y-87324800D01*
X75934837Y-87324800D02*
X76030075Y-87372419D01*
X76030075Y-87372419D02*
X76220551Y-87372419D01*
X76220551Y-87372419D02*
X76315789Y-87324800D01*
X76315789Y-87324800D02*
X76363408Y-87277180D01*
X76363408Y-87277180D02*
X76411027Y-87181942D01*
X76411027Y-87181942D02*
X76411027Y-86372419D01*
X76839599Y-87324800D02*
X76982456Y-87372419D01*
X76982456Y-87372419D02*
X77220551Y-87372419D01*
X77220551Y-87372419D02*
X77315789Y-87324800D01*
X77315789Y-87324800D02*
X77363408Y-87277180D01*
X77363408Y-87277180D02*
X77411027Y-87181942D01*
X77411027Y-87181942D02*
X77411027Y-87086704D01*
X77411027Y-87086704D02*
X77363408Y-86991466D01*
X77363408Y-86991466D02*
X77315789Y-86943847D01*
X77315789Y-86943847D02*
X77220551Y-86896228D01*
X77220551Y-86896228D02*
X77030075Y-86848609D01*
X77030075Y-86848609D02*
X76934837Y-86800990D01*
X76934837Y-86800990D02*
X76887218Y-86753371D01*
X76887218Y-86753371D02*
X76839599Y-86658133D01*
X76839599Y-86658133D02*
X76839599Y-86562895D01*
X76839599Y-86562895D02*
X76887218Y-86467657D01*
X76887218Y-86467657D02*
X76934837Y-86420038D01*
X76934837Y-86420038D02*
X77030075Y-86372419D01*
X77030075Y-86372419D02*
X77268170Y-86372419D01*
X77268170Y-86372419D02*
X77411027Y-86420038D01*
X78172932Y-86848609D02*
X78315789Y-86896228D01*
X78315789Y-86896228D02*
X78363408Y-86943847D01*
X78363408Y-86943847D02*
X78411027Y-87039085D01*
X78411027Y-87039085D02*
X78411027Y-87181942D01*
X78411027Y-87181942D02*
X78363408Y-87277180D01*
X78363408Y-87277180D02*
X78315789Y-87324800D01*
X78315789Y-87324800D02*
X78220551Y-87372419D01*
X78220551Y-87372419D02*
X77839599Y-87372419D01*
X77839599Y-87372419D02*
X77839599Y-86372419D01*
X77839599Y-86372419D02*
X78172932Y-86372419D01*
X78172932Y-86372419D02*
X78268170Y-86420038D01*
X78268170Y-86420038D02*
X78315789Y-86467657D01*
X78315789Y-86467657D02*
X78363408Y-86562895D01*
X78363408Y-86562895D02*
X78363408Y-86658133D01*
X78363408Y-86658133D02*
X78315789Y-86753371D01*
X78315789Y-86753371D02*
X78268170Y-86800990D01*
X78268170Y-86800990D02*
X78172932Y-86848609D01*
X78172932Y-86848609D02*
X77839599Y-86848609D01*
X78744361Y-86372419D02*
X79363408Y-86372419D01*
X79363408Y-86372419D02*
X79030075Y-86753371D01*
X79030075Y-86753371D02*
X79172932Y-86753371D01*
X79172932Y-86753371D02*
X79268170Y-86800990D01*
X79268170Y-86800990D02*
X79315789Y-86848609D01*
X79315789Y-86848609D02*
X79363408Y-86943847D01*
X79363408Y-86943847D02*
X79363408Y-87181942D01*
X79363408Y-87181942D02*
X79315789Y-87277180D01*
X79315789Y-87277180D02*
X79268170Y-87324800D01*
X79268170Y-87324800D02*
X79172932Y-87372419D01*
X79172932Y-87372419D02*
X78887218Y-87372419D01*
X78887218Y-87372419D02*
X78791980Y-87324800D01*
X78791980Y-87324800D02*
X78744361Y-87277180D01*
X79744361Y-86467657D02*
X79791980Y-86420038D01*
X79791980Y-86420038D02*
X79887218Y-86372419D01*
X79887218Y-86372419D02*
X80125313Y-86372419D01*
X80125313Y-86372419D02*
X80220551Y-86420038D01*
X80220551Y-86420038D02*
X80268170Y-86467657D01*
X80268170Y-86467657D02*
X80315789Y-86562895D01*
X80315789Y-86562895D02*
X80315789Y-86658133D01*
X80315789Y-86658133D02*
X80268170Y-86800990D01*
X80268170Y-86800990D02*
X79696742Y-87372419D01*
X79696742Y-87372419D02*
X80315789Y-87372419D01*
X80696742Y-86467657D02*
X80744361Y-86420038D01*
X80744361Y-86420038D02*
X80839599Y-86372419D01*
X80839599Y-86372419D02*
X81077694Y-86372419D01*
X81077694Y-86372419D02*
X81172932Y-86420038D01*
X81172932Y-86420038D02*
X81220551Y-86467657D01*
X81220551Y-86467657D02*
X81268170Y-86562895D01*
X81268170Y-86562895D02*
X81268170Y-86658133D01*
X81268170Y-86658133D02*
X81220551Y-86800990D01*
X81220551Y-86800990D02*
X80649123Y-87372419D01*
X80649123Y-87372419D02*
X81268170Y-87372419D01*
X82458647Y-87372419D02*
X82458647Y-86372419D01*
X82458647Y-86372419D02*
X82696742Y-86372419D01*
X82696742Y-86372419D02*
X82839599Y-86420038D01*
X82839599Y-86420038D02*
X82934837Y-86515276D01*
X82934837Y-86515276D02*
X82982456Y-86610514D01*
X82982456Y-86610514D02*
X83030075Y-86800990D01*
X83030075Y-86800990D02*
X83030075Y-86943847D01*
X83030075Y-86943847D02*
X82982456Y-87134323D01*
X82982456Y-87134323D02*
X82934837Y-87229561D01*
X82934837Y-87229561D02*
X82839599Y-87324800D01*
X82839599Y-87324800D02*
X82696742Y-87372419D01*
X82696742Y-87372419D02*
X82458647Y-87372419D01*
X83458647Y-86848609D02*
X83791980Y-86848609D01*
X83934837Y-87372419D02*
X83458647Y-87372419D01*
X83458647Y-87372419D02*
X83458647Y-86372419D01*
X83458647Y-86372419D02*
X83934837Y-86372419D01*
X84315790Y-87086704D02*
X84791980Y-87086704D01*
X84220552Y-87372419D02*
X84553885Y-86372419D01*
X84553885Y-86372419D02*
X84887218Y-87372419D01*
X85220552Y-87372419D02*
X85220552Y-86372419D01*
X85220552Y-86372419D02*
X85458647Y-86372419D01*
X85458647Y-86372419D02*
X85601504Y-86420038D01*
X85601504Y-86420038D02*
X85696742Y-86515276D01*
X85696742Y-86515276D02*
X85744361Y-86610514D01*
X85744361Y-86610514D02*
X85791980Y-86800990D01*
X85791980Y-86800990D02*
X85791980Y-86943847D01*
X85791980Y-86943847D02*
X85744361Y-87134323D01*
X85744361Y-87134323D02*
X85696742Y-87229561D01*
X85696742Y-87229561D02*
X85601504Y-87324800D01*
X85601504Y-87324800D02*
X85458647Y-87372419D01*
X85458647Y-87372419D02*
X85220552Y-87372419D01*
X85982457Y-87467657D02*
X86744361Y-87467657D01*
X87315790Y-86848609D02*
X87458647Y-86896228D01*
X87458647Y-86896228D02*
X87506266Y-86943847D01*
X87506266Y-86943847D02*
X87553885Y-87039085D01*
X87553885Y-87039085D02*
X87553885Y-87181942D01*
X87553885Y-87181942D02*
X87506266Y-87277180D01*
X87506266Y-87277180D02*
X87458647Y-87324800D01*
X87458647Y-87324800D02*
X87363409Y-87372419D01*
X87363409Y-87372419D02*
X86982457Y-87372419D01*
X86982457Y-87372419D02*
X86982457Y-86372419D01*
X86982457Y-86372419D02*
X87315790Y-86372419D01*
X87315790Y-86372419D02*
X87411028Y-86420038D01*
X87411028Y-86420038D02*
X87458647Y-86467657D01*
X87458647Y-86467657D02*
X87506266Y-86562895D01*
X87506266Y-86562895D02*
X87506266Y-86658133D01*
X87506266Y-86658133D02*
X87458647Y-86753371D01*
X87458647Y-86753371D02*
X87411028Y-86800990D01*
X87411028Y-86800990D02*
X87315790Y-86848609D01*
X87315790Y-86848609D02*
X86982457Y-86848609D01*
X88411028Y-87372419D02*
X88411028Y-86848609D01*
X88411028Y-86848609D02*
X88363409Y-86753371D01*
X88363409Y-86753371D02*
X88268171Y-86705752D01*
X88268171Y-86705752D02*
X88077695Y-86705752D01*
X88077695Y-86705752D02*
X87982457Y-86753371D01*
X88411028Y-87324800D02*
X88315790Y-87372419D01*
X88315790Y-87372419D02*
X88077695Y-87372419D01*
X88077695Y-87372419D02*
X87982457Y-87324800D01*
X87982457Y-87324800D02*
X87934838Y-87229561D01*
X87934838Y-87229561D02*
X87934838Y-87134323D01*
X87934838Y-87134323D02*
X87982457Y-87039085D01*
X87982457Y-87039085D02*
X88077695Y-86991466D01*
X88077695Y-86991466D02*
X88315790Y-86991466D01*
X88315790Y-86991466D02*
X88411028Y-86943847D01*
X88744362Y-86705752D02*
X89125314Y-86705752D01*
X88887219Y-86372419D02*
X88887219Y-87229561D01*
X88887219Y-87229561D02*
X88934838Y-87324800D01*
X88934838Y-87324800D02*
X89030076Y-87372419D01*
X89030076Y-87372419D02*
X89125314Y-87372419D01*
X89315791Y-86705752D02*
X89696743Y-86705752D01*
X89458648Y-86372419D02*
X89458648Y-87229561D01*
X89458648Y-87229561D02*
X89506267Y-87324800D01*
X89506267Y-87324800D02*
X89601505Y-87372419D01*
X89601505Y-87372419D02*
X89696743Y-87372419D01*
X90411029Y-87324800D02*
X90315791Y-87372419D01*
X90315791Y-87372419D02*
X90125315Y-87372419D01*
X90125315Y-87372419D02*
X90030077Y-87324800D01*
X90030077Y-87324800D02*
X89982458Y-87229561D01*
X89982458Y-87229561D02*
X89982458Y-86848609D01*
X89982458Y-86848609D02*
X90030077Y-86753371D01*
X90030077Y-86753371D02*
X90125315Y-86705752D01*
X90125315Y-86705752D02*
X90315791Y-86705752D01*
X90315791Y-86705752D02*
X90411029Y-86753371D01*
X90411029Y-86753371D02*
X90458648Y-86848609D01*
X90458648Y-86848609D02*
X90458648Y-86943847D01*
X90458648Y-86943847D02*
X89982458Y-87039085D01*
X90887220Y-87372419D02*
X90887220Y-86705752D01*
X90887220Y-86896228D02*
X90934839Y-86800990D01*
X90934839Y-86800990D02*
X90982458Y-86753371D01*
X90982458Y-86753371D02*
X91077696Y-86705752D01*
X91077696Y-86705752D02*
X91172934Y-86705752D01*
X91411030Y-86705752D02*
X91649125Y-87372419D01*
X91887220Y-86705752D02*
X91649125Y-87372419D01*
X91649125Y-87372419D02*
X91553887Y-87610514D01*
X91553887Y-87610514D02*
X91506268Y-87658133D01*
X91506268Y-87658133D02*
X91411030Y-87705752D01*
X94333646Y-71637475D02*
X94952693Y-71637475D01*
X94952693Y-71637475D02*
X94619360Y-72018427D01*
X94619360Y-72018427D02*
X94762217Y-72018427D01*
X94762217Y-72018427D02*
X94857455Y-72066046D01*
X94857455Y-72066046D02*
X94905074Y-72113665D01*
X94905074Y-72113665D02*
X94952693Y-72208903D01*
X94952693Y-72208903D02*
X94952693Y-72446998D01*
X94952693Y-72446998D02*
X94905074Y-72542236D01*
X94905074Y-72542236D02*
X94857455Y-72589856D01*
X94857455Y-72589856D02*
X94762217Y-72637475D01*
X94762217Y-72637475D02*
X94476503Y-72637475D01*
X94476503Y-72637475D02*
X94381265Y-72589856D01*
X94381265Y-72589856D02*
X94333646Y-72542236D01*
X95381265Y-72542236D02*
X95428884Y-72589856D01*
X95428884Y-72589856D02*
X95381265Y-72637475D01*
X95381265Y-72637475D02*
X95333646Y-72589856D01*
X95333646Y-72589856D02*
X95381265Y-72542236D01*
X95381265Y-72542236D02*
X95381265Y-72637475D01*
X95762217Y-71637475D02*
X96381264Y-71637475D01*
X96381264Y-71637475D02*
X96047931Y-72018427D01*
X96047931Y-72018427D02*
X96190788Y-72018427D01*
X96190788Y-72018427D02*
X96286026Y-72066046D01*
X96286026Y-72066046D02*
X96333645Y-72113665D01*
X96333645Y-72113665D02*
X96381264Y-72208903D01*
X96381264Y-72208903D02*
X96381264Y-72446998D01*
X96381264Y-72446998D02*
X96333645Y-72542236D01*
X96333645Y-72542236D02*
X96286026Y-72589856D01*
X96286026Y-72589856D02*
X96190788Y-72637475D01*
X96190788Y-72637475D02*
X95905074Y-72637475D01*
X95905074Y-72637475D02*
X95809836Y-72589856D01*
X95809836Y-72589856D02*
X95762217Y-72542236D01*
X96666979Y-71637475D02*
X97000312Y-72637475D01*
X97000312Y-72637475D02*
X97333645Y-71637475D01*
X98428884Y-72256522D02*
X99190789Y-72256522D01*
X99666979Y-71970808D02*
X100428884Y-72256522D01*
X100428884Y-72256522D02*
X99666979Y-72542236D01*
X101666979Y-72637475D02*
X101666979Y-71637475D01*
X101666979Y-71637475D02*
X102238407Y-72637475D01*
X102238407Y-72637475D02*
X102238407Y-71637475D01*
X103286026Y-72542236D02*
X103238407Y-72589856D01*
X103238407Y-72589856D02*
X103095550Y-72637475D01*
X103095550Y-72637475D02*
X103000312Y-72637475D01*
X103000312Y-72637475D02*
X102857455Y-72589856D01*
X102857455Y-72589856D02*
X102762217Y-72494617D01*
X102762217Y-72494617D02*
X102714598Y-72399379D01*
X102714598Y-72399379D02*
X102666979Y-72208903D01*
X102666979Y-72208903D02*
X102666979Y-72066046D01*
X102666979Y-72066046D02*
X102714598Y-71875570D01*
X102714598Y-71875570D02*
X102762217Y-71780332D01*
X102762217Y-71780332D02*
X102857455Y-71685094D01*
X102857455Y-71685094D02*
X103000312Y-71637475D01*
X103000312Y-71637475D02*
X103095550Y-71637475D01*
X103095550Y-71637475D02*
X103238407Y-71685094D01*
X103238407Y-71685094D02*
X103286026Y-71732713D01*
X94619360Y-73247419D02*
X94714598Y-73247419D01*
X94714598Y-73247419D02*
X94809836Y-73295038D01*
X94809836Y-73295038D02*
X94857455Y-73342657D01*
X94857455Y-73342657D02*
X94905074Y-73437895D01*
X94905074Y-73437895D02*
X94952693Y-73628371D01*
X94952693Y-73628371D02*
X94952693Y-73866466D01*
X94952693Y-73866466D02*
X94905074Y-74056942D01*
X94905074Y-74056942D02*
X94857455Y-74152180D01*
X94857455Y-74152180D02*
X94809836Y-74199800D01*
X94809836Y-74199800D02*
X94714598Y-74247419D01*
X94714598Y-74247419D02*
X94619360Y-74247419D01*
X94619360Y-74247419D02*
X94524122Y-74199800D01*
X94524122Y-74199800D02*
X94476503Y-74152180D01*
X94476503Y-74152180D02*
X94428884Y-74056942D01*
X94428884Y-74056942D02*
X94381265Y-73866466D01*
X94381265Y-73866466D02*
X94381265Y-73628371D01*
X94381265Y-73628371D02*
X94428884Y-73437895D01*
X94428884Y-73437895D02*
X94476503Y-73342657D01*
X94476503Y-73342657D02*
X94524122Y-73295038D01*
X94524122Y-73295038D02*
X94619360Y-73247419D01*
X95238408Y-73247419D02*
X95571741Y-74247419D01*
X95571741Y-74247419D02*
X95905074Y-73247419D01*
X97000313Y-73866466D02*
X97762218Y-73866466D01*
X98238408Y-73580752D02*
X99000313Y-73866466D01*
X99000313Y-73866466D02*
X98238408Y-74152180D01*
X100809836Y-74152180D02*
X100762217Y-74199800D01*
X100762217Y-74199800D02*
X100619360Y-74247419D01*
X100619360Y-74247419D02*
X100524122Y-74247419D01*
X100524122Y-74247419D02*
X100381265Y-74199800D01*
X100381265Y-74199800D02*
X100286027Y-74104561D01*
X100286027Y-74104561D02*
X100238408Y-74009323D01*
X100238408Y-74009323D02*
X100190789Y-73818847D01*
X100190789Y-73818847D02*
X100190789Y-73675990D01*
X100190789Y-73675990D02*
X100238408Y-73485514D01*
X100238408Y-73485514D02*
X100286027Y-73390276D01*
X100286027Y-73390276D02*
X100381265Y-73295038D01*
X100381265Y-73295038D02*
X100524122Y-73247419D01*
X100524122Y-73247419D02*
X100619360Y-73247419D01*
X100619360Y-73247419D02*
X100762217Y-73295038D01*
X100762217Y-73295038D02*
X100809836Y-73342657D01*
X101428884Y-73247419D02*
X101619360Y-73247419D01*
X101619360Y-73247419D02*
X101714598Y-73295038D01*
X101714598Y-73295038D02*
X101809836Y-73390276D01*
X101809836Y-73390276D02*
X101857455Y-73580752D01*
X101857455Y-73580752D02*
X101857455Y-73914085D01*
X101857455Y-73914085D02*
X101809836Y-74104561D01*
X101809836Y-74104561D02*
X101714598Y-74199800D01*
X101714598Y-74199800D02*
X101619360Y-74247419D01*
X101619360Y-74247419D02*
X101428884Y-74247419D01*
X101428884Y-74247419D02*
X101333646Y-74199800D01*
X101333646Y-74199800D02*
X101238408Y-74104561D01*
X101238408Y-74104561D02*
X101190789Y-73914085D01*
X101190789Y-73914085D02*
X101190789Y-73580752D01*
X101190789Y-73580752D02*
X101238408Y-73390276D01*
X101238408Y-73390276D02*
X101333646Y-73295038D01*
X101333646Y-73295038D02*
X101428884Y-73247419D01*
X102286027Y-74247419D02*
X102286027Y-73247419D01*
X102286027Y-73247419D02*
X102857455Y-74247419D01*
X102857455Y-74247419D02*
X102857455Y-73247419D01*
X103333646Y-74247419D02*
X103333646Y-73247419D01*
X103333646Y-73247419D02*
X103905074Y-74247419D01*
X103905074Y-74247419D02*
X103905074Y-73247419D01*
X108800312Y-86027180D02*
X108752693Y-86074800D01*
X108752693Y-86074800D02*
X108609836Y-86122419D01*
X108609836Y-86122419D02*
X108514598Y-86122419D01*
X108514598Y-86122419D02*
X108371741Y-86074800D01*
X108371741Y-86074800D02*
X108276503Y-85979561D01*
X108276503Y-85979561D02*
X108228884Y-85884323D01*
X108228884Y-85884323D02*
X108181265Y-85693847D01*
X108181265Y-85693847D02*
X108181265Y-85550990D01*
X108181265Y-85550990D02*
X108228884Y-85360514D01*
X108228884Y-85360514D02*
X108276503Y-85265276D01*
X108276503Y-85265276D02*
X108371741Y-85170038D01*
X108371741Y-85170038D02*
X108514598Y-85122419D01*
X108514598Y-85122419D02*
X108609836Y-85122419D01*
X108609836Y-85122419D02*
X108752693Y-85170038D01*
X108752693Y-85170038D02*
X108800312Y-85217657D01*
X109800312Y-86027180D02*
X109752693Y-86074800D01*
X109752693Y-86074800D02*
X109609836Y-86122419D01*
X109609836Y-86122419D02*
X109514598Y-86122419D01*
X109514598Y-86122419D02*
X109371741Y-86074800D01*
X109371741Y-86074800D02*
X109276503Y-85979561D01*
X109276503Y-85979561D02*
X109228884Y-85884323D01*
X109228884Y-85884323D02*
X109181265Y-85693847D01*
X109181265Y-85693847D02*
X109181265Y-85550990D01*
X109181265Y-85550990D02*
X109228884Y-85360514D01*
X109228884Y-85360514D02*
X109276503Y-85265276D01*
X109276503Y-85265276D02*
X109371741Y-85170038D01*
X109371741Y-85170038D02*
X109514598Y-85122419D01*
X109514598Y-85122419D02*
X109609836Y-85122419D01*
X109609836Y-85122419D02*
X109752693Y-85170038D01*
X109752693Y-85170038D02*
X109800312Y-85217657D01*
X109990789Y-86217657D02*
X110752693Y-86217657D01*
X110990789Y-86122419D02*
X110990789Y-85122419D01*
X110990789Y-85122419D02*
X111228884Y-85122419D01*
X111228884Y-85122419D02*
X111371741Y-85170038D01*
X111371741Y-85170038D02*
X111466979Y-85265276D01*
X111466979Y-85265276D02*
X111514598Y-85360514D01*
X111514598Y-85360514D02*
X111562217Y-85550990D01*
X111562217Y-85550990D02*
X111562217Y-85693847D01*
X111562217Y-85693847D02*
X111514598Y-85884323D01*
X111514598Y-85884323D02*
X111466979Y-85979561D01*
X111466979Y-85979561D02*
X111371741Y-86074800D01*
X111371741Y-86074800D02*
X111228884Y-86122419D01*
X111228884Y-86122419D02*
X110990789Y-86122419D01*
X111990789Y-85598609D02*
X112324122Y-85598609D01*
X112466979Y-86122419D02*
X111990789Y-86122419D01*
X111990789Y-86122419D02*
X111990789Y-85122419D01*
X111990789Y-85122419D02*
X112466979Y-85122419D01*
X112752694Y-85122419D02*
X113324122Y-85122419D01*
X113038408Y-86122419D02*
X113038408Y-85122419D01*
X100137217Y-63848609D02*
X100280074Y-63896228D01*
X100280074Y-63896228D02*
X100327693Y-63943847D01*
X100327693Y-63943847D02*
X100375312Y-64039085D01*
X100375312Y-64039085D02*
X100375312Y-64181942D01*
X100375312Y-64181942D02*
X100327693Y-64277180D01*
X100327693Y-64277180D02*
X100280074Y-64324800D01*
X100280074Y-64324800D02*
X100184836Y-64372419D01*
X100184836Y-64372419D02*
X99803884Y-64372419D01*
X99803884Y-64372419D02*
X99803884Y-63372419D01*
X99803884Y-63372419D02*
X100137217Y-63372419D01*
X100137217Y-63372419D02*
X100232455Y-63420038D01*
X100232455Y-63420038D02*
X100280074Y-63467657D01*
X100280074Y-63467657D02*
X100327693Y-63562895D01*
X100327693Y-63562895D02*
X100327693Y-63658133D01*
X100327693Y-63658133D02*
X100280074Y-63753371D01*
X100280074Y-63753371D02*
X100232455Y-63800990D01*
X100232455Y-63800990D02*
X100137217Y-63848609D01*
X100137217Y-63848609D02*
X99803884Y-63848609D01*
X100756265Y-64086704D02*
X101232455Y-64086704D01*
X100661027Y-64372419D02*
X100994360Y-63372419D01*
X100994360Y-63372419D02*
X101327693Y-64372419D01*
X102232455Y-64277180D02*
X102184836Y-64324800D01*
X102184836Y-64324800D02*
X102041979Y-64372419D01*
X102041979Y-64372419D02*
X101946741Y-64372419D01*
X101946741Y-64372419D02*
X101803884Y-64324800D01*
X101803884Y-64324800D02*
X101708646Y-64229561D01*
X101708646Y-64229561D02*
X101661027Y-64134323D01*
X101661027Y-64134323D02*
X101613408Y-63943847D01*
X101613408Y-63943847D02*
X101613408Y-63800990D01*
X101613408Y-63800990D02*
X101661027Y-63610514D01*
X101661027Y-63610514D02*
X101708646Y-63515276D01*
X101708646Y-63515276D02*
X101803884Y-63420038D01*
X101803884Y-63420038D02*
X101946741Y-63372419D01*
X101946741Y-63372419D02*
X102041979Y-63372419D01*
X102041979Y-63372419D02*
X102184836Y-63420038D01*
X102184836Y-63420038D02*
X102232455Y-63467657D01*
X102661027Y-64372419D02*
X102661027Y-63372419D01*
X103232455Y-64372419D02*
X102803884Y-63800990D01*
X103232455Y-63372419D02*
X102661027Y-63943847D01*
X94286027Y-69997419D02*
X94857455Y-69997419D01*
X94571741Y-70997419D02*
X94571741Y-69997419D01*
X95190789Y-69997419D02*
X95190789Y-70806942D01*
X95190789Y-70806942D02*
X95238408Y-70902180D01*
X95238408Y-70902180D02*
X95286027Y-70949800D01*
X95286027Y-70949800D02*
X95381265Y-70997419D01*
X95381265Y-70997419D02*
X95571741Y-70997419D01*
X95571741Y-70997419D02*
X95666979Y-70949800D01*
X95666979Y-70949800D02*
X95714598Y-70902180D01*
X95714598Y-70902180D02*
X95762217Y-70806942D01*
X95762217Y-70806942D02*
X95762217Y-69997419D01*
X96190789Y-70949800D02*
X96333646Y-70997419D01*
X96333646Y-70997419D02*
X96571741Y-70997419D01*
X96571741Y-70997419D02*
X96666979Y-70949800D01*
X96666979Y-70949800D02*
X96714598Y-70902180D01*
X96714598Y-70902180D02*
X96762217Y-70806942D01*
X96762217Y-70806942D02*
X96762217Y-70711704D01*
X96762217Y-70711704D02*
X96714598Y-70616466D01*
X96714598Y-70616466D02*
X96666979Y-70568847D01*
X96666979Y-70568847D02*
X96571741Y-70521228D01*
X96571741Y-70521228D02*
X96381265Y-70473609D01*
X96381265Y-70473609D02*
X96286027Y-70425990D01*
X96286027Y-70425990D02*
X96238408Y-70378371D01*
X96238408Y-70378371D02*
X96190789Y-70283133D01*
X96190789Y-70283133D02*
X96190789Y-70187895D01*
X96190789Y-70187895D02*
X96238408Y-70092657D01*
X96238408Y-70092657D02*
X96286027Y-70045038D01*
X96286027Y-70045038D02*
X96381265Y-69997419D01*
X96381265Y-69997419D02*
X96619360Y-69997419D01*
X96619360Y-69997419D02*
X96762217Y-70045038D01*
X97524122Y-70473609D02*
X97666979Y-70521228D01*
X97666979Y-70521228D02*
X97714598Y-70568847D01*
X97714598Y-70568847D02*
X97762217Y-70664085D01*
X97762217Y-70664085D02*
X97762217Y-70806942D01*
X97762217Y-70806942D02*
X97714598Y-70902180D01*
X97714598Y-70902180D02*
X97666979Y-70949800D01*
X97666979Y-70949800D02*
X97571741Y-70997419D01*
X97571741Y-70997419D02*
X97190789Y-70997419D01*
X97190789Y-70997419D02*
X97190789Y-69997419D01*
X97190789Y-69997419D02*
X97524122Y-69997419D01*
X97524122Y-69997419D02*
X97619360Y-70045038D01*
X97619360Y-70045038D02*
X97666979Y-70092657D01*
X97666979Y-70092657D02*
X97714598Y-70187895D01*
X97714598Y-70187895D02*
X97714598Y-70283133D01*
X97714598Y-70283133D02*
X97666979Y-70378371D01*
X97666979Y-70378371D02*
X97619360Y-70425990D01*
X97619360Y-70425990D02*
X97524122Y-70473609D01*
X97524122Y-70473609D02*
X97190789Y-70473609D01*
X98095551Y-69997419D02*
X98714598Y-69997419D01*
X98714598Y-69997419D02*
X98381265Y-70378371D01*
X98381265Y-70378371D02*
X98524122Y-70378371D01*
X98524122Y-70378371D02*
X98619360Y-70425990D01*
X98619360Y-70425990D02*
X98666979Y-70473609D01*
X98666979Y-70473609D02*
X98714598Y-70568847D01*
X98714598Y-70568847D02*
X98714598Y-70806942D01*
X98714598Y-70806942D02*
X98666979Y-70902180D01*
X98666979Y-70902180D02*
X98619360Y-70949800D01*
X98619360Y-70949800D02*
X98524122Y-70997419D01*
X98524122Y-70997419D02*
X98238408Y-70997419D01*
X98238408Y-70997419D02*
X98143170Y-70949800D01*
X98143170Y-70949800D02*
X98095551Y-70902180D01*
X99095551Y-70092657D02*
X99143170Y-70045038D01*
X99143170Y-70045038D02*
X99238408Y-69997419D01*
X99238408Y-69997419D02*
X99476503Y-69997419D01*
X99476503Y-69997419D02*
X99571741Y-70045038D01*
X99571741Y-70045038D02*
X99619360Y-70092657D01*
X99619360Y-70092657D02*
X99666979Y-70187895D01*
X99666979Y-70187895D02*
X99666979Y-70283133D01*
X99666979Y-70283133D02*
X99619360Y-70425990D01*
X99619360Y-70425990D02*
X99047932Y-70997419D01*
X99047932Y-70997419D02*
X99666979Y-70997419D01*
X100047932Y-70092657D02*
X100095551Y-70045038D01*
X100095551Y-70045038D02*
X100190789Y-69997419D01*
X100190789Y-69997419D02*
X100428884Y-69997419D01*
X100428884Y-69997419D02*
X100524122Y-70045038D01*
X100524122Y-70045038D02*
X100571741Y-70092657D01*
X100571741Y-70092657D02*
X100619360Y-70187895D01*
X100619360Y-70187895D02*
X100619360Y-70283133D01*
X100619360Y-70283133D02*
X100571741Y-70425990D01*
X100571741Y-70425990D02*
X100000313Y-70997419D01*
X100000313Y-70997419D02*
X100619360Y-70997419D01*
X100809837Y-71092657D02*
X101571741Y-71092657D01*
X102000313Y-69997419D02*
X102190789Y-69997419D01*
X102190789Y-69997419D02*
X102286027Y-70045038D01*
X102286027Y-70045038D02*
X102381265Y-70140276D01*
X102381265Y-70140276D02*
X102428884Y-70330752D01*
X102428884Y-70330752D02*
X102428884Y-70664085D01*
X102428884Y-70664085D02*
X102381265Y-70854561D01*
X102381265Y-70854561D02*
X102286027Y-70949800D01*
X102286027Y-70949800D02*
X102190789Y-70997419D01*
X102190789Y-70997419D02*
X102000313Y-70997419D01*
X102000313Y-70997419D02*
X101905075Y-70949800D01*
X101905075Y-70949800D02*
X101809837Y-70854561D01*
X101809837Y-70854561D02*
X101762218Y-70664085D01*
X101762218Y-70664085D02*
X101762218Y-70330752D01*
X101762218Y-70330752D02*
X101809837Y-70140276D01*
X101809837Y-70140276D02*
X101905075Y-70045038D01*
X101905075Y-70045038D02*
X102000313Y-69997419D01*
X102857456Y-69997419D02*
X102857456Y-70806942D01*
X102857456Y-70806942D02*
X102905075Y-70902180D01*
X102905075Y-70902180D02*
X102952694Y-70949800D01*
X102952694Y-70949800D02*
X103047932Y-70997419D01*
X103047932Y-70997419D02*
X103238408Y-70997419D01*
X103238408Y-70997419D02*
X103333646Y-70949800D01*
X103333646Y-70949800D02*
X103381265Y-70902180D01*
X103381265Y-70902180D02*
X103428884Y-70806942D01*
X103428884Y-70806942D02*
X103428884Y-69997419D01*
X103762218Y-69997419D02*
X104333646Y-69997419D01*
X104047932Y-70997419D02*
X104047932Y-69997419D01*
X70280074Y-69333005D02*
X69803884Y-69333005D01*
X69803884Y-69333005D02*
X69756265Y-69809195D01*
X69756265Y-69809195D02*
X69803884Y-69761576D01*
X69803884Y-69761576D02*
X69899122Y-69713957D01*
X69899122Y-69713957D02*
X70137217Y-69713957D01*
X70137217Y-69713957D02*
X70232455Y-69761576D01*
X70232455Y-69761576D02*
X70280074Y-69809195D01*
X70280074Y-69809195D02*
X70327693Y-69904433D01*
X70327693Y-69904433D02*
X70327693Y-70142528D01*
X70327693Y-70142528D02*
X70280074Y-70237766D01*
X70280074Y-70237766D02*
X70232455Y-70285386D01*
X70232455Y-70285386D02*
X70137217Y-70333005D01*
X70137217Y-70333005D02*
X69899122Y-70333005D01*
X69899122Y-70333005D02*
X69803884Y-70285386D01*
X69803884Y-70285386D02*
X69756265Y-70237766D01*
X70613408Y-69333005D02*
X70946741Y-70333005D01*
X70946741Y-70333005D02*
X71280074Y-69333005D01*
X72375313Y-69952052D02*
X73137218Y-69952052D01*
X73613408Y-69666338D02*
X74375313Y-69952052D01*
X74375313Y-69952052D02*
X73613408Y-70237766D01*
X75518170Y-69333005D02*
X76137217Y-69333005D01*
X76137217Y-69333005D02*
X75803884Y-69713957D01*
X75803884Y-69713957D02*
X75946741Y-69713957D01*
X75946741Y-69713957D02*
X76041979Y-69761576D01*
X76041979Y-69761576D02*
X76089598Y-69809195D01*
X76089598Y-69809195D02*
X76137217Y-69904433D01*
X76137217Y-69904433D02*
X76137217Y-70142528D01*
X76137217Y-70142528D02*
X76089598Y-70237766D01*
X76089598Y-70237766D02*
X76041979Y-70285386D01*
X76041979Y-70285386D02*
X75946741Y-70333005D01*
X75946741Y-70333005D02*
X75661027Y-70333005D01*
X75661027Y-70333005D02*
X75565789Y-70285386D01*
X75565789Y-70285386D02*
X75518170Y-70237766D01*
X76565789Y-70237766D02*
X76613408Y-70285386D01*
X76613408Y-70285386D02*
X76565789Y-70333005D01*
X76565789Y-70333005D02*
X76518170Y-70285386D01*
X76518170Y-70285386D02*
X76565789Y-70237766D01*
X76565789Y-70237766D02*
X76565789Y-70333005D01*
X76946741Y-69333005D02*
X77565788Y-69333005D01*
X77565788Y-69333005D02*
X77232455Y-69713957D01*
X77232455Y-69713957D02*
X77375312Y-69713957D01*
X77375312Y-69713957D02*
X77470550Y-69761576D01*
X77470550Y-69761576D02*
X77518169Y-69809195D01*
X77518169Y-69809195D02*
X77565788Y-69904433D01*
X77565788Y-69904433D02*
X77565788Y-70142528D01*
X77565788Y-70142528D02*
X77518169Y-70237766D01*
X77518169Y-70237766D02*
X77470550Y-70285386D01*
X77470550Y-70285386D02*
X77375312Y-70333005D01*
X77375312Y-70333005D02*
X77089598Y-70333005D01*
X77089598Y-70333005D02*
X76994360Y-70285386D01*
X76994360Y-70285386D02*
X76946741Y-70237766D01*
X77851503Y-69333005D02*
X78184836Y-70333005D01*
X78184836Y-70333005D02*
X78518169Y-69333005D01*
X80089598Y-70333005D02*
X79613408Y-70333005D01*
X79613408Y-70333005D02*
X79613408Y-69333005D01*
X80422932Y-70333005D02*
X80422932Y-69333005D01*
X80422932Y-69333005D02*
X80661027Y-69333005D01*
X80661027Y-69333005D02*
X80803884Y-69380624D01*
X80803884Y-69380624D02*
X80899122Y-69475862D01*
X80899122Y-69475862D02*
X80946741Y-69571100D01*
X80946741Y-69571100D02*
X80994360Y-69761576D01*
X80994360Y-69761576D02*
X80994360Y-69904433D01*
X80994360Y-69904433D02*
X80946741Y-70094909D01*
X80946741Y-70094909D02*
X80899122Y-70190147D01*
X80899122Y-70190147D02*
X80803884Y-70285386D01*
X80803884Y-70285386D02*
X80661027Y-70333005D01*
X80661027Y-70333005D02*
X80422932Y-70333005D01*
X81613408Y-69333005D02*
X81803884Y-69333005D01*
X81803884Y-69333005D02*
X81899122Y-69380624D01*
X81899122Y-69380624D02*
X81994360Y-69475862D01*
X81994360Y-69475862D02*
X82041979Y-69666338D01*
X82041979Y-69666338D02*
X82041979Y-69999671D01*
X82041979Y-69999671D02*
X81994360Y-70190147D01*
X81994360Y-70190147D02*
X81899122Y-70285386D01*
X81899122Y-70285386D02*
X81803884Y-70333005D01*
X81803884Y-70333005D02*
X81613408Y-70333005D01*
X81613408Y-70333005D02*
X81518170Y-70285386D01*
X81518170Y-70285386D02*
X81422932Y-70190147D01*
X81422932Y-70190147D02*
X81375313Y-69999671D01*
X81375313Y-69999671D02*
X81375313Y-69666338D01*
X81375313Y-69666338D02*
X81422932Y-69475862D01*
X81422932Y-69475862D02*
X81518170Y-69380624D01*
X81518170Y-69380624D02*
X81613408Y-69333005D01*
X72637217Y-60848609D02*
X72303884Y-60848609D01*
X72303884Y-61372419D02*
X72303884Y-60372419D01*
X72303884Y-60372419D02*
X72780074Y-60372419D01*
X73732455Y-61372419D02*
X73399122Y-60896228D01*
X73161027Y-61372419D02*
X73161027Y-60372419D01*
X73161027Y-60372419D02*
X73541979Y-60372419D01*
X73541979Y-60372419D02*
X73637217Y-60420038D01*
X73637217Y-60420038D02*
X73684836Y-60467657D01*
X73684836Y-60467657D02*
X73732455Y-60562895D01*
X73732455Y-60562895D02*
X73732455Y-60705752D01*
X73732455Y-60705752D02*
X73684836Y-60800990D01*
X73684836Y-60800990D02*
X73637217Y-60848609D01*
X73637217Y-60848609D02*
X73541979Y-60896228D01*
X73541979Y-60896228D02*
X73161027Y-60896228D01*
X74351503Y-60372419D02*
X74541979Y-60372419D01*
X74541979Y-60372419D02*
X74637217Y-60420038D01*
X74637217Y-60420038D02*
X74732455Y-60515276D01*
X74732455Y-60515276D02*
X74780074Y-60705752D01*
X74780074Y-60705752D02*
X74780074Y-61039085D01*
X74780074Y-61039085D02*
X74732455Y-61229561D01*
X74732455Y-61229561D02*
X74637217Y-61324800D01*
X74637217Y-61324800D02*
X74541979Y-61372419D01*
X74541979Y-61372419D02*
X74351503Y-61372419D01*
X74351503Y-61372419D02*
X74256265Y-61324800D01*
X74256265Y-61324800D02*
X74161027Y-61229561D01*
X74161027Y-61229561D02*
X74113408Y-61039085D01*
X74113408Y-61039085D02*
X74113408Y-60705752D01*
X74113408Y-60705752D02*
X74161027Y-60515276D01*
X74161027Y-60515276D02*
X74256265Y-60420038D01*
X74256265Y-60420038D02*
X74351503Y-60372419D01*
X75208646Y-61372419D02*
X75208646Y-60372419D01*
X75208646Y-60372419D02*
X75780074Y-61372419D01*
X75780074Y-61372419D02*
X75780074Y-60372419D01*
X76113408Y-60372419D02*
X76684836Y-60372419D01*
X76399122Y-61372419D02*
X76399122Y-60372419D01*
X76428884Y-81747419D02*
X76428884Y-80747419D01*
X76428884Y-80747419D02*
X77000312Y-81747419D01*
X77000312Y-81747419D02*
X77000312Y-80747419D01*
X77476503Y-81747419D02*
X77476503Y-80747419D01*
X77476503Y-80747419D02*
X77857455Y-80747419D01*
X77857455Y-80747419D02*
X77952693Y-80795038D01*
X77952693Y-80795038D02*
X78000312Y-80842657D01*
X78000312Y-80842657D02*
X78047931Y-80937895D01*
X78047931Y-80937895D02*
X78047931Y-81080752D01*
X78047931Y-81080752D02*
X78000312Y-81175990D01*
X78000312Y-81175990D02*
X77952693Y-81223609D01*
X77952693Y-81223609D02*
X77857455Y-81271228D01*
X77857455Y-81271228D02*
X77476503Y-81271228D01*
X78476503Y-81747419D02*
X78476503Y-80747419D01*
X78476503Y-80747419D02*
X79047931Y-81747419D01*
X79047931Y-81747419D02*
X79047931Y-80747419D01*
X79286027Y-81842657D02*
X80047931Y-81842657D01*
X80619360Y-81223609D02*
X80762217Y-81271228D01*
X80762217Y-81271228D02*
X80809836Y-81318847D01*
X80809836Y-81318847D02*
X80857455Y-81414085D01*
X80857455Y-81414085D02*
X80857455Y-81556942D01*
X80857455Y-81556942D02*
X80809836Y-81652180D01*
X80809836Y-81652180D02*
X80762217Y-81699800D01*
X80762217Y-81699800D02*
X80666979Y-81747419D01*
X80666979Y-81747419D02*
X80286027Y-81747419D01*
X80286027Y-81747419D02*
X80286027Y-80747419D01*
X80286027Y-80747419D02*
X80619360Y-80747419D01*
X80619360Y-80747419D02*
X80714598Y-80795038D01*
X80714598Y-80795038D02*
X80762217Y-80842657D01*
X80762217Y-80842657D02*
X80809836Y-80937895D01*
X80809836Y-80937895D02*
X80809836Y-81033133D01*
X80809836Y-81033133D02*
X80762217Y-81128371D01*
X80762217Y-81128371D02*
X80714598Y-81175990D01*
X80714598Y-81175990D02*
X80619360Y-81223609D01*
X80619360Y-81223609D02*
X80286027Y-81223609D01*
X81238408Y-81461704D02*
X81714598Y-81461704D01*
X81143170Y-81747419D02*
X81476503Y-80747419D01*
X81476503Y-80747419D02*
X81809836Y-81747419D01*
X82095551Y-81699800D02*
X82238408Y-81747419D01*
X82238408Y-81747419D02*
X82476503Y-81747419D01*
X82476503Y-81747419D02*
X82571741Y-81699800D01*
X82571741Y-81699800D02*
X82619360Y-81652180D01*
X82619360Y-81652180D02*
X82666979Y-81556942D01*
X82666979Y-81556942D02*
X82666979Y-81461704D01*
X82666979Y-81461704D02*
X82619360Y-81366466D01*
X82619360Y-81366466D02*
X82571741Y-81318847D01*
X82571741Y-81318847D02*
X82476503Y-81271228D01*
X82476503Y-81271228D02*
X82286027Y-81223609D01*
X82286027Y-81223609D02*
X82190789Y-81175990D01*
X82190789Y-81175990D02*
X82143170Y-81128371D01*
X82143170Y-81128371D02*
X82095551Y-81033133D01*
X82095551Y-81033133D02*
X82095551Y-80937895D01*
X82095551Y-80937895D02*
X82143170Y-80842657D01*
X82143170Y-80842657D02*
X82190789Y-80795038D01*
X82190789Y-80795038D02*
X82286027Y-80747419D01*
X82286027Y-80747419D02*
X82524122Y-80747419D01*
X82524122Y-80747419D02*
X82666979Y-80795038D01*
X83095551Y-81223609D02*
X83428884Y-81223609D01*
X83571741Y-81747419D02*
X83095551Y-81747419D01*
X83095551Y-81747419D02*
X83095551Y-80747419D01*
X83095551Y-80747419D02*
X83571741Y-80747419D01*
X112125312Y-44177180D02*
X112077693Y-44224800D01*
X112077693Y-44224800D02*
X111934836Y-44272419D01*
X111934836Y-44272419D02*
X111839598Y-44272419D01*
X111839598Y-44272419D02*
X111696741Y-44224800D01*
X111696741Y-44224800D02*
X111601503Y-44129561D01*
X111601503Y-44129561D02*
X111553884Y-44034323D01*
X111553884Y-44034323D02*
X111506265Y-43843847D01*
X111506265Y-43843847D02*
X111506265Y-43700990D01*
X111506265Y-43700990D02*
X111553884Y-43510514D01*
X111553884Y-43510514D02*
X111601503Y-43415276D01*
X111601503Y-43415276D02*
X111696741Y-43320038D01*
X111696741Y-43320038D02*
X111839598Y-43272419D01*
X111839598Y-43272419D02*
X111934836Y-43272419D01*
X111934836Y-43272419D02*
X112077693Y-43320038D01*
X112077693Y-43320038D02*
X112125312Y-43367657D01*
X112744360Y-43272419D02*
X112934836Y-43272419D01*
X112934836Y-43272419D02*
X113030074Y-43320038D01*
X113030074Y-43320038D02*
X113125312Y-43415276D01*
X113125312Y-43415276D02*
X113172931Y-43605752D01*
X113172931Y-43605752D02*
X113172931Y-43939085D01*
X113172931Y-43939085D02*
X113125312Y-44129561D01*
X113125312Y-44129561D02*
X113030074Y-44224800D01*
X113030074Y-44224800D02*
X112934836Y-44272419D01*
X112934836Y-44272419D02*
X112744360Y-44272419D01*
X112744360Y-44272419D02*
X112649122Y-44224800D01*
X112649122Y-44224800D02*
X112553884Y-44129561D01*
X112553884Y-44129561D02*
X112506265Y-43939085D01*
X112506265Y-43939085D02*
X112506265Y-43605752D01*
X112506265Y-43605752D02*
X112553884Y-43415276D01*
X112553884Y-43415276D02*
X112649122Y-43320038D01*
X112649122Y-43320038D02*
X112744360Y-43272419D01*
X113601503Y-44272419D02*
X113601503Y-43272419D01*
X113601503Y-43272419D02*
X114172931Y-44272419D01*
X114172931Y-44272419D02*
X114172931Y-43272419D01*
X114649122Y-44272419D02*
X114649122Y-43272419D01*
X114649122Y-43272419D02*
X115220550Y-44272419D01*
X115220550Y-44272419D02*
X115220550Y-43272419D01*
X115458646Y-44367657D02*
X116220550Y-44367657D01*
X116458646Y-44272419D02*
X116458646Y-43272419D01*
X116458646Y-43272419D02*
X116696741Y-43272419D01*
X116696741Y-43272419D02*
X116839598Y-43320038D01*
X116839598Y-43320038D02*
X116934836Y-43415276D01*
X116934836Y-43415276D02*
X116982455Y-43510514D01*
X116982455Y-43510514D02*
X117030074Y-43700990D01*
X117030074Y-43700990D02*
X117030074Y-43843847D01*
X117030074Y-43843847D02*
X116982455Y-44034323D01*
X116982455Y-44034323D02*
X116934836Y-44129561D01*
X116934836Y-44129561D02*
X116839598Y-44224800D01*
X116839598Y-44224800D02*
X116696741Y-44272419D01*
X116696741Y-44272419D02*
X116458646Y-44272419D01*
X117458646Y-43748609D02*
X117791979Y-43748609D01*
X117934836Y-44272419D02*
X117458646Y-44272419D01*
X117458646Y-44272419D02*
X117458646Y-43272419D01*
X117458646Y-43272419D02*
X117934836Y-43272419D01*
X118220551Y-43272419D02*
X118791979Y-43272419D01*
X118506265Y-44272419D02*
X118506265Y-43272419D01*
D11*
X100138095Y-48317319D02*
X100138095Y-49126842D01*
X100138095Y-49126842D02*
X100185714Y-49222080D01*
X100185714Y-49222080D02*
X100233333Y-49269700D01*
X100233333Y-49269700D02*
X100328571Y-49317319D01*
X100328571Y-49317319D02*
X100519047Y-49317319D01*
X100519047Y-49317319D02*
X100614285Y-49269700D01*
X100614285Y-49269700D02*
X100661904Y-49222080D01*
X100661904Y-49222080D02*
X100709523Y-49126842D01*
X100709523Y-49126842D02*
X100709523Y-48317319D01*
X101138095Y-48412557D02*
X101185714Y-48364938D01*
X101185714Y-48364938D02*
X101280952Y-48317319D01*
X101280952Y-48317319D02*
X101519047Y-48317319D01*
X101519047Y-48317319D02*
X101614285Y-48364938D01*
X101614285Y-48364938D02*
X101661904Y-48412557D01*
X101661904Y-48412557D02*
X101709523Y-48507795D01*
X101709523Y-48507795D02*
X101709523Y-48603033D01*
X101709523Y-48603033D02*
X101661904Y-48745890D01*
X101661904Y-48745890D02*
X101090476Y-49317319D01*
X101090476Y-49317319D02*
X101709523Y-49317319D01*
X79333333Y-51934819D02*
X79000000Y-51458628D01*
X78761905Y-51934819D02*
X78761905Y-50934819D01*
X78761905Y-50934819D02*
X79142857Y-50934819D01*
X79142857Y-50934819D02*
X79238095Y-50982438D01*
X79238095Y-50982438D02*
X79285714Y-51030057D01*
X79285714Y-51030057D02*
X79333333Y-51125295D01*
X79333333Y-51125295D02*
X79333333Y-51268152D01*
X79333333Y-51268152D02*
X79285714Y-51363390D01*
X79285714Y-51363390D02*
X79238095Y-51411009D01*
X79238095Y-51411009D02*
X79142857Y-51458628D01*
X79142857Y-51458628D02*
X78761905Y-51458628D01*
X79666667Y-50934819D02*
X80285714Y-50934819D01*
X80285714Y-50934819D02*
X79952381Y-51315771D01*
X79952381Y-51315771D02*
X80095238Y-51315771D01*
X80095238Y-51315771D02*
X80190476Y-51363390D01*
X80190476Y-51363390D02*
X80238095Y-51411009D01*
X80238095Y-51411009D02*
X80285714Y-51506247D01*
X80285714Y-51506247D02*
X80285714Y-51744342D01*
X80285714Y-51744342D02*
X80238095Y-51839580D01*
X80238095Y-51839580D02*
X80190476Y-51887200D01*
X80190476Y-51887200D02*
X80095238Y-51934819D01*
X80095238Y-51934819D02*
X79809524Y-51934819D01*
X79809524Y-51934819D02*
X79714286Y-51887200D01*
X79714286Y-51887200D02*
X79666667Y-51839580D01*
X116608333Y-80079819D02*
X116275000Y-79603628D01*
X116036905Y-80079819D02*
X116036905Y-79079819D01*
X116036905Y-79079819D02*
X116417857Y-79079819D01*
X116417857Y-79079819D02*
X116513095Y-79127438D01*
X116513095Y-79127438D02*
X116560714Y-79175057D01*
X116560714Y-79175057D02*
X116608333Y-79270295D01*
X116608333Y-79270295D02*
X116608333Y-79413152D01*
X116608333Y-79413152D02*
X116560714Y-79508390D01*
X116560714Y-79508390D02*
X116513095Y-79556009D01*
X116513095Y-79556009D02*
X116417857Y-79603628D01*
X116417857Y-79603628D02*
X116036905Y-79603628D01*
X117513095Y-79079819D02*
X117036905Y-79079819D01*
X117036905Y-79079819D02*
X116989286Y-79556009D01*
X116989286Y-79556009D02*
X117036905Y-79508390D01*
X117036905Y-79508390D02*
X117132143Y-79460771D01*
X117132143Y-79460771D02*
X117370238Y-79460771D01*
X117370238Y-79460771D02*
X117465476Y-79508390D01*
X117465476Y-79508390D02*
X117513095Y-79556009D01*
X117513095Y-79556009D02*
X117560714Y-79651247D01*
X117560714Y-79651247D02*
X117560714Y-79889342D01*
X117560714Y-79889342D02*
X117513095Y-79984580D01*
X117513095Y-79984580D02*
X117465476Y-80032200D01*
X117465476Y-80032200D02*
X117370238Y-80079819D01*
X117370238Y-80079819D02*
X117132143Y-80079819D01*
X117132143Y-80079819D02*
X117036905Y-80032200D01*
X117036905Y-80032200D02*
X116989286Y-79984580D01*
X108330952Y-60474819D02*
X107854762Y-60474819D01*
X107854762Y-60474819D02*
X107807143Y-60951009D01*
X107807143Y-60951009D02*
X107854762Y-60903390D01*
X107854762Y-60903390D02*
X107950000Y-60855771D01*
X107950000Y-60855771D02*
X108188095Y-60855771D01*
X108188095Y-60855771D02*
X108283333Y-60903390D01*
X108283333Y-60903390D02*
X108330952Y-60951009D01*
X108330952Y-60951009D02*
X108378571Y-61046247D01*
X108378571Y-61046247D02*
X108378571Y-61284342D01*
X108378571Y-61284342D02*
X108330952Y-61379580D01*
X108330952Y-61379580D02*
X108283333Y-61427200D01*
X108283333Y-61427200D02*
X108188095Y-61474819D01*
X108188095Y-61474819D02*
X107950000Y-61474819D01*
X107950000Y-61474819D02*
X107854762Y-61427200D01*
X107854762Y-61427200D02*
X107807143Y-61379580D01*
X108807143Y-61474819D02*
X108807143Y-60474819D01*
X109378571Y-61474819D02*
X108950000Y-60903390D01*
X109378571Y-60474819D02*
X108807143Y-61046247D01*
X111045238Y-60474819D02*
X110569048Y-60474819D01*
X110569048Y-60474819D02*
X110521429Y-60951009D01*
X110521429Y-60951009D02*
X110569048Y-60903390D01*
X110569048Y-60903390D02*
X110664286Y-60855771D01*
X110664286Y-60855771D02*
X110902381Y-60855771D01*
X110902381Y-60855771D02*
X110997619Y-60903390D01*
X110997619Y-60903390D02*
X111045238Y-60951009D01*
X111045238Y-60951009D02*
X111092857Y-61046247D01*
X111092857Y-61046247D02*
X111092857Y-61284342D01*
X111092857Y-61284342D02*
X111045238Y-61379580D01*
X111045238Y-61379580D02*
X110997619Y-61427200D01*
X110997619Y-61427200D02*
X110902381Y-61474819D01*
X110902381Y-61474819D02*
X110664286Y-61474819D01*
X110664286Y-61474819D02*
X110569048Y-61427200D01*
X110569048Y-61427200D02*
X110521429Y-61379580D01*
X111521429Y-61474819D02*
X111521429Y-60474819D01*
X112092857Y-61474819D02*
X111664286Y-60903390D01*
X112092857Y-60474819D02*
X111521429Y-61046247D01*
X105273333Y-61317319D02*
X104940000Y-60841128D01*
X104701905Y-61317319D02*
X104701905Y-60317319D01*
X104701905Y-60317319D02*
X105082857Y-60317319D01*
X105082857Y-60317319D02*
X105178095Y-60364938D01*
X105178095Y-60364938D02*
X105225714Y-60412557D01*
X105225714Y-60412557D02*
X105273333Y-60507795D01*
X105273333Y-60507795D02*
X105273333Y-60650652D01*
X105273333Y-60650652D02*
X105225714Y-60745890D01*
X105225714Y-60745890D02*
X105178095Y-60793509D01*
X105178095Y-60793509D02*
X105082857Y-60841128D01*
X105082857Y-60841128D02*
X104701905Y-60841128D01*
X105749524Y-61317319D02*
X105940000Y-61317319D01*
X105940000Y-61317319D02*
X106035238Y-61269700D01*
X106035238Y-61269700D02*
X106082857Y-61222080D01*
X106082857Y-61222080D02*
X106178095Y-61079223D01*
X106178095Y-61079223D02*
X106225714Y-60888747D01*
X106225714Y-60888747D02*
X106225714Y-60507795D01*
X106225714Y-60507795D02*
X106178095Y-60412557D01*
X106178095Y-60412557D02*
X106130476Y-60364938D01*
X106130476Y-60364938D02*
X106035238Y-60317319D01*
X106035238Y-60317319D02*
X105844762Y-60317319D01*
X105844762Y-60317319D02*
X105749524Y-60364938D01*
X105749524Y-60364938D02*
X105701905Y-60412557D01*
X105701905Y-60412557D02*
X105654286Y-60507795D01*
X105654286Y-60507795D02*
X105654286Y-60745890D01*
X105654286Y-60745890D02*
X105701905Y-60841128D01*
X105701905Y-60841128D02*
X105749524Y-60888747D01*
X105749524Y-60888747D02*
X105844762Y-60936366D01*
X105844762Y-60936366D02*
X106035238Y-60936366D01*
X106035238Y-60936366D02*
X106130476Y-60888747D01*
X106130476Y-60888747D02*
X106178095Y-60841128D01*
X106178095Y-60841128D02*
X106225714Y-60745890D01*
X117233333Y-50817319D02*
X116900000Y-50341128D01*
X116661905Y-50817319D02*
X116661905Y-49817319D01*
X116661905Y-49817319D02*
X117042857Y-49817319D01*
X117042857Y-49817319D02*
X117138095Y-49864938D01*
X117138095Y-49864938D02*
X117185714Y-49912557D01*
X117185714Y-49912557D02*
X117233333Y-50007795D01*
X117233333Y-50007795D02*
X117233333Y-50150652D01*
X117233333Y-50150652D02*
X117185714Y-50245890D01*
X117185714Y-50245890D02*
X117138095Y-50293509D01*
X117138095Y-50293509D02*
X117042857Y-50341128D01*
X117042857Y-50341128D02*
X116661905Y-50341128D01*
X117566667Y-49817319D02*
X118233333Y-49817319D01*
X118233333Y-49817319D02*
X117804762Y-50817319D01*
D10*
X72809523Y-81957419D02*
X72333333Y-81957419D01*
X72333333Y-81957419D02*
X72285714Y-82433609D01*
X72285714Y-82433609D02*
X72333333Y-82385990D01*
X72333333Y-82385990D02*
X72428571Y-82338371D01*
X72428571Y-82338371D02*
X72666666Y-82338371D01*
X72666666Y-82338371D02*
X72761904Y-82385990D01*
X72761904Y-82385990D02*
X72809523Y-82433609D01*
X72809523Y-82433609D02*
X72857142Y-82528847D01*
X72857142Y-82528847D02*
X72857142Y-82766942D01*
X72857142Y-82766942D02*
X72809523Y-82862180D01*
X72809523Y-82862180D02*
X72761904Y-82909800D01*
X72761904Y-82909800D02*
X72666666Y-82957419D01*
X72666666Y-82957419D02*
X72428571Y-82957419D01*
X72428571Y-82957419D02*
X72333333Y-82909800D01*
X72333333Y-82909800D02*
X72285714Y-82862180D01*
X73142857Y-81957419D02*
X73476190Y-82957419D01*
X73476190Y-82957419D02*
X73809523Y-81957419D01*
D11*
X116783333Y-57954819D02*
X116450000Y-57478628D01*
X116211905Y-57954819D02*
X116211905Y-56954819D01*
X116211905Y-56954819D02*
X116592857Y-56954819D01*
X116592857Y-56954819D02*
X116688095Y-57002438D01*
X116688095Y-57002438D02*
X116735714Y-57050057D01*
X116735714Y-57050057D02*
X116783333Y-57145295D01*
X116783333Y-57145295D02*
X116783333Y-57288152D01*
X116783333Y-57288152D02*
X116735714Y-57383390D01*
X116735714Y-57383390D02*
X116688095Y-57431009D01*
X116688095Y-57431009D02*
X116592857Y-57478628D01*
X116592857Y-57478628D02*
X116211905Y-57478628D01*
X117735714Y-57954819D02*
X117164286Y-57954819D01*
X117450000Y-57954819D02*
X117450000Y-56954819D01*
X117450000Y-56954819D02*
X117354762Y-57097676D01*
X117354762Y-57097676D02*
X117259524Y-57192914D01*
X117259524Y-57192914D02*
X117164286Y-57240533D01*
X114632142Y-73319819D02*
X114298809Y-72843628D01*
X114060714Y-73319819D02*
X114060714Y-72319819D01*
X114060714Y-72319819D02*
X114441666Y-72319819D01*
X114441666Y-72319819D02*
X114536904Y-72367438D01*
X114536904Y-72367438D02*
X114584523Y-72415057D01*
X114584523Y-72415057D02*
X114632142Y-72510295D01*
X114632142Y-72510295D02*
X114632142Y-72653152D01*
X114632142Y-72653152D02*
X114584523Y-72748390D01*
X114584523Y-72748390D02*
X114536904Y-72796009D01*
X114536904Y-72796009D02*
X114441666Y-72843628D01*
X114441666Y-72843628D02*
X114060714Y-72843628D01*
X115584523Y-73319819D02*
X115013095Y-73319819D01*
X115298809Y-73319819D02*
X115298809Y-72319819D01*
X115298809Y-72319819D02*
X115203571Y-72462676D01*
X115203571Y-72462676D02*
X115108333Y-72557914D01*
X115108333Y-72557914D02*
X115013095Y-72605533D01*
X116536904Y-73319819D02*
X115965476Y-73319819D01*
X116251190Y-73319819D02*
X116251190Y-72319819D01*
X116251190Y-72319819D02*
X116155952Y-72462676D01*
X116155952Y-72462676D02*
X116060714Y-72557914D01*
X116060714Y-72557914D02*
X115965476Y-72605533D01*
X110358333Y-71484580D02*
X110310714Y-71532200D01*
X110310714Y-71532200D02*
X110167857Y-71579819D01*
X110167857Y-71579819D02*
X110072619Y-71579819D01*
X110072619Y-71579819D02*
X109929762Y-71532200D01*
X109929762Y-71532200D02*
X109834524Y-71436961D01*
X109834524Y-71436961D02*
X109786905Y-71341723D01*
X109786905Y-71341723D02*
X109739286Y-71151247D01*
X109739286Y-71151247D02*
X109739286Y-71008390D01*
X109739286Y-71008390D02*
X109786905Y-70817914D01*
X109786905Y-70817914D02*
X109834524Y-70722676D01*
X109834524Y-70722676D02*
X109929762Y-70627438D01*
X109929762Y-70627438D02*
X110072619Y-70579819D01*
X110072619Y-70579819D02*
X110167857Y-70579819D01*
X110167857Y-70579819D02*
X110310714Y-70627438D01*
X110310714Y-70627438D02*
X110358333Y-70675057D01*
X111215476Y-70579819D02*
X111025000Y-70579819D01*
X111025000Y-70579819D02*
X110929762Y-70627438D01*
X110929762Y-70627438D02*
X110882143Y-70675057D01*
X110882143Y-70675057D02*
X110786905Y-70817914D01*
X110786905Y-70817914D02*
X110739286Y-71008390D01*
X110739286Y-71008390D02*
X110739286Y-71389342D01*
X110739286Y-71389342D02*
X110786905Y-71484580D01*
X110786905Y-71484580D02*
X110834524Y-71532200D01*
X110834524Y-71532200D02*
X110929762Y-71579819D01*
X110929762Y-71579819D02*
X111120238Y-71579819D01*
X111120238Y-71579819D02*
X111215476Y-71532200D01*
X111215476Y-71532200D02*
X111263095Y-71484580D01*
X111263095Y-71484580D02*
X111310714Y-71389342D01*
X111310714Y-71389342D02*
X111310714Y-71151247D01*
X111310714Y-71151247D02*
X111263095Y-71056009D01*
X111263095Y-71056009D02*
X111215476Y-71008390D01*
X111215476Y-71008390D02*
X111120238Y-70960771D01*
X111120238Y-70960771D02*
X110929762Y-70960771D01*
X110929762Y-70960771D02*
X110834524Y-71008390D01*
X110834524Y-71008390D02*
X110786905Y-71056009D01*
X110786905Y-71056009D02*
X110739286Y-71151247D01*
X73904761Y-54050057D02*
X73809523Y-54002438D01*
X73809523Y-54002438D02*
X73714285Y-53907200D01*
X73714285Y-53907200D02*
X73571428Y-53764342D01*
X73571428Y-53764342D02*
X73476190Y-53716723D01*
X73476190Y-53716723D02*
X73380952Y-53716723D01*
X73428571Y-53954819D02*
X73333333Y-53907200D01*
X73333333Y-53907200D02*
X73238095Y-53811961D01*
X73238095Y-53811961D02*
X73190476Y-53621485D01*
X73190476Y-53621485D02*
X73190476Y-53288152D01*
X73190476Y-53288152D02*
X73238095Y-53097676D01*
X73238095Y-53097676D02*
X73333333Y-53002438D01*
X73333333Y-53002438D02*
X73428571Y-52954819D01*
X73428571Y-52954819D02*
X73619047Y-52954819D01*
X73619047Y-52954819D02*
X73714285Y-53002438D01*
X73714285Y-53002438D02*
X73809523Y-53097676D01*
X73809523Y-53097676D02*
X73857142Y-53288152D01*
X73857142Y-53288152D02*
X73857142Y-53621485D01*
X73857142Y-53621485D02*
X73809523Y-53811961D01*
X73809523Y-53811961D02*
X73714285Y-53907200D01*
X73714285Y-53907200D02*
X73619047Y-53954819D01*
X73619047Y-53954819D02*
X73428571Y-53954819D01*
X74809523Y-53954819D02*
X74238095Y-53954819D01*
X74523809Y-53954819D02*
X74523809Y-52954819D01*
X74523809Y-52954819D02*
X74428571Y-53097676D01*
X74428571Y-53097676D02*
X74333333Y-53192914D01*
X74333333Y-53192914D02*
X74238095Y-53240533D01*
X102411169Y-60722080D02*
X102363550Y-60769700D01*
X102363550Y-60769700D02*
X102220693Y-60817319D01*
X102220693Y-60817319D02*
X102125455Y-60817319D01*
X102125455Y-60817319D02*
X101982598Y-60769700D01*
X101982598Y-60769700D02*
X101887360Y-60674461D01*
X101887360Y-60674461D02*
X101839741Y-60579223D01*
X101839741Y-60579223D02*
X101792122Y-60388747D01*
X101792122Y-60388747D02*
X101792122Y-60245890D01*
X101792122Y-60245890D02*
X101839741Y-60055414D01*
X101839741Y-60055414D02*
X101887360Y-59960176D01*
X101887360Y-59960176D02*
X101982598Y-59864938D01*
X101982598Y-59864938D02*
X102125455Y-59817319D01*
X102125455Y-59817319D02*
X102220693Y-59817319D01*
X102220693Y-59817319D02*
X102363550Y-59864938D01*
X102363550Y-59864938D02*
X102411169Y-59912557D01*
X103363550Y-60817319D02*
X102792122Y-60817319D01*
X103077836Y-60817319D02*
X103077836Y-59817319D01*
X103077836Y-59817319D02*
X102982598Y-59960176D01*
X102982598Y-59960176D02*
X102887360Y-60055414D01*
X102887360Y-60055414D02*
X102792122Y-60103033D01*
X79261905Y-58454819D02*
X79261905Y-57454819D01*
X79261905Y-57454819D02*
X79500000Y-57454819D01*
X79500000Y-57454819D02*
X79642857Y-57502438D01*
X79642857Y-57502438D02*
X79738095Y-57597676D01*
X79738095Y-57597676D02*
X79785714Y-57692914D01*
X79785714Y-57692914D02*
X79833333Y-57883390D01*
X79833333Y-57883390D02*
X79833333Y-58026247D01*
X79833333Y-58026247D02*
X79785714Y-58216723D01*
X79785714Y-58216723D02*
X79738095Y-58311961D01*
X79738095Y-58311961D02*
X79642857Y-58407200D01*
X79642857Y-58407200D02*
X79500000Y-58454819D01*
X79500000Y-58454819D02*
X79261905Y-58454819D01*
X80785714Y-58454819D02*
X80214286Y-58454819D01*
X80500000Y-58454819D02*
X80500000Y-57454819D01*
X80500000Y-57454819D02*
X80404762Y-57597676D01*
X80404762Y-57597676D02*
X80309524Y-57692914D01*
X80309524Y-57692914D02*
X80214286Y-57740533D01*
X88833333Y-57859580D02*
X88785714Y-57907200D01*
X88785714Y-57907200D02*
X88642857Y-57954819D01*
X88642857Y-57954819D02*
X88547619Y-57954819D01*
X88547619Y-57954819D02*
X88404762Y-57907200D01*
X88404762Y-57907200D02*
X88309524Y-57811961D01*
X88309524Y-57811961D02*
X88261905Y-57716723D01*
X88261905Y-57716723D02*
X88214286Y-57526247D01*
X88214286Y-57526247D02*
X88214286Y-57383390D01*
X88214286Y-57383390D02*
X88261905Y-57192914D01*
X88261905Y-57192914D02*
X88309524Y-57097676D01*
X88309524Y-57097676D02*
X88404762Y-57002438D01*
X88404762Y-57002438D02*
X88547619Y-56954819D01*
X88547619Y-56954819D02*
X88642857Y-56954819D01*
X88642857Y-56954819D02*
X88785714Y-57002438D01*
X88785714Y-57002438D02*
X88833333Y-57050057D01*
X89214286Y-57050057D02*
X89261905Y-57002438D01*
X89261905Y-57002438D02*
X89357143Y-56954819D01*
X89357143Y-56954819D02*
X89595238Y-56954819D01*
X89595238Y-56954819D02*
X89690476Y-57002438D01*
X89690476Y-57002438D02*
X89738095Y-57050057D01*
X89738095Y-57050057D02*
X89785714Y-57145295D01*
X89785714Y-57145295D02*
X89785714Y-57240533D01*
X89785714Y-57240533D02*
X89738095Y-57383390D01*
X89738095Y-57383390D02*
X89166667Y-57954819D01*
X89166667Y-57954819D02*
X89785714Y-57954819D01*
X107188095Y-47454819D02*
X107188095Y-48264342D01*
X107188095Y-48264342D02*
X107235714Y-48359580D01*
X107235714Y-48359580D02*
X107283333Y-48407200D01*
X107283333Y-48407200D02*
X107378571Y-48454819D01*
X107378571Y-48454819D02*
X107569047Y-48454819D01*
X107569047Y-48454819D02*
X107664285Y-48407200D01*
X107664285Y-48407200D02*
X107711904Y-48359580D01*
X107711904Y-48359580D02*
X107759523Y-48264342D01*
X107759523Y-48264342D02*
X107759523Y-47454819D01*
X108140476Y-47454819D02*
X108759523Y-47454819D01*
X108759523Y-47454819D02*
X108426190Y-47835771D01*
X108426190Y-47835771D02*
X108569047Y-47835771D01*
X108569047Y-47835771D02*
X108664285Y-47883390D01*
X108664285Y-47883390D02*
X108711904Y-47931009D01*
X108711904Y-47931009D02*
X108759523Y-48026247D01*
X108759523Y-48026247D02*
X108759523Y-48264342D01*
X108759523Y-48264342D02*
X108711904Y-48359580D01*
X108711904Y-48359580D02*
X108664285Y-48407200D01*
X108664285Y-48407200D02*
X108569047Y-48454819D01*
X108569047Y-48454819D02*
X108283333Y-48454819D01*
X108283333Y-48454819D02*
X108188095Y-48407200D01*
X108188095Y-48407200D02*
X108140476Y-48359580D01*
X117233333Y-49317319D02*
X116900000Y-48841128D01*
X116661905Y-49317319D02*
X116661905Y-48317319D01*
X116661905Y-48317319D02*
X117042857Y-48317319D01*
X117042857Y-48317319D02*
X117138095Y-48364938D01*
X117138095Y-48364938D02*
X117185714Y-48412557D01*
X117185714Y-48412557D02*
X117233333Y-48507795D01*
X117233333Y-48507795D02*
X117233333Y-48650652D01*
X117233333Y-48650652D02*
X117185714Y-48745890D01*
X117185714Y-48745890D02*
X117138095Y-48793509D01*
X117138095Y-48793509D02*
X117042857Y-48841128D01*
X117042857Y-48841128D02*
X116661905Y-48841128D01*
X118090476Y-48317319D02*
X117900000Y-48317319D01*
X117900000Y-48317319D02*
X117804762Y-48364938D01*
X117804762Y-48364938D02*
X117757143Y-48412557D01*
X117757143Y-48412557D02*
X117661905Y-48555414D01*
X117661905Y-48555414D02*
X117614286Y-48745890D01*
X117614286Y-48745890D02*
X117614286Y-49126842D01*
X117614286Y-49126842D02*
X117661905Y-49222080D01*
X117661905Y-49222080D02*
X117709524Y-49269700D01*
X117709524Y-49269700D02*
X117804762Y-49317319D01*
X117804762Y-49317319D02*
X117995238Y-49317319D01*
X117995238Y-49317319D02*
X118090476Y-49269700D01*
X118090476Y-49269700D02*
X118138095Y-49222080D01*
X118138095Y-49222080D02*
X118185714Y-49126842D01*
X118185714Y-49126842D02*
X118185714Y-48888747D01*
X118185714Y-48888747D02*
X118138095Y-48793509D01*
X118138095Y-48793509D02*
X118090476Y-48745890D01*
X118090476Y-48745890D02*
X117995238Y-48698271D01*
X117995238Y-48698271D02*
X117804762Y-48698271D01*
X117804762Y-48698271D02*
X117709524Y-48745890D01*
X117709524Y-48745890D02*
X117661905Y-48793509D01*
X117661905Y-48793509D02*
X117614286Y-48888747D01*
D10*
X71023810Y-75457419D02*
X71642857Y-75457419D01*
X71642857Y-75457419D02*
X71309524Y-75838371D01*
X71309524Y-75838371D02*
X71452381Y-75838371D01*
X71452381Y-75838371D02*
X71547619Y-75885990D01*
X71547619Y-75885990D02*
X71595238Y-75933609D01*
X71595238Y-75933609D02*
X71642857Y-76028847D01*
X71642857Y-76028847D02*
X71642857Y-76266942D01*
X71642857Y-76266942D02*
X71595238Y-76362180D01*
X71595238Y-76362180D02*
X71547619Y-76409800D01*
X71547619Y-76409800D02*
X71452381Y-76457419D01*
X71452381Y-76457419D02*
X71166667Y-76457419D01*
X71166667Y-76457419D02*
X71071429Y-76409800D01*
X71071429Y-76409800D02*
X71023810Y-76362180D01*
X72071429Y-76362180D02*
X72119048Y-76409800D01*
X72119048Y-76409800D02*
X72071429Y-76457419D01*
X72071429Y-76457419D02*
X72023810Y-76409800D01*
X72023810Y-76409800D02*
X72071429Y-76362180D01*
X72071429Y-76362180D02*
X72071429Y-76457419D01*
X72452381Y-75457419D02*
X73071428Y-75457419D01*
X73071428Y-75457419D02*
X72738095Y-75838371D01*
X72738095Y-75838371D02*
X72880952Y-75838371D01*
X72880952Y-75838371D02*
X72976190Y-75885990D01*
X72976190Y-75885990D02*
X73023809Y-75933609D01*
X73023809Y-75933609D02*
X73071428Y-76028847D01*
X73071428Y-76028847D02*
X73071428Y-76266942D01*
X73071428Y-76266942D02*
X73023809Y-76362180D01*
X73023809Y-76362180D02*
X72976190Y-76409800D01*
X72976190Y-76409800D02*
X72880952Y-76457419D01*
X72880952Y-76457419D02*
X72595238Y-76457419D01*
X72595238Y-76457419D02*
X72500000Y-76409800D01*
X72500000Y-76409800D02*
X72452381Y-76362180D01*
X73357143Y-75457419D02*
X73690476Y-76457419D01*
X73690476Y-76457419D02*
X74023809Y-75457419D01*
D11*
X88833333Y-52859580D02*
X88785714Y-52907200D01*
X88785714Y-52907200D02*
X88642857Y-52954819D01*
X88642857Y-52954819D02*
X88547619Y-52954819D01*
X88547619Y-52954819D02*
X88404762Y-52907200D01*
X88404762Y-52907200D02*
X88309524Y-52811961D01*
X88309524Y-52811961D02*
X88261905Y-52716723D01*
X88261905Y-52716723D02*
X88214286Y-52526247D01*
X88214286Y-52526247D02*
X88214286Y-52383390D01*
X88214286Y-52383390D02*
X88261905Y-52192914D01*
X88261905Y-52192914D02*
X88309524Y-52097676D01*
X88309524Y-52097676D02*
X88404762Y-52002438D01*
X88404762Y-52002438D02*
X88547619Y-51954819D01*
X88547619Y-51954819D02*
X88642857Y-51954819D01*
X88642857Y-51954819D02*
X88785714Y-52002438D01*
X88785714Y-52002438D02*
X88833333Y-52050057D01*
X89166667Y-51954819D02*
X89785714Y-51954819D01*
X89785714Y-51954819D02*
X89452381Y-52335771D01*
X89452381Y-52335771D02*
X89595238Y-52335771D01*
X89595238Y-52335771D02*
X89690476Y-52383390D01*
X89690476Y-52383390D02*
X89738095Y-52431009D01*
X89738095Y-52431009D02*
X89785714Y-52526247D01*
X89785714Y-52526247D02*
X89785714Y-52764342D01*
X89785714Y-52764342D02*
X89738095Y-52859580D01*
X89738095Y-52859580D02*
X89690476Y-52907200D01*
X89690476Y-52907200D02*
X89595238Y-52954819D01*
X89595238Y-52954819D02*
X89309524Y-52954819D01*
X89309524Y-52954819D02*
X89214286Y-52907200D01*
X89214286Y-52907200D02*
X89166667Y-52859580D01*
X117233333Y-52454819D02*
X116900000Y-51978628D01*
X116661905Y-52454819D02*
X116661905Y-51454819D01*
X116661905Y-51454819D02*
X117042857Y-51454819D01*
X117042857Y-51454819D02*
X117138095Y-51502438D01*
X117138095Y-51502438D02*
X117185714Y-51550057D01*
X117185714Y-51550057D02*
X117233333Y-51645295D01*
X117233333Y-51645295D02*
X117233333Y-51788152D01*
X117233333Y-51788152D02*
X117185714Y-51883390D01*
X117185714Y-51883390D02*
X117138095Y-51931009D01*
X117138095Y-51931009D02*
X117042857Y-51978628D01*
X117042857Y-51978628D02*
X116661905Y-51978628D01*
X117614286Y-51550057D02*
X117661905Y-51502438D01*
X117661905Y-51502438D02*
X117757143Y-51454819D01*
X117757143Y-51454819D02*
X117995238Y-51454819D01*
X117995238Y-51454819D02*
X118090476Y-51502438D01*
X118090476Y-51502438D02*
X118138095Y-51550057D01*
X118138095Y-51550057D02*
X118185714Y-51645295D01*
X118185714Y-51645295D02*
X118185714Y-51740533D01*
X118185714Y-51740533D02*
X118138095Y-51883390D01*
X118138095Y-51883390D02*
X117566667Y-52454819D01*
X117566667Y-52454819D02*
X118185714Y-52454819D01*
X71333333Y-67320166D02*
X71285714Y-67367786D01*
X71285714Y-67367786D02*
X71142857Y-67415405D01*
X71142857Y-67415405D02*
X71047619Y-67415405D01*
X71047619Y-67415405D02*
X70904762Y-67367786D01*
X70904762Y-67367786D02*
X70809524Y-67272547D01*
X70809524Y-67272547D02*
X70761905Y-67177309D01*
X70761905Y-67177309D02*
X70714286Y-66986833D01*
X70714286Y-66986833D02*
X70714286Y-66843976D01*
X70714286Y-66843976D02*
X70761905Y-66653500D01*
X70761905Y-66653500D02*
X70809524Y-66558262D01*
X70809524Y-66558262D02*
X70904762Y-66463024D01*
X70904762Y-66463024D02*
X71047619Y-66415405D01*
X71047619Y-66415405D02*
X71142857Y-66415405D01*
X71142857Y-66415405D02*
X71285714Y-66463024D01*
X71285714Y-66463024D02*
X71333333Y-66510643D01*
X71666667Y-66415405D02*
X72333333Y-66415405D01*
X72333333Y-66415405D02*
X71904762Y-67415405D01*
X116608333Y-81579819D02*
X116275000Y-81103628D01*
X116036905Y-81579819D02*
X116036905Y-80579819D01*
X116036905Y-80579819D02*
X116417857Y-80579819D01*
X116417857Y-80579819D02*
X116513095Y-80627438D01*
X116513095Y-80627438D02*
X116560714Y-80675057D01*
X116560714Y-80675057D02*
X116608333Y-80770295D01*
X116608333Y-80770295D02*
X116608333Y-80913152D01*
X116608333Y-80913152D02*
X116560714Y-81008390D01*
X116560714Y-81008390D02*
X116513095Y-81056009D01*
X116513095Y-81056009D02*
X116417857Y-81103628D01*
X116417857Y-81103628D02*
X116036905Y-81103628D01*
X117465476Y-80913152D02*
X117465476Y-81579819D01*
X117227381Y-80532200D02*
X116989286Y-81246485D01*
X116989286Y-81246485D02*
X117608333Y-81246485D01*
X108608333Y-80734580D02*
X108560714Y-80782200D01*
X108560714Y-80782200D02*
X108417857Y-80829819D01*
X108417857Y-80829819D02*
X108322619Y-80829819D01*
X108322619Y-80829819D02*
X108179762Y-80782200D01*
X108179762Y-80782200D02*
X108084524Y-80686961D01*
X108084524Y-80686961D02*
X108036905Y-80591723D01*
X108036905Y-80591723D02*
X107989286Y-80401247D01*
X107989286Y-80401247D02*
X107989286Y-80258390D01*
X107989286Y-80258390D02*
X108036905Y-80067914D01*
X108036905Y-80067914D02*
X108084524Y-79972676D01*
X108084524Y-79972676D02*
X108179762Y-79877438D01*
X108179762Y-79877438D02*
X108322619Y-79829819D01*
X108322619Y-79829819D02*
X108417857Y-79829819D01*
X108417857Y-79829819D02*
X108560714Y-79877438D01*
X108560714Y-79877438D02*
X108608333Y-79925057D01*
X109084524Y-80829819D02*
X109275000Y-80829819D01*
X109275000Y-80829819D02*
X109370238Y-80782200D01*
X109370238Y-80782200D02*
X109417857Y-80734580D01*
X109417857Y-80734580D02*
X109513095Y-80591723D01*
X109513095Y-80591723D02*
X109560714Y-80401247D01*
X109560714Y-80401247D02*
X109560714Y-80020295D01*
X109560714Y-80020295D02*
X109513095Y-79925057D01*
X109513095Y-79925057D02*
X109465476Y-79877438D01*
X109465476Y-79877438D02*
X109370238Y-79829819D01*
X109370238Y-79829819D02*
X109179762Y-79829819D01*
X109179762Y-79829819D02*
X109084524Y-79877438D01*
X109084524Y-79877438D02*
X109036905Y-79925057D01*
X109036905Y-79925057D02*
X108989286Y-80020295D01*
X108989286Y-80020295D02*
X108989286Y-80258390D01*
X108989286Y-80258390D02*
X109036905Y-80353628D01*
X109036905Y-80353628D02*
X109084524Y-80401247D01*
X109084524Y-80401247D02*
X109179762Y-80448866D01*
X109179762Y-80448866D02*
X109370238Y-80448866D01*
X109370238Y-80448866D02*
X109465476Y-80401247D01*
X109465476Y-80401247D02*
X109513095Y-80353628D01*
X109513095Y-80353628D02*
X109560714Y-80258390D01*
X114429761Y-68675057D02*
X114334523Y-68627438D01*
X114334523Y-68627438D02*
X114239285Y-68532200D01*
X114239285Y-68532200D02*
X114096428Y-68389342D01*
X114096428Y-68389342D02*
X114001190Y-68341723D01*
X114001190Y-68341723D02*
X113905952Y-68341723D01*
X113953571Y-68579819D02*
X113858333Y-68532200D01*
X113858333Y-68532200D02*
X113763095Y-68436961D01*
X113763095Y-68436961D02*
X113715476Y-68246485D01*
X113715476Y-68246485D02*
X113715476Y-67913152D01*
X113715476Y-67913152D02*
X113763095Y-67722676D01*
X113763095Y-67722676D02*
X113858333Y-67627438D01*
X113858333Y-67627438D02*
X113953571Y-67579819D01*
X113953571Y-67579819D02*
X114144047Y-67579819D01*
X114144047Y-67579819D02*
X114239285Y-67627438D01*
X114239285Y-67627438D02*
X114334523Y-67722676D01*
X114334523Y-67722676D02*
X114382142Y-67913152D01*
X114382142Y-67913152D02*
X114382142Y-68246485D01*
X114382142Y-68246485D02*
X114334523Y-68436961D01*
X114334523Y-68436961D02*
X114239285Y-68532200D01*
X114239285Y-68532200D02*
X114144047Y-68579819D01*
X114144047Y-68579819D02*
X113953571Y-68579819D01*
X115239285Y-67579819D02*
X115048809Y-67579819D01*
X115048809Y-67579819D02*
X114953571Y-67627438D01*
X114953571Y-67627438D02*
X114905952Y-67675057D01*
X114905952Y-67675057D02*
X114810714Y-67817914D01*
X114810714Y-67817914D02*
X114763095Y-68008390D01*
X114763095Y-68008390D02*
X114763095Y-68389342D01*
X114763095Y-68389342D02*
X114810714Y-68484580D01*
X114810714Y-68484580D02*
X114858333Y-68532200D01*
X114858333Y-68532200D02*
X114953571Y-68579819D01*
X114953571Y-68579819D02*
X115144047Y-68579819D01*
X115144047Y-68579819D02*
X115239285Y-68532200D01*
X115239285Y-68532200D02*
X115286904Y-68484580D01*
X115286904Y-68484580D02*
X115334523Y-68389342D01*
X115334523Y-68389342D02*
X115334523Y-68151247D01*
X115334523Y-68151247D02*
X115286904Y-68056009D01*
X115286904Y-68056009D02*
X115239285Y-68008390D01*
X115239285Y-68008390D02*
X115144047Y-67960771D01*
X115144047Y-67960771D02*
X114953571Y-67960771D01*
X114953571Y-67960771D02*
X114858333Y-68008390D01*
X114858333Y-68008390D02*
X114810714Y-68056009D01*
X114810714Y-68056009D02*
X114763095Y-68151247D01*
X84504761Y-58087557D02*
X84409523Y-58039938D01*
X84409523Y-58039938D02*
X84314285Y-57944700D01*
X84314285Y-57944700D02*
X84171428Y-57801842D01*
X84171428Y-57801842D02*
X84076190Y-57754223D01*
X84076190Y-57754223D02*
X83980952Y-57754223D01*
X84028571Y-57992319D02*
X83933333Y-57944700D01*
X83933333Y-57944700D02*
X83838095Y-57849461D01*
X83838095Y-57849461D02*
X83790476Y-57658985D01*
X83790476Y-57658985D02*
X83790476Y-57325652D01*
X83790476Y-57325652D02*
X83838095Y-57135176D01*
X83838095Y-57135176D02*
X83933333Y-57039938D01*
X83933333Y-57039938D02*
X84028571Y-56992319D01*
X84028571Y-56992319D02*
X84219047Y-56992319D01*
X84219047Y-56992319D02*
X84314285Y-57039938D01*
X84314285Y-57039938D02*
X84409523Y-57135176D01*
X84409523Y-57135176D02*
X84457142Y-57325652D01*
X84457142Y-57325652D02*
X84457142Y-57658985D01*
X84457142Y-57658985D02*
X84409523Y-57849461D01*
X84409523Y-57849461D02*
X84314285Y-57944700D01*
X84314285Y-57944700D02*
X84219047Y-57992319D01*
X84219047Y-57992319D02*
X84028571Y-57992319D01*
X84790476Y-56992319D02*
X85409523Y-56992319D01*
X85409523Y-56992319D02*
X85076190Y-57373271D01*
X85076190Y-57373271D02*
X85219047Y-57373271D01*
X85219047Y-57373271D02*
X85314285Y-57420890D01*
X85314285Y-57420890D02*
X85361904Y-57468509D01*
X85361904Y-57468509D02*
X85409523Y-57563747D01*
X85409523Y-57563747D02*
X85409523Y-57801842D01*
X85409523Y-57801842D02*
X85361904Y-57897080D01*
X85361904Y-57897080D02*
X85314285Y-57944700D01*
X85314285Y-57944700D02*
X85219047Y-57992319D01*
X85219047Y-57992319D02*
X84933333Y-57992319D01*
X84933333Y-57992319D02*
X84838095Y-57944700D01*
X84838095Y-57944700D02*
X84790476Y-57897080D01*
D10*
X91553884Y-90622419D02*
X91553884Y-89622419D01*
X91553884Y-89622419D02*
X91791979Y-89622419D01*
X91791979Y-89622419D02*
X91934836Y-89670038D01*
X91934836Y-89670038D02*
X92030074Y-89765276D01*
X92030074Y-89765276D02*
X92077693Y-89860514D01*
X92077693Y-89860514D02*
X92125312Y-90050990D01*
X92125312Y-90050990D02*
X92125312Y-90193847D01*
X92125312Y-90193847D02*
X92077693Y-90384323D01*
X92077693Y-90384323D02*
X92030074Y-90479561D01*
X92030074Y-90479561D02*
X91934836Y-90574800D01*
X91934836Y-90574800D02*
X91791979Y-90622419D01*
X91791979Y-90622419D02*
X91553884Y-90622419D01*
X92553884Y-90241466D02*
X93315789Y-90241466D01*
X92934836Y-90622419D02*
X92934836Y-89860514D01*
X78125312Y-90527180D02*
X78077693Y-90574800D01*
X78077693Y-90574800D02*
X77934836Y-90622419D01*
X77934836Y-90622419D02*
X77839598Y-90622419D01*
X77839598Y-90622419D02*
X77696741Y-90574800D01*
X77696741Y-90574800D02*
X77601503Y-90479561D01*
X77601503Y-90479561D02*
X77553884Y-90384323D01*
X77553884Y-90384323D02*
X77506265Y-90193847D01*
X77506265Y-90193847D02*
X77506265Y-90050990D01*
X77506265Y-90050990D02*
X77553884Y-89860514D01*
X77553884Y-89860514D02*
X77601503Y-89765276D01*
X77601503Y-89765276D02*
X77696741Y-89670038D01*
X77696741Y-89670038D02*
X77839598Y-89622419D01*
X77839598Y-89622419D02*
X77934836Y-89622419D01*
X77934836Y-89622419D02*
X78077693Y-89670038D01*
X78077693Y-89670038D02*
X78125312Y-89717657D01*
X79125312Y-90527180D02*
X79077693Y-90574800D01*
X79077693Y-90574800D02*
X78934836Y-90622419D01*
X78934836Y-90622419D02*
X78839598Y-90622419D01*
X78839598Y-90622419D02*
X78696741Y-90574800D01*
X78696741Y-90574800D02*
X78601503Y-90479561D01*
X78601503Y-90479561D02*
X78553884Y-90384323D01*
X78553884Y-90384323D02*
X78506265Y-90193847D01*
X78506265Y-90193847D02*
X78506265Y-90050990D01*
X78506265Y-90050990D02*
X78553884Y-89860514D01*
X78553884Y-89860514D02*
X78601503Y-89765276D01*
X78601503Y-89765276D02*
X78696741Y-89670038D01*
X78696741Y-89670038D02*
X78839598Y-89622419D01*
X78839598Y-89622419D02*
X78934836Y-89622419D01*
X78934836Y-89622419D02*
X79077693Y-89670038D01*
X79077693Y-89670038D02*
X79125312Y-89717657D01*
X80077693Y-90622419D02*
X79506265Y-90622419D01*
X79791979Y-90622419D02*
X79791979Y-89622419D01*
X79791979Y-89622419D02*
X79696741Y-89765276D01*
X79696741Y-89765276D02*
X79601503Y-89860514D01*
X79601503Y-89860514D02*
X79506265Y-89908133D01*
X100553884Y-90622419D02*
X100553884Y-89622419D01*
X100553884Y-89622419D02*
X100791979Y-89622419D01*
X100791979Y-89622419D02*
X100934836Y-89670038D01*
X100934836Y-89670038D02*
X101030074Y-89765276D01*
X101030074Y-89765276D02*
X101077693Y-89860514D01*
X101077693Y-89860514D02*
X101125312Y-90050990D01*
X101125312Y-90050990D02*
X101125312Y-90193847D01*
X101125312Y-90193847D02*
X101077693Y-90384323D01*
X101077693Y-90384323D02*
X101030074Y-90479561D01*
X101030074Y-90479561D02*
X100934836Y-90574800D01*
X100934836Y-90574800D02*
X100791979Y-90622419D01*
X100791979Y-90622419D02*
X100553884Y-90622419D01*
X101553884Y-90241466D02*
X102315789Y-90241466D01*
X101934836Y-90622419D02*
X101934836Y-89860514D01*
X96053884Y-90622419D02*
X96053884Y-89622419D01*
X96053884Y-89622419D02*
X96291979Y-89622419D01*
X96291979Y-89622419D02*
X96434836Y-89670038D01*
X96434836Y-89670038D02*
X96530074Y-89765276D01*
X96530074Y-89765276D02*
X96577693Y-89860514D01*
X96577693Y-89860514D02*
X96625312Y-90050990D01*
X96625312Y-90050990D02*
X96625312Y-90193847D01*
X96625312Y-90193847D02*
X96577693Y-90384323D01*
X96577693Y-90384323D02*
X96530074Y-90479561D01*
X96530074Y-90479561D02*
X96434836Y-90574800D01*
X96434836Y-90574800D02*
X96291979Y-90622419D01*
X96291979Y-90622419D02*
X96053884Y-90622419D01*
X97053884Y-90241466D02*
X97815789Y-90241466D01*
X69077693Y-89670038D02*
X68982455Y-89622419D01*
X68982455Y-89622419D02*
X68839598Y-89622419D01*
X68839598Y-89622419D02*
X68696741Y-89670038D01*
X68696741Y-89670038D02*
X68601503Y-89765276D01*
X68601503Y-89765276D02*
X68553884Y-89860514D01*
X68553884Y-89860514D02*
X68506265Y-90050990D01*
X68506265Y-90050990D02*
X68506265Y-90193847D01*
X68506265Y-90193847D02*
X68553884Y-90384323D01*
X68553884Y-90384323D02*
X68601503Y-90479561D01*
X68601503Y-90479561D02*
X68696741Y-90574800D01*
X68696741Y-90574800D02*
X68839598Y-90622419D01*
X68839598Y-90622419D02*
X68934836Y-90622419D01*
X68934836Y-90622419D02*
X69077693Y-90574800D01*
X69077693Y-90574800D02*
X69125312Y-90527180D01*
X69125312Y-90527180D02*
X69125312Y-90193847D01*
X69125312Y-90193847D02*
X68934836Y-90193847D01*
X69553884Y-90622419D02*
X69553884Y-89622419D01*
X69553884Y-89622419D02*
X70125312Y-90622419D01*
X70125312Y-90622419D02*
X70125312Y-89622419D01*
X70601503Y-90622419D02*
X70601503Y-89622419D01*
X70601503Y-89622419D02*
X70839598Y-89622419D01*
X70839598Y-89622419D02*
X70982455Y-89670038D01*
X70982455Y-89670038D02*
X71077693Y-89765276D01*
X71077693Y-89765276D02*
X71125312Y-89860514D01*
X71125312Y-89860514D02*
X71172931Y-90050990D01*
X71172931Y-90050990D02*
X71172931Y-90193847D01*
X71172931Y-90193847D02*
X71125312Y-90384323D01*
X71125312Y-90384323D02*
X71077693Y-90479561D01*
X71077693Y-90479561D02*
X70982455Y-90574800D01*
X70982455Y-90574800D02*
X70839598Y-90622419D01*
X70839598Y-90622419D02*
X70601503Y-90622419D01*
X105125312Y-90527180D02*
X105077693Y-90574800D01*
X105077693Y-90574800D02*
X104934836Y-90622419D01*
X104934836Y-90622419D02*
X104839598Y-90622419D01*
X104839598Y-90622419D02*
X104696741Y-90574800D01*
X104696741Y-90574800D02*
X104601503Y-90479561D01*
X104601503Y-90479561D02*
X104553884Y-90384323D01*
X104553884Y-90384323D02*
X104506265Y-90193847D01*
X104506265Y-90193847D02*
X104506265Y-90050990D01*
X104506265Y-90050990D02*
X104553884Y-89860514D01*
X104553884Y-89860514D02*
X104601503Y-89765276D01*
X104601503Y-89765276D02*
X104696741Y-89670038D01*
X104696741Y-89670038D02*
X104839598Y-89622419D01*
X104839598Y-89622419D02*
X104934836Y-89622419D01*
X104934836Y-89622419D02*
X105077693Y-89670038D01*
X105077693Y-89670038D02*
X105125312Y-89717657D01*
X106125312Y-90527180D02*
X106077693Y-90574800D01*
X106077693Y-90574800D02*
X105934836Y-90622419D01*
X105934836Y-90622419D02*
X105839598Y-90622419D01*
X105839598Y-90622419D02*
X105696741Y-90574800D01*
X105696741Y-90574800D02*
X105601503Y-90479561D01*
X105601503Y-90479561D02*
X105553884Y-90384323D01*
X105553884Y-90384323D02*
X105506265Y-90193847D01*
X105506265Y-90193847D02*
X105506265Y-90050990D01*
X105506265Y-90050990D02*
X105553884Y-89860514D01*
X105553884Y-89860514D02*
X105601503Y-89765276D01*
X105601503Y-89765276D02*
X105696741Y-89670038D01*
X105696741Y-89670038D02*
X105839598Y-89622419D01*
X105839598Y-89622419D02*
X105934836Y-89622419D01*
X105934836Y-89622419D02*
X106077693Y-89670038D01*
X106077693Y-89670038D02*
X106125312Y-89717657D01*
X106506265Y-89717657D02*
X106553884Y-89670038D01*
X106553884Y-89670038D02*
X106649122Y-89622419D01*
X106649122Y-89622419D02*
X106887217Y-89622419D01*
X106887217Y-89622419D02*
X106982455Y-89670038D01*
X106982455Y-89670038D02*
X107030074Y-89717657D01*
X107030074Y-89717657D02*
X107077693Y-89812895D01*
X107077693Y-89812895D02*
X107077693Y-89908133D01*
X107077693Y-89908133D02*
X107030074Y-90050990D01*
X107030074Y-90050990D02*
X106458646Y-90622419D01*
X106458646Y-90622419D02*
X107077693Y-90622419D01*
X72411027Y-89622419D02*
X72744360Y-90622419D01*
X72744360Y-90622419D02*
X73077693Y-89622419D01*
X73744360Y-90098609D02*
X73887217Y-90146228D01*
X73887217Y-90146228D02*
X73934836Y-90193847D01*
X73934836Y-90193847D02*
X73982455Y-90289085D01*
X73982455Y-90289085D02*
X73982455Y-90431942D01*
X73982455Y-90431942D02*
X73934836Y-90527180D01*
X73934836Y-90527180D02*
X73887217Y-90574800D01*
X73887217Y-90574800D02*
X73791979Y-90622419D01*
X73791979Y-90622419D02*
X73411027Y-90622419D01*
X73411027Y-90622419D02*
X73411027Y-89622419D01*
X73411027Y-89622419D02*
X73744360Y-89622419D01*
X73744360Y-89622419D02*
X73839598Y-89670038D01*
X73839598Y-89670038D02*
X73887217Y-89717657D01*
X73887217Y-89717657D02*
X73934836Y-89812895D01*
X73934836Y-89812895D02*
X73934836Y-89908133D01*
X73934836Y-89908133D02*
X73887217Y-90003371D01*
X73887217Y-90003371D02*
X73839598Y-90050990D01*
X73839598Y-90050990D02*
X73744360Y-90098609D01*
X73744360Y-90098609D02*
X73411027Y-90098609D01*
X74411027Y-89622419D02*
X74411027Y-90431942D01*
X74411027Y-90431942D02*
X74458646Y-90527180D01*
X74458646Y-90527180D02*
X74506265Y-90574800D01*
X74506265Y-90574800D02*
X74601503Y-90622419D01*
X74601503Y-90622419D02*
X74791979Y-90622419D01*
X74791979Y-90622419D02*
X74887217Y-90574800D01*
X74887217Y-90574800D02*
X74934836Y-90527180D01*
X74934836Y-90527180D02*
X74982455Y-90431942D01*
X74982455Y-90431942D02*
X74982455Y-89622419D01*
X75411027Y-90574800D02*
X75553884Y-90622419D01*
X75553884Y-90622419D02*
X75791979Y-90622419D01*
X75791979Y-90622419D02*
X75887217Y-90574800D01*
X75887217Y-90574800D02*
X75934836Y-90527180D01*
X75934836Y-90527180D02*
X75982455Y-90431942D01*
X75982455Y-90431942D02*
X75982455Y-90336704D01*
X75982455Y-90336704D02*
X75934836Y-90241466D01*
X75934836Y-90241466D02*
X75887217Y-90193847D01*
X75887217Y-90193847D02*
X75791979Y-90146228D01*
X75791979Y-90146228D02*
X75601503Y-90098609D01*
X75601503Y-90098609D02*
X75506265Y-90050990D01*
X75506265Y-90050990D02*
X75458646Y-90003371D01*
X75458646Y-90003371D02*
X75411027Y-89908133D01*
X75411027Y-89908133D02*
X75411027Y-89812895D01*
X75411027Y-89812895D02*
X75458646Y-89717657D01*
X75458646Y-89717657D02*
X75506265Y-89670038D01*
X75506265Y-89670038D02*
X75601503Y-89622419D01*
X75601503Y-89622419D02*
X75839598Y-89622419D01*
X75839598Y-89622419D02*
X75982455Y-89670038D01*
X112911027Y-89622419D02*
X113244360Y-90622419D01*
X113244360Y-90622419D02*
X113577693Y-89622419D01*
X114244360Y-90098609D02*
X114387217Y-90146228D01*
X114387217Y-90146228D02*
X114434836Y-90193847D01*
X114434836Y-90193847D02*
X114482455Y-90289085D01*
X114482455Y-90289085D02*
X114482455Y-90431942D01*
X114482455Y-90431942D02*
X114434836Y-90527180D01*
X114434836Y-90527180D02*
X114387217Y-90574800D01*
X114387217Y-90574800D02*
X114291979Y-90622419D01*
X114291979Y-90622419D02*
X113911027Y-90622419D01*
X113911027Y-90622419D02*
X113911027Y-89622419D01*
X113911027Y-89622419D02*
X114244360Y-89622419D01*
X114244360Y-89622419D02*
X114339598Y-89670038D01*
X114339598Y-89670038D02*
X114387217Y-89717657D01*
X114387217Y-89717657D02*
X114434836Y-89812895D01*
X114434836Y-89812895D02*
X114434836Y-89908133D01*
X114434836Y-89908133D02*
X114387217Y-90003371D01*
X114387217Y-90003371D02*
X114339598Y-90050990D01*
X114339598Y-90050990D02*
X114244360Y-90098609D01*
X114244360Y-90098609D02*
X113911027Y-90098609D01*
X114911027Y-89622419D02*
X114911027Y-90431942D01*
X114911027Y-90431942D02*
X114958646Y-90527180D01*
X114958646Y-90527180D02*
X115006265Y-90574800D01*
X115006265Y-90574800D02*
X115101503Y-90622419D01*
X115101503Y-90622419D02*
X115291979Y-90622419D01*
X115291979Y-90622419D02*
X115387217Y-90574800D01*
X115387217Y-90574800D02*
X115434836Y-90527180D01*
X115434836Y-90527180D02*
X115482455Y-90431942D01*
X115482455Y-90431942D02*
X115482455Y-89622419D01*
X115911027Y-90574800D02*
X116053884Y-90622419D01*
X116053884Y-90622419D02*
X116291979Y-90622419D01*
X116291979Y-90622419D02*
X116387217Y-90574800D01*
X116387217Y-90574800D02*
X116434836Y-90527180D01*
X116434836Y-90527180D02*
X116482455Y-90431942D01*
X116482455Y-90431942D02*
X116482455Y-90336704D01*
X116482455Y-90336704D02*
X116434836Y-90241466D01*
X116434836Y-90241466D02*
X116387217Y-90193847D01*
X116387217Y-90193847D02*
X116291979Y-90146228D01*
X116291979Y-90146228D02*
X116101503Y-90098609D01*
X116101503Y-90098609D02*
X116006265Y-90050990D01*
X116006265Y-90050990D02*
X115958646Y-90003371D01*
X115958646Y-90003371D02*
X115911027Y-89908133D01*
X115911027Y-89908133D02*
X115911027Y-89812895D01*
X115911027Y-89812895D02*
X115958646Y-89717657D01*
X115958646Y-89717657D02*
X116006265Y-89670038D01*
X116006265Y-89670038D02*
X116101503Y-89622419D01*
X116101503Y-89622419D02*
X116339598Y-89622419D01*
X116339598Y-89622419D02*
X116482455Y-89670038D01*
X87053884Y-90622419D02*
X87053884Y-89622419D01*
X87053884Y-89622419D02*
X87291979Y-89622419D01*
X87291979Y-89622419D02*
X87434836Y-89670038D01*
X87434836Y-89670038D02*
X87530074Y-89765276D01*
X87530074Y-89765276D02*
X87577693Y-89860514D01*
X87577693Y-89860514D02*
X87625312Y-90050990D01*
X87625312Y-90050990D02*
X87625312Y-90193847D01*
X87625312Y-90193847D02*
X87577693Y-90384323D01*
X87577693Y-90384323D02*
X87530074Y-90479561D01*
X87530074Y-90479561D02*
X87434836Y-90574800D01*
X87434836Y-90574800D02*
X87291979Y-90622419D01*
X87291979Y-90622419D02*
X87053884Y-90622419D01*
X88053884Y-90241466D02*
X88815789Y-90241466D01*
X118577693Y-89670038D02*
X118482455Y-89622419D01*
X118482455Y-89622419D02*
X118339598Y-89622419D01*
X118339598Y-89622419D02*
X118196741Y-89670038D01*
X118196741Y-89670038D02*
X118101503Y-89765276D01*
X118101503Y-89765276D02*
X118053884Y-89860514D01*
X118053884Y-89860514D02*
X118006265Y-90050990D01*
X118006265Y-90050990D02*
X118006265Y-90193847D01*
X118006265Y-90193847D02*
X118053884Y-90384323D01*
X118053884Y-90384323D02*
X118101503Y-90479561D01*
X118101503Y-90479561D02*
X118196741Y-90574800D01*
X118196741Y-90574800D02*
X118339598Y-90622419D01*
X118339598Y-90622419D02*
X118434836Y-90622419D01*
X118434836Y-90622419D02*
X118577693Y-90574800D01*
X118577693Y-90574800D02*
X118625312Y-90527180D01*
X118625312Y-90527180D02*
X118625312Y-90193847D01*
X118625312Y-90193847D02*
X118434836Y-90193847D01*
X119053884Y-90622419D02*
X119053884Y-89622419D01*
X119053884Y-89622419D02*
X119625312Y-90622419D01*
X119625312Y-90622419D02*
X119625312Y-89622419D01*
X120101503Y-90622419D02*
X120101503Y-89622419D01*
X120101503Y-89622419D02*
X120339598Y-89622419D01*
X120339598Y-89622419D02*
X120482455Y-89670038D01*
X120482455Y-89670038D02*
X120577693Y-89765276D01*
X120577693Y-89765276D02*
X120625312Y-89860514D01*
X120625312Y-89860514D02*
X120672931Y-90050990D01*
X120672931Y-90050990D02*
X120672931Y-90193847D01*
X120672931Y-90193847D02*
X120625312Y-90384323D01*
X120625312Y-90384323D02*
X120577693Y-90479561D01*
X120577693Y-90479561D02*
X120482455Y-90574800D01*
X120482455Y-90574800D02*
X120339598Y-90622419D01*
X120339598Y-90622419D02*
X120101503Y-90622419D01*
D11*
X73477746Y-66446819D02*
X73477746Y-67256342D01*
X73477746Y-67256342D02*
X73525365Y-67351580D01*
X73525365Y-67351580D02*
X73572984Y-67399200D01*
X73572984Y-67399200D02*
X73668222Y-67446819D01*
X73668222Y-67446819D02*
X73858698Y-67446819D01*
X73858698Y-67446819D02*
X73953936Y-67399200D01*
X73953936Y-67399200D02*
X74001555Y-67351580D01*
X74001555Y-67351580D02*
X74049174Y-67256342D01*
X74049174Y-67256342D02*
X74049174Y-66446819D01*
X75001555Y-66446819D02*
X74525365Y-66446819D01*
X74525365Y-66446819D02*
X74477746Y-66923009D01*
X74477746Y-66923009D02*
X74525365Y-66875390D01*
X74525365Y-66875390D02*
X74620603Y-66827771D01*
X74620603Y-66827771D02*
X74858698Y-66827771D01*
X74858698Y-66827771D02*
X74953936Y-66875390D01*
X74953936Y-66875390D02*
X75001555Y-66923009D01*
X75001555Y-66923009D02*
X75049174Y-67018247D01*
X75049174Y-67018247D02*
X75049174Y-67256342D01*
X75049174Y-67256342D02*
X75001555Y-67351580D01*
X75001555Y-67351580D02*
X74953936Y-67399200D01*
X74953936Y-67399200D02*
X74858698Y-67446819D01*
X74858698Y-67446819D02*
X74620603Y-67446819D01*
X74620603Y-67446819D02*
X74525365Y-67399200D01*
X74525365Y-67399200D02*
X74477746Y-67351580D01*
X116882142Y-71579819D02*
X116548809Y-71103628D01*
X116310714Y-71579819D02*
X116310714Y-70579819D01*
X116310714Y-70579819D02*
X116691666Y-70579819D01*
X116691666Y-70579819D02*
X116786904Y-70627438D01*
X116786904Y-70627438D02*
X116834523Y-70675057D01*
X116834523Y-70675057D02*
X116882142Y-70770295D01*
X116882142Y-70770295D02*
X116882142Y-70913152D01*
X116882142Y-70913152D02*
X116834523Y-71008390D01*
X116834523Y-71008390D02*
X116786904Y-71056009D01*
X116786904Y-71056009D02*
X116691666Y-71103628D01*
X116691666Y-71103628D02*
X116310714Y-71103628D01*
X117834523Y-71579819D02*
X117263095Y-71579819D01*
X117548809Y-71579819D02*
X117548809Y-70579819D01*
X117548809Y-70579819D02*
X117453571Y-70722676D01*
X117453571Y-70722676D02*
X117358333Y-70817914D01*
X117358333Y-70817914D02*
X117263095Y-70865533D01*
X118215476Y-70675057D02*
X118263095Y-70627438D01*
X118263095Y-70627438D02*
X118358333Y-70579819D01*
X118358333Y-70579819D02*
X118596428Y-70579819D01*
X118596428Y-70579819D02*
X118691666Y-70627438D01*
X118691666Y-70627438D02*
X118739285Y-70675057D01*
X118739285Y-70675057D02*
X118786904Y-70770295D01*
X118786904Y-70770295D02*
X118786904Y-70865533D01*
X118786904Y-70865533D02*
X118739285Y-71008390D01*
X118739285Y-71008390D02*
X118167857Y-71579819D01*
X118167857Y-71579819D02*
X118786904Y-71579819D01*
X73404761Y-48550057D02*
X73309523Y-48502438D01*
X73309523Y-48502438D02*
X73214285Y-48407200D01*
X73214285Y-48407200D02*
X73071428Y-48264342D01*
X73071428Y-48264342D02*
X72976190Y-48216723D01*
X72976190Y-48216723D02*
X72880952Y-48216723D01*
X72928571Y-48454819D02*
X72833333Y-48407200D01*
X72833333Y-48407200D02*
X72738095Y-48311961D01*
X72738095Y-48311961D02*
X72690476Y-48121485D01*
X72690476Y-48121485D02*
X72690476Y-47788152D01*
X72690476Y-47788152D02*
X72738095Y-47597676D01*
X72738095Y-47597676D02*
X72833333Y-47502438D01*
X72833333Y-47502438D02*
X72928571Y-47454819D01*
X72928571Y-47454819D02*
X73119047Y-47454819D01*
X73119047Y-47454819D02*
X73214285Y-47502438D01*
X73214285Y-47502438D02*
X73309523Y-47597676D01*
X73309523Y-47597676D02*
X73357142Y-47788152D01*
X73357142Y-47788152D02*
X73357142Y-48121485D01*
X73357142Y-48121485D02*
X73309523Y-48311961D01*
X73309523Y-48311961D02*
X73214285Y-48407200D01*
X73214285Y-48407200D02*
X73119047Y-48454819D01*
X73119047Y-48454819D02*
X72928571Y-48454819D01*
X73738095Y-47550057D02*
X73785714Y-47502438D01*
X73785714Y-47502438D02*
X73880952Y-47454819D01*
X73880952Y-47454819D02*
X74119047Y-47454819D01*
X74119047Y-47454819D02*
X74214285Y-47502438D01*
X74214285Y-47502438D02*
X74261904Y-47550057D01*
X74261904Y-47550057D02*
X74309523Y-47645295D01*
X74309523Y-47645295D02*
X74309523Y-47740533D01*
X74309523Y-47740533D02*
X74261904Y-47883390D01*
X74261904Y-47883390D02*
X73690476Y-48454819D01*
X73690476Y-48454819D02*
X74309523Y-48454819D01*
X104921169Y-54859580D02*
X104873550Y-54907200D01*
X104873550Y-54907200D02*
X104730693Y-54954819D01*
X104730693Y-54954819D02*
X104635455Y-54954819D01*
X104635455Y-54954819D02*
X104492598Y-54907200D01*
X104492598Y-54907200D02*
X104397360Y-54811961D01*
X104397360Y-54811961D02*
X104349741Y-54716723D01*
X104349741Y-54716723D02*
X104302122Y-54526247D01*
X104302122Y-54526247D02*
X104302122Y-54383390D01*
X104302122Y-54383390D02*
X104349741Y-54192914D01*
X104349741Y-54192914D02*
X104397360Y-54097676D01*
X104397360Y-54097676D02*
X104492598Y-54002438D01*
X104492598Y-54002438D02*
X104635455Y-53954819D01*
X104635455Y-53954819D02*
X104730693Y-53954819D01*
X104730693Y-53954819D02*
X104873550Y-54002438D01*
X104873550Y-54002438D02*
X104921169Y-54050057D01*
X105825931Y-53954819D02*
X105349741Y-53954819D01*
X105349741Y-53954819D02*
X105302122Y-54431009D01*
X105302122Y-54431009D02*
X105349741Y-54383390D01*
X105349741Y-54383390D02*
X105444979Y-54335771D01*
X105444979Y-54335771D02*
X105683074Y-54335771D01*
X105683074Y-54335771D02*
X105778312Y-54383390D01*
X105778312Y-54383390D02*
X105825931Y-54431009D01*
X105825931Y-54431009D02*
X105873550Y-54526247D01*
X105873550Y-54526247D02*
X105873550Y-54764342D01*
X105873550Y-54764342D02*
X105825931Y-54859580D01*
X105825931Y-54859580D02*
X105778312Y-54907200D01*
X105778312Y-54907200D02*
X105683074Y-54954819D01*
X105683074Y-54954819D02*
X105444979Y-54954819D01*
X105444979Y-54954819D02*
X105349741Y-54907200D01*
X105349741Y-54907200D02*
X105302122Y-54859580D01*
X116679761Y-75425057D02*
X116584523Y-75377438D01*
X116584523Y-75377438D02*
X116489285Y-75282200D01*
X116489285Y-75282200D02*
X116346428Y-75139342D01*
X116346428Y-75139342D02*
X116251190Y-75091723D01*
X116251190Y-75091723D02*
X116155952Y-75091723D01*
X116203571Y-75329819D02*
X116108333Y-75282200D01*
X116108333Y-75282200D02*
X116013095Y-75186961D01*
X116013095Y-75186961D02*
X115965476Y-74996485D01*
X115965476Y-74996485D02*
X115965476Y-74663152D01*
X115965476Y-74663152D02*
X116013095Y-74472676D01*
X116013095Y-74472676D02*
X116108333Y-74377438D01*
X116108333Y-74377438D02*
X116203571Y-74329819D01*
X116203571Y-74329819D02*
X116394047Y-74329819D01*
X116394047Y-74329819D02*
X116489285Y-74377438D01*
X116489285Y-74377438D02*
X116584523Y-74472676D01*
X116584523Y-74472676D02*
X116632142Y-74663152D01*
X116632142Y-74663152D02*
X116632142Y-74996485D01*
X116632142Y-74996485D02*
X116584523Y-75186961D01*
X116584523Y-75186961D02*
X116489285Y-75282200D01*
X116489285Y-75282200D02*
X116394047Y-75329819D01*
X116394047Y-75329819D02*
X116203571Y-75329819D01*
X117536904Y-74329819D02*
X117060714Y-74329819D01*
X117060714Y-74329819D02*
X117013095Y-74806009D01*
X117013095Y-74806009D02*
X117060714Y-74758390D01*
X117060714Y-74758390D02*
X117155952Y-74710771D01*
X117155952Y-74710771D02*
X117394047Y-74710771D01*
X117394047Y-74710771D02*
X117489285Y-74758390D01*
X117489285Y-74758390D02*
X117536904Y-74806009D01*
X117536904Y-74806009D02*
X117584523Y-74901247D01*
X117584523Y-74901247D02*
X117584523Y-75139342D01*
X117584523Y-75139342D02*
X117536904Y-75234580D01*
X117536904Y-75234580D02*
X117489285Y-75282200D01*
X117489285Y-75282200D02*
X117394047Y-75329819D01*
X117394047Y-75329819D02*
X117155952Y-75329819D01*
X117155952Y-75329819D02*
X117060714Y-75282200D01*
X117060714Y-75282200D02*
X117013095Y-75234580D01*
X77333333Y-67820166D02*
X77285714Y-67867786D01*
X77285714Y-67867786D02*
X77142857Y-67915405D01*
X77142857Y-67915405D02*
X77047619Y-67915405D01*
X77047619Y-67915405D02*
X76904762Y-67867786D01*
X76904762Y-67867786D02*
X76809524Y-67772547D01*
X76809524Y-67772547D02*
X76761905Y-67677309D01*
X76761905Y-67677309D02*
X76714286Y-67486833D01*
X76714286Y-67486833D02*
X76714286Y-67343976D01*
X76714286Y-67343976D02*
X76761905Y-67153500D01*
X76761905Y-67153500D02*
X76809524Y-67058262D01*
X76809524Y-67058262D02*
X76904762Y-66963024D01*
X76904762Y-66963024D02*
X77047619Y-66915405D01*
X77047619Y-66915405D02*
X77142857Y-66915405D01*
X77142857Y-66915405D02*
X77285714Y-66963024D01*
X77285714Y-66963024D02*
X77333333Y-67010643D01*
X77904762Y-67343976D02*
X77809524Y-67296357D01*
X77809524Y-67296357D02*
X77761905Y-67248738D01*
X77761905Y-67248738D02*
X77714286Y-67153500D01*
X77714286Y-67153500D02*
X77714286Y-67105881D01*
X77714286Y-67105881D02*
X77761905Y-67010643D01*
X77761905Y-67010643D02*
X77809524Y-66963024D01*
X77809524Y-66963024D02*
X77904762Y-66915405D01*
X77904762Y-66915405D02*
X78095238Y-66915405D01*
X78095238Y-66915405D02*
X78190476Y-66963024D01*
X78190476Y-66963024D02*
X78238095Y-67010643D01*
X78238095Y-67010643D02*
X78285714Y-67105881D01*
X78285714Y-67105881D02*
X78285714Y-67153500D01*
X78285714Y-67153500D02*
X78238095Y-67248738D01*
X78238095Y-67248738D02*
X78190476Y-67296357D01*
X78190476Y-67296357D02*
X78095238Y-67343976D01*
X78095238Y-67343976D02*
X77904762Y-67343976D01*
X77904762Y-67343976D02*
X77809524Y-67391595D01*
X77809524Y-67391595D02*
X77761905Y-67439214D01*
X77761905Y-67439214D02*
X77714286Y-67534452D01*
X77714286Y-67534452D02*
X77714286Y-67724928D01*
X77714286Y-67724928D02*
X77761905Y-67820166D01*
X77761905Y-67820166D02*
X77809524Y-67867786D01*
X77809524Y-67867786D02*
X77904762Y-67915405D01*
X77904762Y-67915405D02*
X78095238Y-67915405D01*
X78095238Y-67915405D02*
X78190476Y-67867786D01*
X78190476Y-67867786D02*
X78238095Y-67820166D01*
X78238095Y-67820166D02*
X78285714Y-67724928D01*
X78285714Y-67724928D02*
X78285714Y-67534452D01*
X78285714Y-67534452D02*
X78238095Y-67439214D01*
X78238095Y-67439214D02*
X78190476Y-67391595D01*
X78190476Y-67391595D02*
X78095238Y-67343976D01*
D10*
X86661027Y-43122419D02*
X86994360Y-44122419D01*
X86994360Y-44122419D02*
X87327693Y-43122419D01*
X87994360Y-43598609D02*
X88137217Y-43646228D01*
X88137217Y-43646228D02*
X88184836Y-43693847D01*
X88184836Y-43693847D02*
X88232455Y-43789085D01*
X88232455Y-43789085D02*
X88232455Y-43931942D01*
X88232455Y-43931942D02*
X88184836Y-44027180D01*
X88184836Y-44027180D02*
X88137217Y-44074800D01*
X88137217Y-44074800D02*
X88041979Y-44122419D01*
X88041979Y-44122419D02*
X87661027Y-44122419D01*
X87661027Y-44122419D02*
X87661027Y-43122419D01*
X87661027Y-43122419D02*
X87994360Y-43122419D01*
X87994360Y-43122419D02*
X88089598Y-43170038D01*
X88089598Y-43170038D02*
X88137217Y-43217657D01*
X88137217Y-43217657D02*
X88184836Y-43312895D01*
X88184836Y-43312895D02*
X88184836Y-43408133D01*
X88184836Y-43408133D02*
X88137217Y-43503371D01*
X88137217Y-43503371D02*
X88089598Y-43550990D01*
X88089598Y-43550990D02*
X87994360Y-43598609D01*
X87994360Y-43598609D02*
X87661027Y-43598609D01*
X88661027Y-43122419D02*
X88661027Y-43931942D01*
X88661027Y-43931942D02*
X88708646Y-44027180D01*
X88708646Y-44027180D02*
X88756265Y-44074800D01*
X88756265Y-44074800D02*
X88851503Y-44122419D01*
X88851503Y-44122419D02*
X89041979Y-44122419D01*
X89041979Y-44122419D02*
X89137217Y-44074800D01*
X89137217Y-44074800D02*
X89184836Y-44027180D01*
X89184836Y-44027180D02*
X89232455Y-43931942D01*
X89232455Y-43931942D02*
X89232455Y-43122419D01*
X89661027Y-44074800D02*
X89803884Y-44122419D01*
X89803884Y-44122419D02*
X90041979Y-44122419D01*
X90041979Y-44122419D02*
X90137217Y-44074800D01*
X90137217Y-44074800D02*
X90184836Y-44027180D01*
X90184836Y-44027180D02*
X90232455Y-43931942D01*
X90232455Y-43931942D02*
X90232455Y-43836704D01*
X90232455Y-43836704D02*
X90184836Y-43741466D01*
X90184836Y-43741466D02*
X90137217Y-43693847D01*
X90137217Y-43693847D02*
X90041979Y-43646228D01*
X90041979Y-43646228D02*
X89851503Y-43598609D01*
X89851503Y-43598609D02*
X89756265Y-43550990D01*
X89756265Y-43550990D02*
X89708646Y-43503371D01*
X89708646Y-43503371D02*
X89661027Y-43408133D01*
X89661027Y-43408133D02*
X89661027Y-43312895D01*
X89661027Y-43312895D02*
X89708646Y-43217657D01*
X89708646Y-43217657D02*
X89756265Y-43170038D01*
X89756265Y-43170038D02*
X89851503Y-43122419D01*
X89851503Y-43122419D02*
X90089598Y-43122419D01*
X90089598Y-43122419D02*
X90232455Y-43170038D01*
X78803884Y-44122419D02*
X78803884Y-43122419D01*
X78803884Y-43122419D02*
X79041979Y-43122419D01*
X79041979Y-43122419D02*
X79184836Y-43170038D01*
X79184836Y-43170038D02*
X79280074Y-43265276D01*
X79280074Y-43265276D02*
X79327693Y-43360514D01*
X79327693Y-43360514D02*
X79375312Y-43550990D01*
X79375312Y-43550990D02*
X79375312Y-43693847D01*
X79375312Y-43693847D02*
X79327693Y-43884323D01*
X79327693Y-43884323D02*
X79280074Y-43979561D01*
X79280074Y-43979561D02*
X79184836Y-44074800D01*
X79184836Y-44074800D02*
X79041979Y-44122419D01*
X79041979Y-44122419D02*
X78803884Y-44122419D01*
X79803884Y-43741466D02*
X80565789Y-43741466D01*
X80184836Y-44122419D02*
X80184836Y-43360514D01*
X100303884Y-43122419D02*
X100303884Y-43931942D01*
X100303884Y-43931942D02*
X100351503Y-44027180D01*
X100351503Y-44027180D02*
X100399122Y-44074800D01*
X100399122Y-44074800D02*
X100494360Y-44122419D01*
X100494360Y-44122419D02*
X100684836Y-44122419D01*
X100684836Y-44122419D02*
X100780074Y-44074800D01*
X100780074Y-44074800D02*
X100827693Y-44027180D01*
X100827693Y-44027180D02*
X100875312Y-43931942D01*
X100875312Y-43931942D02*
X100875312Y-43122419D01*
X101303884Y-43836704D02*
X101780074Y-43836704D01*
X101208646Y-44122419D02*
X101541979Y-43122419D01*
X101541979Y-43122419D02*
X101875312Y-44122419D01*
X102780074Y-44122419D02*
X102446741Y-43646228D01*
X102208646Y-44122419D02*
X102208646Y-43122419D01*
X102208646Y-43122419D02*
X102589598Y-43122419D01*
X102589598Y-43122419D02*
X102684836Y-43170038D01*
X102684836Y-43170038D02*
X102732455Y-43217657D01*
X102732455Y-43217657D02*
X102780074Y-43312895D01*
X102780074Y-43312895D02*
X102780074Y-43455752D01*
X102780074Y-43455752D02*
X102732455Y-43550990D01*
X102732455Y-43550990D02*
X102684836Y-43598609D01*
X102684836Y-43598609D02*
X102589598Y-43646228D01*
X102589598Y-43646228D02*
X102208646Y-43646228D01*
X103065789Y-43122419D02*
X103637217Y-43122419D01*
X103351503Y-44122419D02*
X103351503Y-43122419D01*
X83303884Y-44122419D02*
X83303884Y-43122419D01*
X83303884Y-43122419D02*
X83541979Y-43122419D01*
X83541979Y-43122419D02*
X83684836Y-43170038D01*
X83684836Y-43170038D02*
X83780074Y-43265276D01*
X83780074Y-43265276D02*
X83827693Y-43360514D01*
X83827693Y-43360514D02*
X83875312Y-43550990D01*
X83875312Y-43550990D02*
X83875312Y-43693847D01*
X83875312Y-43693847D02*
X83827693Y-43884323D01*
X83827693Y-43884323D02*
X83780074Y-43979561D01*
X83780074Y-43979561D02*
X83684836Y-44074800D01*
X83684836Y-44074800D02*
X83541979Y-44122419D01*
X83541979Y-44122419D02*
X83303884Y-44122419D01*
X84303884Y-43741466D02*
X85065789Y-43741466D01*
X95803884Y-43122419D02*
X95803884Y-43931942D01*
X95803884Y-43931942D02*
X95851503Y-44027180D01*
X95851503Y-44027180D02*
X95899122Y-44074800D01*
X95899122Y-44074800D02*
X95994360Y-44122419D01*
X95994360Y-44122419D02*
X96184836Y-44122419D01*
X96184836Y-44122419D02*
X96280074Y-44074800D01*
X96280074Y-44074800D02*
X96327693Y-44027180D01*
X96327693Y-44027180D02*
X96375312Y-43931942D01*
X96375312Y-43931942D02*
X96375312Y-43122419D01*
X96803884Y-43836704D02*
X97280074Y-43836704D01*
X96708646Y-44122419D02*
X97041979Y-43122419D01*
X97041979Y-43122419D02*
X97375312Y-44122419D01*
X98280074Y-44122419D02*
X97946741Y-43646228D01*
X97708646Y-44122419D02*
X97708646Y-43122419D01*
X97708646Y-43122419D02*
X98089598Y-43122419D01*
X98089598Y-43122419D02*
X98184836Y-43170038D01*
X98184836Y-43170038D02*
X98232455Y-43217657D01*
X98232455Y-43217657D02*
X98280074Y-43312895D01*
X98280074Y-43312895D02*
X98280074Y-43455752D01*
X98280074Y-43455752D02*
X98232455Y-43550990D01*
X98232455Y-43550990D02*
X98184836Y-43598609D01*
X98184836Y-43598609D02*
X98089598Y-43646228D01*
X98089598Y-43646228D02*
X97708646Y-43646228D01*
X98565789Y-43122419D02*
X99137217Y-43122419D01*
X98851503Y-44122419D02*
X98851503Y-43122419D01*
X72803884Y-44122419D02*
X72803884Y-43122419D01*
X73280074Y-44122419D02*
X73280074Y-43122419D01*
X73280074Y-43122419D02*
X73518169Y-43122419D01*
X73518169Y-43122419D02*
X73661026Y-43170038D01*
X73661026Y-43170038D02*
X73756264Y-43265276D01*
X73756264Y-43265276D02*
X73803883Y-43360514D01*
X73803883Y-43360514D02*
X73851502Y-43550990D01*
X73851502Y-43550990D02*
X73851502Y-43693847D01*
X73851502Y-43693847D02*
X73803883Y-43884323D01*
X73803883Y-43884323D02*
X73756264Y-43979561D01*
X73756264Y-43979561D02*
X73661026Y-44074800D01*
X73661026Y-44074800D02*
X73518169Y-44122419D01*
X73518169Y-44122419D02*
X73280074Y-44122419D01*
X74613407Y-43598609D02*
X74756264Y-43646228D01*
X74756264Y-43646228D02*
X74803883Y-43693847D01*
X74803883Y-43693847D02*
X74851502Y-43789085D01*
X74851502Y-43789085D02*
X74851502Y-43931942D01*
X74851502Y-43931942D02*
X74803883Y-44027180D01*
X74803883Y-44027180D02*
X74756264Y-44074800D01*
X74756264Y-44074800D02*
X74661026Y-44122419D01*
X74661026Y-44122419D02*
X74280074Y-44122419D01*
X74280074Y-44122419D02*
X74280074Y-43122419D01*
X74280074Y-43122419D02*
X74613407Y-43122419D01*
X74613407Y-43122419D02*
X74708645Y-43170038D01*
X74708645Y-43170038D02*
X74756264Y-43217657D01*
X74756264Y-43217657D02*
X74803883Y-43312895D01*
X74803883Y-43312895D02*
X74803883Y-43408133D01*
X74803883Y-43408133D02*
X74756264Y-43503371D01*
X74756264Y-43503371D02*
X74708645Y-43550990D01*
X74708645Y-43550990D02*
X74613407Y-43598609D01*
X74613407Y-43598609D02*
X74280074Y-43598609D01*
X75280074Y-43122419D02*
X75280074Y-43931942D01*
X75280074Y-43931942D02*
X75327693Y-44027180D01*
X75327693Y-44027180D02*
X75375312Y-44074800D01*
X75375312Y-44074800D02*
X75470550Y-44122419D01*
X75470550Y-44122419D02*
X75661026Y-44122419D01*
X75661026Y-44122419D02*
X75756264Y-44074800D01*
X75756264Y-44074800D02*
X75803883Y-44027180D01*
X75803883Y-44027180D02*
X75851502Y-43931942D01*
X75851502Y-43931942D02*
X75851502Y-43122419D01*
X76280074Y-44074800D02*
X76422931Y-44122419D01*
X76422931Y-44122419D02*
X76661026Y-44122419D01*
X76661026Y-44122419D02*
X76756264Y-44074800D01*
X76756264Y-44074800D02*
X76803883Y-44027180D01*
X76803883Y-44027180D02*
X76851502Y-43931942D01*
X76851502Y-43931942D02*
X76851502Y-43836704D01*
X76851502Y-43836704D02*
X76803883Y-43741466D01*
X76803883Y-43741466D02*
X76756264Y-43693847D01*
X76756264Y-43693847D02*
X76661026Y-43646228D01*
X76661026Y-43646228D02*
X76470550Y-43598609D01*
X76470550Y-43598609D02*
X76375312Y-43550990D01*
X76375312Y-43550990D02*
X76327693Y-43503371D01*
X76327693Y-43503371D02*
X76280074Y-43408133D01*
X76280074Y-43408133D02*
X76280074Y-43312895D01*
X76280074Y-43312895D02*
X76327693Y-43217657D01*
X76327693Y-43217657D02*
X76375312Y-43170038D01*
X76375312Y-43170038D02*
X76470550Y-43122419D01*
X76470550Y-43122419D02*
X76708645Y-43122419D01*
X76708645Y-43122419D02*
X76851502Y-43170038D01*
X105827693Y-43170038D02*
X105732455Y-43122419D01*
X105732455Y-43122419D02*
X105589598Y-43122419D01*
X105589598Y-43122419D02*
X105446741Y-43170038D01*
X105446741Y-43170038D02*
X105351503Y-43265276D01*
X105351503Y-43265276D02*
X105303884Y-43360514D01*
X105303884Y-43360514D02*
X105256265Y-43550990D01*
X105256265Y-43550990D02*
X105256265Y-43693847D01*
X105256265Y-43693847D02*
X105303884Y-43884323D01*
X105303884Y-43884323D02*
X105351503Y-43979561D01*
X105351503Y-43979561D02*
X105446741Y-44074800D01*
X105446741Y-44074800D02*
X105589598Y-44122419D01*
X105589598Y-44122419D02*
X105684836Y-44122419D01*
X105684836Y-44122419D02*
X105827693Y-44074800D01*
X105827693Y-44074800D02*
X105875312Y-44027180D01*
X105875312Y-44027180D02*
X105875312Y-43693847D01*
X105875312Y-43693847D02*
X105684836Y-43693847D01*
X106303884Y-44122419D02*
X106303884Y-43122419D01*
X106303884Y-43122419D02*
X106875312Y-44122419D01*
X106875312Y-44122419D02*
X106875312Y-43122419D01*
X107351503Y-44122419D02*
X107351503Y-43122419D01*
X107351503Y-43122419D02*
X107589598Y-43122419D01*
X107589598Y-43122419D02*
X107732455Y-43170038D01*
X107732455Y-43170038D02*
X107827693Y-43265276D01*
X107827693Y-43265276D02*
X107875312Y-43360514D01*
X107875312Y-43360514D02*
X107922931Y-43550990D01*
X107922931Y-43550990D02*
X107922931Y-43693847D01*
X107922931Y-43693847D02*
X107875312Y-43884323D01*
X107875312Y-43884323D02*
X107827693Y-43979561D01*
X107827693Y-43979561D02*
X107732455Y-44074800D01*
X107732455Y-44074800D02*
X107589598Y-44122419D01*
X107589598Y-44122419D02*
X107351503Y-44122419D01*
X91708646Y-43122419D02*
X92327693Y-43122419D01*
X92327693Y-43122419D02*
X91994360Y-43503371D01*
X91994360Y-43503371D02*
X92137217Y-43503371D01*
X92137217Y-43503371D02*
X92232455Y-43550990D01*
X92232455Y-43550990D02*
X92280074Y-43598609D01*
X92280074Y-43598609D02*
X92327693Y-43693847D01*
X92327693Y-43693847D02*
X92327693Y-43931942D01*
X92327693Y-43931942D02*
X92280074Y-44027180D01*
X92280074Y-44027180D02*
X92232455Y-44074800D01*
X92232455Y-44074800D02*
X92137217Y-44122419D01*
X92137217Y-44122419D02*
X91851503Y-44122419D01*
X91851503Y-44122419D02*
X91756265Y-44074800D01*
X91756265Y-44074800D02*
X91708646Y-44027180D01*
X92613408Y-43122419D02*
X92946741Y-44122419D01*
X92946741Y-44122419D02*
X93280074Y-43122419D01*
X93518170Y-43122419D02*
X94184836Y-43122419D01*
X94184836Y-43122419D02*
X93756265Y-44122419D01*
D11*
X113513095Y-81829819D02*
X113513095Y-82639342D01*
X113513095Y-82639342D02*
X113560714Y-82734580D01*
X113560714Y-82734580D02*
X113608333Y-82782200D01*
X113608333Y-82782200D02*
X113703571Y-82829819D01*
X113703571Y-82829819D02*
X113894047Y-82829819D01*
X113894047Y-82829819D02*
X113989285Y-82782200D01*
X113989285Y-82782200D02*
X114036904Y-82734580D01*
X114036904Y-82734580D02*
X114084523Y-82639342D01*
X114084523Y-82639342D02*
X114084523Y-81829819D01*
X114989285Y-82163152D02*
X114989285Y-82829819D01*
X114751190Y-81782200D02*
X114513095Y-82496485D01*
X114513095Y-82496485D02*
X115132142Y-82496485D01*
X102273333Y-54954819D02*
X101940000Y-54478628D01*
X101701905Y-54954819D02*
X101701905Y-53954819D01*
X101701905Y-53954819D02*
X102082857Y-53954819D01*
X102082857Y-53954819D02*
X102178095Y-54002438D01*
X102178095Y-54002438D02*
X102225714Y-54050057D01*
X102225714Y-54050057D02*
X102273333Y-54145295D01*
X102273333Y-54145295D02*
X102273333Y-54288152D01*
X102273333Y-54288152D02*
X102225714Y-54383390D01*
X102225714Y-54383390D02*
X102178095Y-54431009D01*
X102178095Y-54431009D02*
X102082857Y-54478628D01*
X102082857Y-54478628D02*
X101701905Y-54478628D01*
X102844762Y-54383390D02*
X102749524Y-54335771D01*
X102749524Y-54335771D02*
X102701905Y-54288152D01*
X102701905Y-54288152D02*
X102654286Y-54192914D01*
X102654286Y-54192914D02*
X102654286Y-54145295D01*
X102654286Y-54145295D02*
X102701905Y-54050057D01*
X102701905Y-54050057D02*
X102749524Y-54002438D01*
X102749524Y-54002438D02*
X102844762Y-53954819D01*
X102844762Y-53954819D02*
X103035238Y-53954819D01*
X103035238Y-53954819D02*
X103130476Y-54002438D01*
X103130476Y-54002438D02*
X103178095Y-54050057D01*
X103178095Y-54050057D02*
X103225714Y-54145295D01*
X103225714Y-54145295D02*
X103225714Y-54192914D01*
X103225714Y-54192914D02*
X103178095Y-54288152D01*
X103178095Y-54288152D02*
X103130476Y-54335771D01*
X103130476Y-54335771D02*
X103035238Y-54383390D01*
X103035238Y-54383390D02*
X102844762Y-54383390D01*
X102844762Y-54383390D02*
X102749524Y-54431009D01*
X102749524Y-54431009D02*
X102701905Y-54478628D01*
X102701905Y-54478628D02*
X102654286Y-54573866D01*
X102654286Y-54573866D02*
X102654286Y-54764342D01*
X102654286Y-54764342D02*
X102701905Y-54859580D01*
X102701905Y-54859580D02*
X102749524Y-54907200D01*
X102749524Y-54907200D02*
X102844762Y-54954819D01*
X102844762Y-54954819D02*
X103035238Y-54954819D01*
X103035238Y-54954819D02*
X103130476Y-54907200D01*
X103130476Y-54907200D02*
X103178095Y-54859580D01*
X103178095Y-54859580D02*
X103225714Y-54764342D01*
X103225714Y-54764342D02*
X103225714Y-54573866D01*
X103225714Y-54573866D02*
X103178095Y-54478628D01*
X103178095Y-54478628D02*
X103130476Y-54431009D01*
X103130476Y-54431009D02*
X103035238Y-54383390D01*
X108882142Y-73329819D02*
X108548809Y-72853628D01*
X108310714Y-73329819D02*
X108310714Y-72329819D01*
X108310714Y-72329819D02*
X108691666Y-72329819D01*
X108691666Y-72329819D02*
X108786904Y-72377438D01*
X108786904Y-72377438D02*
X108834523Y-72425057D01*
X108834523Y-72425057D02*
X108882142Y-72520295D01*
X108882142Y-72520295D02*
X108882142Y-72663152D01*
X108882142Y-72663152D02*
X108834523Y-72758390D01*
X108834523Y-72758390D02*
X108786904Y-72806009D01*
X108786904Y-72806009D02*
X108691666Y-72853628D01*
X108691666Y-72853628D02*
X108310714Y-72853628D01*
X109834523Y-73329819D02*
X109263095Y-73329819D01*
X109548809Y-73329819D02*
X109548809Y-72329819D01*
X109548809Y-72329819D02*
X109453571Y-72472676D01*
X109453571Y-72472676D02*
X109358333Y-72567914D01*
X109358333Y-72567914D02*
X109263095Y-72615533D01*
X110453571Y-72329819D02*
X110548809Y-72329819D01*
X110548809Y-72329819D02*
X110644047Y-72377438D01*
X110644047Y-72377438D02*
X110691666Y-72425057D01*
X110691666Y-72425057D02*
X110739285Y-72520295D01*
X110739285Y-72520295D02*
X110786904Y-72710771D01*
X110786904Y-72710771D02*
X110786904Y-72948866D01*
X110786904Y-72948866D02*
X110739285Y-73139342D01*
X110739285Y-73139342D02*
X110691666Y-73234580D01*
X110691666Y-73234580D02*
X110644047Y-73282200D01*
X110644047Y-73282200D02*
X110548809Y-73329819D01*
X110548809Y-73329819D02*
X110453571Y-73329819D01*
X110453571Y-73329819D02*
X110358333Y-73282200D01*
X110358333Y-73282200D02*
X110310714Y-73234580D01*
X110310714Y-73234580D02*
X110263095Y-73139342D01*
X110263095Y-73139342D02*
X110215476Y-72948866D01*
X110215476Y-72948866D02*
X110215476Y-72710771D01*
X110215476Y-72710771D02*
X110263095Y-72520295D01*
X110263095Y-72520295D02*
X110310714Y-72425057D01*
X110310714Y-72425057D02*
X110358333Y-72377438D01*
X110358333Y-72377438D02*
X110453571Y-72329819D01*
X82238095Y-47954819D02*
X82238095Y-48764342D01*
X82238095Y-48764342D02*
X82285714Y-48859580D01*
X82285714Y-48859580D02*
X82333333Y-48907200D01*
X82333333Y-48907200D02*
X82428571Y-48954819D01*
X82428571Y-48954819D02*
X82619047Y-48954819D01*
X82619047Y-48954819D02*
X82714285Y-48907200D01*
X82714285Y-48907200D02*
X82761904Y-48859580D01*
X82761904Y-48859580D02*
X82809523Y-48764342D01*
X82809523Y-48764342D02*
X82809523Y-47954819D01*
X83809523Y-48954819D02*
X83238095Y-48954819D01*
X83523809Y-48954819D02*
X83523809Y-47954819D01*
X83523809Y-47954819D02*
X83428571Y-48097676D01*
X83428571Y-48097676D02*
X83333333Y-48192914D01*
X83333333Y-48192914D02*
X83238095Y-48240533D01*
X114283333Y-57859580D02*
X114235714Y-57907200D01*
X114235714Y-57907200D02*
X114092857Y-57954819D01*
X114092857Y-57954819D02*
X113997619Y-57954819D01*
X113997619Y-57954819D02*
X113854762Y-57907200D01*
X113854762Y-57907200D02*
X113759524Y-57811961D01*
X113759524Y-57811961D02*
X113711905Y-57716723D01*
X113711905Y-57716723D02*
X113664286Y-57526247D01*
X113664286Y-57526247D02*
X113664286Y-57383390D01*
X113664286Y-57383390D02*
X113711905Y-57192914D01*
X113711905Y-57192914D02*
X113759524Y-57097676D01*
X113759524Y-57097676D02*
X113854762Y-57002438D01*
X113854762Y-57002438D02*
X113997619Y-56954819D01*
X113997619Y-56954819D02*
X114092857Y-56954819D01*
X114092857Y-56954819D02*
X114235714Y-57002438D01*
X114235714Y-57002438D02*
X114283333Y-57050057D01*
X115140476Y-57288152D02*
X115140476Y-57954819D01*
X114902381Y-56907200D02*
X114664286Y-57621485D01*
X114664286Y-57621485D02*
X115283333Y-57621485D01*
X107929761Y-75425057D02*
X107834523Y-75377438D01*
X107834523Y-75377438D02*
X107739285Y-75282200D01*
X107739285Y-75282200D02*
X107596428Y-75139342D01*
X107596428Y-75139342D02*
X107501190Y-75091723D01*
X107501190Y-75091723D02*
X107405952Y-75091723D01*
X107453571Y-75329819D02*
X107358333Y-75282200D01*
X107358333Y-75282200D02*
X107263095Y-75186961D01*
X107263095Y-75186961D02*
X107215476Y-74996485D01*
X107215476Y-74996485D02*
X107215476Y-74663152D01*
X107215476Y-74663152D02*
X107263095Y-74472676D01*
X107263095Y-74472676D02*
X107358333Y-74377438D01*
X107358333Y-74377438D02*
X107453571Y-74329819D01*
X107453571Y-74329819D02*
X107644047Y-74329819D01*
X107644047Y-74329819D02*
X107739285Y-74377438D01*
X107739285Y-74377438D02*
X107834523Y-74472676D01*
X107834523Y-74472676D02*
X107882142Y-74663152D01*
X107882142Y-74663152D02*
X107882142Y-74996485D01*
X107882142Y-74996485D02*
X107834523Y-75186961D01*
X107834523Y-75186961D02*
X107739285Y-75282200D01*
X107739285Y-75282200D02*
X107644047Y-75329819D01*
X107644047Y-75329819D02*
X107453571Y-75329819D01*
X108739285Y-74663152D02*
X108739285Y-75329819D01*
X108501190Y-74282200D02*
X108263095Y-74996485D01*
X108263095Y-74996485D02*
X108882142Y-74996485D01*
D12*
%TO.C,U2*%
X101940000Y-50637500D02*
X101940000Y-49837500D01*
X101940000Y-50637500D02*
X101940000Y-51437500D01*
X105060000Y-50637500D02*
X105060000Y-49837500D01*
X105060000Y-50637500D02*
X105060000Y-51437500D01*
X101990000Y-51937500D02*
X101660000Y-52177500D01*
X101660000Y-51697500D01*
X101990000Y-51937500D01*
G36*
X101990000Y-51937500D02*
G01*
X101660000Y-52177500D01*
X101660000Y-51697500D01*
X101990000Y-51937500D01*
G37*
%TO.C,R3*%
X79120000Y-49336359D02*
X79120000Y-49643641D01*
X79880000Y-49336359D02*
X79880000Y-49643641D01*
%TO.C,R5*%
X114918641Y-79245000D02*
X114611359Y-79245000D01*
X114918641Y-80005000D02*
X114611359Y-80005000D01*
%TO.C,5K 5K*%
X110570000Y-59163641D02*
X110570000Y-58856359D01*
X111330000Y-59163641D02*
X111330000Y-58856359D01*
%TO.C,R9*%
X105110000Y-59163641D02*
X105110000Y-58856359D01*
X105870000Y-59163641D02*
X105870000Y-58856359D01*
%TO.C,R7*%
X115296359Y-50120000D02*
X115603641Y-50120000D01*
X115296359Y-50880000D02*
X115603641Y-50880000D01*
%TO.C,R1*%
X116570000Y-55356359D02*
X116570000Y-55663641D01*
X117330000Y-55356359D02*
X117330000Y-55663641D01*
%TO.C,R11*%
X112895000Y-73268641D02*
X112895000Y-72961359D01*
X113655000Y-73268641D02*
X113655000Y-72961359D01*
%TO.C,C6*%
X112612836Y-70765000D02*
X112397164Y-70765000D01*
X112612836Y-71485000D02*
X112397164Y-71485000D01*
%TO.C,Q1*%
X75362500Y-54940000D02*
X74562500Y-54940000D01*
X75362500Y-54940000D02*
X76162500Y-54940000D01*
X75362500Y-58060000D02*
X74562500Y-58060000D01*
X75362500Y-58060000D02*
X76162500Y-58060000D01*
X74062500Y-54990000D02*
X73822500Y-54660000D01*
X74302500Y-54660000D01*
X74062500Y-54990000D01*
G36*
X74062500Y-54990000D02*
G01*
X73822500Y-54660000D01*
X74302500Y-54660000D01*
X74062500Y-54990000D01*
G37*
%TO.C,C1*%
X102362164Y-58640000D02*
X102577836Y-58640000D01*
X102362164Y-59360000D02*
X102577836Y-59360000D01*
%TO.C,D1*%
X79150000Y-56697500D02*
X79150000Y-54037500D01*
X79150000Y-56697500D02*
X80850000Y-56697500D01*
X80850000Y-56697500D02*
X80850000Y-54037500D01*
%TO.C,C2*%
X88640000Y-55509664D02*
X88640000Y-55725336D01*
X89360000Y-55509664D02*
X89360000Y-55725336D01*
%TO.C,U3*%
X110500000Y-48577500D02*
X109700000Y-48577500D01*
X110500000Y-48577500D02*
X111300000Y-48577500D01*
X110500000Y-52637500D02*
X109700000Y-52637500D01*
X110500000Y-52637500D02*
X111300000Y-52637500D01*
X109200000Y-48467500D02*
X108960000Y-48137500D01*
X109440000Y-48137500D01*
X109200000Y-48467500D01*
G36*
X109200000Y-48467500D02*
G01*
X108960000Y-48137500D01*
X109440000Y-48137500D01*
X109200000Y-48467500D01*
G37*
%TO.C,R6*%
X115593641Y-48620000D02*
X115286359Y-48620000D01*
X115593641Y-49380000D02*
X115286359Y-49380000D01*
%TO.C,C3*%
X88640000Y-50509664D02*
X88640000Y-50725336D01*
X89360000Y-50509664D02*
X89360000Y-50725336D01*
%TO.C,R2*%
X115593641Y-51757500D02*
X115286359Y-51757500D01*
X115593641Y-52517500D02*
X115286359Y-52517500D01*
%TO.C,R9*%
X108570000Y-59173641D02*
X108570000Y-58866359D01*
X109330000Y-59173641D02*
X109330000Y-58866359D01*
%TO.C,C7*%
X71140000Y-64852750D02*
X71140000Y-65068422D01*
X71860000Y-64852750D02*
X71860000Y-65068422D01*
%TO.C,R4*%
X114611359Y-80495000D02*
X114918641Y-80495000D01*
X114611359Y-81255000D02*
X114918641Y-81255000D01*
%TO.C,C9*%
X109915000Y-80462836D02*
X109915000Y-80247164D01*
X110635000Y-80462836D02*
X110635000Y-80247164D01*
%TO.C,Q6*%
X110965000Y-67395000D02*
X111625000Y-67395000D01*
X110965000Y-68805000D02*
X110965000Y-67395000D01*
X112625000Y-67395000D02*
X113285000Y-67395000D01*
X113285000Y-68805000D02*
X113285000Y-67395000D01*
X110985000Y-69175000D02*
X110655000Y-69415000D01*
X110655000Y-68935000D01*
X110985000Y-69175000D01*
G36*
X110985000Y-69175000D02*
G01*
X110655000Y-69415000D01*
X110655000Y-68935000D01*
X110985000Y-69175000D01*
G37*
%TO.C,Q3*%
X83820000Y-54787500D02*
X83820000Y-54127500D01*
X83820000Y-56447500D02*
X83820000Y-55787500D01*
X85230000Y-54127500D02*
X83820000Y-54127500D01*
X85230000Y-56447500D02*
X83820000Y-56447500D01*
X85840000Y-56757500D02*
X85360000Y-56757500D01*
X85600000Y-56427500D01*
X85840000Y-56757500D01*
G36*
X85840000Y-56757500D02*
G01*
X85360000Y-56757500D01*
X85600000Y-56427500D01*
X85840000Y-56757500D01*
G37*
%TO.C,J1*%
D10*
X67250000Y-91500000D02*
X121750000Y-91500000D01*
X121750000Y-96500000D01*
X67250000Y-96500000D01*
X67250000Y-91500000D01*
D13*
%TO.C,U5*%
X73903704Y-65919100D02*
X74575598Y-65919100D01*
X74575598Y-64064900D02*
X73903704Y-64064900D01*
D12*
%TO.C,R12*%
X115178641Y-70745000D02*
X114871359Y-70745000D01*
X115178641Y-71505000D02*
X114871359Y-71505000D01*
%TO.C,Q2*%
X73990000Y-49862500D02*
X73990000Y-49062500D01*
X73990000Y-49862500D02*
X73990000Y-50662500D01*
X77110000Y-49862500D02*
X77110000Y-49062500D01*
X77110000Y-49862500D02*
X77110000Y-50662500D01*
X74040000Y-51162500D02*
X73710000Y-51402500D01*
X73710000Y-50922500D01*
X74040000Y-51162500D01*
G36*
X74040000Y-51162500D02*
G01*
X73710000Y-51402500D01*
X73710000Y-50922500D01*
X74040000Y-51162500D01*
G37*
%TO.C,C5*%
X105087836Y-55640000D02*
X104872164Y-55640000D01*
X105087836Y-56360000D02*
X104872164Y-56360000D01*
%TO.C,Q5*%
X114662500Y-74765000D02*
X113862500Y-74765000D01*
X114662500Y-74765000D02*
X115462500Y-74765000D01*
X114662500Y-77885000D02*
X113862500Y-77885000D01*
X114662500Y-77885000D02*
X115462500Y-77885000D01*
X113362500Y-74815000D02*
X113122500Y-74485000D01*
X113602500Y-74485000D01*
X113362500Y-74815000D01*
G36*
X113362500Y-74815000D02*
G01*
X113122500Y-74485000D01*
X113602500Y-74485000D01*
X113362500Y-74815000D01*
G37*
%TO.C,C8*%
X76815000Y-65221838D02*
X76815000Y-64699334D01*
X78285000Y-65221838D02*
X78285000Y-64699334D01*
%TO.C,J2*%
D10*
X72000000Y-35500000D02*
X109500000Y-35500000D01*
X109500000Y-42500000D01*
X72000000Y-42500000D01*
X72000000Y-35500000D01*
D14*
%TO.C,U4*%
X111561100Y-79458560D02*
X111361100Y-79458560D01*
X111750000Y-81291440D02*
X111361100Y-81291440D01*
X113188900Y-79458560D02*
X112988900Y-79458560D01*
X113188900Y-81291440D02*
X112988900Y-81291440D01*
D12*
%TO.C,R8*%
X102286359Y-55620000D02*
X102593641Y-55620000D01*
X102286359Y-56380000D02*
X102593641Y-56380000D01*
%TO.C,R10*%
X111145000Y-73288641D02*
X111145000Y-72981359D01*
X111905000Y-73288641D02*
X111905000Y-72981359D01*
%TO.C,U1*%
X83940000Y-50500000D02*
X83940000Y-49700000D01*
X83940000Y-50500000D02*
X83940000Y-51300000D01*
X87060000Y-50500000D02*
X87060000Y-49700000D01*
X87060000Y-50500000D02*
X87060000Y-51300000D01*
X83990000Y-51800000D02*
X83660000Y-52040000D01*
X83660000Y-51560000D01*
X83990000Y-51800000D01*
G36*
X83990000Y-51800000D02*
G01*
X83660000Y-52040000D01*
X83660000Y-51560000D01*
X83990000Y-51800000D01*
G37*
%TO.C,C4*%
X114090000Y-55587836D02*
X114090000Y-55372164D01*
X114810000Y-55587836D02*
X114810000Y-55372164D01*
%TO.C,Q4*%
X110137500Y-74765000D02*
X109337500Y-74765000D01*
X110137500Y-74765000D02*
X110937500Y-74765000D01*
X110137500Y-77885000D02*
X109337500Y-77885000D01*
X110137500Y-77885000D02*
X110937500Y-77885000D01*
X111677500Y-78165000D02*
X111197500Y-78165000D01*
X111437500Y-77835000D01*
X111677500Y-78165000D01*
G36*
X111677500Y-78165000D02*
G01*
X111197500Y-78165000D01*
X111437500Y-77835000D01*
X111677500Y-78165000D01*
G37*
%TD*%
M02*
