%TF.GenerationSoftware,KiCad,Pcbnew,9.0.3*%
%TF.CreationDate,2025-08-17T21:24:33+09:00*%
%TF.ProjectId,accboard,61636362-6f61-4726-942e-6b696361645f,rev?*%
%TF.SameCoordinates,Original*%
%TF.FileFunction,Copper,L2,Bot*%
%TF.FilePolarity,Positive*%
%FSLAX46Y46*%
G04 Gerber Fmt 4.6, Leading zero omitted, Abs format (unit mm)*
G04 Created by KiCad (PCBNEW 9.0.3) date 2025-08-17 21:24:33*
%MOMM*%
%LPD*%
G01*
G04 APERTURE LIST*
%TA.AperFunction,ViaPad*%
%ADD10C,0.500000*%
%TD*%
%TA.AperFunction,Conductor*%
%ADD11C,0.500000*%
%TD*%
%TA.AperFunction,Conductor*%
%ADD12C,0.200000*%
%TD*%
%TA.AperFunction,Conductor*%
%ADD13C,0.300000*%
%TD*%
G04 APERTURE END LIST*
D10*
%TO.N,Net-(J7-PAD)*%
X83090000Y-78690000D03*
X109090000Y-73500000D03*
%TO.N,GND*%
X116720000Y-67970000D03*
X115060000Y-66450000D03*
X75990000Y-64070000D03*
X72440000Y-65260000D03*
X103690000Y-53950000D03*
X69750000Y-94000000D03*
X105490000Y-55240000D03*
X109400000Y-79870000D03*
X119250000Y-94000000D03*
%TO.N,Net-(U1-C+)*%
X87520000Y-50510000D03*
X84610000Y-48010000D03*
%TO.N,VBUS*%
X104050000Y-60120000D03*
X114750000Y-94000000D03*
X86437500Y-55937500D03*
X74250000Y-94000000D03*
%TO.N,D+*%
X77670000Y-45580000D03*
X101260000Y-92680000D03*
X92280000Y-90970000D03*
X92250000Y-92680000D03*
%TO.N,D-*%
X87750000Y-94000000D03*
X96750000Y-94000000D03*
X79030000Y-45610000D03*
X86510000Y-88760000D03*
%TO.N,Net-(J2-UART(3))*%
X116860000Y-49800000D03*
X97520000Y-44870000D03*
%TO.N,Net-(J2-IDBUS(8))*%
X113410000Y-50080000D03*
X80550000Y-47080000D03*
%TO.N,Net-(Q1-G)*%
X117420000Y-57520000D03*
X84460000Y-54790000D03*
%TO.N,Net-(Q1-D)*%
X80630000Y-50020000D03*
X113960000Y-52170000D03*
X76500000Y-55570000D03*
X76500000Y-52240000D03*
%TO.N,PMOS_GATE*%
X84110000Y-53350000D03*
X109370000Y-53040000D03*
%TO.N,3.3V*%
X109140000Y-78480000D03*
X114780000Y-78590000D03*
%TO.N,SIGNAL_1*%
X108090000Y-49950000D03*
X104850000Y-48110000D03*
%TO.N,SIGNAL_2*%
X107700000Y-50670000D03*
X105000000Y-50650000D03*
%TO.N,Net-(Q4-D)*%
X111150000Y-76360000D03*
X110740000Y-74180000D03*
%TD*%
D11*
%TO.N,GND*%
X72079000Y-91671000D02*
X118191000Y-91671000D01*
D12*
%TO.N,Net-(J7-PAD)*%
X88280000Y-73500000D02*
X83090000Y-78690000D01*
X109090000Y-73500000D02*
X88280000Y-73500000D01*
D13*
%TO.N,GND*%
X115200000Y-66450000D02*
X116720000Y-67970000D01*
X115060000Y-66450000D02*
X115200000Y-66450000D01*
D12*
X74800000Y-65260000D02*
X75990000Y-64070000D01*
X72440000Y-65260000D02*
X74800000Y-65260000D01*
D11*
X118191000Y-91671000D02*
X119250000Y-92730000D01*
D13*
X104630000Y-53950000D02*
X105440000Y-54760000D01*
D11*
X69750000Y-94000000D02*
X72079000Y-91671000D01*
D12*
X109400000Y-79870000D02*
X109400000Y-83440000D01*
X109400000Y-83440000D02*
X117631000Y-91671000D01*
X117631000Y-91671000D02*
X118191000Y-91671000D01*
D13*
X105440000Y-54760000D02*
X105440000Y-55190000D01*
X105440000Y-55190000D02*
X105490000Y-55240000D01*
X103690000Y-53950000D02*
X104630000Y-53950000D01*
D11*
X119250000Y-92730000D02*
X119250000Y-94000000D01*
D13*
%TO.N,Net-(U1-C+)*%
X87520000Y-50510000D02*
X87110000Y-50510000D01*
X87110000Y-50510000D02*
X84610000Y-48010000D01*
D11*
%TO.N,VBUS*%
X114750000Y-94460000D02*
X114750000Y-94000000D01*
D13*
X90400000Y-57290000D02*
X87840000Y-57290000D01*
D11*
X74250000Y-94000000D02*
X75310000Y-95060000D01*
X75310000Y-95060000D02*
X114150000Y-95060000D01*
D13*
X93230000Y-60120000D02*
X90400000Y-57290000D01*
X87840000Y-57290000D02*
X86487500Y-55937500D01*
X104050000Y-60120000D02*
X93230000Y-60120000D01*
D11*
X114150000Y-95060000D02*
X114750000Y-94460000D01*
D13*
X86487500Y-55937500D02*
X86437500Y-55937500D01*
%TO.N,D+*%
X91340000Y-90030000D02*
X92280000Y-90970000D01*
X86030000Y-90030000D02*
X91340000Y-90030000D01*
X77670000Y-45580000D02*
X77670000Y-81670000D01*
X77670000Y-81670000D02*
X86030000Y-90030000D01*
X92250000Y-92680000D02*
X101260000Y-92680000D01*
%TO.N,D-*%
X87750000Y-94000000D02*
X96750000Y-94000000D01*
X86510000Y-88750000D02*
X86510000Y-88760000D01*
X82470000Y-84710000D02*
X86510000Y-88750000D01*
X79030000Y-45610000D02*
X79030000Y-46750000D01*
X79030000Y-46750000D02*
X79030000Y-81270000D01*
X79030000Y-81270000D02*
X82470000Y-84710000D01*
%TO.N,Net-(J2-UART(3))*%
X98550000Y-45900000D02*
X97520000Y-44870000D01*
X105220000Y-45900000D02*
X98550000Y-45900000D01*
X116860000Y-49800000D02*
X114920000Y-49800000D01*
X112020000Y-46900000D02*
X111020000Y-45900000D01*
X111020000Y-45900000D02*
X105220000Y-45900000D01*
X114920000Y-49800000D02*
X112020000Y-46900000D01*
%TO.N,Net-(J2-IDBUS(8))*%
X110410000Y-47080000D02*
X80550000Y-47080000D01*
X113410000Y-50080000D02*
X110410000Y-47080000D01*
X80550000Y-47080000D02*
X80680000Y-47080000D01*
%TO.N,Net-(Q1-G)*%
X117420000Y-57520000D02*
X94020000Y-57520000D01*
X91290000Y-54790000D02*
X84460000Y-54790000D01*
X94020000Y-57520000D02*
X91290000Y-54790000D01*
%TO.N,Net-(Q1-D)*%
X82110000Y-51500000D02*
X80630000Y-50020000D01*
X113960000Y-52170000D02*
X113290000Y-51500000D01*
X76500000Y-52240000D02*
X76500000Y-55570000D01*
X113290000Y-51500000D02*
X82110000Y-51500000D01*
%TO.N,PMOS_GATE*%
X84110000Y-53350000D02*
X109060000Y-53350000D01*
X109060000Y-53350000D02*
X109370000Y-53040000D01*
D12*
%TO.N,3.3V*%
X109140000Y-78480000D02*
X114670000Y-78480000D01*
X114670000Y-78480000D02*
X114780000Y-78590000D01*
D13*
%TO.N,SIGNAL_1*%
X108090000Y-49950000D02*
X106160000Y-48020000D01*
X106160000Y-48020000D02*
X105120000Y-48020000D01*
X105120000Y-48020000D02*
X104940000Y-48020000D01*
X104940000Y-48020000D02*
X104850000Y-48110000D01*
%TO.N,SIGNAL_2*%
X107680000Y-50650000D02*
X107700000Y-50670000D01*
X105000000Y-50650000D02*
X107680000Y-50650000D01*
D12*
%TO.N,Net-(Q4-D)*%
X111150000Y-76360000D02*
X110740000Y-75950000D01*
X110740000Y-75950000D02*
X110740000Y-74180000D01*
%TD*%
%TA.AperFunction,Conductor*%
%TO.N,GND*%
G36*
X117269901Y-35250501D02*
G01*
X117329701Y-35250500D01*
X117341854Y-35251097D01*
X117350358Y-35251934D01*
X117421080Y-35258899D01*
X117444909Y-35263639D01*
X117515241Y-35284975D01*
X117537692Y-35294276D01*
X117602496Y-35328917D01*
X117622707Y-35342423D01*
X117684394Y-35393052D01*
X117693407Y-35401221D01*
X117695613Y-35403427D01*
X117695617Y-35403436D01*
X117695620Y-35403434D01*
X117741371Y-35449192D01*
X117741426Y-35449240D01*
X122099500Y-39807314D01*
X122806604Y-40514417D01*
X122848876Y-40556689D01*
X122857048Y-40565705D01*
X122907567Y-40627263D01*
X122921071Y-40647474D01*
X122955714Y-40712289D01*
X122965016Y-40734746D01*
X122986349Y-40805074D01*
X122991091Y-40828917D01*
X122998902Y-40908244D01*
X122999499Y-40920393D01*
X122999499Y-40951084D01*
X122999499Y-40980099D01*
X122999499Y-40980101D01*
X122999500Y-40990093D01*
X122999500Y-96993038D01*
X122998720Y-97006923D01*
X122988540Y-97097264D01*
X122982362Y-97124333D01*
X122954648Y-97203537D01*
X122942600Y-97228555D01*
X122897957Y-97299604D01*
X122880644Y-97321313D01*
X122821313Y-97380644D01*
X122799604Y-97397957D01*
X122728555Y-97442600D01*
X122703537Y-97454648D01*
X122624333Y-97482362D01*
X122597264Y-97488540D01*
X122517075Y-97497576D01*
X122506921Y-97498720D01*
X122493038Y-97499500D01*
X66756962Y-97499500D01*
X66743078Y-97498720D01*
X66730553Y-97497308D01*
X66652735Y-97488540D01*
X66625666Y-97482362D01*
X66546462Y-97454648D01*
X66521444Y-97442600D01*
X66450395Y-97397957D01*
X66428686Y-97380644D01*
X66369355Y-97321313D01*
X66352042Y-97299604D01*
X66307399Y-97228555D01*
X66295351Y-97203537D01*
X66267637Y-97124333D01*
X66261459Y-97097263D01*
X66251280Y-97006922D01*
X66250500Y-96993038D01*
X66250500Y-94073920D01*
X73499499Y-94073920D01*
X73528340Y-94218907D01*
X73528343Y-94218917D01*
X73565864Y-94309500D01*
X73584916Y-94355495D01*
X73598601Y-94375976D01*
X73605353Y-94386082D01*
X73667049Y-94478418D01*
X73667052Y-94478421D01*
X74004122Y-94815490D01*
X74727048Y-95538415D01*
X74727049Y-95538416D01*
X74831583Y-95642950D01*
X74831585Y-95642952D01*
X74954498Y-95725080D01*
X74954511Y-95725087D01*
X75091082Y-95781656D01*
X75091087Y-95781658D01*
X75091091Y-95781658D01*
X75091092Y-95781659D01*
X75236079Y-95810500D01*
X75236082Y-95810500D01*
X114223920Y-95810500D01*
X114321462Y-95791096D01*
X114368913Y-95781658D01*
X114505495Y-95725084D01*
X114554729Y-95692186D01*
X114628416Y-95642952D01*
X115332951Y-94938416D01*
X115397983Y-94841088D01*
X115415084Y-94815495D01*
X115471658Y-94678913D01*
X115500500Y-94533918D01*
X115500500Y-93926082D01*
X115500500Y-93926079D01*
X115471659Y-93781092D01*
X115471658Y-93781091D01*
X115471658Y-93781087D01*
X115471656Y-93781082D01*
X115415087Y-93644511D01*
X115415080Y-93644498D01*
X115332951Y-93521584D01*
X115332948Y-93521580D01*
X115228419Y-93417051D01*
X115228415Y-93417048D01*
X115105501Y-93334919D01*
X115105488Y-93334912D01*
X114968917Y-93278343D01*
X114968907Y-93278340D01*
X114823920Y-93249500D01*
X114823918Y-93249500D01*
X114676082Y-93249500D01*
X114676080Y-93249500D01*
X114531092Y-93278340D01*
X114531082Y-93278343D01*
X114394511Y-93334912D01*
X114394498Y-93334919D01*
X114271584Y-93417048D01*
X114271580Y-93417051D01*
X114167051Y-93521580D01*
X114167048Y-93521584D01*
X114084919Y-93644498D01*
X114084912Y-93644511D01*
X114028343Y-93781082D01*
X114028340Y-93781092D01*
X113999500Y-93926079D01*
X113999500Y-94097770D01*
X113990855Y-94127210D01*
X113984332Y-94157197D01*
X113980577Y-94162212D01*
X113979815Y-94164809D01*
X113963181Y-94185451D01*
X113875451Y-94273181D01*
X113814128Y-94306666D01*
X113787770Y-94309500D01*
X97604734Y-94309500D01*
X97537695Y-94289815D01*
X97491940Y-94237011D01*
X97481996Y-94167853D01*
X97483117Y-94161308D01*
X97500500Y-94073920D01*
X97500500Y-93926079D01*
X97471659Y-93781092D01*
X97471658Y-93781091D01*
X97471658Y-93781087D01*
X97471656Y-93781082D01*
X97415087Y-93644511D01*
X97415080Y-93644498D01*
X97334159Y-93523391D01*
X97313281Y-93456713D01*
X97331766Y-93389333D01*
X97383745Y-93342643D01*
X97437261Y-93330500D01*
X100846160Y-93330500D01*
X100898520Y-93343614D01*
X100898878Y-93342753D01*
X100904504Y-93345083D01*
X100904505Y-93345084D01*
X101041087Y-93401658D01*
X101041091Y-93401658D01*
X101041092Y-93401659D01*
X101186079Y-93430500D01*
X101186082Y-93430500D01*
X101333920Y-93430500D01*
X101431462Y-93411096D01*
X101478913Y-93401658D01*
X101615495Y-93345084D01*
X101738416Y-93262951D01*
X101842951Y-93158416D01*
X101925084Y-93035495D01*
X101981658Y-92898913D01*
X102010500Y-92753918D01*
X102010500Y-92606082D01*
X102010500Y-92606079D01*
X101981659Y-92461092D01*
X101981658Y-92461091D01*
X101981658Y-92461087D01*
X101981656Y-92461082D01*
X101925087Y-92324511D01*
X101925080Y-92324498D01*
X101842951Y-92201584D01*
X101842948Y-92201580D01*
X101738419Y-92097051D01*
X101738415Y-92097048D01*
X101615501Y-92014919D01*
X101615488Y-92014912D01*
X101478917Y-91958343D01*
X101478907Y-91958340D01*
X101333920Y-91929500D01*
X101333918Y-91929500D01*
X101186082Y-91929500D01*
X101186080Y-91929500D01*
X101041092Y-91958340D01*
X101041086Y-91958342D01*
X100898878Y-92017247D01*
X100898520Y-92016385D01*
X100846160Y-92029500D01*
X92663840Y-92029500D01*
X92621727Y-92022130D01*
X92609900Y-92017859D01*
X92605495Y-92014916D01*
X92468913Y-91958342D01*
X92415825Y-91947781D01*
X92407049Y-91944613D01*
X92386083Y-91929258D01*
X92363058Y-91917214D01*
X92358351Y-91908949D01*
X92350679Y-91903330D01*
X92341343Y-91879078D01*
X92328485Y-91856498D01*
X92328994Y-91847001D01*
X92325577Y-91838125D01*
X92330834Y-91812674D01*
X92332226Y-91786728D01*
X92337788Y-91779013D01*
X92339713Y-91769700D01*
X92357894Y-91751133D01*
X92373093Y-91730057D01*
X92382934Y-91725562D01*
X92388597Y-91719780D01*
X92402609Y-91716577D01*
X92424967Y-91706367D01*
X92498913Y-91691658D01*
X92635495Y-91635084D01*
X92758416Y-91552951D01*
X92862951Y-91448416D01*
X92945084Y-91325495D01*
X93001658Y-91188913D01*
X93030500Y-91043918D01*
X93030500Y-90896082D01*
X93030500Y-90896079D01*
X93001659Y-90751092D01*
X93001658Y-90751091D01*
X93001658Y-90751087D01*
X92972420Y-90680500D01*
X92945087Y-90614511D01*
X92945080Y-90614498D01*
X92862951Y-90491584D01*
X92862948Y-90491580D01*
X92758419Y-90387051D01*
X92758415Y-90387048D01*
X92635501Y-90304919D01*
X92635488Y-90304912D01*
X92493286Y-90246011D01*
X92493643Y-90245149D01*
X92447344Y-90217398D01*
X91754674Y-89524727D01*
X91754673Y-89524726D01*
X91754669Y-89524723D01*
X91648127Y-89453535D01*
X91529744Y-89404499D01*
X91529738Y-89404497D01*
X91404071Y-89379500D01*
X91404069Y-89379500D01*
X87230670Y-89379500D01*
X87163631Y-89359815D01*
X87117876Y-89307011D01*
X87107932Y-89237853D01*
X87127568Y-89186609D01*
X87175080Y-89115501D01*
X87175080Y-89115500D01*
X87175084Y-89115495D01*
X87231658Y-88978913D01*
X87260500Y-88833918D01*
X87260500Y-88686082D01*
X87260500Y-88686079D01*
X87231659Y-88541092D01*
X87231658Y-88541091D01*
X87231658Y-88541087D01*
X87231656Y-88541082D01*
X87175087Y-88404511D01*
X87175080Y-88404498D01*
X87092951Y-88281584D01*
X87092948Y-88281580D01*
X86988419Y-88177051D01*
X86988415Y-88177048D01*
X86865501Y-88094919D01*
X86865492Y-88094914D01*
X86733561Y-88040267D01*
X86693333Y-88013387D01*
X79716819Y-81036873D01*
X79683334Y-80975550D01*
X79680500Y-80949192D01*
X79680500Y-78763920D01*
X82339499Y-78763920D01*
X82368340Y-78908907D01*
X82368343Y-78908917D01*
X82424912Y-79045488D01*
X82424919Y-79045501D01*
X82507048Y-79168415D01*
X82507051Y-79168419D01*
X82611580Y-79272948D01*
X82611584Y-79272951D01*
X82734498Y-79355080D01*
X82734511Y-79355087D01*
X82871082Y-79411656D01*
X82871087Y-79411658D01*
X82871091Y-79411658D01*
X82871092Y-79411659D01*
X83016079Y-79440500D01*
X83016082Y-79440500D01*
X83163920Y-79440500D01*
X83261462Y-79421096D01*
X83308913Y-79411658D01*
X83445495Y-79355084D01*
X83568416Y-79272951D01*
X83672951Y-79168416D01*
X83755084Y-79045495D01*
X83811658Y-78908913D01*
X83826999Y-78831786D01*
X83859381Y-78769879D01*
X83860876Y-78768357D01*
X84075313Y-78553920D01*
X108389499Y-78553920D01*
X108418340Y-78698907D01*
X108418343Y-78698917D01*
X108474912Y-78835488D01*
X108474919Y-78835501D01*
X108557048Y-78958415D01*
X108557051Y-78958419D01*
X108661580Y-79062948D01*
X108661584Y-79062951D01*
X108784498Y-79145080D01*
X108784511Y-79145087D01*
X108851784Y-79172952D01*
X108921087Y-79201658D01*
X108921091Y-79201658D01*
X108921092Y-79201659D01*
X109066079Y-79230500D01*
X109066082Y-79230500D01*
X109213920Y-79230500D01*
X109311462Y-79211096D01*
X109358913Y-79201658D01*
X109495495Y-79145084D01*
X109560876Y-79101398D01*
X109627553Y-79080520D01*
X109629767Y-79080500D01*
X114157771Y-79080500D01*
X114224810Y-79100185D01*
X114245447Y-79116814D01*
X114273713Y-79145080D01*
X114301585Y-79172952D01*
X114424498Y-79255080D01*
X114424511Y-79255087D01*
X114561082Y-79311656D01*
X114561087Y-79311658D01*
X114561091Y-79311658D01*
X114561092Y-79311659D01*
X114706079Y-79340500D01*
X114706082Y-79340500D01*
X114853920Y-79340500D01*
X114951462Y-79321096D01*
X114998913Y-79311658D01*
X115135495Y-79255084D01*
X115258416Y-79172951D01*
X115362951Y-79068416D01*
X115445084Y-78945495D01*
X115501658Y-78808913D01*
X115530500Y-78663918D01*
X115530500Y-78516082D01*
X115530500Y-78516079D01*
X115501659Y-78371092D01*
X115501658Y-78371091D01*
X115501658Y-78371087D01*
X115486505Y-78334505D01*
X115445087Y-78234511D01*
X115445080Y-78234498D01*
X115362951Y-78111584D01*
X115362948Y-78111580D01*
X115258419Y-78007051D01*
X115258415Y-78007048D01*
X115135501Y-77924919D01*
X115135488Y-77924912D01*
X114998917Y-77868343D01*
X114998907Y-77868340D01*
X114853920Y-77839500D01*
X114853918Y-77839500D01*
X114706082Y-77839500D01*
X114706080Y-77839500D01*
X114561092Y-77868340D01*
X114561086Y-77868342D01*
X114558573Y-77869382D01*
X114556938Y-77870060D01*
X114509485Y-77879500D01*
X109629767Y-77879500D01*
X109562728Y-77859815D01*
X109560876Y-77858602D01*
X109495501Y-77814919D01*
X109495488Y-77814912D01*
X109358917Y-77758343D01*
X109358907Y-77758340D01*
X109213920Y-77729500D01*
X109213918Y-77729500D01*
X109066082Y-77729500D01*
X109066080Y-77729500D01*
X108921092Y-77758340D01*
X108921082Y-77758343D01*
X108784511Y-77814912D01*
X108784498Y-77814919D01*
X108661584Y-77897048D01*
X108661580Y-77897051D01*
X108557051Y-78001580D01*
X108557048Y-78001584D01*
X108474919Y-78124498D01*
X108474912Y-78124511D01*
X108418343Y-78261082D01*
X108418340Y-78261092D01*
X108389500Y-78406079D01*
X108389500Y-78406082D01*
X108389500Y-78553918D01*
X108389500Y-78553920D01*
X108389499Y-78553920D01*
X84075313Y-78553920D01*
X88375315Y-74253920D01*
X109989499Y-74253920D01*
X110018340Y-74398907D01*
X110018343Y-74398917D01*
X110074912Y-74535488D01*
X110074919Y-74535501D01*
X110118602Y-74600876D01*
X110139480Y-74667553D01*
X110139500Y-74669767D01*
X110139500Y-75863330D01*
X110139499Y-75863348D01*
X110139499Y-76029054D01*
X110139498Y-76029054D01*
X110180423Y-76181785D01*
X110209358Y-76231900D01*
X110209359Y-76231904D01*
X110209360Y-76231904D01*
X110259480Y-76318716D01*
X110371284Y-76430520D01*
X110371285Y-76430521D01*
X110377633Y-76436869D01*
X110379070Y-76438306D01*
X110392863Y-76463571D01*
X110394512Y-76462747D01*
X110394513Y-76462749D01*
X110392864Y-76463573D01*
X110398487Y-76473871D01*
X110412549Y-76499624D01*
X110413000Y-76501789D01*
X110428341Y-76578908D01*
X110428343Y-76578917D01*
X110484912Y-76715488D01*
X110484919Y-76715501D01*
X110567048Y-76838415D01*
X110567051Y-76838419D01*
X110671580Y-76942948D01*
X110671584Y-76942951D01*
X110794498Y-77025080D01*
X110794511Y-77025087D01*
X110931082Y-77081656D01*
X110931087Y-77081658D01*
X110931091Y-77081658D01*
X110931092Y-77081659D01*
X111076079Y-77110500D01*
X111076082Y-77110500D01*
X111223920Y-77110500D01*
X111321462Y-77091096D01*
X111368913Y-77081658D01*
X111505495Y-77025084D01*
X111628416Y-76942951D01*
X111732951Y-76838416D01*
X111815084Y-76715495D01*
X111871658Y-76578913D01*
X111894765Y-76462749D01*
X111900500Y-76433920D01*
X111900500Y-76286079D01*
X111871659Y-76141092D01*
X111871658Y-76141091D01*
X111871658Y-76141087D01*
X111825253Y-76029054D01*
X111815087Y-76004511D01*
X111815080Y-76004498D01*
X111732951Y-75881584D01*
X111732948Y-75881580D01*
X111628419Y-75777051D01*
X111628415Y-75777048D01*
X111505501Y-75694919D01*
X111505491Y-75694914D01*
X111417047Y-75658279D01*
X111362644Y-75614438D01*
X111340579Y-75548143D01*
X111340500Y-75543718D01*
X111340500Y-74669767D01*
X111360185Y-74602728D01*
X111361398Y-74600876D01*
X111405080Y-74535501D01*
X111405080Y-74535500D01*
X111405084Y-74535495D01*
X111461658Y-74398913D01*
X111490500Y-74253918D01*
X111490500Y-74106082D01*
X111490500Y-74106079D01*
X111461659Y-73961092D01*
X111461658Y-73961091D01*
X111461658Y-73961087D01*
X111417923Y-73855501D01*
X111405087Y-73824511D01*
X111405080Y-73824498D01*
X111322951Y-73701584D01*
X111322948Y-73701580D01*
X111218419Y-73597051D01*
X111218415Y-73597048D01*
X111095501Y-73514919D01*
X111095488Y-73514912D01*
X110958917Y-73458343D01*
X110958907Y-73458340D01*
X110813920Y-73429500D01*
X110813918Y-73429500D01*
X110666082Y-73429500D01*
X110666080Y-73429500D01*
X110521092Y-73458340D01*
X110521082Y-73458343D01*
X110384511Y-73514912D01*
X110384498Y-73514919D01*
X110261584Y-73597048D01*
X110261580Y-73597051D01*
X110157051Y-73701580D01*
X110157048Y-73701584D01*
X110074919Y-73824498D01*
X110074912Y-73824511D01*
X110018343Y-73961082D01*
X110018340Y-73961092D01*
X109989500Y-74106079D01*
X109989500Y-74106082D01*
X109989500Y-74253918D01*
X109989500Y-74253920D01*
X109989499Y-74253920D01*
X88375315Y-74253920D01*
X88492416Y-74136819D01*
X88553739Y-74103334D01*
X88580097Y-74100500D01*
X108600233Y-74100500D01*
X108667272Y-74120185D01*
X108669124Y-74121398D01*
X108734498Y-74165080D01*
X108734511Y-74165087D01*
X108871082Y-74221656D01*
X108871087Y-74221658D01*
X108871091Y-74221658D01*
X108871092Y-74221659D01*
X109016079Y-74250500D01*
X109016082Y-74250500D01*
X109163920Y-74250500D01*
X109261462Y-74231096D01*
X109308913Y-74221658D01*
X109445495Y-74165084D01*
X109568416Y-74082951D01*
X109568419Y-74082948D01*
X109639059Y-74012309D01*
X109672948Y-73978419D01*
X109672951Y-73978416D01*
X109755084Y-73855495D01*
X109811658Y-73718913D01*
X109821096Y-73671462D01*
X109840500Y-73573920D01*
X109840500Y-73426079D01*
X109811659Y-73281092D01*
X109811658Y-73281091D01*
X109811658Y-73281087D01*
X109811656Y-73281082D01*
X109755087Y-73144511D01*
X109755080Y-73144498D01*
X109672951Y-73021584D01*
X109672948Y-73021580D01*
X109568419Y-72917051D01*
X109568415Y-72917048D01*
X109445501Y-72834919D01*
X109445488Y-72834912D01*
X109308917Y-72778343D01*
X109308907Y-72778340D01*
X109163920Y-72749500D01*
X109163918Y-72749500D01*
X109016082Y-72749500D01*
X109016080Y-72749500D01*
X108871092Y-72778340D01*
X108871082Y-72778343D01*
X108734511Y-72834912D01*
X108734498Y-72834919D01*
X108669124Y-72878602D01*
X108602447Y-72899480D01*
X108600233Y-72899500D01*
X88200940Y-72899500D01*
X88160019Y-72910464D01*
X88160019Y-72910465D01*
X88135448Y-72917049D01*
X88048214Y-72940423D01*
X88048209Y-72940426D01*
X87911290Y-73019475D01*
X87911282Y-73019481D01*
X87799478Y-73131286D01*
X83011699Y-77919064D01*
X82950376Y-77952549D01*
X82948210Y-77953000D01*
X82871092Y-77968340D01*
X82871084Y-77968342D01*
X82734511Y-78024912D01*
X82734498Y-78024919D01*
X82611584Y-78107048D01*
X82611580Y-78107051D01*
X82507051Y-78211580D01*
X82507048Y-78211584D01*
X82424919Y-78334498D01*
X82424912Y-78334511D01*
X82368343Y-78471082D01*
X82368340Y-78471092D01*
X82339500Y-78616079D01*
X82339500Y-78616082D01*
X82339500Y-78763918D01*
X82339500Y-78763920D01*
X82339499Y-78763920D01*
X79680500Y-78763920D01*
X79680500Y-50312243D01*
X79700185Y-50245204D01*
X79752989Y-50199449D01*
X79822147Y-50189505D01*
X79885703Y-50218530D01*
X79919061Y-50264791D01*
X79964912Y-50375488D01*
X79964919Y-50375501D01*
X80047048Y-50498415D01*
X80047051Y-50498419D01*
X80151580Y-50602948D01*
X80151584Y-50602951D01*
X80274498Y-50685080D01*
X80274511Y-50685087D01*
X80416715Y-50743989D01*
X80416357Y-50744853D01*
X80462655Y-50772601D01*
X81695325Y-52005272D01*
X81695328Y-52005275D01*
X81695331Y-52005277D01*
X81762648Y-52050256D01*
X81801873Y-52076465D01*
X81920256Y-52125501D01*
X81920260Y-52125501D01*
X81920261Y-52125502D01*
X82045928Y-52150500D01*
X82045931Y-52150500D01*
X108941593Y-52150500D01*
X109008632Y-52170185D01*
X109054387Y-52222989D01*
X109064331Y-52292147D01*
X109035306Y-52355703D01*
X109010484Y-52377602D01*
X108891584Y-52457048D01*
X108891580Y-52457051D01*
X108787048Y-52561583D01*
X108731719Y-52644391D01*
X108678107Y-52689196D01*
X108628617Y-52699500D01*
X84523840Y-52699500D01*
X84471479Y-52686385D01*
X84471122Y-52687247D01*
X84465495Y-52684916D01*
X84328913Y-52628342D01*
X84328907Y-52628340D01*
X84183920Y-52599500D01*
X84183918Y-52599500D01*
X84036082Y-52599500D01*
X84036080Y-52599500D01*
X83891092Y-52628340D01*
X83891082Y-52628343D01*
X83754511Y-52684912D01*
X83754498Y-52684919D01*
X83631584Y-52767048D01*
X83631580Y-52767051D01*
X83527051Y-52871580D01*
X83527048Y-52871584D01*
X83444919Y-52994498D01*
X83444912Y-52994511D01*
X83388343Y-53131082D01*
X83388340Y-53131092D01*
X83359500Y-53276079D01*
X83359500Y-53276082D01*
X83359500Y-53423918D01*
X83359500Y-53423920D01*
X83359499Y-53423920D01*
X83388340Y-53568907D01*
X83388343Y-53568917D01*
X83444912Y-53705488D01*
X83444919Y-53705501D01*
X83527048Y-53828415D01*
X83527051Y-53828419D01*
X83631580Y-53932948D01*
X83631584Y-53932951D01*
X83754498Y-54015080D01*
X83754510Y-54015087D01*
X83818612Y-54041638D01*
X83879361Y-54066801D01*
X83933764Y-54110640D01*
X83955829Y-54176934D01*
X83938550Y-54244634D01*
X83919590Y-54269041D01*
X83877052Y-54311579D01*
X83877048Y-54311584D01*
X83794919Y-54434498D01*
X83794912Y-54434511D01*
X83738343Y-54571082D01*
X83738340Y-54571092D01*
X83709500Y-54716079D01*
X83709500Y-54716082D01*
X83709500Y-54863918D01*
X83709500Y-54863920D01*
X83709499Y-54863920D01*
X83738340Y-55008907D01*
X83738343Y-55008917D01*
X83794912Y-55145488D01*
X83794919Y-55145501D01*
X83877048Y-55268415D01*
X83877051Y-55268419D01*
X83981580Y-55372948D01*
X83981584Y-55372951D01*
X84104498Y-55455080D01*
X84104511Y-55455087D01*
X84203483Y-55496082D01*
X84241087Y-55511658D01*
X84241091Y-55511658D01*
X84241092Y-55511659D01*
X84386079Y-55540500D01*
X84386082Y-55540500D01*
X84533920Y-55540500D01*
X84631462Y-55521096D01*
X84678913Y-55511658D01*
X84815495Y-55455084D01*
X84815496Y-55455083D01*
X84821122Y-55452753D01*
X84821479Y-55453614D01*
X84873840Y-55440500D01*
X85645450Y-55440500D01*
X85712489Y-55460185D01*
X85758244Y-55512989D01*
X85768188Y-55582147D01*
X85760011Y-55611952D01*
X85715843Y-55718582D01*
X85715840Y-55718592D01*
X85687000Y-55863579D01*
X85687000Y-55863582D01*
X85687000Y-56011418D01*
X85687000Y-56011420D01*
X85686999Y-56011420D01*
X85715840Y-56156407D01*
X85715843Y-56156417D01*
X85772412Y-56292988D01*
X85772419Y-56293001D01*
X85854548Y-56415915D01*
X85854551Y-56415919D01*
X85959080Y-56520448D01*
X85959084Y-56520451D01*
X86081998Y-56602580D01*
X86082011Y-56602587D01*
X86198597Y-56650878D01*
X86218587Y-56659158D01*
X86269857Y-56669356D01*
X86331766Y-56701740D01*
X86333346Y-56703292D01*
X87425325Y-57795272D01*
X87425326Y-57795273D01*
X87425329Y-57795275D01*
X87425331Y-57795277D01*
X87531873Y-57866465D01*
X87650256Y-57915501D01*
X87650260Y-57915501D01*
X87650261Y-57915502D01*
X87775928Y-57940500D01*
X87775931Y-57940500D01*
X90079192Y-57940500D01*
X90146231Y-57960185D01*
X90166873Y-57976819D01*
X92815330Y-60625276D01*
X92815335Y-60625280D01*
X92839181Y-60641213D01*
X92839183Y-60641214D01*
X92839185Y-60641215D01*
X92921873Y-60696465D01*
X93040256Y-60745501D01*
X93040260Y-60745501D01*
X93040261Y-60745502D01*
X93165928Y-60770500D01*
X93165931Y-60770500D01*
X103636160Y-60770500D01*
X103688520Y-60783614D01*
X103688878Y-60782753D01*
X103694504Y-60785083D01*
X103694505Y-60785084D01*
X103831087Y-60841658D01*
X103831091Y-60841658D01*
X103831092Y-60841659D01*
X103976079Y-60870500D01*
X103976082Y-60870500D01*
X104123920Y-60870500D01*
X104221462Y-60851096D01*
X104268913Y-60841658D01*
X104405495Y-60785084D01*
X104528416Y-60702951D01*
X104632951Y-60598416D01*
X104715084Y-60475495D01*
X104771658Y-60338913D01*
X104800500Y-60193918D01*
X104800500Y-60046082D01*
X104800500Y-60046079D01*
X104771659Y-59901092D01*
X104771658Y-59901091D01*
X104771658Y-59901087D01*
X104771656Y-59901082D01*
X104715087Y-59764511D01*
X104715080Y-59764498D01*
X104632951Y-59641584D01*
X104632948Y-59641580D01*
X104528419Y-59537051D01*
X104528415Y-59537048D01*
X104405501Y-59454919D01*
X104405488Y-59454912D01*
X104268917Y-59398343D01*
X104268907Y-59398340D01*
X104123920Y-59369500D01*
X104123918Y-59369500D01*
X103976082Y-59369500D01*
X103976080Y-59369500D01*
X103831092Y-59398340D01*
X103831086Y-59398342D01*
X103688878Y-59457247D01*
X103688520Y-59456385D01*
X103636160Y-59469500D01*
X93550808Y-59469500D01*
X93483769Y-59449815D01*
X93463127Y-59433181D01*
X90814674Y-56784727D01*
X90814673Y-56784726D01*
X90814669Y-56784723D01*
X90708127Y-56713535D01*
X90683398Y-56703292D01*
X90589744Y-56664499D01*
X90589738Y-56664497D01*
X90464071Y-56639500D01*
X90464069Y-56639500D01*
X88160808Y-56639500D01*
X88093769Y-56619815D01*
X88073127Y-56603181D01*
X87155827Y-55685881D01*
X87151195Y-55678949D01*
X87146956Y-55676006D01*
X87128947Y-55645653D01*
X87114987Y-55611950D01*
X87107519Y-55542483D01*
X87138794Y-55480004D01*
X87198883Y-55444352D01*
X87229549Y-55440500D01*
X90969192Y-55440500D01*
X91036231Y-55460185D01*
X91056873Y-55476819D01*
X93605325Y-58025272D01*
X93605326Y-58025273D01*
X93605329Y-58025275D01*
X93605331Y-58025277D01*
X93711873Y-58096465D01*
X93830256Y-58145501D01*
X93830260Y-58145501D01*
X93830261Y-58145502D01*
X93955928Y-58170500D01*
X93955931Y-58170500D01*
X117006160Y-58170500D01*
X117058520Y-58183614D01*
X117058878Y-58182753D01*
X117064504Y-58185083D01*
X117064505Y-58185084D01*
X117201087Y-58241658D01*
X117201091Y-58241658D01*
X117201092Y-58241659D01*
X117346079Y-58270500D01*
X117346082Y-58270500D01*
X117493920Y-58270500D01*
X117591462Y-58251096D01*
X117638913Y-58241658D01*
X117775495Y-58185084D01*
X117898416Y-58102951D01*
X118002951Y-57998416D01*
X118085084Y-57875495D01*
X118141658Y-57738913D01*
X118170500Y-57593918D01*
X118170500Y-57446082D01*
X118170500Y-57446079D01*
X118141659Y-57301092D01*
X118141658Y-57301091D01*
X118141658Y-57301087D01*
X118141656Y-57301082D01*
X118085087Y-57164511D01*
X118085080Y-57164498D01*
X118002951Y-57041584D01*
X118002948Y-57041580D01*
X117898419Y-56937051D01*
X117898415Y-56937048D01*
X117775501Y-56854919D01*
X117775488Y-56854912D01*
X117638917Y-56798343D01*
X117638907Y-56798340D01*
X117493920Y-56769500D01*
X117493918Y-56769500D01*
X117346082Y-56769500D01*
X117346080Y-56769500D01*
X117201092Y-56798340D01*
X117201086Y-56798342D01*
X117058878Y-56857247D01*
X117058520Y-56856385D01*
X117006160Y-56869500D01*
X94340808Y-56869500D01*
X94273769Y-56849815D01*
X94253127Y-56833181D01*
X91704674Y-54284727D01*
X91704673Y-54284726D01*
X91704669Y-54284723D01*
X91619180Y-54227602D01*
X91574375Y-54173990D01*
X91565668Y-54104666D01*
X91595822Y-54041638D01*
X91655265Y-54004918D01*
X91688071Y-54000500D01*
X109124071Y-54000500D01*
X109208615Y-53983682D01*
X109249744Y-53975501D01*
X109368127Y-53926465D01*
X109474669Y-53855277D01*
X109537345Y-53792600D01*
X109583642Y-53764853D01*
X109583285Y-53763989D01*
X109725488Y-53705087D01*
X109725488Y-53705086D01*
X109725495Y-53705084D01*
X109848416Y-53622951D01*
X109952951Y-53518416D01*
X110035084Y-53395495D01*
X110091658Y-53258913D01*
X110120500Y-53113918D01*
X110120500Y-52966082D01*
X110120500Y-52966079D01*
X110091659Y-52821092D01*
X110091658Y-52821091D01*
X110091658Y-52821087D01*
X110069275Y-52767049D01*
X110035087Y-52684511D01*
X110035080Y-52684498D01*
X109952951Y-52561584D01*
X109952948Y-52561580D01*
X109848419Y-52457051D01*
X109848415Y-52457048D01*
X109729516Y-52377602D01*
X109684711Y-52323990D01*
X109676004Y-52254665D01*
X109706158Y-52191637D01*
X109765602Y-52154918D01*
X109798407Y-52150500D01*
X112969192Y-52150500D01*
X112998632Y-52159144D01*
X113028619Y-52165668D01*
X113033634Y-52169422D01*
X113036231Y-52170185D01*
X113056873Y-52186819D01*
X113207398Y-52337344D01*
X113235149Y-52383643D01*
X113236011Y-52383286D01*
X113294912Y-52525488D01*
X113294919Y-52525501D01*
X113377048Y-52648415D01*
X113377051Y-52648419D01*
X113481580Y-52752948D01*
X113481584Y-52752951D01*
X113604498Y-52835080D01*
X113604511Y-52835087D01*
X113741082Y-52891656D01*
X113741087Y-52891658D01*
X113741091Y-52891658D01*
X113741092Y-52891659D01*
X113886079Y-52920500D01*
X113886082Y-52920500D01*
X114033920Y-52920500D01*
X114131462Y-52901096D01*
X114178913Y-52891658D01*
X114315495Y-52835084D01*
X114438416Y-52752951D01*
X114542951Y-52648416D01*
X114625084Y-52525495D01*
X114681658Y-52388913D01*
X114695696Y-52318342D01*
X114710500Y-52243920D01*
X114710500Y-52096079D01*
X114681659Y-51951092D01*
X114681658Y-51951091D01*
X114681658Y-51951087D01*
X114681656Y-51951082D01*
X114625087Y-51814511D01*
X114625080Y-51814498D01*
X114542951Y-51691584D01*
X114542948Y-51691580D01*
X114438419Y-51587051D01*
X114438415Y-51587048D01*
X114315501Y-51504919D01*
X114315488Y-51504912D01*
X114173286Y-51446011D01*
X114173643Y-51445149D01*
X114127344Y-51417398D01*
X113704674Y-50994727D01*
X113704673Y-50994726D01*
X113704669Y-50994723D01*
X113690198Y-50985054D01*
X113645395Y-50931444D01*
X113636687Y-50862119D01*
X113666841Y-50799091D01*
X113711636Y-50767393D01*
X113765495Y-50745084D01*
X113888416Y-50662951D01*
X113992951Y-50558416D01*
X114075084Y-50435495D01*
X114131658Y-50298913D01*
X114147340Y-50220074D01*
X114179724Y-50158164D01*
X114240440Y-50123590D01*
X114310209Y-50127329D01*
X114356638Y-50156585D01*
X114505327Y-50305274D01*
X114594220Y-50364670D01*
X114611872Y-50376464D01*
X114611875Y-50376466D01*
X114638692Y-50387574D01*
X114730256Y-50425501D01*
X114730260Y-50425501D01*
X114730261Y-50425502D01*
X114855928Y-50450500D01*
X114855931Y-50450500D01*
X116446160Y-50450500D01*
X116498520Y-50463614D01*
X116498878Y-50462753D01*
X116504504Y-50465083D01*
X116504505Y-50465084D01*
X116641087Y-50521658D01*
X116641091Y-50521658D01*
X116641092Y-50521659D01*
X116786079Y-50550500D01*
X116786082Y-50550500D01*
X116933920Y-50550500D01*
X117031462Y-50531096D01*
X117078913Y-50521658D01*
X117215495Y-50465084D01*
X117338416Y-50382951D01*
X117442951Y-50278416D01*
X117525084Y-50155495D01*
X117581658Y-50018913D01*
X117599931Y-49927051D01*
X117610500Y-49873920D01*
X117610500Y-49726079D01*
X117581659Y-49581092D01*
X117581658Y-49581091D01*
X117581658Y-49581087D01*
X117581656Y-49581082D01*
X117525087Y-49444511D01*
X117525080Y-49444498D01*
X117442951Y-49321584D01*
X117442948Y-49321580D01*
X117338419Y-49217051D01*
X117338415Y-49217048D01*
X117215501Y-49134919D01*
X117215488Y-49134912D01*
X117078917Y-49078343D01*
X117078907Y-49078340D01*
X116933920Y-49049500D01*
X116933918Y-49049500D01*
X116786082Y-49049500D01*
X116786080Y-49049500D01*
X116641092Y-49078340D01*
X116641086Y-49078342D01*
X116498878Y-49137247D01*
X116498520Y-49136385D01*
X116446160Y-49149500D01*
X115240808Y-49149500D01*
X115173769Y-49129815D01*
X115153127Y-49113181D01*
X112434669Y-46394723D01*
X111434674Y-45394727D01*
X111434673Y-45394726D01*
X111434669Y-45394723D01*
X111328127Y-45323535D01*
X111209744Y-45274499D01*
X111209738Y-45274497D01*
X111084071Y-45249500D01*
X111084069Y-45249500D01*
X105284069Y-45249500D01*
X98870808Y-45249500D01*
X98803769Y-45229815D01*
X98783127Y-45213181D01*
X98272601Y-44702655D01*
X98244853Y-44656357D01*
X98243989Y-44656715D01*
X98185087Y-44514511D01*
X98185080Y-44514498D01*
X98102951Y-44391584D01*
X98102948Y-44391580D01*
X97998419Y-44287051D01*
X97998415Y-44287048D01*
X97875501Y-44204919D01*
X97875488Y-44204912D01*
X97738917Y-44148343D01*
X97738907Y-44148340D01*
X97593920Y-44119500D01*
X97593918Y-44119500D01*
X97446082Y-44119500D01*
X97446080Y-44119500D01*
X97301092Y-44148340D01*
X97301082Y-44148343D01*
X97164511Y-44204912D01*
X97164498Y-44204919D01*
X97041584Y-44287048D01*
X97041580Y-44287051D01*
X96937051Y-44391580D01*
X96937048Y-44391584D01*
X96854919Y-44514498D01*
X96854912Y-44514511D01*
X96798343Y-44651082D01*
X96798340Y-44651092D01*
X96769500Y-44796079D01*
X96769500Y-44796082D01*
X96769500Y-44943918D01*
X96769500Y-44943920D01*
X96769499Y-44943920D01*
X96798340Y-45088907D01*
X96798343Y-45088917D01*
X96854912Y-45225488D01*
X96854919Y-45225501D01*
X96937048Y-45348415D01*
X96937051Y-45348419D01*
X97041580Y-45452948D01*
X97041584Y-45452951D01*
X97164498Y-45535080D01*
X97164511Y-45535087D01*
X97306715Y-45593989D01*
X97306357Y-45594853D01*
X97352655Y-45622601D01*
X97947872Y-46217819D01*
X97981357Y-46279142D01*
X97976373Y-46348834D01*
X97934501Y-46404767D01*
X97869037Y-46429184D01*
X97860191Y-46429500D01*
X80963840Y-46429500D01*
X80911479Y-46416385D01*
X80911122Y-46417247D01*
X80905495Y-46414916D01*
X80768913Y-46358342D01*
X80768907Y-46358340D01*
X80623920Y-46329500D01*
X80623918Y-46329500D01*
X80476082Y-46329500D01*
X80476080Y-46329500D01*
X80331092Y-46358340D01*
X80331082Y-46358343D01*
X80194511Y-46414912D01*
X80194498Y-46414919D01*
X80071584Y-46497048D01*
X80071580Y-46497051D01*
X79967051Y-46601580D01*
X79967048Y-46601584D01*
X79907602Y-46690552D01*
X79853990Y-46735357D01*
X79784665Y-46744064D01*
X79721637Y-46713910D01*
X79684918Y-46654467D01*
X79680500Y-46621661D01*
X79680500Y-46023840D01*
X79693616Y-45971481D01*
X79692753Y-45971124D01*
X79751656Y-45828917D01*
X79751658Y-45828913D01*
X79780500Y-45683918D01*
X79780500Y-45536082D01*
X79780500Y-45536079D01*
X79751659Y-45391092D01*
X79751658Y-45391091D01*
X79751658Y-45391087D01*
X79739230Y-45361082D01*
X79695087Y-45254511D01*
X79695080Y-45254498D01*
X79612951Y-45131584D01*
X79612948Y-45131580D01*
X79508419Y-45027051D01*
X79508415Y-45027048D01*
X79385501Y-44944919D01*
X79385488Y-44944912D01*
X79248917Y-44888343D01*
X79248907Y-44888340D01*
X79103920Y-44859500D01*
X79103918Y-44859500D01*
X78956082Y-44859500D01*
X78956080Y-44859500D01*
X78811092Y-44888340D01*
X78811082Y-44888343D01*
X78674511Y-44944912D01*
X78674498Y-44944919D01*
X78551584Y-45027048D01*
X78449551Y-45129081D01*
X78388228Y-45162565D01*
X78318536Y-45157581D01*
X78262603Y-45115709D01*
X78258766Y-45110287D01*
X78252950Y-45101582D01*
X78148419Y-44997051D01*
X78148415Y-44997048D01*
X78025501Y-44914919D01*
X78025488Y-44914912D01*
X77888917Y-44858343D01*
X77888907Y-44858340D01*
X77743920Y-44829500D01*
X77743918Y-44829500D01*
X77596082Y-44829500D01*
X77596080Y-44829500D01*
X77451092Y-44858340D01*
X77451082Y-44858343D01*
X77314511Y-44914912D01*
X77314498Y-44914919D01*
X77191584Y-44997048D01*
X77191580Y-44997051D01*
X77087051Y-45101580D01*
X77087048Y-45101584D01*
X77004919Y-45224498D01*
X77004912Y-45224511D01*
X76948343Y-45361082D01*
X76948340Y-45361092D01*
X76919500Y-45506079D01*
X76919500Y-45506082D01*
X76919500Y-45653918D01*
X76919500Y-45653920D01*
X76919499Y-45653920D01*
X76948340Y-45798907D01*
X76948343Y-45798917D01*
X77007247Y-45941124D01*
X77006383Y-45941481D01*
X77019500Y-45993840D01*
X77019500Y-51457269D01*
X76999815Y-51524308D01*
X76947011Y-51570063D01*
X76877853Y-51580007D01*
X76848048Y-51571830D01*
X76718917Y-51518343D01*
X76718907Y-51518340D01*
X76573920Y-51489500D01*
X76573918Y-51489500D01*
X76426082Y-51489500D01*
X76426080Y-51489500D01*
X76281092Y-51518340D01*
X76281082Y-51518343D01*
X76144511Y-51574912D01*
X76144498Y-51574919D01*
X76021584Y-51657048D01*
X76021580Y-51657051D01*
X75917051Y-51761580D01*
X75917048Y-51761584D01*
X75834919Y-51884498D01*
X75834912Y-51884511D01*
X75778343Y-52021082D01*
X75778340Y-52021092D01*
X75749500Y-52166079D01*
X75749500Y-52166082D01*
X75749500Y-52313918D01*
X75749500Y-52313920D01*
X75749499Y-52313920D01*
X75778340Y-52458907D01*
X75778343Y-52458917D01*
X75837247Y-52601124D01*
X75836383Y-52601481D01*
X75849500Y-52653840D01*
X75849500Y-55156160D01*
X75836385Y-55208520D01*
X75837247Y-55208878D01*
X75778342Y-55351086D01*
X75778340Y-55351092D01*
X75749500Y-55496079D01*
X75749500Y-55496082D01*
X75749500Y-55643918D01*
X75749500Y-55643920D01*
X75749499Y-55643920D01*
X75778340Y-55788907D01*
X75778343Y-55788917D01*
X75834912Y-55925488D01*
X75834919Y-55925501D01*
X75917048Y-56048415D01*
X75917051Y-56048419D01*
X76021580Y-56152948D01*
X76021584Y-56152951D01*
X76144498Y-56235080D01*
X76144511Y-56235087D01*
X76250873Y-56279143D01*
X76281087Y-56291658D01*
X76281091Y-56291658D01*
X76281092Y-56291659D01*
X76426079Y-56320500D01*
X76426082Y-56320500D01*
X76573920Y-56320500D01*
X76712161Y-56293001D01*
X76718913Y-56291658D01*
X76848047Y-56238168D01*
X76917517Y-56230700D01*
X76979996Y-56261975D01*
X77015648Y-56322064D01*
X77019500Y-56352730D01*
X77019500Y-81734069D01*
X77027697Y-81775275D01*
X77027697Y-81775277D01*
X77044497Y-81859736D01*
X77044499Y-81859744D01*
X77093534Y-81978125D01*
X77164726Y-82084673D01*
X85615327Y-90535274D01*
X85615330Y-90535276D01*
X85645345Y-90555331D01*
X85721873Y-90606465D01*
X85840256Y-90655501D01*
X85840260Y-90655501D01*
X85840261Y-90655502D01*
X85965928Y-90680500D01*
X85965931Y-90680500D01*
X91019192Y-90680500D01*
X91086231Y-90700185D01*
X91106873Y-90716819D01*
X91527398Y-91137344D01*
X91555149Y-91183643D01*
X91556011Y-91183286D01*
X91614912Y-91325488D01*
X91614919Y-91325501D01*
X91697048Y-91448415D01*
X91697051Y-91448419D01*
X91801580Y-91552948D01*
X91801584Y-91552951D01*
X91924498Y-91635080D01*
X91924511Y-91635087D01*
X92061082Y-91691656D01*
X92061087Y-91691658D01*
X92083439Y-91696104D01*
X92105028Y-91700399D01*
X92166939Y-91732784D01*
X92201513Y-91793500D01*
X92197774Y-91863269D01*
X92156907Y-91919941D01*
X92105029Y-91943633D01*
X92031092Y-91958340D01*
X92031082Y-91958343D01*
X91894511Y-92014912D01*
X91894498Y-92014919D01*
X91771584Y-92097048D01*
X91771580Y-92097051D01*
X91667051Y-92201580D01*
X91667048Y-92201584D01*
X91584919Y-92324498D01*
X91584912Y-92324511D01*
X91528343Y-92461082D01*
X91528340Y-92461092D01*
X91499500Y-92606079D01*
X91499500Y-92606082D01*
X91499500Y-92753918D01*
X91499500Y-92753920D01*
X91499499Y-92753920D01*
X91528340Y-92898907D01*
X91528343Y-92898917D01*
X91584912Y-93035488D01*
X91584919Y-93035501D01*
X91665841Y-93156609D01*
X91686719Y-93223287D01*
X91668234Y-93290667D01*
X91616255Y-93337357D01*
X91562739Y-93349500D01*
X88163840Y-93349500D01*
X88111479Y-93336385D01*
X88111122Y-93337247D01*
X88105495Y-93334916D01*
X87968913Y-93278342D01*
X87968907Y-93278340D01*
X87823920Y-93249500D01*
X87823918Y-93249500D01*
X87676082Y-93249500D01*
X87676080Y-93249500D01*
X87531092Y-93278340D01*
X87531082Y-93278343D01*
X87394511Y-93334912D01*
X87394498Y-93334919D01*
X87271584Y-93417048D01*
X87271580Y-93417051D01*
X87167051Y-93521580D01*
X87167048Y-93521584D01*
X87084919Y-93644498D01*
X87084912Y-93644511D01*
X87028343Y-93781082D01*
X87028340Y-93781092D01*
X86999500Y-93926079D01*
X86999500Y-93926082D01*
X86999500Y-94073918D01*
X86999500Y-94073920D01*
X86999499Y-94073920D01*
X87016883Y-94161308D01*
X87010656Y-94230900D01*
X86967793Y-94286077D01*
X86901904Y-94309322D01*
X86895266Y-94309500D01*
X75672229Y-94309500D01*
X75605190Y-94289815D01*
X75584548Y-94273181D01*
X74728421Y-93417052D01*
X74728414Y-93417046D01*
X74654729Y-93367812D01*
X74654729Y-93367813D01*
X74605491Y-93334913D01*
X74468917Y-93278343D01*
X74468907Y-93278340D01*
X74323920Y-93249500D01*
X74323918Y-93249500D01*
X74176082Y-93249500D01*
X74176080Y-93249500D01*
X74031092Y-93278340D01*
X74031086Y-93278342D01*
X73894508Y-93334914D01*
X73894496Y-93334921D01*
X73845269Y-93367813D01*
X73771588Y-93417044D01*
X73667046Y-93521586D01*
X73645751Y-93553457D01*
X73624455Y-93585331D01*
X73604685Y-93614918D01*
X73584916Y-93644504D01*
X73584912Y-93644511D01*
X73528343Y-93781082D01*
X73528340Y-93781092D01*
X73499500Y-93926079D01*
X73499500Y-93926082D01*
X73499500Y-94073918D01*
X73499500Y-94073920D01*
X73499499Y-94073920D01*
X66250500Y-94073920D01*
X66250500Y-61480102D01*
X66250501Y-61480099D01*
X66250500Y-61420294D01*
X66251097Y-61408145D01*
X66258899Y-61328917D01*
X66263638Y-61305092D01*
X66284976Y-61234754D01*
X66294274Y-61212310D01*
X66328920Y-61147497D01*
X66342419Y-61127296D01*
X66393070Y-61065583D01*
X66401218Y-61056594D01*
X66402990Y-61054823D01*
X66402996Y-61054819D01*
X66402995Y-61054818D01*
X66443374Y-61014446D01*
X66443375Y-61014443D01*
X66449832Y-61007988D01*
X66449875Y-61007937D01*
X67047104Y-60410707D01*
X67047109Y-60410704D01*
X67057312Y-60400500D01*
X67057314Y-60400500D01*
X70457607Y-57000207D01*
X70457607Y-57000206D01*
X70463644Y-56994170D01*
X70463797Y-56993994D01*
X70480523Y-56977271D01*
X70480523Y-56977270D01*
X70480527Y-56977267D01*
X70600278Y-56821219D01*
X70698635Y-56650874D01*
X70773914Y-56469147D01*
X70824826Y-56279148D01*
X70850500Y-56084130D01*
X70850500Y-55985779D01*
X70850500Y-55984669D01*
X70850500Y-36480102D01*
X70850501Y-36480099D01*
X70850500Y-36420294D01*
X70851097Y-36408145D01*
X70858899Y-36328917D01*
X70863638Y-36305092D01*
X70884976Y-36234754D01*
X70894274Y-36212310D01*
X70928920Y-36147497D01*
X70942419Y-36127296D01*
X70993070Y-36065583D01*
X71001218Y-36056594D01*
X71003429Y-36054384D01*
X71003435Y-36054380D01*
X71003434Y-36054379D01*
X71043374Y-36014446D01*
X71043375Y-36014443D01*
X71049832Y-36007988D01*
X71049875Y-36007937D01*
X71656699Y-35401113D01*
X71665695Y-35392959D01*
X71727270Y-35342427D01*
X71747466Y-35328932D01*
X71812293Y-35294283D01*
X71834737Y-35284986D01*
X71905084Y-35263647D01*
X71928907Y-35258909D01*
X72008248Y-35251096D01*
X72020395Y-35250500D01*
X72080099Y-35250501D01*
X72080103Y-35250500D01*
X117269897Y-35250500D01*
X117269901Y-35250501D01*
G37*
%TD.AperFunction*%
%TD*%
%TA.AperFunction,NonConductor*%
G36*
X110156231Y-47750185D02*
G01*
X110176873Y-47766819D01*
X112657398Y-50247344D01*
X112685149Y-50293643D01*
X112686011Y-50293286D01*
X112744912Y-50435488D01*
X112744919Y-50435501D01*
X112827048Y-50558415D01*
X112827051Y-50558419D01*
X112906451Y-50637819D01*
X112939936Y-50699142D01*
X112934952Y-50768834D01*
X112893080Y-50824767D01*
X112827616Y-50849184D01*
X112818770Y-50849500D01*
X108574500Y-50849500D01*
X108565814Y-50846949D01*
X108556853Y-50848238D01*
X108532812Y-50837259D01*
X108507461Y-50829815D01*
X108501533Y-50822974D01*
X108493297Y-50819213D01*
X108479007Y-50796978D01*
X108461706Y-50777011D01*
X108459418Y-50766496D01*
X108455523Y-50760435D01*
X108450500Y-50725500D01*
X108450500Y-50678018D01*
X108470185Y-50610979D01*
X108505606Y-50574918D01*
X108568416Y-50532951D01*
X108672951Y-50428416D01*
X108755084Y-50305495D01*
X108811658Y-50168913D01*
X108840500Y-50023918D01*
X108840500Y-49876082D01*
X108840500Y-49876079D01*
X108811659Y-49731092D01*
X108811658Y-49731091D01*
X108811658Y-49731087D01*
X108809584Y-49726079D01*
X108755087Y-49594511D01*
X108755080Y-49594498D01*
X108672951Y-49471584D01*
X108672948Y-49471580D01*
X108568419Y-49367051D01*
X108568415Y-49367048D01*
X108445501Y-49284919D01*
X108445488Y-49284912D01*
X108303286Y-49226011D01*
X108303642Y-49225150D01*
X108257342Y-49197397D01*
X107002127Y-47942181D01*
X106968642Y-47880858D01*
X106973626Y-47811166D01*
X107015498Y-47755233D01*
X107080962Y-47730816D01*
X107089808Y-47730500D01*
X110089192Y-47730500D01*
X110156231Y-47750185D01*
G37*
%TD.AperFunction*%
%TA.AperFunction,NonConductor*%
G36*
X104035726Y-47738094D02*
G01*
X104062380Y-47742171D01*
X104068751Y-47747792D01*
X104076900Y-47750185D01*
X104094550Y-47770555D01*
X104114773Y-47788397D01*
X104117093Y-47796570D01*
X104122655Y-47802989D01*
X104126491Y-47829671D01*
X104133856Y-47855610D01*
X104131982Y-47867860D01*
X104132599Y-47872147D01*
X104128521Y-47890499D01*
X104128339Y-47891096D01*
X104099500Y-48036079D01*
X104099500Y-48036082D01*
X104099500Y-48183918D01*
X104099500Y-48183920D01*
X104099499Y-48183920D01*
X104128340Y-48328907D01*
X104128343Y-48328917D01*
X104184912Y-48465488D01*
X104184919Y-48465501D01*
X104267048Y-48588415D01*
X104267051Y-48588419D01*
X104371580Y-48692948D01*
X104371584Y-48692951D01*
X104494498Y-48775080D01*
X104494511Y-48775087D01*
X104631082Y-48831656D01*
X104631087Y-48831658D01*
X104631091Y-48831658D01*
X104631092Y-48831659D01*
X104776079Y-48860500D01*
X104776082Y-48860500D01*
X104923920Y-48860500D01*
X105021462Y-48841096D01*
X105068913Y-48831658D01*
X105205495Y-48775084D01*
X105265705Y-48734853D01*
X105330741Y-48691398D01*
X105397419Y-48670520D01*
X105399632Y-48670500D01*
X105839192Y-48670500D01*
X105906231Y-48690185D01*
X105926873Y-48706819D01*
X106541638Y-49321584D01*
X107007874Y-49787819D01*
X107041359Y-49849142D01*
X107036375Y-49918834D01*
X106994503Y-49974767D01*
X106929039Y-49999184D01*
X106920193Y-49999500D01*
X105413840Y-49999500D01*
X105361479Y-49986385D01*
X105361122Y-49987247D01*
X105355495Y-49984916D01*
X105218913Y-49928342D01*
X105218907Y-49928340D01*
X105073920Y-49899500D01*
X105073918Y-49899500D01*
X104926082Y-49899500D01*
X104926080Y-49899500D01*
X104781092Y-49928340D01*
X104781082Y-49928343D01*
X104644511Y-49984912D01*
X104644498Y-49984919D01*
X104521584Y-50067048D01*
X104521580Y-50067051D01*
X104417051Y-50171580D01*
X104417048Y-50171584D01*
X104334919Y-50294498D01*
X104334912Y-50294511D01*
X104278343Y-50431082D01*
X104278340Y-50431092D01*
X104249500Y-50576079D01*
X104249500Y-50725500D01*
X104229815Y-50792539D01*
X104177011Y-50838294D01*
X104125500Y-50849500D01*
X88368766Y-50849500D01*
X88301727Y-50829815D01*
X88255972Y-50777011D01*
X88246028Y-50707853D01*
X88247149Y-50701308D01*
X88270500Y-50583920D01*
X88270500Y-50436079D01*
X88241659Y-50291092D01*
X88241658Y-50291091D01*
X88241658Y-50291087D01*
X88211604Y-50218530D01*
X88185087Y-50154511D01*
X88185080Y-50154498D01*
X88102951Y-50031584D01*
X88102948Y-50031580D01*
X87998419Y-49927051D01*
X87998415Y-49927048D01*
X87875501Y-49844919D01*
X87875488Y-49844912D01*
X87738917Y-49788343D01*
X87738907Y-49788340D01*
X87593920Y-49759500D01*
X87593918Y-49759500D01*
X87446082Y-49759500D01*
X87446080Y-49759500D01*
X87372099Y-49774216D01*
X87302507Y-49767989D01*
X87260226Y-49740280D01*
X85462127Y-47942181D01*
X85428642Y-47880858D01*
X85433626Y-47811166D01*
X85475498Y-47755233D01*
X85540962Y-47730816D01*
X85549808Y-47730500D01*
X104009861Y-47730500D01*
X104035726Y-47738094D01*
G37*
%TD.AperFunction*%
%TA.AperFunction,NonConductor*%
G36*
X79885703Y-47444625D02*
G01*
X79907602Y-47469448D01*
X79967045Y-47558411D01*
X79967051Y-47558419D01*
X80071580Y-47662948D01*
X80071584Y-47662951D01*
X80194498Y-47745080D01*
X80194511Y-47745087D01*
X80299072Y-47788397D01*
X80331087Y-47801658D01*
X80331091Y-47801658D01*
X80331092Y-47801659D01*
X80476079Y-47830500D01*
X80476082Y-47830500D01*
X80623920Y-47830500D01*
X80721462Y-47811096D01*
X80768913Y-47801658D01*
X80905495Y-47745084D01*
X80905496Y-47745083D01*
X80911122Y-47742753D01*
X80911479Y-47743614D01*
X80963840Y-47730500D01*
X83749298Y-47730500D01*
X83816337Y-47750185D01*
X83862092Y-47802989D01*
X83872036Y-47872147D01*
X83870915Y-47878691D01*
X83859500Y-47936077D01*
X83859500Y-47936082D01*
X83859500Y-48083918D01*
X83859500Y-48083920D01*
X83859499Y-48083920D01*
X83888340Y-48228907D01*
X83888343Y-48228917D01*
X83944912Y-48365488D01*
X83944919Y-48365501D01*
X84027048Y-48488415D01*
X84027051Y-48488419D01*
X84131580Y-48592948D01*
X84131584Y-48592951D01*
X84254498Y-48675080D01*
X84254511Y-48675087D01*
X84396715Y-48733989D01*
X84396357Y-48734853D01*
X84442655Y-48762601D01*
X86317873Y-50637819D01*
X86351358Y-50699142D01*
X86346374Y-50768834D01*
X86304502Y-50824767D01*
X86239038Y-50849184D01*
X86230192Y-50849500D01*
X82430808Y-50849500D01*
X82363769Y-50829815D01*
X82343127Y-50813181D01*
X81382601Y-49852655D01*
X81354853Y-49806357D01*
X81353989Y-49806715D01*
X81295087Y-49664511D01*
X81295080Y-49664498D01*
X81212951Y-49541584D01*
X81212948Y-49541580D01*
X81108419Y-49437051D01*
X81108415Y-49437048D01*
X80985501Y-49354919D01*
X80985488Y-49354912D01*
X80848917Y-49298343D01*
X80848907Y-49298340D01*
X80703920Y-49269500D01*
X80703918Y-49269500D01*
X80556082Y-49269500D01*
X80556080Y-49269500D01*
X80411092Y-49298340D01*
X80411082Y-49298343D01*
X80274511Y-49354912D01*
X80274498Y-49354919D01*
X80151584Y-49437048D01*
X80151580Y-49437051D01*
X80047051Y-49541580D01*
X80047048Y-49541584D01*
X79964919Y-49664498D01*
X79964914Y-49664507D01*
X79919061Y-49775209D01*
X79875220Y-49829612D01*
X79808926Y-49851677D01*
X79741227Y-49834398D01*
X79693616Y-49783261D01*
X79680500Y-49727756D01*
X79680500Y-47538338D01*
X79700185Y-47471299D01*
X79752989Y-47425544D01*
X79822147Y-47415600D01*
X79885703Y-47444625D01*
G37*
%TD.AperFunction*%
M02*
