M48
; DRILL file {KiCad 9.0.3} date 2025-08-17T21:24:30+0900
; FORMAT={-:-/ absolute / metric / decimal}
; #@! TF.CreationDate,2025-08-17T21:24:30+09:00
; #@! TF.GenerationSoftware,Kicad,Pcbnew,9.0.3
; #@! TF.FileFunction,Plated,1,2,PTH
FMAT,2
METRIC
; #@! TA.AperFunction,Plated,PTH,ViaDrill
T1C0.300
%
G90
G05
T1
X69.75Y-94.0
X72.44Y-65.26
X74.25Y-94.0
X75.99Y-64.07
X76.5Y-52.24
X76.5Y-55.57
X77.67Y-45.58
X79.03Y-45.61
X80.55Y-47.08
X80.63Y-50.02
X83.09Y-78.69
X84.11Y-53.35
X84.46Y-54.79
X84.61Y-48.01
X86.438Y-55.938
X86.51Y-88.76
X87.52Y-50.51
X87.75Y-94.0
X92.25Y-92.68
X92.28Y-90.97
X96.75Y-94.0
X97.52Y-44.87
X101.26Y-92.68
X103.69Y-53.95
X104.05Y-60.12
X104.85Y-48.11
X105.0Y-50.65
X105.49Y-55.24
X107.7Y-50.67
X108.09Y-49.95
X109.09Y-73.5
X109.14Y-78.48
X109.37Y-53.04
X109.4Y-79.87
X110.74Y-74.18
X111.15Y-76.36
X113.41Y-50.08
X113.96Y-52.17
X114.75Y-94.0
X114.78Y-78.59
X115.06Y-66.45
X116.72Y-67.97
X116.86Y-49.8
X117.42Y-57.52
X119.25Y-94.0
M30
